<svg width="320" height="581" viewBox="0 0 320 581" fill="none" xmlns="http://www.w3.org/2000/svg">
<g opacity="0.8">
<rect x="126.523" width="198" height="550" rx="8" transform="rotate(13.2995 126.523 0)" fill="#F4F4F7"/>
<rect x="138.414" y="19.2515" width="166" height="120.5" rx="12" transform="rotate(13.2995 138.414 19.2515)" fill="#E5E6ED"/>
<g clip-path="url(#clip0_935_7135)">
<path d="M205.482 96.3303C209.961 97.389 214.45 94.6164 215.509 90.1375C216.567 85.6585 213.795 81.1694 209.316 80.1106C204.837 79.0519 200.348 81.8245 199.289 86.3034C198.23 90.7824 201.003 95.2716 205.482 96.3303Z" stroke="#B1B1BE" stroke-width="2" stroke-linecap="round" stroke-linejoin="round"/>
<path d="M208.166 84.9766L206.632 91.4644" stroke="#B1B1BE" stroke-width="2" stroke-linecap="round" stroke-linejoin="round"/>
<path d="M204.155 87.4536L210.643 88.9872" stroke="#B1B1BE" stroke-width="2" stroke-linecap="round" stroke-linejoin="round"/>
</g>
<path d="M185.246 101.653C184.806 103.463 185.418 105.559 186.771 106.661L185.893 107.369C184.917 106.53 184.327 105.181 184.206 103.707C183.399 105.058 182.215 106.066 180.909 106.396L180.444 105.358C182.196 104.978 183.72 103.267 184.162 101.397L184.575 99.6517L185.658 99.9078L185.246 101.653ZM190.274 100.096L189.311 104.167L190.954 104.555L190.735 105.479L189.093 105.091L187.858 110.314L186.775 110.058L189.19 99.8397L190.274 100.096ZM195.689 103.628C195.376 104.95 196.063 106.425 197.518 107.299L196.76 108.011C195.677 107.346 194.977 106.331 194.762 105.203C194.038 106.206 192.923 106.869 191.602 107.009L191.245 106.021C192.957 105.86 194.251 104.769 194.594 103.369L194.699 102.924L192.407 102.382L192.614 101.504L198.248 102.836L198.04 103.714L195.794 103.183L195.689 103.628ZM200.877 102.614L199.114 110.073L198.031 109.817L199.794 102.358L200.877 102.614ZM199.031 111.799L198.824 112.677L191.833 111.025L192.598 107.786L193.693 108.045L193.135 110.406L199.031 111.799ZM213.212 112.021L213.002 112.91L208.873 111.934L208.121 115.116L207.049 114.863L207.801 111.681L203.684 110.708L203.895 109.818L213.212 112.021ZM213.487 106.884L213.28 107.762L210.052 106.999C209.848 108.143 211.127 109.607 213.014 110.312L212.421 111.087C210.833 110.471 209.618 109.371 209.209 108.172C208.292 109.069 206.705 109.495 205.008 109.335L204.814 108.374C206.817 108.588 208.622 107.877 208.969 106.743L205.73 105.977L205.937 105.099L209.176 105.864L209.467 104.633L210.539 104.886L210.248 106.118L213.487 106.884ZM223.404 107.927L222.441 111.998L224.027 112.373L223.814 113.274L222.228 112.899L220.991 118.134L219.908 117.878L222.32 107.671L223.404 107.927ZM220.482 108.368C219.772 111.319 217.849 113.646 214.091 114.516L213.686 113.529C216.549 112.857 218.377 111.339 219.162 109.008L215.502 108.142L215.715 107.241L220.482 108.368Z" fill="#B1B1BE"/>
<rect x="107.934" y="148.198" width="166" height="120.5" rx="12" transform="rotate(13.2995 107.934 148.198)" fill="#E5E6ED"/>
<g clip-path="url(#clip1_935_7135)">
<path d="M175.001 225.277C179.48 226.336 183.97 223.563 185.028 219.084C186.087 214.605 183.314 210.116 178.835 209.057C174.356 207.998 169.867 210.771 168.809 215.25C167.75 219.729 170.522 224.218 175.001 225.277Z" stroke="#B1B1BE" stroke-width="2" stroke-linecap="round" stroke-linejoin="round"/>
<path d="M177.686 213.923L176.152 220.411" stroke="#B1B1BE" stroke-width="2" stroke-linecap="round" stroke-linejoin="round"/>
<path d="M173.675 216.4L180.163 217.934" stroke="#B1B1BE" stroke-width="2" stroke-linecap="round" stroke-linejoin="round"/>
</g>
<path d="M154.765 230.599C154.325 232.41 154.938 234.505 156.291 235.608L155.413 236.316C154.437 235.477 153.847 234.127 153.726 232.654C152.919 234.004 151.735 235.013 150.429 235.342L149.964 234.305C151.715 233.924 153.24 232.213 153.682 230.343L154.094 228.598L155.178 228.854L154.765 230.599ZM159.793 229.042L158.831 233.114L160.473 233.502L160.255 234.426L158.613 234.037L157.378 239.261L156.294 239.005L158.71 228.786L159.793 229.042ZM165.208 232.574C164.895 233.897 165.582 235.372 167.038 236.246L166.279 236.958C165.196 236.292 164.497 235.278 164.282 234.149C163.557 235.152 162.443 235.816 161.121 235.955L160.765 234.968C162.477 234.806 163.77 233.715 164.113 232.315L164.218 231.871L161.926 231.329L162.134 230.451L167.767 231.782L167.56 232.66L165.313 232.129L165.208 232.574ZM170.397 231.561L168.634 239.019L167.55 238.763L169.313 231.305L170.397 231.561ZM168.551 240.746L168.343 241.624L161.352 239.971L162.118 236.733L163.213 236.991L162.655 239.352L168.551 240.746ZM182.732 240.967L182.521 241.857L178.393 240.881L177.641 244.063L176.569 243.809L177.321 240.627L173.204 239.654L173.414 238.765L182.732 240.967ZM183.007 235.83L182.799 236.708L179.572 235.945C179.368 237.089 180.647 238.554 182.533 239.258L181.941 240.034C180.353 239.417 179.137 238.317 178.728 237.119C177.812 238.016 176.224 238.441 174.528 238.281L174.334 237.32C176.336 237.535 178.142 236.824 178.488 235.689L175.249 234.924L175.457 234.045L178.696 234.811L178.987 233.579L180.059 233.833L179.768 235.064L183.007 235.83ZM192.923 236.874L191.961 240.945L193.546 241.32L193.333 242.221L191.748 241.846L190.511 247.081L189.427 246.825L191.84 236.618L192.923 236.874ZM190.001 237.315C189.292 240.266 187.369 242.593 183.611 243.463L183.206 242.476C186.068 241.804 187.896 240.285 188.682 237.954L185.021 237.089L185.234 236.188L190.001 237.315Z" fill="#B1B1BE"/>
<rect x="77.4531" y="277.145" width="166" height="120.5" rx="12" transform="rotate(13.2995 77.4531 277.145)" fill="#E5E6ED"/>
<g clip-path="url(#clip2_935_7135)">
<path d="M144.521 354.223C149 355.282 153.489 352.509 154.548 348.031C155.607 343.552 152.834 339.062 148.355 338.004C143.876 336.945 139.387 339.718 138.328 344.197C137.269 348.675 140.042 353.165 144.521 354.223Z" stroke="#B1B1BE" stroke-width="2" stroke-linecap="round" stroke-linejoin="round"/>
<path d="M147.205 342.87L145.671 349.358" stroke="#B1B1BE" stroke-width="2" stroke-linecap="round" stroke-linejoin="round"/>
<path d="M143.194 345.347L149.682 346.88" stroke="#B1B1BE" stroke-width="2" stroke-linecap="round" stroke-linejoin="round"/>
</g>
<path d="M124.285 359.546C123.845 361.356 124.457 363.452 125.81 364.554L124.932 365.262C123.957 364.423 123.366 363.074 123.245 361.6C122.438 362.951 121.254 363.959 119.948 364.289L119.483 363.252C121.235 362.871 122.759 361.16 123.201 359.29L123.614 357.545L124.697 357.801L124.285 359.546ZM129.313 357.989L128.35 362.06L129.993 362.448L129.774 363.372L128.132 362.984L126.897 368.207L125.814 367.951L128.229 357.733L129.313 357.989ZM134.728 361.521C134.415 362.844 135.102 364.318 136.557 365.192L135.799 365.904C134.716 365.239 134.016 364.224 133.801 363.096C133.077 364.099 131.962 364.762 130.641 364.902L130.284 363.914C131.996 363.753 133.29 362.662 133.633 361.262L133.738 360.817L131.446 360.275L131.653 359.397L137.287 360.729L137.079 361.607L134.833 361.076L134.728 361.521ZM139.916 360.507L138.153 367.966L137.07 367.71L138.833 360.251L139.916 360.507ZM138.07 369.692L137.863 370.57L130.872 368.918L131.637 365.679L132.732 365.938L132.174 368.299L138.07 369.692ZM152.251 369.914L152.041 370.803L147.913 369.827L147.16 373.009L146.088 372.756L146.841 369.574L142.724 368.601L142.934 367.711L152.251 369.914ZM152.526 364.777L152.319 365.655L149.091 364.892C148.887 366.036 150.167 367.5 152.053 368.205L151.46 368.98C149.872 368.364 148.657 367.264 148.248 366.065C147.331 366.962 145.744 367.388 144.047 367.228L143.853 366.267C145.856 366.481 147.661 365.77 148.008 364.636L144.769 363.87L144.977 362.992L148.215 363.758L148.507 362.526L149.579 362.779L149.287 364.011L152.526 364.777ZM162.443 365.82L161.48 369.892L163.066 370.266L162.853 371.167L161.267 370.792L160.03 376.027L158.947 375.771L161.359 365.564L162.443 365.82ZM159.521 366.261C158.811 369.212 156.888 371.54 153.13 372.409L152.725 371.423C155.588 370.75 157.416 369.232 158.202 366.901L154.541 366.035L154.754 365.135L159.521 366.261Z" fill="#B1B1BE"/>
<rect x="46.9727" y="406.091" width="166" height="120.5" rx="12" transform="rotate(13.2995 46.9727 406.091)" fill="#E5E6ED"/>
<g clip-path="url(#clip3_935_7135)">
<path d="M114.04 483.17C118.519 484.228 123.009 481.456 124.067 476.977C125.126 472.498 122.353 468.009 117.874 466.95C113.396 465.891 108.906 468.664 107.848 473.143C106.789 477.622 109.562 482.111 114.04 483.17Z" stroke="#B1B1BE" stroke-width="2" stroke-linecap="round" stroke-linejoin="round"/>
<path d="M116.725 471.816L115.191 478.304" stroke="#B1B1BE" stroke-width="2" stroke-linecap="round" stroke-linejoin="round"/>
<path d="M112.714 474.293L119.202 475.827" stroke="#B1B1BE" stroke-width="2" stroke-linecap="round" stroke-linejoin="round"/>
</g>
<path d="M93.8042 488.492C93.3641 490.303 93.9766 492.398 95.3296 493.501L94.4519 494.208C93.4761 493.37 92.8859 492.02 92.7647 490.546C91.9577 491.897 90.774 492.906 89.4679 493.235L89.0026 492.198C90.7543 491.817 92.2786 490.106 92.7207 488.236L93.1332 486.491L94.2166 486.747L93.8042 488.492ZM98.8323 486.935L97.8699 491.007L99.5122 491.395L99.2938 492.318L97.6516 491.93L96.4169 497.154L95.3335 496.897L97.7489 486.679L98.8323 486.935ZM104.247 490.467C103.934 491.79 104.621 493.265 106.077 494.139L105.318 494.85C104.235 494.185 103.536 493.171 103.321 492.042C102.596 493.045 101.482 493.709 100.161 493.848L99.8039 492.861C101.516 492.699 102.809 491.608 103.152 490.208L103.257 489.763L100.965 489.221L101.173 488.343L106.807 489.675L106.599 490.553L104.352 490.022L104.247 490.467ZM109.436 489.454L107.673 496.912L106.589 496.656L108.352 489.198L109.436 489.454ZM107.59 498.639L107.382 499.517L100.391 497.864L101.157 494.625L102.252 494.884L101.694 497.245L107.59 498.639ZM121.771 498.86L121.56 499.749L117.432 498.774L116.68 501.955L115.608 501.702L116.36 498.52L112.243 497.547L112.453 496.657L121.771 498.86ZM122.046 493.723L121.838 494.601L118.611 493.838C118.407 494.982 119.686 496.446 121.573 497.151L120.98 497.926C119.392 497.31 118.177 496.21 117.767 495.012C116.851 495.909 115.263 496.334 113.567 496.174L113.373 495.213C115.375 495.427 117.181 494.716 117.527 493.582L114.288 492.816L114.496 491.938L117.735 492.704L118.026 491.472L119.098 491.726L118.807 492.957L122.046 493.723ZM131.962 494.766L131 498.838L132.585 499.213L132.372 500.114L130.787 499.739L129.55 504.973L128.466 504.717L130.879 494.51L131.962 494.766ZM129.04 495.208C128.331 498.159 126.408 500.486 122.65 501.356L122.245 500.369C125.107 499.697 126.935 498.178 127.721 495.847L124.06 494.982L124.273 494.081L129.04 495.208Z" fill="#B1B1BE"/>
</g>
<g opacity="0.6">
<rect x="10.5234" y="51.9019" width="186.855" height="519.043" rx="8" transform="rotate(-12.8642 10.5234 51.9019)" fill="#F4F4F7"/>
<rect x="29.6846" y="63.938" width="154.855" height="112.761" rx="12" transform="rotate(-12.8642 29.6846 63.938)" fill="#E5E6ED"/>
<g clip-path="url(#clip4_935_7135)">
<path d="M117.573 101.015C122.06 99.9899 124.867 95.5219 123.842 91.0351C122.817 86.5482 118.349 83.7416 113.862 84.7662C109.376 85.7909 106.569 90.2589 107.594 94.7458C108.618 99.2326 113.086 102.039 117.573 101.015Z" stroke="#B1B1BE" stroke-width="2" stroke-linecap="round" stroke-linejoin="round"/>
<path d="M114.976 89.6409L116.46 96.1402" stroke="#B1B1BE" stroke-width="2" stroke-linecap="round" stroke-linejoin="round"/>
<path d="M112.468 93.6326L118.967 92.1483" stroke="#B1B1BE" stroke-width="2" stroke-linecap="round" stroke-linejoin="round"/>
</g>
<path d="M101.757 114.714C102.161 116.534 103.635 118.144 105.335 118.537L104.859 119.559C103.614 119.237 102.489 118.286 101.73 117.017C101.602 118.585 100.984 120.012 99.9568 120.883L99.0819 120.158C100.486 119.044 101.1 116.836 100.672 114.962L100.273 113.214L101.358 112.966L101.757 114.714ZM105.584 111.1L106.515 115.178L108.16 114.803L108.372 115.728L106.727 116.104L107.922 121.336L106.836 121.584L104.499 111.348L105.584 111.1ZM112.001 111.882C112.304 113.207 113.571 114.228 115.262 114.371L114.895 115.344C113.63 115.225 112.555 114.623 111.864 113.704C111.656 114.924 110.949 116.011 109.824 116.719L109.069 115.99C110.534 115.09 111.214 113.54 110.904 112.133L110.803 111.687L108.506 112.212L108.305 111.332L113.949 110.043L114.15 110.923L111.899 111.437L112.001 111.882ZM116.211 108.685L117.918 116.157L116.832 116.404L115.126 108.933L116.211 108.685ZM118.605 117.743L118.805 118.622L111.802 120.222L111.061 116.977L112.158 116.727L112.698 119.092L118.605 117.743ZM131.43 111.688L131.634 112.579L127.498 113.524L128.226 116.711L127.152 116.957L126.424 113.769L122.3 114.711L122.096 113.82L131.43 111.688ZM129.412 106.956L129.613 107.836L126.38 108.574C126.701 109.691 128.495 110.441 130.499 110.242L130.309 111.199C128.611 111.346 127.036 110.895 126.14 110C125.713 111.209 124.476 112.291 122.883 112.895L122.284 112.118C124.176 111.428 125.483 109.993 125.294 108.822L122.05 109.563L121.849 108.684L125.093 107.943L124.812 106.709L125.885 106.464L126.167 107.697L129.412 106.956ZM138.772 103.521L139.704 107.599L141.292 107.236L141.498 108.139L139.91 108.502L141.108 113.746L140.022 113.993L137.687 103.768L138.772 103.521ZM136.344 105.205C137.009 108.167 136.309 111.103 133.32 113.541L132.521 112.834C134.794 110.968 135.765 108.799 135.442 106.361L131.775 107.198L131.569 106.296L136.344 105.205Z" fill="#B1B1BE"/>
<rect x="57.4609" y="185.567" width="154.855" height="112.761" rx="12" transform="rotate(-12.8642 57.4609 185.567)" fill="#E5E6ED"/>
<g clip-path="url(#clip5_935_7135)">
<path d="M145.35 222.644C149.836 221.619 152.643 217.151 151.618 212.664C150.594 208.178 146.126 205.371 141.639 206.396C137.152 207.42 134.345 211.888 135.37 216.375C136.395 220.862 140.863 223.669 145.35 222.644Z" stroke="#B1B1BE" stroke-width="2" stroke-linecap="round" stroke-linejoin="round"/>
<path d="M142.752 211.27L144.236 217.77" stroke="#B1B1BE" stroke-width="2" stroke-linecap="round" stroke-linejoin="round"/>
<path d="M140.244 215.262L146.743 213.778" stroke="#B1B1BE" stroke-width="2" stroke-linecap="round" stroke-linejoin="round"/>
</g>
<path d="M129.534 236.344C129.937 238.163 131.411 239.774 133.111 240.167L132.636 241.189C131.39 240.866 130.265 239.915 129.507 238.646C129.378 240.214 128.76 241.641 127.733 242.513L126.858 241.787C128.263 240.673 128.876 238.465 128.448 236.592L128.049 234.844L129.135 234.596L129.534 236.344ZM133.36 232.729L134.292 236.808L135.937 236.432L136.148 237.358L134.503 237.733L135.698 242.966L134.613 243.214L132.275 232.977L133.36 232.729ZM139.778 233.512C140.08 234.837 141.347 235.858 143.038 236L142.672 236.974C141.406 236.854 140.331 236.252 139.641 235.334C139.432 236.553 138.725 237.641 137.6 238.348L136.845 237.619C138.31 236.72 138.99 235.17 138.681 233.762L138.579 233.316L136.283 233.841L136.082 232.961L141.726 231.672L141.926 232.552L139.676 233.066L139.778 233.512ZM143.988 230.314L145.694 237.786L144.609 238.034L142.902 230.562L143.988 230.314ZM146.381 239.372L146.582 240.252L139.578 241.851L138.838 238.607L139.934 238.356L140.474 240.721L146.381 239.372ZM159.206 233.318L159.41 234.209L155.274 235.153L156.002 238.341L154.928 238.586L154.2 235.399L150.076 236.34L149.873 235.449L159.206 233.318ZM157.188 228.586L157.389 229.466L154.156 230.204C154.477 231.321 156.271 232.071 158.275 231.872L158.085 232.829C156.388 232.976 154.812 232.524 153.916 231.629C153.489 232.838 152.252 233.92 150.659 234.524L150.061 233.748C151.953 233.057 153.26 231.623 153.071 230.452L149.826 231.193L149.625 230.313L152.87 229.572L152.588 228.338L153.662 228.093L153.944 229.327L157.188 228.586ZM166.549 225.15L167.48 229.228L169.068 228.866L169.274 229.768L167.686 230.131L168.884 235.375L167.799 235.623L165.463 225.398L166.549 225.15ZM164.121 226.834C164.785 229.796 164.085 232.732 161.096 235.17L160.297 234.463C162.57 232.598 163.541 230.429 163.219 227.99L159.551 228.827L159.345 227.925L164.121 226.834Z" fill="#B1B1BE"/>
<rect x="85.2383" y="307.197" width="154.855" height="112.761" rx="12" transform="rotate(-12.8642 85.2383 307.197)" fill="#E5E6ED"/>
<g clip-path="url(#clip6_935_7135)">
<path d="M173.127 344.273C177.614 343.248 180.42 338.78 179.396 334.294C178.371 329.807 173.903 327 169.416 328.025C164.929 329.049 162.123 333.517 163.147 338.004C164.172 342.491 168.64 345.298 173.127 344.273Z" stroke="#B1B1BE" stroke-width="2" stroke-linecap="round" stroke-linejoin="round"/>
<path d="M170.529 332.899L172.014 339.399" stroke="#B1B1BE" stroke-width="2" stroke-linecap="round" stroke-linejoin="round"/>
<path d="M168.021 336.891L174.521 335.407" stroke="#B1B1BE" stroke-width="2" stroke-linecap="round" stroke-linejoin="round"/>
</g>
<path d="M157.311 357.973C157.715 359.792 159.188 361.403 160.889 361.796L160.413 362.818C159.167 362.495 158.043 361.544 157.284 360.275C157.155 361.843 156.538 363.27 155.511 364.142L154.636 363.416C156.04 362.302 156.654 360.094 156.226 358.221L155.827 356.473L156.912 356.225L157.311 357.973ZM161.138 354.358L162.069 358.437L163.714 358.061L163.926 358.987L162.28 359.362L163.475 364.595L162.39 364.843L160.052 354.606L161.138 354.358ZM167.555 355.141C167.858 356.466 169.124 357.487 170.816 357.63L170.449 358.603C169.184 358.483 168.109 357.881 167.418 356.963C167.21 358.183 166.502 359.27 165.378 359.977L164.622 359.248C166.088 358.349 166.768 356.799 166.458 355.391L166.356 354.946L164.06 355.47L163.859 354.59L169.503 353.301L169.704 354.181L167.453 354.695L167.555 355.141ZM171.765 351.943L173.471 359.415L172.386 359.663L170.68 352.191L171.765 351.943ZM174.158 361.001L174.359 361.881L167.356 363.48L166.615 360.236L167.712 359.985L168.252 362.35L174.158 361.001ZM186.984 354.947L187.187 355.838L183.052 356.783L183.779 359.97L182.706 360.215L181.978 357.028L177.853 357.97L177.65 357.079L186.984 354.947ZM184.966 350.215L185.166 351.095L181.933 351.833C182.254 352.95 184.048 353.7 186.052 353.501L185.862 354.458C184.165 354.605 182.589 354.153 181.694 353.258C181.267 354.467 180.029 355.549 178.436 356.154L177.838 355.377C179.73 354.686 181.037 353.252 180.848 352.081L177.603 352.822L177.402 351.942L180.647 351.201L180.365 349.967L181.439 349.722L181.721 350.956L184.966 350.215ZM194.326 346.779L195.258 350.858L196.846 350.495L197.052 351.398L195.464 351.76L196.661 357.004L195.576 357.252L193.241 347.027L194.326 346.779ZM191.898 348.463C192.562 351.425 191.863 354.362 188.873 356.799L188.075 356.092C190.347 354.227 191.318 352.058 190.996 349.619L187.329 350.457L187.123 349.554L191.898 348.463Z" fill="#B1B1BE"/>
<rect x="113.015" y="428.826" width="154.855" height="112.761" rx="12" transform="rotate(-12.8642 113.015 428.826)" fill="#E5E6ED"/>
<g clip-path="url(#clip7_935_7135)">
<path d="M200.903 465.903C205.39 464.878 208.197 460.41 207.172 455.923C206.147 451.436 201.679 448.629 197.193 449.654C192.706 450.679 189.899 455.147 190.924 459.634C191.948 464.121 196.416 466.927 200.903 465.903Z" stroke="#B1B1BE" stroke-width="2" stroke-linecap="round" stroke-linejoin="round"/>
<path d="M198.306 454.529L199.79 461.028" stroke="#B1B1BE" stroke-width="2" stroke-linecap="round" stroke-linejoin="round"/>
<path d="M195.798 458.521L202.297 457.036" stroke="#B1B1BE" stroke-width="2" stroke-linecap="round" stroke-linejoin="round"/>
</g>
<path d="M185.088 479.602C185.491 481.421 186.965 483.032 188.665 483.425L188.189 484.447C186.944 484.125 185.819 483.174 185.06 481.904C184.932 483.472 184.314 484.9 183.287 485.771L182.412 485.046C183.816 483.932 184.43 481.724 184.002 479.85L183.603 478.102L184.688 477.854L185.088 479.602ZM188.914 475.988L189.845 480.066L191.491 479.691L191.702 480.616L190.057 480.992L191.252 486.224L190.166 486.472L187.829 476.236L188.914 475.988ZM195.331 476.77C195.634 478.095 196.901 479.116 198.592 479.259L198.225 480.232C196.96 480.112 195.885 479.511 195.194 478.592C194.986 479.812 194.279 480.899 193.154 481.607L192.399 480.878C193.864 479.978 194.544 478.428 194.234 477.021L194.133 476.575L191.836 477.099L191.635 476.22L197.279 474.931L197.48 475.811L195.229 476.325L195.331 476.77ZM199.541 473.573L201.248 481.045L200.162 481.292L198.456 473.821L199.541 473.573ZM201.935 482.631L202.135 483.51L195.132 485.11L194.391 481.865L195.488 481.615L196.028 483.98L201.935 482.631ZM214.76 476.576L214.964 477.467L210.828 478.412L211.556 481.599L210.482 481.845L209.754 478.657L205.63 479.599L205.426 478.708L214.76 476.576ZM212.742 471.844L212.943 472.724L209.71 473.462C210.031 474.579 211.825 475.329 213.829 475.13L213.639 476.087C211.941 476.234 210.366 475.783 209.47 474.887C209.043 476.097 207.806 477.179 206.213 477.783L205.615 477.006C207.506 476.316 208.814 474.881 208.624 473.71L205.38 474.451L205.179 473.572L208.423 472.831L208.142 471.597L209.216 471.351L209.497 472.585L212.742 471.844ZM222.102 468.408L223.034 472.487L224.622 472.124L224.828 473.027L223.24 473.39L224.438 478.633L223.352 478.881L221.017 468.656L222.102 468.408ZM219.674 470.093C220.339 473.054 219.639 475.991 216.65 478.429L215.851 477.722C218.124 475.856 219.095 473.687 218.772 471.249L215.105 472.086L214.899 471.183L219.674 470.093Z" fill="#B1B1BE"/>
</g>
<defs>
<clipPath id="clip0_935_7135">
<rect width="20" height="20" fill="white" transform="translate(199.968 76.1882) rotate(13.2995)"/>
</clipPath>
<clipPath id="clip1_935_7135">
<rect width="20" height="20" fill="white" transform="translate(169.487 205.135) rotate(13.2995)"/>
</clipPath>
<clipPath id="clip2_935_7135">
<rect width="20" height="20" fill="white" transform="translate(139.007 334.081) rotate(13.2995)"/>
</clipPath>
<clipPath id="clip3_935_7135">
<rect width="20" height="20" fill="white" transform="translate(108.526 463.028) rotate(13.2995)"/>
</clipPath>
<clipPath id="clip4_935_7135">
<rect width="20" height="20" fill="white" transform="translate(103.742 85.3679) rotate(-12.8642)"/>
</clipPath>
<clipPath id="clip5_935_7135">
<rect width="20" height="20" fill="white" transform="translate(131.519 206.997) rotate(-12.8642)"/>
</clipPath>
<clipPath id="clip6_935_7135">
<rect width="20" height="20" fill="white" transform="translate(159.296 328.626) rotate(-12.8642)"/>
</clipPath>
<clipPath id="clip7_935_7135">
<rect width="20" height="20" fill="white" transform="translate(187.072 450.256) rotate(-12.8642)"/>
</clipPath>
</defs>
</svg>
