<svg width="138" height="50" viewBox="0 0 138 50" fill="none" xmlns="http://www.w3.org/2000/svg">
<path d="M116 0C128.15 1.61064e-06 138 9.84974 138 22C138 34.1503 128.15 44 116 44H93.7656L96.335 48.5967C96.751 49.3418 96.0015 50.1972 95.208 49.8828L77.7031 44H22C9.84974 44 0 34.1503 0 22C0 9.84974 9.84974 4.993e-07 22 0H116Z" fill="white"/>
<path d="M20.7656 11.2891C20.7656 12.5957 21.668 13.9023 23.3555 14.4297L22.6875 15.4375C21.4863 15.0508 20.6133 14.2539 20.127 13.2461C19.6523 14.3418 18.75 15.2148 17.4961 15.6367L16.8281 14.6289C18.5332 14.0547 19.4414 12.6777 19.4531 11.2891V11.1602H17.168V10.1172H22.9922V11.1602H20.7656V11.2891ZM18.3398 17.3828V16.3281H25.5703V20.043H24.2578V17.3828H18.3398ZM24.2578 15.8359V9.44922H25.5703V15.8359H24.2578ZM35.9883 9.44922V15.2266H34.6875V12.9648H32.8594V11.8867H34.6875V9.44922H35.9883ZM27.0938 14.3828C28.7695 13.8203 29.6719 12.4492 29.6836 11.0547H27.4805V9.98828H33.1992V11.0547H31.0078C31.0195 12.3262 31.875 13.6387 33.5039 14.1836L32.8477 15.1914C31.6641 14.7871 30.8262 13.9844 30.3633 12.9883C29.9004 14.0957 29.0215 14.9863 27.7617 15.4141L27.0938 14.3828ZM29.0039 19.9141V15.6719H30.3047V16.7734H34.6875V15.6719H35.9883V19.9141H29.0039ZM30.3047 18.8594H34.6875V17.793H30.3047V18.8594ZM49.3359 16.2578V20.043H48.0352V17.2891H41.8711V16.2578H49.3359ZM40.1719 14.5234C41.373 13.873 41.8008 12.5605 41.8008 11.4297V11.2422H40.5703V10.1875H43.6875V11.2422H43.0078V11.4297C43.0078 12.2617 43.207 13.3398 43.9277 14.125C44.6191 13.3574 44.8066 12.291 44.8125 11.4297V11.2422H44.1445V10.1875H47.1914V11.2422H46.0547V11.4297C46.0488 12.5723 46.4648 13.8906 47.6719 14.5234L46.9922 15.4492C46.2012 15.0273 45.7148 14.3301 45.4395 13.5215C45.1816 14.3477 44.7188 15.1035 43.9219 15.5547C43.1367 15.1035 42.6738 14.3594 42.4102 13.5508C42.1348 14.3477 41.6484 15.0391 40.8633 15.4492L40.1719 14.5234ZM48.0352 15.7656V9.44922H49.3359V15.7656H48.0352ZM60.3633 14.9219V15.9648H50.707V14.9219H60.3633ZM51.7031 11.9336C51.7031 10.5918 53.209 9.7832 55.5234 9.78906C57.832 9.7832 59.3379 10.5918 59.3438 11.9336C59.3379 13.2812 57.832 14.1016 55.5234 14.1016C53.209 14.1016 51.7031 13.2812 51.7031 11.9336ZM51.9023 19.832V16.75H53.2031V18.7773H59.2734V19.832H51.9023ZM53.0625 11.9336C53.0508 12.6543 53.9824 13.041 55.5234 13.0352C57.0703 13.041 57.9961 12.6543 57.9961 11.9336C57.9961 11.2363 57.0703 10.832 55.5234 10.832C53.9824 10.832 53.0508 11.2363 53.0625 11.9336ZM67.7109 11.9922C67.6992 13.8848 68.6484 15.7949 70.2891 16.5859L69.4922 17.6289C68.3438 17.0488 67.5176 15.9297 67.0664 14.582C66.6035 16.0234 65.7363 17.2188 64.5234 17.8281L63.7266 16.7852C65.4316 15.9766 66.4043 13.9492 66.4102 11.9922V10.3047H67.7109V11.9922ZM70.9219 20.043V9.44922H72.2227V13.5977H73.8516V14.7109H72.2227V20.043H70.9219ZM78.3164 11.6055C78.3164 12.9238 79.2188 14.2129 80.9062 14.7344L80.2383 15.7539C79.0371 15.3672 78.1641 14.5703 77.6777 13.5625C77.2031 14.6582 76.3008 15.5312 75.0469 15.9648L74.3789 14.9336C76.084 14.3711 76.9922 13 77.0039 11.6055V11.3008H74.7188V10.2578H80.543V11.3008H78.3164V11.6055ZM76.1133 19.832V16.4453H77.4258V18.7773H83.4141V19.832H76.1133ZM81.8086 17.1484V9.46094H83.1211V17.1484H81.8086ZM92.332 9.55469C94.7461 9.56055 96.1465 10.2051 96.1523 11.3711C96.1465 12.4492 94.9863 13.0703 92.9648 13.1816V13.8555H97.1719V14.8984H87.5156V13.8555H91.6758V13.1816C89.6719 13.0703 88.5117 12.4434 88.5117 11.3711C88.5117 10.2051 89.9238 9.56055 92.332 9.55469ZM88.6523 16.5625V15.5781H95.9648V18.168H89.9414V18.9531H96.2578V19.9492H88.6641V17.2422H94.6875V16.5625H88.6523ZM89.8828 11.3711C89.877 11.957 90.7207 12.2266 92.332 12.2383C93.9668 12.2266 94.8047 11.957 94.8047 11.3711C94.8047 10.8262 93.9668 10.5332 92.332 10.5273C90.7207 10.5332 89.877 10.8262 89.8828 11.3711ZM106.711 9.44922V20.0547H105.422V9.44922H106.711ZM98.4609 11.4297V10.375H103.453V14.3477H99.8086V16.4805C101.479 16.4688 102.914 16.3809 104.566 16.1055L104.684 17.1719C102.885 17.4824 101.303 17.5527 99.3984 17.5469H98.4727V13.3164H102.129V11.4297H98.4609ZM116.906 10.4219V11.4414C116.895 12.7598 116.895 14.2305 116.484 16.4453L115.172 16.3047C115.588 14.2422 115.588 12.7363 115.594 11.4648H109.266V10.4219H116.906ZM108.258 18.6719V17.6055H111.82V13.9258H113.109V17.6055H117.914V18.6719H108.258ZM120.691 18.168L119.707 21.4492H118.594L119.203 18.168H120.691ZM32.2148 25.1367C32.2148 26.4668 33.0762 27.7266 34.7109 28.2422L34.0078 29.2617C32.8652 28.875 32.0449 28.1016 31.582 27.1172C31.125 28.2422 30.2695 29.127 29.0508 29.5547L28.3477 28.5352C30.0527 27.9434 30.9082 26.5312 30.9141 25.0195V24.0117H32.2148V25.1367ZM29.7891 32.0156C29.7891 30.7617 31.166 30.0176 33.375 30.0234C35.5664 30.0176 36.9199 30.7617 36.9258 32.0156C36.9199 33.2988 35.5664 34.0312 33.375 34.0312C31.166 34.0312 29.7891 33.2988 29.7891 32.0156ZM31.0898 32.0156C31.0898 32.6719 31.9219 33 33.375 33C34.8223 33 35.6367 32.6719 35.6367 32.0156C35.6367 31.3945 34.8223 31.043 33.375 31.043C31.9219 31.043 31.0898 31.3945 31.0898 32.0156ZM35.5195 29.7891V23.4492H36.8203V26.0273H38.2969V27.1055H36.8203V29.7891H35.5195ZM48.4922 28.4648V29.5078H44.2969V30.5273H47.3203V33.9141H39.9727V30.5273H43.0078V29.5078H38.8359V28.4648H48.4922ZM39.7031 24.8086V23.7656H47.6016V24.8086H46.1484V26.625H47.543V27.6797H39.7617V26.625H41.1562V24.8086H39.7031ZM41.2617 32.8594H46.0547V31.5352H41.2617V32.8594ZM42.457 26.625H44.8359V24.8086H42.457V26.625ZM60.4102 23.4492V25.9102H61.8867V26.9883H60.4102V29.625H59.1094V23.4492H60.4102ZM52.418 29.0625V24.0703H53.707V25.5117H56.1797V24.0703H57.4688V29.0625H52.418ZM53.5781 33.8906V30.1406H60.4805V31.1836H54.8789V32.8594H60.6797V33.8906H53.5781ZM53.707 28.0312H56.1797V26.5195H53.707V28.0312ZM65.2734 24.2227C66.8672 24.2227 68.0156 25.6758 68.0273 27.9609C68.0156 30.2637 66.8672 31.7109 65.2734 31.7109C63.6621 31.7109 62.5137 30.2637 62.5195 27.9609C62.5137 25.6758 63.6621 24.2227 65.2734 24.2227ZM63.7734 27.9609C63.7676 29.5898 64.3828 30.5332 65.2734 30.5391C66.1699 30.5332 66.7676 29.5898 66.7734 27.9609C66.7676 26.3438 66.1699 25.3945 65.2734 25.3945C64.3828 25.3945 63.7676 26.3438 63.7734 27.9609ZM69.4219 34.043V23.4492H70.7227V27.5156H72.3516V28.6172H70.7227V34.043H69.4219ZM81.0938 23.4492V27.5859H82.6641V28.6758H81.0938V34.0195H79.793V23.4492H81.0938ZM72.7383 31.125C75.3164 29.8359 76.7109 28.043 76.9688 25.6289H73.3125V24.5508H78.293C78.2871 27.6621 76.998 30.3984 73.4766 32.1328L72.7383 31.125ZM86.4727 26.2266C86.4785 27.9375 87.0645 29.7188 88.5 30.6211L87.7852 31.6172C86.8301 31.043 86.209 30.0586 85.8574 28.9043C85.4766 30.1758 84.7969 31.2539 83.8008 31.8633L82.9922 30.8906C84.5332 29.959 85.2129 28.0898 85.2188 26.2852V24.3867H86.4727V26.2266ZM87.3633 28.1719V27.0938H88.875V23.6367H90.1055V33.5273H88.875V28.1719H87.3633ZM91.0547 34.043V23.4492H92.3086V34.043H91.0547ZM103.219 31.6875V32.7539H93.5391V31.6875H95.7773V29.0098C94.9336 28.5234 94.4238 27.7617 94.4297 26.8242C94.4238 25.1367 96.0762 24.0234 98.3555 24.0234C100.646 24.0234 102.311 25.1367 102.305 26.8242C102.311 27.75 101.812 28.4941 100.992 28.9805V31.6875H103.219ZM95.707 26.8242C95.7012 27.9082 96.7734 28.5996 98.3555 28.5938C99.9316 28.5996 101.027 27.9082 101.027 26.8242C101.027 25.7227 99.9316 25.0488 98.3555 25.0547C96.7734 25.0488 95.7012 25.7227 95.707 26.8242ZM97.0664 31.6875H99.668V29.4785C99.2637 29.5664 98.8242 29.6133 98.3555 29.6133C97.8984 29.6133 97.4648 29.5664 97.0664 29.4844V31.6875ZM108.938 24.5156L108.809 30.5039H107.484L107.344 24.5156H108.938ZM107.238 32.1797C107.232 31.6875 107.648 31.2832 108.152 31.2773C108.639 31.2832 109.055 31.6875 109.055 32.1797C109.055 32.6836 108.639 33.0938 108.152 33.0938C107.648 33.0938 107.232 32.6836 107.238 32.1797Z" fill="#007495"/>
</svg>
