<svg width="225" height="300" viewBox="0 0 225 300" fill="none" xmlns="http://www.w3.org/2000/svg">
<rect width="225" height="300" rx="12" fill="#F4F5F6"/>
<path d="M112.5 150.333C117.102 150.333 120.833 146.602 120.833 142C120.833 137.397 117.102 133.667 112.5 133.667C107.898 133.667 104.167 137.397 104.167 142C104.167 146.602 107.898 150.333 112.5 150.333Z" stroke="#007495" stroke-width="2" stroke-linecap="round" stroke-linejoin="round"/>
<path d="M112.5 138V146" stroke="#007495" stroke-width="2" stroke-linecap="round" stroke-linejoin="round"/>
<path d="M108.5 142H116.5" stroke="#007495" stroke-width="2" stroke-linecap="round" stroke-linejoin="round"/>
<path d="M94.1367 159.992C94.125 161.879 95.0742 163.801 96.7148 164.586L95.918 165.629C94.7695 165.049 93.9434 163.93 93.4922 162.582C93.0293 164.023 92.1621 165.219 90.9492 165.828L90.1523 164.785C91.8516 163.977 92.8242 161.949 92.8359 159.992V158.305H94.1367V159.992ZM98.6484 157.449V161.598H100.277V162.711H98.6484V168.043H97.3477V157.449H98.6484ZM104.742 159.605C104.742 160.918 105.645 162.207 107.332 162.734L106.664 163.754C105.463 163.361 104.59 162.57 104.109 161.562C103.629 162.658 102.732 163.531 101.473 163.965L100.805 162.934C102.504 162.371 103.418 161 103.43 159.605V159.301H101.145V158.258H106.969V159.301H104.742V159.605ZM109.547 157.461V165.148H108.234V157.461H109.547ZM109.84 166.777V167.832H102.539V164.445H103.852V166.777H109.84ZM123.598 163.812V164.879H119.402V168.055H118.113V164.879H113.941V163.812H123.598ZM122.695 158.703V159.734H119.426C119.549 160.783 120.926 161.879 123.047 162.137L122.566 163.168C120.814 162.945 119.455 162.172 118.77 161.152C118.072 162.184 116.701 162.945 114.938 163.168L114.469 162.137C116.584 161.879 117.973 160.801 118.102 159.734H114.832V158.703H118.113V157.461H119.402V158.703H122.695ZM132.609 157.449V161.586H134.18V162.676H132.609V168.02H131.309V157.449H132.609ZM129.809 158.551C129.809 161.668 128.52 164.398 124.992 166.133L124.254 165.125C126.832 163.842 128.227 162.037 128.496 159.629H124.828V158.551H129.809Z" fill="#007495"/>
</svg>
