<svg width="160" height="110" viewBox="0 0 160 110" fill="none" xmlns="http://www.w3.org/2000/svg">
<rect width="160" height="110" rx="12" fill="#E6E8EA"/>
<path d="M80.0003 55.3334C84.6027 55.3334 88.3337 51.6025 88.3337 47.0001C88.3337 42.3977 84.6027 38.6667 80.0003 38.6667C75.398 38.6667 71.667 42.3977 71.667 47.0001C71.667 51.6025 75.398 55.3334 80.0003 55.3334Z" stroke="#007495" stroke-width="2" stroke-linecap="round" stroke-linejoin="round"/>
<path d="M80 43V51" stroke="#007495" stroke-width="2" stroke-linecap="round" stroke-linejoin="round"/>
<path d="M76 47H84" stroke="#007495" stroke-width="2" stroke-linecap="round" stroke-linejoin="round"/>
<path d="M61.6367 64.9922C61.625 66.8789 62.5742 68.8008 64.2148 69.5859L63.418 70.6289C62.2695 70.0488 61.4434 68.9297 60.9922 67.582C60.5293 69.0234 59.6621 70.2188 58.4492 70.8281L57.6523 69.7852C59.3516 68.9766 60.3242 66.9492 60.3359 64.9922V63.3047H61.6367V64.9922ZM66.1484 62.4492V66.5977H67.7773V67.7109H66.1484V73.043H64.8477V62.4492H66.1484ZM72.2422 64.6055C72.2422 65.918 73.1445 67.207 74.832 67.7344L74.1641 68.7539C72.9629 68.3613 72.0898 67.5703 71.6094 66.5625C71.1289 67.6582 70.2324 68.5312 68.9727 68.9648L68.3047 67.9336C70.0039 67.3711 70.918 66 70.9297 64.6055V64.3008H68.6445V63.2578H74.4688V64.3008H72.2422V64.6055ZM77.0469 62.4609V70.1484H75.7344V62.4609H77.0469ZM77.3398 71.7773V72.832H70.0391V69.4453H71.3516V71.7773H77.3398ZM91.0977 68.8125V69.8789H86.9023V73.0547H85.6133V69.8789H81.4414V68.8125H91.0977ZM90.1953 63.7031V64.7344H86.9258C87.0488 65.7832 88.4258 66.8789 90.5469 67.1367L90.0664 68.168C88.3145 67.9453 86.9551 67.1719 86.2695 66.1523C85.5723 67.1836 84.2012 67.9453 82.4375 68.168L81.9688 67.1367C84.084 66.8789 85.4727 65.8008 85.6016 64.7344H82.332V63.7031H85.6133V62.4609H86.9023V63.7031H90.1953ZM100.109 62.4492V66.5859H101.68V67.6758H100.109V73.0195H98.8086V62.4492H100.109ZM97.3086 63.5508C97.3086 66.668 96.0195 69.3984 92.4922 71.1328L91.7539 70.125C94.332 68.8418 95.7266 67.0371 95.9961 64.6289H92.3281V63.5508H97.3086Z" fill="#007495"/>
</svg>
