<svg width="332" height="72" viewBox="0 0 332 72" fill="none" xmlns="http://www.w3.org/2000/svg">
<rect x="1" y="9" width="329.253" height="62" rx="7" fill="#FFFED4"/>
<rect x="1" y="9" width="329.253" height="62" rx="7" stroke="#1CCAFB" stroke-width="2"/>
<path d="M69.8442 28.5352V29.7793H74.7524V31.0098H63.4594V29.7793H68.3403V28.5352H69.8442ZM63.9926 28.125C66.2211 27.9883 67.6977 27.2363 68.0053 26.3613H64.4985V25.1992H73.727V26.3613H70.186C70.4799 27.2432 71.9428 27.9883 74.2055 28.125L73.727 29.2598C71.4369 29.082 69.7485 28.3096 69.1059 27.1338C68.4565 28.3027 66.768 29.082 64.4848 29.2598L63.9926 28.125ZM64.4985 33.5391V32.3906H68.3266V31.3926H69.8578V32.3906H73.686V33.5391H64.4985ZM65.3188 35.6172C65.3119 34.5576 66.6723 33.9902 69.0785 33.9902C71.4711 33.9902 72.8656 34.5576 72.8656 35.6172C72.8656 36.6973 71.4711 37.2646 69.0785 37.2578C66.6723 37.2646 65.3119 36.6973 65.3188 35.6172ZM66.8774 35.6172C66.8705 36.0342 67.6498 36.2461 69.0785 36.2461C70.5346 36.2461 71.2797 36.0342 71.2934 35.6172C71.2797 35.1934 70.5346 35.0156 69.0785 35.0156C67.6498 35.0156 66.8705 35.1934 66.8774 35.6172ZM78.4949 25.7598C80.3543 25.7598 81.6942 27.4551 81.7078 30.1211C81.6942 32.8076 80.3543 34.4961 78.4949 34.4961C76.6151 34.4961 75.2752 32.8076 75.2821 30.1211C75.2752 27.4551 76.6151 25.7598 78.4949 25.7598ZM76.7449 30.1211C76.7381 32.0215 77.4559 33.1221 78.4949 33.1289C79.5408 33.1221 80.2381 32.0215 80.2449 30.1211C80.2381 28.2344 79.5408 27.127 78.4949 27.127C77.4559 27.127 76.7381 28.2344 76.7449 30.1211ZM83.3348 37.2168V24.8574H84.8524V29.6016H86.7528V30.8867H84.8524V37.2168H83.3348ZM98.1653 34.4688V35.7129H86.8723V34.4688H89.4836V31.3447C88.4992 30.7773 87.9045 29.8887 87.9114 28.7949C87.9045 26.8262 89.8322 25.5273 92.4914 25.5273C95.1643 25.5273 97.1057 26.8262 97.0989 28.7949C97.1057 29.875 96.5246 30.7432 95.5676 31.3105V34.4688H98.1653ZM89.4016 28.7949C89.3947 30.0596 90.6457 30.8662 92.4914 30.8594C94.3303 30.8662 95.6086 30.0596 95.6086 28.7949C95.6086 27.5098 94.3303 26.7236 92.4914 26.7305C90.6457 26.7236 89.3947 27.5098 89.4016 28.7949ZM90.9875 34.4688H94.0227V31.8916C93.551 31.9941 93.0383 32.0488 92.4914 32.0488C91.9582 32.0488 91.4524 31.9941 90.9875 31.8984V34.4688ZM108.252 24.8574V29.6836H110.084V30.9551H108.252V37.1895H106.734V24.8574H108.252ZM98.5035 33.8125C101.511 32.3086 103.138 30.2168 103.439 27.4004H99.1735V26.1426H104.984C104.977 29.7725 103.473 32.9648 99.3649 34.9883L98.5035 33.8125ZM122.873 24.8574V29.6836H124.705V30.9551H122.873V37.1895H121.356V24.8574H122.873ZM113.125 33.8125C116.133 32.3086 117.76 30.2168 118.061 27.4004H113.795V26.1426H119.606C119.599 29.7725 118.095 32.9648 113.987 34.9883L113.125 33.8125ZM129.323 27.0859C129.323 28.5967 130.301 30.0186 132.235 30.6133L131.511 31.8027C130.123 31.3652 129.138 30.4834 128.598 29.3691C128.052 30.668 127.013 31.7002 125.522 32.1992L124.757 30.9961C126.746 30.3467 127.792 28.7402 127.792 27.0996V26.9492H125.18V25.7188H131.893V26.9492H129.323V27.0859ZM126.438 34.8379C126.438 33.3613 128.038 32.5 130.622 32.5C133.185 32.5 134.758 33.3613 134.764 34.8379C134.758 36.3281 133.185 37.2031 130.622 37.2031C128.038 37.2031 126.438 36.3281 126.438 34.8379ZM127.956 34.8379C127.956 35.6035 128.927 36.0068 130.622 36.0137C132.31 36.0068 133.261 35.6035 133.261 34.8379C133.261 34.0859 132.31 33.6895 130.622 33.6895C128.927 33.6895 127.956 34.0859 127.956 34.8379ZM133.124 32.2266V24.8574H134.641V27.8242H136.364V29.0684H134.641V32.2266H133.124ZM149.263 24.8574V27.5234H150.986V28.7812H149.263V31.0781H147.746V24.8574H149.263ZM139.939 30.75V25.6504H145.791V30.75H139.939ZM140.691 36.875V32.1309H142.181V35.6377C142.885 35.5967 143.617 35.4941 144.328 35.2617L144.547 36.4512C143.453 36.834 142.4 36.8818 141.347 36.875H140.691ZM141.429 29.5605H144.3V26.8398H141.429V29.5605ZM144.123 33.3613V32.2676H146.502V31.2969H147.992V32.2676H150.343V33.3613H144.123ZM144.875 35.4668C144.861 34.3867 145.825 33.7305 147.226 33.7305C148.614 33.7305 149.585 34.3867 149.591 35.4668C149.585 36.5264 148.614 37.1895 147.226 37.1895C145.818 37.1895 144.861 36.5264 144.875 35.4668ZM146.228 35.4668C146.221 35.9111 146.645 36.1641 147.226 36.1641C147.807 36.1641 148.224 35.9111 148.224 35.4668C148.224 35.0156 147.807 34.7695 147.226 34.7695C146.645 34.7695 146.221 35.0156 146.228 35.4668ZM161.496 24.8574V37.2305H159.965V24.8574H161.496ZM151.611 30.1211C151.605 27.4551 152.965 25.7598 154.838 25.7598C156.69 25.7598 158.058 27.4551 158.064 30.1211C158.058 32.8076 156.69 34.4961 154.838 34.4961C152.965 34.4961 151.605 32.8076 151.611 30.1211ZM153.074 30.1211C153.074 32.0215 153.792 33.1221 154.838 33.1289C155.877 33.1221 156.588 32.0215 156.588 30.1211C156.588 28.2344 155.877 27.127 154.838 27.127C153.792 27.127 153.074 28.2344 153.074 30.1211ZM171.852 25.5273V26.7441H167.819V29.4922C170.068 29.4785 171.415 29.3896 172.946 29.082L173.11 30.2578C171.449 30.6338 169.945 30.6885 167.313 30.6816H166.315V25.5273H171.852ZM167.505 32.7871V31.5703H175.585V34.8516H169.022V35.8359H175.968V37.0664H167.518V33.7031H174.067V32.7871H167.505ZM174.067 31.0371V24.8574H175.585V27.291H177.307V28.5352H175.585V31.0371H174.067ZM187.804 24.8711V33.9629H186.3V24.8711H187.804ZM178.165 26.9219V25.7051H183.866V29.5195H179.683V31.0781C181.918 31.0781 183.395 31.0098 185.097 30.6953L185.261 31.9121C183.395 32.2607 181.775 32.3223 179.245 32.3223H178.193V28.3711H182.363V26.9219H178.165ZM179.573 36.9707V33.2246H181.105V35.7402H188.146V36.9707H179.573ZM202.453 24.8711V33.7988H200.922V24.8711H202.453ZM192.377 28.7676C192.377 26.9697 193.833 25.6846 195.713 25.6777C197.593 25.6846 199.042 26.9697 199.035 28.7676C199.042 30.5928 197.593 31.8711 195.713 31.8711C193.833 31.8711 192.377 30.5928 192.377 28.7676ZM193.867 28.7676C193.86 29.8613 194.653 30.5449 195.713 30.5449C196.745 30.5449 197.545 29.8613 197.545 28.7676C197.545 27.7012 196.745 27.0039 195.713 27.0039C194.653 27.0039 193.86 27.7012 193.867 28.7676ZM194.277 36.9707V32.8965H195.809V35.7402H202.795V36.9707H194.277ZM215.123 30.6133V31.8438H203.858V30.6133H215.123ZM204.405 28.8633C206.695 28.6377 208.185 27.7217 208.417 26.6895H204.883V25.4453H214.112V26.6895H210.543C210.769 27.708 212.246 28.6377 214.59 28.8633L214.057 30.0664C211.808 29.834 210.147 28.9385 209.477 27.6875C208.807 28.9385 207.166 29.834 204.924 30.0664L204.405 28.8633ZM205.17 34.9336C205.17 33.498 206.79 32.6641 209.477 32.6641C212.143 32.6641 213.749 33.498 213.756 34.9336C213.749 36.3896 212.143 37.2031 209.477 37.2031C206.79 37.2031 205.17 36.3896 205.17 34.9336ZM206.715 34.9336C206.708 35.6514 207.679 36.0068 209.477 36.0137C211.247 36.0068 212.225 35.6514 212.239 34.9336C212.225 34.2158 211.247 33.8535 209.477 33.8535C207.679 33.8535 206.708 34.2158 206.715 34.9336ZM226.987 26.8262V28.0703H225.305V29.6016H226.987V30.8594H225.305V33.1426H223.788V24.8574H225.305V26.8262H226.987ZM215.434 30.8047C217.451 30.1279 218.456 28.4805 218.456 26.7168V25.5684H219.987V26.8672C219.973 28.4121 220.978 29.8887 222.899 30.4766L222.079 31.6523C220.753 31.208 219.789 30.3125 219.256 29.1777C218.709 30.4766 217.697 31.502 216.268 32.0078L215.434 30.8047ZM216.665 35.9863C219.146 35.624 220.657 34.3389 220.657 32.8691V32.5273H222.175V32.8691C222.161 34.3389 223.706 35.624 226.194 35.9863L225.593 37.1484C223.665 36.8545 222.175 36.0068 221.43 34.7969C220.664 36.0068 219.18 36.8545 217.253 37.1484L216.665 35.9863ZM113.783 46.9297L114.932 43.1016H116.231L115.52 46.9297H113.783ZM117.499 49.2266C117.499 46.6562 118.264 44.5098 119.549 42.6777H121.19C120.247 44.0381 119.303 46.7793 119.303 49.2266C119.303 51.6738 120.247 54.4219 121.19 55.7891H119.549C118.264 53.9434 117.499 51.8037 117.499 49.2266ZM125.972 43.8262C125.972 45.3779 126.977 46.8477 128.884 47.4492L128.064 48.6387C126.73 48.1875 125.773 47.2852 125.233 46.1367C124.7 47.4492 123.702 48.4814 122.28 48.9805L121.46 47.791C123.449 47.1006 124.447 45.4531 124.454 43.6895V42.5137H125.972V43.8262ZM123.142 51.8516C123.142 50.3887 124.748 49.5205 127.325 49.5273C129.882 49.5205 131.461 50.3887 131.468 51.8516C131.461 53.3486 129.882 54.2031 127.325 54.2031C124.748 54.2031 123.142 53.3486 123.142 51.8516ZM124.659 51.8516C124.659 52.6172 125.63 53 127.325 53C129.014 53 129.964 52.6172 129.964 51.8516C129.964 51.127 129.014 50.7168 127.325 50.7168C125.63 50.7168 124.659 51.127 124.659 51.8516ZM129.827 49.2539V41.8574H131.345V44.8652H133.067V46.123H131.345V49.2539H129.827ZM144.562 47.709V48.9258H139.667V50.1152H143.195V54.0664H134.622V50.1152H138.164V48.9258H133.296V47.709H144.562ZM134.308 43.4434V42.2266H143.523V43.4434H141.828V45.5625H143.455V46.793H134.376V45.5625H136.003V43.4434H134.308ZM136.126 52.8359H141.718V51.291H136.126V52.8359ZM137.521 45.5625H140.296V43.4434H137.521V45.5625ZM155.291 41.8574V48.4883H153.76V41.8574H155.291ZM145.215 45.3027C145.215 43.5869 146.637 42.3975 148.551 42.4043C150.458 42.3975 151.88 43.5869 151.873 45.3027C151.88 46.9912 150.458 48.1807 148.551 48.1738C146.637 48.1807 145.215 46.9912 145.215 45.3027ZM146.705 45.3027C146.698 46.2939 147.471 46.9229 148.551 46.9297C149.61 46.9229 150.383 46.2939 150.383 45.3027C150.383 44.3115 149.61 43.6689 148.551 43.6758C147.471 43.6689 146.698 44.3115 146.705 45.3027ZM147.115 54.0664V49.0625H148.619V50.334H153.773V49.0625H155.291V54.0664H147.115ZM148.619 52.8359H153.773V51.5234H148.619V52.8359ZM162.602 42.5957V46.3145H158.705V47.832C160.695 47.832 161.822 47.7773 163.135 47.5312L163.285 48.7617C161.809 49.0146 160.53 49.0488 158.104 49.0488H157.201V45.1797H161.084V43.7988H157.174V42.5957H162.602ZM158.596 51.2773V50.0605H167.045V54.2168H165.528V51.2773H158.596ZM163.34 47.4355V46.2188H165.528V44.8379H163.34V43.6211H165.528V41.8711H167.045V49.4727H165.528V47.4355H163.34ZM172.073 49.2266C172.073 51.8037 171.307 53.9434 170.022 55.7891H168.381C169.325 54.4219 170.268 51.6738 170.268 49.2266C170.268 46.7793 169.325 44.0381 168.381 42.6777H170.022C171.307 44.5098 172.073 46.6562 172.073 49.2266ZM175.788 43.1152L174.64 46.9434H173.341L174.052 43.1152H175.788Z" fill="#EC5EEE"/>
<path d="M232.876 25.0488C235.693 25.0557 237.326 25.8008 237.333 27.168C237.326 28.5488 235.693 29.2939 232.876 29.3008C230.067 29.2939 228.419 28.5488 228.419 27.168C228.419 25.8008 230.067 25.0557 232.876 25.0488ZM227.257 31.1738V29.957H238.523V31.1738H227.257ZM228.583 33.1289V32.0078H237.114V35.0293H230.087V35.9453H237.456V37.1074H228.597V33.9492H235.624V33.1289H228.583ZM230.019 27.168C230.012 27.8516 230.996 28.166 232.876 28.166C234.783 28.166 235.761 27.8516 235.761 27.168C235.761 26.5322 234.783 26.1699 232.876 26.1699C230.996 26.1699 230.012 26.5322 230.019 27.168ZM247.498 24.9805C250.314 24.9873 251.948 25.7393 251.955 27.0996C251.948 28.3574 250.595 29.082 248.236 29.2119V29.998H253.145V31.2148H241.879V29.998H246.732V29.2119C244.395 29.082 243.041 28.3506 243.041 27.0996C243.041 25.7393 244.688 24.9873 247.498 24.9805ZM243.205 33.1562V32.0078H251.736V35.0293H244.709V35.9453H252.078V37.1074H243.219V33.9492H250.246V33.1562H243.205ZM244.641 27.0996C244.634 27.7832 245.618 28.0977 247.498 28.1113C249.405 28.0977 250.383 27.7832 250.383 27.0996C250.383 26.4639 249.405 26.1221 247.498 26.1152C245.618 26.1221 244.634 26.4639 244.641 27.0996ZM263.846 24.8711V33.9629H262.342V24.8711H263.846ZM254.207 26.9219V25.7051H259.909V29.5195H255.725V31.0781C257.96 31.0781 259.437 31.0098 261.139 30.6953L261.303 31.9121C259.437 32.2607 257.817 32.3223 255.288 32.3223H254.235V28.3711H258.405V26.9219H254.207ZM255.616 36.9707V33.2246H257.147V35.7402H264.188V36.9707H255.616ZM75.2326 48.7617V49.9922H72.5803V54.2578H71.0627V49.9922H68.178V54.2578H66.6467V49.9922H63.9397V48.7617H75.2326ZM64.4319 46.3965C67.0295 46.041 68.7932 44.4619 68.7932 42.8828V42.2539H70.3928V42.8828C70.386 44.4482 72.1565 46.0479 74.7541 46.3965L74.1526 47.6406C72.0676 47.3125 70.4065 46.2666 69.593 44.8652C68.7864 46.2734 67.1252 47.3125 65.0334 47.6406L64.4319 46.3965ZM85.9615 41.8574V54.2168H84.4576V41.8574H85.9615ZM76.3639 51.1133V43.0605H77.8678V49.8145C79.5973 49.7871 81.443 49.6367 83.3502 49.2539L83.5416 50.5254C81.3678 50.9766 79.3512 51.1201 77.4303 51.1133H76.3639ZM98.0166 41.8574V54.2168H96.5537V41.8574H98.0166ZM87.4756 47.2031C87.4756 44.4824 88.5283 42.7939 90.1416 42.8008C91.6387 42.7939 92.6573 44.1953 92.835 46.5059H94.0244V42.0762H95.4737V53.6152H94.0244V47.7363H92.8487C92.7051 50.1494 91.6729 51.626 90.1416 51.6191C88.5283 51.626 87.4756 49.9307 87.4756 47.2031ZM88.8838 47.2031C88.877 49.1377 89.3555 50.1768 90.1416 50.1699C90.9619 50.1768 91.4473 49.1377 91.4541 47.2031C91.4473 45.2754 90.9619 44.2295 90.1416 44.2363C89.3555 44.2295 88.877 45.2754 88.8838 47.2031ZM109.716 41.8574V54.2168H108.267V41.8574H109.716ZM98.9565 50.5254C101.513 49.0146 102.689 47.0801 102.921 44.5918H99.5854V43.3613H104.425C104.425 44.5576 104.275 45.6787 103.94 46.7246H105.656V42.1582H107.091V53.6289H105.656V47.9414H103.441C102.723 49.3564 101.561 50.5938 99.8178 51.6055L98.9565 50.5254ZM181.937 42.0488C184.753 42.0557 186.387 42.8008 186.394 44.168C186.387 45.5488 184.753 46.2939 181.937 46.3008C179.127 46.2939 177.48 45.5488 177.48 44.168C177.48 42.8008 179.127 42.0557 181.937 42.0488ZM176.318 48.1738V46.957H187.583V48.1738H176.318ZM177.644 50.1289V49.0078H186.175V52.0293H179.148V52.9453H186.517V54.1074H177.658V50.9492H184.685V50.1289H177.644ZM179.08 44.168C179.073 44.8516 180.057 45.166 181.937 45.166C183.844 45.166 184.822 44.8516 184.822 44.168C184.822 43.5322 183.844 43.1699 181.937 43.1699C180.057 43.1699 179.073 43.5322 179.08 44.168ZM202.205 47.6133V48.8438H190.94V47.6133H202.205ZM191.487 45.8633C193.777 45.6377 195.267 44.7217 195.499 43.6895H191.965V42.4453H201.194V43.6895H197.625C197.851 44.708 199.327 45.6377 201.672 45.8633L201.139 47.0664C198.89 46.834 197.229 45.9385 196.559 44.6875C195.889 45.9385 194.248 46.834 192.006 47.0664L191.487 45.8633ZM192.252 51.9336C192.252 50.498 193.872 49.6641 196.559 49.6641C199.225 49.6641 200.831 50.498 200.838 51.9336C200.831 53.3896 199.225 54.2031 196.559 54.2031C193.872 54.2031 192.252 53.3896 192.252 51.9336ZM193.797 51.9336C193.79 52.6514 194.761 53.0068 196.559 53.0137C198.329 53.0068 199.307 52.6514 199.321 51.9336C199.307 51.2158 198.329 50.8535 196.559 50.8535C194.761 50.8535 193.79 51.2158 193.797 51.9336ZM212.989 41.8574V49.1992H211.471V46.1777H209.366V44.9336H211.471V41.8574H212.989ZM202.598 47.9688C204.588 47.2852 205.633 45.624 205.633 43.9902V43.8945H203.063V42.6641H209.735V43.8945H207.178V43.9766C207.178 45.4805 208.176 46.998 210.09 47.6406L209.325 48.8438C207.951 48.3789 206.98 47.4355 206.433 46.2734C205.893 47.5859 204.861 48.6523 203.391 49.1719L202.598 47.9688ZM204.608 51.8652C204.594 50.3818 206.201 49.5137 208.805 49.5137C211.423 49.5137 213.023 50.3818 213.03 51.8652C213.023 53.3486 211.423 54.21 208.805 54.2168C206.201 54.21 204.594 53.3486 204.608 51.8652ZM206.112 51.8652C206.105 52.6309 207.089 53.0479 208.805 53.041C210.535 53.0479 211.512 52.6309 211.512 51.8652C211.512 51.0928 210.535 50.6758 208.805 50.6758C207.089 50.6758 206.105 51.0928 206.112 51.8652ZM223.29 43.8262V45.043H217.234V43.8262H219.531V42.2129H221.035V43.8262H223.29ZM217.589 48.5703C217.576 46.8887 218.717 45.6924 220.283 45.6992C221.855 45.6924 222.976 46.8887 222.976 48.5703C222.976 50.2861 221.855 51.4824 220.283 51.4824C218.717 51.4824 217.576 50.2861 217.589 48.5703ZM218.929 48.5703C218.922 49.5684 219.483 50.1904 220.283 50.1836C221.076 50.1904 221.636 49.5684 221.636 48.5703C221.636 47.5996 221.076 46.957 220.283 46.957C219.483 46.957 218.922 47.5996 218.929 48.5703ZM223.81 53.6562V42.1172H225.232V46.9434H226.435V41.8574H227.884V54.2168H226.435V48.1738H225.232V53.6562H223.81ZM238.996 47.6543V48.8711H230.328V42.9375H238.9V44.168H231.832V47.6543H238.996ZM228.961 52.6445V51.3867H240.254V52.6445H228.961ZM251.01 41.8574V54.2305H249.492V49.1582H247.237V47.9141H249.492V45.7949H247.278V44.5508H249.492V41.8574H251.01ZM241.071 44.1406V42.9238H246.58V47.5449H242.615V50.1699C244.249 50.1631 245.664 50.0879 247.332 49.8418L247.455 51.0859C245.562 51.3867 243.989 51.4277 242.069 51.4277H241.112V46.3555H245.09V44.1406H241.071ZM263.653 51.4688V52.7129H252.36V51.4688H254.971V48.3447C253.987 47.7773 253.392 46.8887 253.399 45.7949C253.392 43.8262 255.32 42.5273 257.979 42.5273C260.652 42.5273 262.593 43.8262 262.587 45.7949C262.593 46.875 262.012 47.7432 261.055 48.3105V51.4688H263.653ZM254.889 45.7949C254.882 47.0596 256.133 47.8662 257.979 47.8594C259.818 47.8662 261.096 47.0596 261.096 45.7949C261.096 44.5098 259.818 43.7236 257.979 43.7305C256.133 43.7236 254.882 44.5098 254.889 45.7949ZM256.475 51.4688H259.51V48.8916C259.039 48.9941 258.526 49.0488 257.979 49.0488C257.446 49.0488 256.94 48.9941 256.475 48.8984V51.4688ZM266.603 43.1016L266.452 50.0879H264.907L264.743 43.1016H266.603ZM264.62 52.043C264.613 51.4688 265.099 50.9971 265.687 50.9902C266.254 50.9971 266.739 51.4688 266.739 52.043C266.739 52.6309 266.254 53.1094 265.687 53.1094C265.099 53.1094 264.613 52.6309 264.62 52.043Z" fill="#007495"/>
<rect x="12" width="49" height="18" rx="9" fill="#1CCAFB"/>
<path d="M20.6388 10.68V8.52H20.8788V7.92H21.1188V7.44H21.3588V7.08H21.7188V6.72H22.0788V6.48H22.4388V6.24H23.0388V6H24.8508V6.24H25.3308V6.48H25.8108V6.84H26.0508V7.32H26.2908V8.52H26.0508V8.88H25.8108V9.24H25.4508V9.6H25.0908V9.84H24.4188V10.08H23.5788V10.32H22.8588V10.08H22.6188V9.36H22.8588V9.12H23.9268V8.88H24.4068V8.64H24.6468V8.4H24.8868V7.68H24.6468V7.44H24.4068V7.2H23.2908V7.44H22.8108V7.68H22.5708V8.16H22.3308V8.64H22.0908V10.32H22.3308V10.92H22.5708V11.16H22.8108V11.4H23.1708V11.64H24.5748V11.4H25.0548V11.16H25.4148V10.92H25.8948V11.4H26.1348V12.12H25.8948V12.36H25.4148V12.6H24.9348V12.84H22.9188V12.6H22.3188V12.36H21.8388V12H21.3588V11.4H20.9988V10.68H20.6388ZM27.031 6.96V6.48H27.271V6.24H27.871V6H28.471V6.24H28.711V7.2H28.951V8.16H29.191V8.88H29.431V9.6H29.671V10.32H29.911V11.04H30.151V10.8H30.391V10.32H30.631V9.6H30.871V8.88H31.111V8.16H31.351V6.96H31.591V6.36H31.831V6.12H32.791V6.36H33.031V7.2H32.791V8.16H32.551V8.88H32.311V9.6H32.071V10.08H31.831V10.8H31.591V11.28H31.351V11.76H31.111V12H30.871V12.48H30.631V12.72H29.191V12.48H28.951V11.76H28.711V11.04H28.471V10.32H28.231V9.6H27.991V8.88H27.751V8.16H27.511V7.56H27.271V6.96H27.031ZM33.8458 10.68V8.52H34.0858V7.92H34.3258V7.44H34.5658V7.08H34.9258V6.72H35.2858V6.48H35.6458V6.24H36.2458V6H38.0578V6.24H38.5378V6.48H39.0178V6.84H39.2578V7.32H39.4978V8.52H39.2578V8.88H39.0178V9.24H38.6578V9.6H38.2978V9.84H37.6258V10.08H36.7858V10.32H36.0658V10.08H35.8258V9.36H36.0658V9.12H37.1338V8.88H37.6138V8.64H37.8538V8.4H38.0938V7.68H37.8538V7.44H37.6138V7.2H36.4978V7.44H36.0178V7.68H35.7778V8.16H35.5378V8.64H35.2978V10.32H35.5378V10.92H35.7778V11.16H36.0178V11.4H36.3778V11.64H37.7818V11.4H38.2618V11.16H38.6218V10.92H39.1018V11.4H39.3418V12.12H39.1018V12.36H38.6218V12.6H38.1418V12.84H36.1258V12.6H35.5258V12.36H35.0458V12H34.5658V11.4H34.2058V10.68H33.8458ZM40.862 12.48V6.36H41.102V6.12H42.062V6.36H42.302V7.68H42.542V7.32H42.782V6.96H43.022V6.72H43.262V6.48H43.622V6.24H43.982V6H45.41V6.24H45.77V6.6H46.13V6.96H46.37V7.68H46.61V12.48H46.37V12.72H45.41V12.48H45.17V7.836H44.93V7.476H44.69V7.236H43.862V7.476H43.502V7.716H43.262V8.076H43.022V8.556H42.782V9.156H42.542V9.876H42.302V12.48H42.062V12.72H41.102V12.48H40.862ZM47.62 7.056V6.36H47.86V6.12H48.94V4.572H49.18V4.332H50.14V4.572H50.38V6.12H52V6.36H52.24V7.056H52V7.296H50.38V11.28H50.62V11.64H51.58V11.4H52.3V11.76H52.54V12.36H52.3V12.6H51.94V12.84H50.02V12.6H49.54V12.24H49.18V11.76H48.94V7.296H47.86V7.056H47.62Z" fill="#FFFED4"/>
</svg>
