<svg width="332" height="72" viewBox="0 0 332 72" fill="none" xmlns="http://www.w3.org/2000/svg">
<rect x="1" y="9" width="329.253" height="62" rx="7" fill="#FFFED4"/>
<rect x="1" y="9" width="329.253" height="62" rx="7" stroke="#1CCAFB" stroke-width="2"/>
<path d="M69.844 28.5352V29.7793H74.7522V31.0098H63.4593V29.7793H68.3401V28.5352H69.844ZM73.7269 25.1992V26.3613H70.1858C70.4729 27.2432 71.9358 27.9883 74.2054 28.125L73.7269 29.2598C71.4368 29.082 69.7483 28.3027 69.1058 27.127C68.4563 28.3027 66.761 29.082 64.4847 29.2598L63.9925 28.125C66.221 27.9951 67.6976 27.2363 68.012 26.3613H64.4983V25.1992H73.7269ZM73.6858 32.3906V33.5391H64.4983V32.3906H68.3265V31.3926H69.8577V32.3906H73.6858ZM69.0784 33.9902C71.471 33.9902 72.8655 34.5508 72.8655 35.6172C72.8655 36.6973 71.471 37.2578 69.0784 37.2578C66.6722 37.2578 65.3186 36.6973 65.3186 35.6172C65.3186 34.5508 66.6722 33.9902 69.0784 33.9902ZM69.0784 35.0156C67.6429 35.0156 66.8772 35.1934 66.8772 35.6172C66.8772 36.041 67.6429 36.2461 69.0784 36.2461C70.5413 36.2461 71.2796 36.041 71.2933 35.6172C71.2796 35.1934 70.5413 35.0156 69.0784 35.0156ZM78.4948 25.7598C80.3542 25.7598 81.694 27.4551 81.7077 30.1211C81.694 32.8145 80.3542 34.4961 78.4948 34.4961C76.6218 34.4961 75.2683 32.8145 75.2819 30.1211C75.2683 27.4551 76.6218 25.7598 78.4948 25.7598ZM78.4948 27.127C77.4558 27.127 76.7448 28.2344 76.7448 30.1211C76.7448 32.0215 77.4558 33.1289 78.4948 33.1289C79.5476 33.1289 80.2448 32.0215 80.2448 30.1211C80.2448 28.2344 79.5476 27.127 78.4948 27.127ZM84.8522 24.8574V29.6016H86.7526V30.8867H84.8522V37.2168H83.3347V24.8574H84.8522ZM98.1651 34.4688V35.7129H86.8722V34.4688H89.4835V31.3379C88.4991 30.7773 87.9044 29.8955 87.9112 28.7949C87.8976 26.8262 89.839 25.5273 92.4913 25.5273C95.1573 25.5273 97.0987 26.8262 97.0987 28.7949C97.0987 29.875 96.5245 30.7432 95.5675 31.3105V34.4688H98.1651ZM92.4913 26.7305C90.6456 26.7305 89.3878 27.5098 89.4015 28.7949C89.3878 30.0664 90.6456 30.8594 92.4913 30.8594C94.337 30.8594 95.6085 30.0664 95.6085 28.7949C95.6085 27.5098 94.337 26.7305 92.4913 26.7305ZM90.9874 34.4688H94.0226V31.8848C93.5509 31.9941 93.0382 32.0488 92.4913 32.0488C91.9581 32.0488 91.4522 31.9941 90.9874 31.8984V34.4688ZM108.251 24.8574V29.6836H110.083V30.9551H108.251V37.1895H106.734V24.8574H108.251ZM104.984 26.1426C104.984 29.7793 103.48 32.9648 99.3647 34.9883L98.5034 33.8125C101.511 32.3154 103.138 30.21 103.453 27.4004H99.1733V26.1426H104.984ZM122.873 24.8574V29.6836H124.705V30.9551H122.873V37.1895H121.356V24.8574H122.873ZM119.606 26.1426C119.606 29.7793 118.102 32.9648 113.987 34.9883L113.125 33.8125C116.133 32.3154 117.76 30.21 118.075 27.4004H113.795V26.1426H119.606ZM129.323 27.0859C129.323 28.6035 130.307 30.0254 132.235 30.6133L131.51 31.8027C130.123 31.3721 129.138 30.4902 128.598 29.3691C128.051 30.668 127.006 31.7002 125.522 32.1992L124.757 30.9961C126.753 30.3398 127.792 28.7402 127.792 27.0996V26.9492H125.18V25.7188H131.893V26.9492H129.323V27.0859ZM134.641 24.8574V27.8242H136.364V29.0684H134.641V32.2266H133.124V24.8574H134.641ZM130.622 32.5C133.178 32.5 134.751 33.3613 134.764 34.8379C134.751 36.3281 133.178 37.2031 130.622 37.2031C128.038 37.2031 126.438 36.3281 126.438 34.8379C126.438 33.3613 128.038 32.5 130.622 32.5ZM130.622 33.6895C128.926 33.6895 127.956 34.0859 127.956 34.8379C127.956 35.6035 128.926 36.0137 130.622 36.0137C132.317 36.0137 133.26 35.6035 133.26 34.8379C133.26 34.0859 132.317 33.6895 130.622 33.6895ZM149.263 24.8574V27.5234H150.986V28.7812H149.263V31.0781H147.746V24.8574H149.263ZM145.791 25.6504V30.75H139.939V25.6504H145.791ZM141.429 26.8398V29.5605H144.3V26.8398H141.429ZM142.181 32.1309V35.6309C142.892 35.5967 143.624 35.4941 144.328 35.2617L144.546 36.4512C143.453 36.834 142.4 36.875 141.347 36.875H140.691V32.1309H142.181ZM150.343 32.2676V33.3613H144.123V32.2676H146.501V31.2969H147.992V32.2676H150.343ZM147.226 33.7305C148.621 33.7305 149.591 34.3867 149.591 35.4668C149.591 36.5195 148.621 37.1895 147.226 37.1895C145.818 37.1895 144.861 36.5195 144.875 35.4668C144.861 34.3867 145.818 33.7305 147.226 33.7305ZM147.226 34.7695C146.638 34.7695 146.214 35.0156 146.228 35.4668C146.214 35.918 146.638 36.1641 147.226 36.1641C147.8 36.1641 148.224 35.918 148.224 35.4668C148.224 35.0156 147.8 34.7695 147.226 34.7695ZM161.496 24.8574V37.2305H159.965V24.8574H161.496ZM154.838 25.7598C156.697 25.7598 158.051 27.4551 158.064 30.1211C158.051 32.8145 156.697 34.4961 154.838 34.4961C152.965 34.4961 151.611 32.8145 151.611 30.1211C151.611 27.4551 152.965 25.7598 154.838 25.7598ZM154.838 27.127C153.785 27.127 153.074 28.2344 153.074 30.1211C153.074 32.0215 153.785 33.1289 154.838 33.1289C155.877 33.1289 156.588 32.0215 156.588 30.1211C156.588 28.2344 155.877 27.127 154.838 27.127ZM171.852 25.5273V26.7441H167.819V29.4922C170.068 29.4785 171.415 29.3896 172.946 29.082L173.11 30.2578C171.456 30.6406 169.938 30.6816 167.313 30.6816H166.315V25.5273H171.852ZM175.585 24.8574V27.291H177.307V28.5352H175.585V31.0371H174.067V24.8574H175.585ZM175.585 31.5703V34.8516H169.022V35.8359H175.967V37.0664H167.518V33.7031H174.067V32.7871H167.505V31.5703H175.585ZM187.804 24.8711V33.9629H186.3V24.8711H187.804ZM188.146 35.7402V36.9707H179.573V33.2246H181.105V35.7402H188.146ZM183.866 25.7051V29.5195H179.683V31.0781C181.918 31.0713 183.388 31.0029 185.097 30.6953L185.261 31.9121C183.401 32.2539 181.775 32.3223 179.245 32.3223H178.192V28.3711H182.362V26.9219H178.165V25.7051H183.866ZM202.453 24.8711V33.7988H200.922V24.8711H202.453ZM202.795 35.7402V36.9707H194.277V32.8965H195.808V35.7402H202.795ZM195.713 25.6777C197.586 25.6777 199.035 26.9766 199.035 28.7676C199.035 30.5996 197.586 31.8711 195.713 31.8711C193.826 31.8711 192.377 30.5996 192.377 28.7676C192.377 26.9766 193.826 25.6777 195.713 25.6777ZM195.713 27.0039C194.66 27.0039 193.853 27.7012 193.867 28.7676C193.853 29.8613 194.66 30.5449 195.713 30.5449C196.738 30.5449 197.545 29.8613 197.545 28.7676C197.545 27.7012 196.738 27.0039 195.713 27.0039ZM215.123 30.6133V31.8438H203.858V30.6133H215.123ZM209.477 32.6641C212.143 32.6641 213.742 33.498 213.756 34.9336C213.742 36.3828 212.143 37.2031 209.477 37.2031C206.783 37.2031 205.17 36.3828 205.17 34.9336C205.17 33.498 206.783 32.6641 209.477 32.6641ZM209.477 33.8535C207.672 33.8535 206.701 34.2227 206.715 34.9336C206.701 35.6445 207.672 36.0137 209.477 36.0137C211.241 36.0137 212.225 35.6445 212.239 34.9336C212.225 34.2227 211.241 33.8535 209.477 33.8535ZM214.112 25.4453V26.6895H210.543C210.769 27.7148 212.252 28.6377 214.59 28.8633L214.057 30.0664C211.815 29.8271 210.147 28.9453 209.477 27.6875C208.807 28.9385 207.166 29.8271 204.924 30.0664L204.405 28.8633C206.695 28.6377 208.185 27.7148 208.424 26.6895H204.883V25.4453H214.112ZM226.987 26.8262V28.0703H225.305V29.6016H226.987V30.8594H225.305V33.1426H223.788V24.8574H225.305V26.8262H226.987ZM219.987 26.8672C219.973 28.4121 220.971 29.8887 222.899 30.4766L222.079 31.6523C220.746 31.208 219.789 30.3193 219.262 29.1777C218.709 30.4834 217.697 31.502 216.268 32.0078L215.434 30.8047C217.444 30.1211 218.456 28.4805 218.456 26.7168V25.5684H219.987V26.8672ZM222.175 32.8691C222.161 34.332 223.706 35.6172 226.194 35.9863L225.592 37.1484C223.665 36.8477 222.175 36 221.436 34.7832C220.671 36 219.18 36.8477 217.253 37.1484L216.665 35.9863C219.153 35.6172 220.657 34.332 220.657 32.8691V32.5273H222.175V32.8691ZM105.459 46.9297L106.607 43.1016H107.906L107.195 46.9297H105.459ZM114.752 43.0742C114.739 46.8066 113.645 50.0059 109.215 52.2891L108.381 51.127C110.432 50.0674 111.71 48.8369 112.442 47.3672L108.655 47.7227L108.436 46.4238L112.92 46.1504C113.084 45.5693 113.187 44.9541 113.235 44.3047H109.078V43.0742H114.752ZM118.785 41.8574V54.2168H117.268V47.9277H114.725V46.6836H117.268V41.8574H118.785ZM130.458 41.8574V54.2168H128.926V41.8574H130.458ZM127.45 43.0605V44.3047H126.26V49.8418C126.855 49.8008 127.436 49.7461 127.997 49.6777L128.079 50.8125C125.426 51.2363 122.528 51.291 120.258 51.291L120.108 50.0469L121.639 50.0332V44.3047H120.436V43.0605H127.45ZM123.102 49.9922C123.649 49.9854 124.21 49.9648 124.77 49.9375V44.3047H123.102V49.9922ZM145.08 41.8574V54.2168H143.548V41.8574H145.08ZM141.388 43.1699C141.388 46.8477 139.966 49.9785 135.632 52.0293L134.839 50.8125C138.073 49.2744 139.577 47.1826 139.843 44.373H135.468V43.1699H141.388ZM157.75 51.4551V52.7266H146.457V51.4551H157.75ZM156.766 43.0059V44.2227H154.961V48.1602H156.725V49.3633H147.428V48.1602H149.164V44.2227H147.387V43.0059H156.766ZM150.682 48.1602H153.457V44.2227H150.682V48.1602ZM165.061 42.9238V44.168H160.371V46.3691H164.569V47.5723H160.371V50.1152C162.395 50.1084 163.94 50.04 165.717 49.7461L165.867 50.9766C163.926 51.2773 162.19 51.3457 159.907 51.3457H158.867V42.9238H165.061ZM168.479 41.8574V54.2168H166.948V41.8574H168.479ZM179.796 42.377V43.498C179.782 44.7012 179.782 45.918 179.44 47.5859L177.936 47.4629C178.066 46.8613 178.148 46.3145 178.196 45.7949L171.032 46.1094L170.841 44.8516L178.264 44.6738C178.278 44.3047 178.278 43.9492 178.278 43.5938H171.169V42.377H179.796ZM181.094 48.2695V49.4863H169.883V48.2695H174.204V46.6426H175.721V48.2695H181.094ZM180.028 52.7949V54.0254H171.223V50.3477H172.741V52.7949H180.028ZM184.112 43.1152L182.964 46.9434H181.665L182.376 43.1152H184.112Z" fill="#EC5EEE"/>
<path d="M232.876 25.0488C235.692 25.0488 237.319 25.8008 237.333 27.168C237.319 28.5488 235.692 29.2871 232.876 29.3008C230.06 29.2871 228.419 28.5488 228.419 27.168C228.419 25.8008 230.06 25.0488 232.876 25.0488ZM232.876 26.1699C230.989 26.1699 230.005 26.5254 230.019 27.168C230.005 27.8516 230.989 28.166 232.876 28.166C234.79 28.166 235.761 27.8516 235.761 27.168C235.761 26.5254 234.79 26.1699 232.876 26.1699ZM238.523 29.957V31.1738H227.257V29.957H238.523ZM237.114 32.0078V35.0293H230.087V35.9453H237.456V37.1074H228.597V33.9492H235.624V33.1289H228.583V32.0078H237.114ZM247.498 24.9805C250.314 24.9805 251.941 25.7324 251.955 27.0996C251.941 28.3574 250.595 29.082 248.236 29.2051V29.998H253.144V31.2148H241.879V29.998H246.732V29.2051C244.388 29.0752 243.041 28.3506 243.041 27.0996C243.041 25.7324 244.682 24.9805 247.498 24.9805ZM247.498 26.1152C245.611 26.1152 244.627 26.457 244.641 27.0996C244.627 27.7832 245.611 28.0977 247.498 28.1113C249.412 28.0977 250.383 27.7832 250.383 27.0996C250.383 26.457 249.412 26.1152 247.498 26.1152ZM251.736 32.0078V35.0293H244.709V35.9453H252.078V37.1074H243.219V33.9492H250.246V33.1562H243.205V32.0078H251.736ZM263.846 24.8711V33.9629H262.342V24.8711H263.846ZM264.188 35.7402V36.9707H255.616V33.2246H257.147V35.7402H264.188ZM259.908 25.7051V29.5195H255.725V31.0781C257.96 31.0713 259.43 31.0029 261.139 30.6953L261.303 31.9121C259.444 32.2539 257.817 32.3223 255.287 32.3223H254.235V28.3711H258.405V26.9219H254.207V25.7051H259.908ZM66.9081 48.7617V49.9922H64.2558V54.2578H62.7382V49.9922H59.8534V54.2578H58.3222V49.9922H55.6151V48.7617H66.9081ZM62.0683 42.8828C62.0683 44.4414 63.8319 46.0547 66.4296 46.3965L65.828 47.6406C63.7499 47.3125 62.0751 46.2666 61.2753 44.8516C60.4618 46.2666 58.8007 47.3125 56.7089 47.6406L56.1073 46.3965C58.705 46.041 60.4687 44.4551 60.4687 42.8828V42.2539H62.0683V42.8828ZM77.637 41.8574V54.2168H76.1331V41.8574H77.637ZM69.5433 43.0605V49.8145C71.2796 49.7871 73.1253 49.6299 75.0257 49.2539L75.2171 50.5254C73.0433 50.9766 71.0198 51.1133 69.1058 51.1133H68.0394V43.0605H69.5433ZM89.6921 41.8574V54.2168H88.2292V41.8574H89.6921ZM87.1491 42.0762V53.6152H85.6999V47.7363H84.5241C84.3806 50.1426 83.3483 51.6328 81.8171 51.6191C80.2038 51.6328 79.1511 49.9238 79.1511 47.2031C79.1511 44.4824 80.2038 42.8008 81.8171 42.8008C83.3142 42.8008 84.3327 44.1953 84.5104 46.5059H85.6999V42.0762H87.1491ZM81.8171 44.2363C81.0378 44.2227 80.5456 45.2754 80.5593 47.2031C80.5456 49.1309 81.0378 50.1836 81.8171 50.1699C82.6374 50.1836 83.1296 49.1309 83.1296 47.2031C83.1296 45.2754 82.6374 44.2227 81.8171 44.2363ZM101.392 41.8574V54.2168H99.9425V41.8574H101.392ZM98.7667 42.1582V53.6289H97.3312V47.9414H95.13C94.4054 49.3633 93.2433 50.5938 91.4933 51.6055L90.6319 50.5254C93.1954 49.0146 94.3644 47.0801 94.5968 44.5918H91.2608V43.3613H96.1007C96.1007 44.5576 95.9571 45.6787 95.6222 46.7246H97.3312V42.1582H98.7667ZM190.261 42.0488C193.078 42.0488 194.705 42.8008 194.718 44.168C194.705 45.5488 193.078 46.2871 190.261 46.3008C187.445 46.2871 185.804 45.5488 185.804 44.168C185.804 42.8008 187.445 42.0488 190.261 42.0488ZM190.261 43.1699C188.375 43.1699 187.39 43.5254 187.404 44.168C187.39 44.8516 188.375 45.166 190.261 45.166C192.175 45.166 193.146 44.8516 193.146 44.168C193.146 43.5254 192.175 43.1699 190.261 43.1699ZM195.908 46.957V48.1738H184.642V46.957H195.908ZM194.5 49.0078V52.0293H187.472V52.9453H194.841V54.1074H185.982V50.9492H193.009V50.1289H185.968V49.0078H194.5ZM210.53 47.6133V48.8438H199.264V47.6133H210.53ZM204.883 49.6641C207.549 49.6641 209.149 50.498 209.162 51.9336C209.149 53.3828 207.549 54.2031 204.883 54.2031C202.19 54.2031 200.576 53.3828 200.576 51.9336C200.576 50.498 202.19 49.6641 204.883 49.6641ZM204.883 50.8535C203.078 50.8535 202.108 51.2227 202.121 51.9336C202.108 52.6445 203.078 53.0137 204.883 53.0137C206.647 53.0137 207.631 52.6445 207.645 51.9336C207.631 51.2227 206.647 50.8535 204.883 50.8535ZM209.518 42.4453V43.6895H205.95C206.175 44.7148 207.659 45.6377 209.996 45.8633L209.463 47.0664C207.221 46.8271 205.553 45.9453 204.883 44.6875C204.213 45.9385 202.573 46.8271 200.33 47.0664L199.811 45.8633C202.101 45.6377 203.591 44.7148 203.83 43.6895H200.289V42.4453H209.518ZM221.313 41.8574V49.1992H219.796V46.1777H217.69V44.9336H219.796V41.8574H221.313ZM217.13 49.5137C219.755 49.5137 221.354 50.375 221.354 51.8652C221.354 53.3555 219.755 54.2168 217.13 54.2168C214.518 54.2168 212.919 53.3555 212.932 51.8652C212.919 50.375 214.518 49.5137 217.13 49.5137ZM217.13 50.6758C215.407 50.6758 214.436 51.0859 214.436 51.8652C214.436 52.6309 215.407 53.041 217.13 53.041C218.852 53.041 219.837 52.6309 219.837 51.8652C219.837 51.0859 218.852 50.6758 217.13 50.6758ZM215.503 43.9766C215.503 45.4805 216.501 46.998 218.415 47.6406L217.649 48.8438C216.275 48.3789 215.298 47.4355 214.764 46.2734C214.217 47.5928 213.185 48.6455 211.716 49.1719L210.923 47.9688C212.905 47.2852 213.958 45.6172 213.958 43.9902V43.8945H211.387V42.6641H218.059V43.8945H215.503V43.9766ZM231.615 43.8262V45.043H225.558V43.8262H227.855V42.2129H229.359V43.8262H231.615ZM228.607 45.6992C230.179 45.6992 231.3 46.8887 231.3 48.5703C231.3 50.2793 230.179 51.4824 228.607 51.4824C227.048 51.4824 225.9 50.2793 225.914 48.5703C225.9 46.8887 227.048 45.6992 228.607 45.6992ZM228.607 46.957C227.8 46.957 227.24 47.5996 227.253 48.5703C227.24 49.5684 227.8 50.1973 228.607 50.1836C229.4 50.1973 229.96 49.5684 229.96 48.5703C229.96 47.5996 229.4 46.957 228.607 46.957ZM236.208 41.8574V54.2168H234.759V48.1738H233.556V53.6562H232.134V42.1172H233.556V46.9434H234.759V41.8574H236.208ZM247.32 47.6543V48.8711H238.652V42.9375H247.225V44.168H240.156V47.6543H247.32ZM248.578 51.3867V52.6445H237.285V51.3867H248.578ZM259.334 41.8574V54.2305H257.817V49.1582H255.561V47.9141H257.817V45.7949H255.602V44.5508H257.817V41.8574H259.334ZM254.905 42.9238V47.5449H250.94V50.1699C252.574 50.1562 253.995 50.0879 255.657 49.8418L255.78 51.0859C253.879 51.3867 252.307 51.4277 250.393 51.4277H249.436V46.3555H253.414V44.1406H249.395V42.9238H254.905ZM271.977 51.4688V52.7129H260.684V51.4688H263.296V48.3379C262.311 47.7773 261.716 46.8955 261.723 45.7949C261.71 43.8262 263.651 42.5273 266.303 42.5273C268.969 42.5273 270.911 43.8262 270.911 45.7949C270.911 46.875 270.337 47.7432 269.38 48.3105V51.4688H271.977ZM266.303 43.7305C264.458 43.7305 263.2 44.5098 263.214 45.7949C263.2 47.0664 264.458 47.8594 266.303 47.8594C268.149 47.8594 269.421 47.0664 269.421 45.7949C269.421 44.5098 268.149 43.7305 266.303 43.7305ZM264.799 51.4688H267.835V48.8848C267.363 48.9941 266.85 49.0488 266.303 49.0488C265.77 49.0488 265.264 48.9941 264.799 48.8984V51.4688ZM274.927 43.1016L274.776 50.0879H273.232L273.067 43.1016H274.927ZM274.011 53.1094C273.423 53.1094 272.944 52.6309 272.944 52.043C272.944 51.4688 273.423 50.9902 274.011 50.9902C274.571 50.9902 275.064 51.4688 275.064 52.043C275.064 52.6309 274.571 53.1094 274.011 53.1094Z" fill="#007495"/>
<rect x="12" width="49" height="18" rx="9" fill="#1CCAFB"/>
<path d="M20.6388 10.68V8.52H20.8788V7.92H21.1188V7.44H21.3588V7.08H21.7188V6.72H22.0788V6.48H22.4388V6.24H23.0388V6H24.8508V6.24H25.3308V6.48H25.8108V6.84H26.0508V7.32H26.2908V8.52H26.0508V8.88H25.8108V9.24H25.4508V9.6H25.0908V9.84H24.4188V10.08H23.5788V10.32H22.8588V10.08H22.6188V9.36H22.8588V9.12H23.9268V8.88H24.4068V8.64H24.6468V8.4H24.8868V7.68H24.6468V7.44H24.4068V7.2H23.2908V7.44H22.8108V7.68H22.5708V8.16H22.3308V8.64H22.0908V10.32H22.3308V10.92H22.5708V11.16H22.8108V11.4H23.1708V11.64H24.5748V11.4H25.0548V11.16H25.4148V10.92H25.8948V11.4H26.1348V12.12H25.8948V12.36H25.4148V12.6H24.9348V12.84H22.9188V12.6H22.3188V12.36H21.8388V12H21.3588V11.4H20.9988V10.68H20.6388ZM27.031 6.96V6.48H27.271V6.24H27.871V6H28.471V6.24H28.711V7.2H28.951V8.16H29.191V8.88H29.431V9.6H29.671V10.32H29.911V11.04H30.151V10.8H30.391V10.32H30.631V9.6H30.871V8.88H31.111V8.16H31.351V6.96H31.591V6.36H31.831V6.12H32.791V6.36H33.031V7.2H32.791V8.16H32.551V8.88H32.311V9.6H32.071V10.08H31.831V10.8H31.591V11.28H31.351V11.76H31.111V12H30.871V12.48H30.631V12.72H29.191V12.48H28.951V11.76H28.711V11.04H28.471V10.32H28.231V9.6H27.991V8.88H27.751V8.16H27.511V7.56H27.271V6.96H27.031ZM33.8458 10.68V8.52H34.0858V7.92H34.3258V7.44H34.5658V7.08H34.9258V6.72H35.2858V6.48H35.6458V6.24H36.2458V6H38.0578V6.24H38.5378V6.48H39.0178V6.84H39.2578V7.32H39.4978V8.52H39.2578V8.88H39.0178V9.24H38.6578V9.6H38.2978V9.84H37.6258V10.08H36.7858V10.32H36.0658V10.08H35.8258V9.36H36.0658V9.12H37.1338V8.88H37.6138V8.64H37.8538V8.4H38.0938V7.68H37.8538V7.44H37.6138V7.2H36.4978V7.44H36.0178V7.68H35.7778V8.16H35.5378V8.64H35.2978V10.32H35.5378V10.92H35.7778V11.16H36.0178V11.4H36.3778V11.64H37.7818V11.4H38.2618V11.16H38.6218V10.92H39.1018V11.4H39.3418V12.12H39.1018V12.36H38.6218V12.6H38.1418V12.84H36.1258V12.6H35.5258V12.36H35.0458V12H34.5658V11.4H34.2058V10.68H33.8458ZM40.862 12.48V6.36H41.102V6.12H42.062V6.36H42.302V7.68H42.542V7.32H42.782V6.96H43.022V6.72H43.262V6.48H43.622V6.24H43.982V6H45.41V6.24H45.77V6.6H46.13V6.96H46.37V7.68H46.61V12.48H46.37V12.72H45.41V12.48H45.17V7.836H44.93V7.476H44.69V7.236H43.862V7.476H43.502V7.716H43.262V8.076H43.022V8.556H42.782V9.156H42.542V9.876H42.302V12.48H42.062V12.72H41.102V12.48H40.862ZM47.62 7.056V6.36H47.86V6.12H48.94V4.572H49.18V4.332H50.14V4.572H50.38V6.12H52V6.36H52.24V7.056H52V7.296H50.38V11.28H50.62V11.64H51.58V11.4H52.3V11.76H52.54V12.36H52.3V12.6H51.94V12.84H50.02V12.6H49.54V12.24H49.18V11.76H48.94V7.296H47.86V7.056H47.62Z" fill="#FFFED4"/>
</svg>
