<svg width="58" height="14" viewBox="0 0 58 14" fill="none" xmlns="http://www.w3.org/2000/svg">
<g clip-path="url(#clip0_103_1770)">
<path d="M6 12C8.76142 12 11 9.76142 11 7C11 4.23858 8.76142 2 6 2C3.23858 2 1 4.23858 1 7C1 9.76142 3.23858 12 6 12Z" stroke="#6D7882" stroke-width="1.16667" stroke-linecap="round" stroke-linejoin="round"/>
<path d="M6 4V7L8 8" stroke="#6D7882" stroke-width="1.16667" stroke-linecap="round" stroke-linejoin="round"/>
</g>
<path d="M25.9844 6.75781V7.66016H21.8242V9.69922H20.6992V7.66016H16.375V6.75781H25.9844ZM24.918 10.8594V11.7734H17.582V8.69141H18.6953V10.8594H24.918ZM21.168 1.74219C23.4297 1.74219 24.8945 2.5625 24.8945 3.875C24.8945 5.1875 23.4297 5.99609 21.168 5.99609C18.918 5.99609 17.4297 5.1875 17.4297 3.875C17.4297 2.5625 18.918 1.74219 21.168 1.74219ZM21.168 2.63281C19.6328 2.63281 18.6133 3.10156 18.625 3.875C18.6133 4.63672 19.6328 5.09375 21.168 5.09375C22.7148 5.09375 23.7227 4.63672 23.7227 3.875C23.7227 3.10156 22.7148 2.63281 21.168 2.63281ZM29.6641 2.10547C30.5371 2.09961 31.2812 2.42773 31.7734 2.97266H34.3984V1.49609H35.5117V7.69531H34.3984V6.27734H31.7617C31.2754 6.81641 30.5312 7.13867 29.6641 7.13281C28.082 7.14453 26.9102 6.08984 26.9102 4.625C26.9102 3.14844 28.082 2.09375 29.6641 2.10547ZM29.6641 3.06641C28.6797 3.05469 27.9766 3.6875 27.9766 4.625C27.9766 5.53906 28.6797 6.19531 29.6641 6.18359C30.625 6.19531 31.3281 5.53906 31.3281 4.625C31.3281 3.6875 30.625 3.05469 29.6641 3.06641ZM31.9961 7.92969C34.1758 7.92969 35.5469 8.66797 35.5469 9.95703C35.5469 11.2344 34.1758 11.9844 31.9961 11.9727C29.8047 11.9844 28.4336 11.2344 28.4453 9.95703C28.4336 8.66797 29.8047 7.92969 31.9961 7.92969ZM31.9961 8.78516C30.4609 8.78516 29.5234 9.20703 29.5352 9.95703C29.5234 10.6836 30.4609 11.0938 31.9961 11.0938C33.543 11.0938 34.457 10.6836 34.457 9.95703C34.457 9.20703 33.543 8.78516 31.9961 8.78516ZM32.2773 3.86328C32.3535 4.09766 32.3945 4.35547 32.3945 4.625C32.3945 4.88281 32.3535 5.13477 32.2891 5.36328H34.3984V3.86328H32.2773ZM45.8828 1.50781V9.19531H44.7695V5.24609H42.7656V4.34375H44.7695V1.50781H45.8828ZM46.1641 10.8711V11.7734H39.0625V8.50391H40.1758V10.8711H46.1641ZM40.8906 3.62891C40.8906 4.94141 41.8398 6.25391 43.4219 6.78125L42.8477 7.67188C41.6699 7.25586 40.7969 6.41211 40.3398 5.375C39.8828 6.5293 38.9629 7.46094 37.7148 7.90625L37.1406 7.00391C38.7578 6.45312 39.7539 5.07031 39.7539 3.62891V3.21875H37.4805V2.30469H43.1406V3.21875H40.8906V3.62891Z" fill="#6D7882"/>
<circle cx="55" cy="7" r="3" fill="#E6E8EA"/>
<defs>
<clipPath id="clip0_103_1770">
<rect width="12" height="12" fill="white" transform="translate(0 1)"/>
</clipPath>
</defs>
</svg>
