<svg width="12" height="12" viewBox="0 0 12 12" fill="none" xmlns="http://www.w3.org/2000/svg">
<path d="M6 10C5.82967 10 5.67033 9.9677 5.52198 9.90311C5.37912 9.84391 5.23626 9.74433 5.09341 9.60438L0.313187 4.8489C0.104396 4.64437 0 4.39408 0 4.09804C0 3.79662 0.107143 3.53825 0.321429 3.32295C0.535714 3.10765 0.796703 3 1.1044 3C1.41209 3 1.68407 3.11842 1.92033 3.35525L6.00824 7.4406L10.0797 3.35525C10.3159 3.11842 10.5879 3 10.8956 3C11.2033 3 11.4643 3.10765 11.6786 3.32295C11.8929 3.53825 12 3.79662 12 4.09804C12 4.39408 11.8956 4.64437 11.6868 4.8489L6.90659 9.60438C6.64286 9.86813 6.34066 10 6 10Z" fill="#007495"/>
</svg>
