<svg width="290" height="52" viewBox="0 0 290 52" fill="none" xmlns="http://www.w3.org/2000/svg">
<rect x="0.5" y="0.5" width="289" height="51" rx="7.5" fill="#FFFED4"/>
<rect x="0.5" y="0.5" width="289" height="51" rx="7.5" stroke="#1CCAFB"/>
<g clip-path="url(#clip0_978_116)">
<path d="M36.0038 14C30.9938 14 29.5286 14.0052 29.244 14.0288C28.2159 14.1143 27.5761 14.2762 26.8791 14.6233C26.342 14.8901 25.9184 15.1994 25.5003 15.6329C24.7389 16.4235 24.2775 17.396 24.1105 18.5523C24.0292 19.1134 24.0056 19.2279 24.0008 22.0949C23.999 23.0505 24.0008 24.3082 24.0008 25.9951C24.0008 31.0023 24.0064 32.4665 24.0304 32.7509C24.1134 33.7516 24.2703 34.3812 24.6026 35.0699C25.2375 36.3881 26.4502 37.3778 27.8788 37.7471C28.3735 37.8745 28.9198 37.9446 29.6212 37.9779C29.9184 37.9908 32.9474 38 35.9781 38C39.0088 38 42.0398 37.9963 42.3295 37.9816C43.1416 37.9433 43.6132 37.88 44.1347 37.7452C44.8431 37.5635 45.5033 37.2293 46.0691 36.7659C46.635 36.3025 47.0929 35.7212 47.4109 35.0625C47.7367 34.3905 47.9019 33.7369 47.9767 32.7884C47.9929 32.5816 47.9997 29.2846 47.9997 25.9921C47.9997 22.699 47.9923 19.4082 47.9761 19.2013C47.9017 18.2377 47.7356 17.5897 47.3994 16.9047C47.1234 16.3439 46.8172 15.9251 46.3722 15.497C45.5783 14.7385 44.6075 14.2769 43.4504 14.11C42.89 14.029 42.7782 14.005 39.91 14L36.0038 14Z" fill="url(#paint0_radial_978_116)"/>
<path d="M36.0038 14C30.9938 14 29.5286 14.0052 29.244 14.0288C28.2159 14.1143 27.5761 14.2762 26.8791 14.6233C26.342 14.8901 25.9184 15.1994 25.5003 15.6329C24.7389 16.4235 24.2775 17.396 24.1105 18.5523C24.0292 19.1134 24.0056 19.2279 24.0008 22.0949C23.999 23.0505 24.0008 24.3082 24.0008 25.9951C24.0008 31.0023 24.0064 32.4665 24.0304 32.7509C24.1134 33.7516 24.2703 34.3812 24.6026 35.0699C25.2375 36.3881 26.4502 37.3778 27.8788 37.7471C28.3735 37.8745 28.9198 37.9446 29.6212 37.9779C29.9184 37.9908 32.9474 38 35.9781 38C39.0088 38 42.0398 37.9963 42.3295 37.9816C43.1416 37.9433 43.6132 37.88 44.1347 37.7452C44.8431 37.5635 45.5033 37.2293 46.0691 36.7659C46.635 36.3025 47.0929 35.7212 47.4109 35.0625C47.7367 34.3905 47.9019 33.7369 47.9767 32.7884C47.9929 32.5816 47.9997 29.2846 47.9997 25.9921C47.9997 22.699 47.9923 19.4082 47.9761 19.2013C47.9017 18.2377 47.7356 17.5897 47.3994 16.9047C47.1234 16.3439 46.8172 15.9251 46.3722 15.497C45.5783 14.7385 44.6075 14.2769 43.4504 14.11C42.89 14.029 42.7782 14.005 39.91 14L36.0038 14Z" fill="url(#paint1_radial_978_116)"/>
<path d="M36.1555 29.8584C38.2613 29.8584 39.9683 28.1514 39.9683 26.0457C39.9683 23.9399 38.2613 22.2329 36.1555 22.2329C34.0498 22.2329 32.3428 23.9399 32.3428 26.0457C32.3428 28.1514 34.0498 29.8584 36.1555 29.8584Z" stroke="white" stroke-width="1.70598"/>
<path d="M39.829 18H32.4807C30.0061 18 28 20.0061 28 22.4807V29.7552C28 32.2298 30.0061 34.2359 32.4807 34.2359H39.829C42.3036 34.2359 44.3096 32.2298 44.3096 29.7552V22.4807C44.3096 20.0061 42.3036 18 39.829 18Z" stroke="white" stroke-width="1.72852"/>
<path d="M41.0071 22.4453C41.6053 22.4453 42.0903 21.9603 42.0903 21.362C42.0903 20.7638 41.6053 20.2788 41.0071 20.2788C40.4088 20.2788 39.9238 20.7638 39.9238 21.362C39.9238 21.9603 40.4088 22.4453 41.0071 22.4453Z" fill="white"/>
</g>
<path d="M69.0938 13.5078V21.1367H67.9805V13.5078H69.0938ZM69.4102 22.8711V23.7734H62.2266V20.3633H63.3516V22.8711H69.4102ZM63.3984 14.2109C64.9805 14.2109 66.1875 15.2891 66.1875 16.8125C66.1875 18.3594 64.9805 19.4258 63.3984 19.4258C61.8164 19.4258 60.5977 18.3594 60.5977 16.8125C60.5977 15.2891 61.8164 14.2109 63.3984 14.2109ZM63.3984 15.1836C62.4141 15.1836 61.6875 15.8516 61.6875 16.8125C61.6875 17.7969 62.4141 18.4531 63.3984 18.4531C64.3594 18.4531 65.0977 17.7969 65.0977 16.8125C65.0977 15.8516 64.3594 15.1836 63.3984 15.1836ZM76.0898 14.9844C76.0898 16.6953 77.918 18.3125 79.9336 18.6758L79.418 19.6016C77.7422 19.2383 76.1953 18.1367 75.5156 16.6602C74.8242 18.125 73.2832 19.2266 71.6016 19.6016L71.1094 18.6758C73.1016 18.3008 74.918 16.6953 74.918 14.9844V14.1875H76.0898V14.9844ZM80.3672 21.6875V22.6133H70.7578V21.6875H80.3672ZM86.5195 14.4219V15.3359H82.6992V17.3633H86.3086V18.2539H82.6992V20.6094C84.4512 20.6035 85.7461 20.5273 87.2695 20.2812L87.375 21.1836C85.7578 21.4531 84.3516 21.5117 82.418 21.5117H81.5742V14.4219H86.5195ZM89.3086 13.4961V17.6328H90.9961V18.5703H89.3086V23.9961H88.1953V13.4961H89.3086ZM99.8203 14.5625V15.6875C99.8203 17.0469 99.8203 18.5234 99.4336 20.7617L98.2969 20.6562C98.7188 18.5586 98.7188 17.0117 98.7188 15.6875V15.4766H92.5312V14.5625H99.8203ZM101.074 21.582V22.5078H91.5V21.582H101.074ZM110.824 13.5078V19.7422H109.77V17.0117H108.48V19.625H107.438V13.6953H108.48V16.0977H109.77V13.5078H110.824ZM110.824 20.2109V23.8672H103.805V20.2109H110.824ZM104.918 21.1016V22.9648H109.734V21.1016H104.918ZM106.301 14.1641V17.1172H103.418V18.4297C104.719 18.418 105.709 18.3594 106.863 18.1367L106.98 19.0273C105.656 19.2734 104.566 19.3086 103.031 19.3086H102.34V16.2617H105.234V15.0547H102.316V14.1641H106.301ZM121.277 13.4961V23.9961H120.211V13.4961H121.277ZM119.145 13.6953V23.4805H118.078V18.418H116.895C116.801 20.4688 115.922 21.7461 114.621 21.7344C113.25 21.7461 112.359 20.3047 112.359 18.0312C112.359 15.7578 113.25 14.3281 114.621 14.3398C115.898 14.3281 116.766 15.541 116.895 17.5156H118.078V13.6953H119.145ZM114.621 15.3828C113.859 15.3828 113.391 16.3555 113.391 18.0312C113.391 19.707 113.859 20.6797 114.621 20.6797C115.395 20.6797 115.875 19.707 115.875 18.0312C115.875 16.3555 115.395 15.3828 114.621 15.3828ZM210.41 13.4961V23.9961H209.355V13.4961H210.41ZM208.266 13.7656V23.4805H207.211V19.9062H205.418V18.9922H207.211V17.2812H205.594C205.084 19.0449 203.965 20.5742 201.984 21.7578L201.328 20.9609C203.555 19.6367 204.627 17.873 204.82 15.7109H201.844V14.7969H205.922C205.922 15.3359 205.881 15.8574 205.793 16.3672H207.211V13.7656H208.266ZM220.512 13.4961V19.7422H219.398V17.082H217.441V16.168H219.398V13.4961H220.512ZM216.996 20.0352C219.199 20.0352 220.547 20.7617 220.547 22.0156C220.547 23.2695 219.199 23.9844 216.996 23.9961C214.793 23.9844 213.434 23.2695 213.445 22.0156C213.434 20.7617 214.793 20.0352 216.996 20.0352ZM216.996 20.9023C215.461 20.9023 214.547 21.3008 214.547 22.0156C214.547 22.7188 215.461 23.1289 216.996 23.1172C218.531 23.1289 219.445 22.7188 219.445 22.0156C219.445 21.3008 218.531 20.9023 216.996 20.9023ZM215.52 15.3477C215.52 16.6836 216.469 17.9727 218.051 18.5117L217.477 19.3906C216.299 18.9805 215.432 18.1426 214.98 17.1055C214.518 18.2832 213.598 19.2266 212.344 19.6836L211.758 18.793C213.387 18.2305 214.383 16.8125 214.383 15.3594V15.125H212.109V14.2227H217.77V15.125H215.52V15.3477ZM229.664 14.668V15.5586H226.523V17.4336H229.488V18.3125H226.523V20.5273C227.941 20.5215 228.879 20.4629 229.992 20.2812L230.086 21.1953C228.855 21.418 227.836 21.4648 226.16 21.4648H225.457V14.668H229.664ZM234.094 13.4961V23.9961H233.027V18.5703H231.762V23.4805H230.695V13.6953H231.762V17.668H233.027V13.4961H234.094ZM243.75 14.5625V15.6875C243.75 17.0469 243.75 18.5234 243.363 20.7617L242.227 20.6562C242.648 18.5586 242.648 17.0117 242.648 15.6875V15.4766H236.461V14.5625H243.75ZM245.004 21.582V22.5078H235.43V21.582H245.004ZM257.766 14.6562V15.5703H249.223V14.6562H252.961V13.4492H254.062V14.6562H257.766ZM258.34 20.293V21.207H254.062V24.0078H252.961V21.207H248.73V20.293H258.34ZM253.512 16.1094C255.691 16.1094 257.004 16.7305 257.004 17.8789C257.004 19.0039 255.691 19.625 253.512 19.6367C251.32 19.625 250.008 19.0039 250.02 17.8789C250.008 16.7305 251.32 16.1094 253.512 16.1094ZM253.512 16.9414C252 16.9414 251.168 17.2695 251.168 17.8789C251.168 18.4648 252 18.793 253.512 18.793C255.012 18.793 255.844 18.4648 255.855 17.8789C255.844 17.2695 255.012 16.9414 253.512 16.9414ZM63.293 27.9766C64.6758 27.9648 65.7422 28.7676 65.9766 29.9453H68.0273V27.4961H69.1406V33.1328H68.0273V30.8594H65.9883C65.7598 32.0664 64.6875 32.875 63.293 32.875C61.6875 32.875 60.5391 31.8672 60.5391 30.4141C60.5391 28.9844 61.6875 27.9648 63.293 27.9766ZM63.293 28.9023C62.2969 28.9023 61.6055 29.5117 61.6055 30.4141C61.6055 31.3164 62.2969 31.9375 63.293 31.9375C64.2656 31.9375 64.957 31.3164 64.957 30.4141C64.957 29.5117 64.2656 28.9023 63.293 28.9023ZM63.3984 33.6367V34.8555H68.0273V33.6367H69.1406V37.8672H62.2969V33.6367H63.3984ZM63.3984 36.9531H68.0273V35.7344H63.3984V36.9531ZM80.3672 35.8047V36.7422H70.7578V35.8047H74.9883V33.9648H71.9297V30.625H78.0938V29.1484H71.9062V28.2344H79.1953V31.5156H73.0312V33.0508H79.4414V33.9648H76.0898V35.8047H80.3672ZM89.6367 32.4766V33.3906H82.3242V28.4336H89.543V29.3477H83.4258V32.4766H89.6367ZM90.7383 35.6875V36.6133H81.1289V35.6875H90.7383ZM99.6797 27.4961V31.75H101.367V32.6758H99.6797V37.9961H98.5781V27.4961H99.6797ZM97.6641 29.1367V30.0508H91.4414V29.1367H94.0312V27.6367H95.1445V29.1367H97.6641ZM94.5938 30.8242C96.0938 30.8242 97.1953 31.832 97.207 33.2617C97.1953 34.7031 96.0938 35.6992 94.5938 35.7109C93.082 35.6992 91.9805 34.7031 91.9805 33.2617C91.9805 31.832 93.082 30.8242 94.5938 30.8242ZM94.5938 31.7383C93.7031 31.7383 93.0352 32.3594 93.0469 33.2617C93.0352 34.1758 93.7031 34.7852 94.5938 34.7734C95.4844 34.7852 96.1406 34.1758 96.1406 33.2617C96.1406 32.3594 95.4844 31.7383 94.5938 31.7383ZM107.227 28.3867V29.2773H109.512V27.5078H110.625V35.1602H109.512V32.4414H107.227V33.3555H102.352V28.3867H107.227ZM103.453 29.2891V32.4766H106.137V29.2891H103.453ZM110.859 36.8711V37.7734H103.77V34.457H104.895V36.8711H110.859ZM107.227 31.5273H109.512V30.1914H107.227V31.5273ZM123.867 27.4961V38.0195H122.754V27.4961H123.867ZM118.254 28.2812C119.812 28.2812 120.961 29.7109 120.961 31.9609C120.961 34.2227 119.812 35.6523 118.254 35.6523C116.672 35.6523 115.535 34.2227 115.535 31.9609C115.535 29.7109 116.672 28.2812 118.254 28.2812ZM118.254 29.2773C117.281 29.2773 116.613 30.3086 116.613 31.9609C116.613 33.625 117.281 34.6562 118.254 34.6562C119.215 34.6562 119.883 33.625 119.883 31.9609C119.883 30.3086 119.215 29.2773 118.254 29.2773ZM134.496 27.4961V35.4648H133.441V27.4961H134.496ZM132.445 27.6836V35.1367H131.391V31.3984H130.102V33.5195H125.988V28.3281H127.043V30.0508H129.07V28.3281H130.102V30.4961H131.391V27.6836H132.445ZM127.043 32.6172H129.07V30.9062H127.043V32.6172ZM134.801 36.8711V37.7734H127.535V34.3867H128.637V36.8711H134.801ZM144.434 33.0859V33.9766H137.121V28.3633H144.328V29.2656H138.246V30.6836H144.105V31.5625H138.246V33.0859H144.434ZM145.523 35.7578V36.6719H135.914V35.7578H145.523ZM152.895 29.6641C152.895 30.8828 153.844 32.0078 155.449 32.4648L154.934 33.332C153.721 32.9746 152.824 32.2363 152.355 31.2812C151.898 32.3359 150.979 33.1504 149.73 33.5312L149.191 32.6641C150.797 32.1953 151.793 30.9883 151.793 29.6641V29.5586H149.508V28.668H151.793V27.4492H152.906V28.668H155.18V29.5586H152.895V29.6641ZM157.465 27.4961V30.0977H158.988V31.0234H157.465V33.6953H156.352V27.4961H157.465ZM157.465 34.1641V37.8672H150.762V34.1641H157.465ZM151.852 35.043V36.9648H156.363V35.043H151.852ZM162.434 28.2812C163.389 28.2812 164.18 28.832 164.648 29.7812H167.238V27.4961H168.34V38.0195H167.238V33.9883H164.719C164.268 35.043 163.441 35.6523 162.434 35.6523C160.863 35.6523 159.762 34.2227 159.773 31.9609C159.762 29.7109 160.863 28.2812 162.434 28.2812ZM162.434 29.2773C161.484 29.2773 160.828 30.3086 160.828 31.9609C160.828 33.625 161.484 34.6562 162.434 34.6562C163.383 34.6562 164.039 33.625 164.039 31.9609C164.039 30.3086 163.383 29.2773 162.434 29.2773ZM164.965 30.6953C165.041 31.082 165.094 31.5039 165.094 31.9609C165.094 32.3594 165.059 32.7285 164.988 33.0742H167.238V30.6953H164.965ZM176.074 27.9648C177.609 27.9648 178.688 28.8086 178.699 30.0625C178.688 31.1289 177.879 31.9141 176.66 32.1016V33.0273C177.592 32.9805 178.523 32.8984 179.391 32.7695L179.473 33.5898C177.27 33.9883 174.797 34.0234 172.992 34.0234L172.875 33.1211C173.66 33.127 174.58 33.1211 175.547 33.0859V32.1133C174.293 31.9375 173.449 31.1465 173.461 30.0625C173.449 28.8086 174.539 27.9648 176.074 27.9648ZM176.074 28.8203C175.148 28.8203 174.492 29.3008 174.504 30.0625C174.492 30.8008 175.148 31.293 176.074 31.293C177.012 31.293 177.645 30.8008 177.645 30.0625C177.645 29.3008 177.012 28.8203 176.074 28.8203ZM181.148 27.5078V30.9766H182.648V31.9141H181.148V35.5352H180.035V27.5078H181.148ZM181.523 36.8594V37.7734H174.363V34.832H175.477V36.8594H181.523ZM192.867 35.8047V36.7422H183.258V35.8047H185.883V33.9531H184.43V30.6133H190.594V29.1484H184.406V28.2344H191.695V31.5156H185.531V33.0391H191.941V33.9531H190.348V35.8047H192.867ZM186.961 35.8047H189.258V33.9531H186.961V35.8047ZM195.562 28.5156L195.457 34.5508H194.297L194.191 28.5156H195.562ZM194.883 37.082C194.426 37.082 194.039 36.707 194.051 36.25C194.039 35.793 194.426 35.418 194.883 35.418C195.328 35.418 195.715 35.793 195.715 36.25C195.715 36.707 195.328 37.082 194.883 37.082Z" fill="#007495"/>
<path d="M130.09 21.1836C128.965 21.1836 128.109 20.2812 128.109 18.7461C128.109 17.2109 128.988 16.3203 130.09 16.3203C130.898 16.3203 131.262 16.8242 131.402 17.1172H131.461V16.4141H132.48V19.6953C132.492 20.1289 132.668 20.3281 133.02 20.3281C133.676 20.3281 134.121 19.5664 134.121 18.4297C134.133 16.3086 132.609 14.9141 130.43 14.9141C128.168 14.9258 126.727 16.6016 126.727 18.7461C126.727 21.0781 127.98 22.6133 130.383 22.5898C131.215 22.5781 131.789 22.5195 132.48 22.332V23.2695C131.859 23.4453 131.156 23.5508 130.383 23.5508C127.477 23.5508 125.742 21.6992 125.742 18.7461C125.742 15.9688 127.688 13.9531 130.43 13.9531C133.207 13.9531 135.105 15.8516 135.105 18.3945C135.105 20.1992 134.191 21.2422 132.938 21.2305C132.182 21.2305 131.607 20.8438 131.52 20.3047H131.461C131.309 20.5977 130.945 21.1836 130.09 21.1836ZM130.348 20.2227C131.086 20.2227 131.473 19.625 131.484 18.7344C131.473 17.8555 131.098 17.2812 130.348 17.2812C129.609 17.2812 129.211 17.9023 129.211 18.7344C129.211 19.5781 129.621 20.2227 130.348 20.2227ZM137.707 14.5156V23H136.453V14.5156H137.707ZM139.23 23V16.6367H140.484V23H139.23ZM139.863 15.6523C139.43 15.6523 139.066 15.3242 139.066 14.9141C139.066 14.5039 139.43 14.1758 139.863 14.1758C140.285 14.1758 140.648 14.5039 140.648 14.9141C140.648 15.3242 140.285 15.6523 139.863 15.6523ZM142.008 23V14.5156H143.262V19.3203H143.367L145.887 16.6367H147.387L144.82 19.3672L147.562 23H146.027L143.871 20.1406L143.262 20.7383V23H142.008ZM150.855 23.1289C148.98 23.1289 147.832 21.8398 147.832 19.8594C147.832 17.9023 149.004 16.5547 150.773 16.5547C152.227 16.5547 153.598 17.457 153.598 19.7539V20.1992H149.074C149.109 21.4062 149.818 22.0977 150.867 22.0977C151.582 22.0977 152.039 21.793 152.25 21.4062H153.516C153.234 22.4375 152.25 23.1289 150.855 23.1289ZM149.086 19.2617H152.367C152.367 18.2891 151.746 17.5859 150.785 17.5859C149.783 17.5859 149.133 18.3594 149.086 19.2617ZM156.094 14.5156V23H154.84V14.5156H156.094ZM157.617 23V16.6367H158.871V23H157.617ZM158.25 15.6523C157.816 15.6523 157.453 15.3242 157.453 14.9141C157.453 14.5039 157.816 14.1758 158.25 14.1758C158.672 14.1758 159.035 14.5039 159.035 14.9141C159.035 15.3242 158.672 15.6523 158.25 15.6523ZM163.09 23.1289C161.285 23.1289 160.113 21.8164 160.113 19.8477C160.113 17.8672 161.285 16.5547 163.09 16.5547C164.883 16.5547 166.055 17.8672 166.055 19.8477C166.055 21.8164 164.883 23.1289 163.09 23.1289ZM163.09 22.0859C164.238 22.0859 164.789 21.0664 164.789 19.8477C164.789 18.6289 164.238 17.5859 163.09 17.5859C161.918 17.5859 161.367 18.6289 161.367 19.8477C161.367 21.0664 161.918 22.0859 163.09 22.0859ZM168.539 19.2266V23H167.285V16.6367H168.492V17.6797H168.562C168.867 17 169.488 16.5547 170.438 16.5547C171.75 16.5547 172.605 17.375 172.605 18.957V23H171.363V19.1094C171.363 18.1836 170.859 17.6328 170.016 17.6328C169.16 17.6328 168.539 18.207 168.539 19.2266ZM178.676 23V24.0547H173.285V23H178.676ZM182.918 18.3711C182.801 17.8672 182.402 17.5391 181.711 17.5391C180.996 17.5391 180.48 17.9141 180.492 18.3945C180.48 18.7695 180.785 19.0391 181.488 19.2031L182.496 19.4375C183.668 19.6953 184.23 20.2578 184.242 21.1602C184.23 22.3086 183.27 23.1289 181.641 23.1289C180.117 23.1289 179.203 22.4492 179.051 21.2656H180.328C180.434 21.8398 180.879 22.1211 181.629 22.1211C182.438 22.1211 182.953 21.793 182.965 21.2539C182.953 20.8438 182.648 20.5742 181.98 20.4219L180.984 20.2109C179.836 19.9531 179.238 19.3438 179.238 18.4648C179.238 17.3281 180.223 16.5547 181.699 16.5547C183.117 16.5547 183.996 17.2812 184.125 18.3711H182.918ZM186.832 23L184.969 16.6367H186.258L187.5 21.3008H187.57L188.812 16.6367H190.102L191.332 21.2773H191.402L192.633 16.6367H193.922L192.059 23H190.781L189.492 18.418H189.398L188.121 23H186.832ZM198.996 20.3516V16.6367H200.238V23H199.02V21.8984H198.949C198.656 22.5781 198 23.082 197.051 23.082C195.82 23.082 194.953 22.2617 194.953 20.6797V16.6367H196.207V20.5273C196.207 21.3945 196.734 21.9453 197.496 21.9453C198.188 21.9453 198.996 21.4414 198.996 20.3516Z" fill="#EC5EEE"/>
<defs>
<radialGradient id="paint0_radial_978_116" cx="0" cy="0" r="1" gradientUnits="userSpaceOnUse" gradientTransform="translate(30.374 39.8487) rotate(-90) scale(23.7853 22.1224)">
<stop stop-color="#FFDD55"/>
<stop offset="0.1" stop-color="#FFDD55"/>
<stop offset="0.5" stop-color="#FF543E"/>
<stop offset="1" stop-color="#C837AB"/>
</radialGradient>
<radialGradient id="paint1_radial_978_116" cx="0" cy="0" r="1" gradientTransform="matrix(2.08681 10.4255 -42.9733 8.60683 19.9782 15.7266)" gradientUnits="userSpaceOnUse">
<stop stop-color="#3771C8"/>
<stop offset="0.128" stop-color="#3771C8"/>
<stop offset="1" stop-color="#6600FF" stop-opacity="0"/>
</radialGradient>
<clipPath id="clip0_978_116">
<rect width="24" height="24" fill="white" transform="translate(24 14)"/>
</clipPath>
</defs>
</svg>
