<svg width="12" height="14" viewBox="0 0 12 14" fill="none" xmlns="http://www.w3.org/2000/svg">
<path d="M10.6001 5.50919C10.6001 9.32737 5.6001 12.6001 5.6001 12.6001C5.6001 12.6001 0.600098 9.32737 0.600098 5.50919C0.600098 4.20722 1.12688 2.95857 2.06456 2.03794C3.00225 1.1173 4.27402 0.600098 5.6001 0.600098C6.92618 0.600098 8.19795 1.1173 9.13563 2.03794C10.0733 2.95857 10.6001 4.20722 10.6001 5.50919Z" stroke="#33363D" stroke-width="1.2" stroke-linecap="round" stroke-linejoin="round"/>
<path d="M5.6001 7.14555C6.52057 7.14555 7.26676 6.41293 7.26676 5.50919C7.26676 4.60545 6.52057 3.87282 5.6001 3.87282C4.67962 3.87282 3.93343 4.60545 3.93343 5.50919C3.93343 6.41293 4.67962 7.14555 5.6001 7.14555Z" stroke="#33363D" stroke-width="1.2" stroke-linecap="round" stroke-linejoin="round"/>
</svg>
