<svg width="24" height="24" viewBox="0 0 24 24" fill="none" xmlns="http://www.w3.org/2000/svg">
<path fill-rule="evenodd" clip-rule="evenodd" d="M12.0049 13.2149C13.3218 13.2149 14.5025 13.4158 15.5469 13.8175C16.5979 14.2192 17.4899 14.7408 18.223 15.3823C18.9625 16.0173 19.5269 16.6944 19.9161 17.4136C20.3054 18.1328 20.5 18.8099 20.5 19.4449C20.5 20.4816 19.7053 21 18.1159 21H5.88409C4.2947 21 3.5 20.4816 3.5 19.4449C3.5 18.8099 3.69462 18.1328 4.08386 17.4136C4.4731 16.6944 5.03425 16.0173 5.76732 15.3823C6.50687 14.7408 7.39887 14.2192 8.44333 13.8175C9.49428 13.4158 10.6815 13.2149 12.0049 13.2149ZM12.0049 14.6825C10.889 14.6825 9.89973 14.8445 9.03692 15.1685C8.17411 15.486 7.44753 15.8877 6.85718 16.3737C6.26684 16.8596 5.81921 17.3618 5.51431 17.8801C5.21589 18.3985 5.06669 18.8585 5.06669 19.2603C5.06669 19.3639 5.09264 19.4352 5.14453 19.4741C5.20292 19.513 5.29699 19.5324 5.42673 19.5324H18.583C18.7063 19.5324 18.7938 19.513 18.8457 19.4741C18.9041 19.4352 18.9333 19.3639 18.9333 19.2603C18.9333 18.8585 18.7809 18.3985 18.476 17.8801C18.1775 17.3618 17.7332 16.8596 17.1428 16.3737C16.5525 15.8877 15.8259 15.486 14.9631 15.1685C14.1068 14.8445 13.1207 14.6825 12.0049 14.6825Z" fill="#F9FAFA"/>
<path fill-rule="evenodd" clip-rule="evenodd" d="M12.0049 3C12.7833 3 13.4905 3.19762 14.1262 3.59287C14.762 3.98812 15.268 4.52268 15.6442 5.19654C16.0205 5.86393 16.2086 6.61231 16.2086 7.44168C16.2086 8.27754 16.0173 9.04212 15.6345 9.73542C15.2583 10.4222 14.7522 10.973 14.1165 11.3877C13.4807 11.7959 12.7769 12 12.0049 12C11.2329 12 10.529 11.7959 9.89325 11.3877C9.25749 10.9795 8.74824 10.432 8.36548 9.74514C7.98922 9.05184 7.80109 8.2905 7.80109 7.46112C7.80109 6.63823 7.98922 5.88985 8.36548 5.21598C8.74824 4.54212 9.25749 4.00432 9.89325 3.60259C10.529 3.20086 11.2329 3 12.0049 3ZM12.0049 4.4676C11.5248 4.4676 11.0837 4.60043 10.6815 4.86609C10.2857 5.12527 9.96785 5.48164 9.72782 5.93521C9.48779 6.38877 9.36777 6.89741 9.36777 7.46112C9.36777 8.03132 9.48779 8.54968 9.72782 9.0162C9.97434 9.48272 10.2955 9.85205 10.6912 10.1242C11.0934 10.3963 11.5313 10.5324 12.0049 10.5324C12.4849 10.5324 12.9228 10.3963 13.3185 10.1242C13.7208 9.84557 14.0419 9.473 14.2819 9.00648C14.5219 8.53348 14.642 8.01188 14.642 7.44168C14.642 6.87797 14.5219 6.37257 14.2819 5.92549C14.0484 5.47192 13.7305 5.11555 13.3283 4.85637C12.9326 4.59719 12.4914 4.4676 12.0049 4.4676Z" fill="#F9FAFA"/>
<path fill-rule="evenodd" clip-rule="evenodd" d="M12.0049 13.2149C13.3218 13.2149 14.5025 13.4158 15.5469 13.8175C16.5979 14.2192 17.4899 14.7408 18.223 15.3823C18.9625 16.0173 19.5269 16.6944 19.9161 17.4136C20.3054 18.1328 20.5 18.8099 20.5 19.4449C20.5 20.4816 19.7053 21 18.1159 21H5.88409C4.2947 21 3.5 20.4816 3.5 19.4449C3.5 18.8099 3.69462 18.1328 4.08386 17.4136C4.4731 16.6944 5.03425 16.0173 5.76732 15.3823C6.50687 14.7408 7.39887 14.2192 8.44333 13.8175C9.49428 13.4158 10.6815 13.2149 12.0049 13.2149ZM12.0049 14.6825C10.889 14.6825 9.89973 14.8445 9.03692 15.1685C8.17411 15.486 7.44753 15.8877 6.85718 16.3737C6.26684 16.8596 5.81921 17.3618 5.51431 17.8801C5.21589 18.3985 5.06669 18.8585 5.06669 19.2603C5.06669 19.3639 5.09264 19.4352 5.14453 19.4741C5.20292 19.513 5.29699 19.5324 5.42673 19.5324H18.583C18.7063 19.5324 18.7938 19.513 18.8457 19.4741C18.9041 19.4352 18.9333 19.3639 18.9333 19.2603C18.9333 18.8585 18.7809 18.3985 18.476 17.8801C18.1775 17.3618 17.7332 16.8596 17.1428 16.3737C16.5525 15.8877 15.8259 15.486 14.9631 15.1685C14.1068 14.8445 13.1207 14.6825 12.0049 14.6825Z" stroke="#F9FAFA" stroke-width="0.6"/>
<path fill-rule="evenodd" clip-rule="evenodd" d="M12.0049 3C12.7833 3 13.4905 3.19762 14.1262 3.59287C14.762 3.98812 15.268 4.52268 15.6442 5.19654C16.0205 5.86393 16.2086 6.61231 16.2086 7.44168C16.2086 8.27754 16.0173 9.04212 15.6345 9.73542C15.2583 10.4222 14.7522 10.973 14.1165 11.3877C13.4807 11.7959 12.7769 12 12.0049 12C11.2329 12 10.529 11.7959 9.89325 11.3877C9.25749 10.9795 8.74824 10.432 8.36548 9.74514C7.98922 9.05184 7.80109 8.2905 7.80109 7.46112C7.80109 6.63823 7.98922 5.88985 8.36548 5.21598C8.74824 4.54212 9.25749 4.00432 9.89325 3.60259C10.529 3.20086 11.2329 3 12.0049 3ZM12.0049 4.4676C11.5248 4.4676 11.0837 4.60043 10.6815 4.86609C10.2857 5.12527 9.96785 5.48164 9.72782 5.93521C9.48779 6.38877 9.36777 6.89741 9.36777 7.46112C9.36777 8.03132 9.48779 8.54968 9.72782 9.0162C9.97434 9.48272 10.2955 9.85205 10.6912 10.1242C11.0934 10.3963 11.5313 10.5324 12.0049 10.5324C12.4849 10.5324 12.9228 10.3963 13.3185 10.1242C13.7208 9.84557 14.0419 9.473 14.2819 9.00648C14.5219 8.53348 14.642 8.01188 14.642 7.44168C14.642 6.87797 14.5219 6.37257 14.2819 5.92549C14.0484 5.47192 13.7305 5.11555 13.3283 4.85637C12.9326 4.59719 12.4914 4.4676 12.0049 4.4676Z" stroke="#F9FAFA" stroke-width="0.6"/>
</svg>
