<svg width="16" height="16" viewBox="0 0 16 16" fill="none" xmlns="http://www.w3.org/2000/svg">
<g clip-path="url(#clip0_634_7104)">
<path d="M12 0H4C1.79086 0 0 1.79086 0 4V12C0 14.2091 1.79086 16 4 16H12C14.2091 16 16 14.2091 16 12V4C16 1.79086 14.2091 0 12 0Z" fill="#1CCAFB"/>
<path d="M10.9102 4.44434L11.5547 5.09473L15 8.00293L11.5547 10.9111L10.9102 11.5557L8 15L5.08984 11.5557L4.44531 10.9111L1 8.00293L4.44531 5.09473L5.08984 4.44336L8 1L10.9102 4.44434ZM8.79004 6.83203V9.53125H6.24707V10.958H9.80371V8.5791L11.7109 7.38574L12.5967 6.83203H8.79004ZM3.45508 6.83203L4.34082 7.38574L6.38867 8.66797L6.84766 8.95508V6.83203H3.45508Z" fill="white"/>
</g>
<defs>
<clipPath id="clip0_634_7104">
<rect width="16" height="16" fill="white"/>
</clipPath>
</defs>
</svg>
