<svg width="64" height="64" viewBox="0 0 64 64" fill="none" xmlns="http://www.w3.org/2000/svg">
<g clip-path="url(#clip0_1109_7103)">
<path d="M56 0H8C3.58172 0 0 3.58172 0 8V56C0 60.4183 3.58172 64 8 64H56C60.4183 64 64 60.4183 64 56V8C64 3.58172 60.4183 0 56 0Z" fill="#1CCAFB"/>
<path d="M43.6386 17.7773L46.2168 20.377L60 32.0118L46.2168 43.6464L43.6386 46.2226L32 60L20.3614 46.2226L17.7812 43.6464L4 32.0118L17.7812 20.377L20.3614 17.7754L32 4L43.6386 17.7773ZM35.7618 26.1368V36.9336H25.5898V41.4394H38.6152V32.1934L46.5254 27.2442L48.2968 26.1368H35.7618ZM15.9102 26.1368L17.6816 27.2442L25.873 32.371L26.791 32.9454V26.1368H15.9102Z" fill="white"/>
</g>
<defs>
<clipPath id="clip0_1109_7103">
<rect width="64" height="64" fill="white"/>
</clipPath>
</defs>
</svg>
