<svg width="343" height="54" viewBox="0 0 343 54" fill="none" xmlns="http://www.w3.org/2000/svg">
<g filter="url(#filter0_iii_385_5070)">
<path d="M0 27C0 12.0883 12.0883 0 27 0H316C330.912 0 343 12.0883 343 27C343 41.9117 330.912 54 316 54H27C12.0883 54 0 41.9117 0 27Z" fill="#1CCAFB"/>
<path d="M162.203 20.2969C164.281 20.2969 165.781 21.4688 165.781 23.1875C165.781 24.5781 164.758 25.6406 163.234 25.9688V27C164.344 26.9375 165.461 26.8359 166.5 26.6875L166.656 28.1406C163.734 28.6562 160.469 28.7188 158.094 28.7188L157.891 27.1406C158.875 27.1406 160.023 27.1328 161.234 27.0938V25.9844C159.664 25.6719 158.609 24.6016 158.625 23.1875C158.609 21.4688 160.109 20.2969 162.203 20.2969ZM162.203 21.7969C161.188 21.8125 160.469 22.2969 160.484 23.1875C160.469 24.0469 161.188 24.5625 162.203 24.5625C163.219 24.5625 163.906 24.0469 163.906 23.1875C163.906 22.2969 163.219 21.8125 162.203 21.7969ZM169.297 19.7344V24.2031H171.109V25.8594H169.297V30.5781H167.297V19.7344H169.297ZM169.781 32.0781V33.6719H159.766V29.625H161.766V32.0781H169.781ZM184.366 30.7188V32.3594H171.35V30.7188H174.678V28.5469H172.85V23.7656H180.897V22.2344H172.834V20.6406H182.866V25.3594H174.85V26.9375H183.194V28.5469H181.178V30.7188H184.366ZM176.616 30.7188H179.225V28.5469H176.616V30.7188Z" fill="#F9FAFA"/>
</g>
<defs>
<filter id="filter0_iii_385_5070" x="-1" y="-2" width="345" height="60" filterUnits="userSpaceOnUse" color-interpolation-filters="sRGB">
<feFlood flood-opacity="0" result="BackgroundImageFix"/>
<feBlend mode="normal" in="SourceGraphic" in2="BackgroundImageFix" result="shape"/>
<feColorMatrix in="SourceAlpha" type="matrix" values="0 0 0 0 0 0 0 0 0 0 0 0 0 0 0 0 0 0 127 0" result="hardAlpha"/>
<feOffset dx="1" dy="-2"/>
<feGaussianBlur stdDeviation="3"/>
<feComposite in2="hardAlpha" operator="arithmetic" k2="-1" k3="1"/>
<feColorMatrix type="matrix" values="0 0 0 0 1 0 0 0 0 0.994444 0 0 0 0 0.833333 0 0 0 1 0"/>
<feBlend mode="normal" in2="shape" result="effect1_innerShadow_385_5070"/>
<feColorMatrix in="SourceAlpha" type="matrix" values="0 0 0 0 0 0 0 0 0 0 0 0 0 0 0 0 0 0 127 0" result="hardAlpha"/>
<feOffset dx="-1" dy="4"/>
<feGaussianBlur stdDeviation="3"/>
<feComposite in2="hardAlpha" operator="arithmetic" k2="-1" k3="1"/>
<feColorMatrix type="matrix" values="0 0 0 0 1 0 0 0 0 1 0 0 0 0 1 0 0 0 0.5 0"/>
<feBlend mode="normal" in2="effect1_innerShadow_385_5070" result="effect2_innerShadow_385_5070"/>
<feColorMatrix in="SourceAlpha" type="matrix" values="0 0 0 0 0 0 0 0 0 0 0 0 0 0 0 0 0 0 127 0" result="hardAlpha"/>
<feOffset dy="1"/>
<feGaussianBlur stdDeviation="1"/>
<feComposite in2="hardAlpha" operator="arithmetic" k2="-1" k3="1"/>
<feColorMatrix type="matrix" values="0 0 0 0 0.0288 0 0 0 0 0.73568 0 0 0 0 0.9312 0 0 0 1 0"/>
<feBlend mode="normal" in2="effect2_innerShadow_385_5070" result="effect3_innerShadow_385_5070"/>
</filter>
</defs>
</svg>
