<svg width="230" height="38" viewBox="0 0 230 38" fill="none" xmlns="http://www.w3.org/2000/svg">
<g filter="url(#filter0_iii_874_7145)">
<path d="M0 19C0 8.50659 8.50659 0 19 0H211C221.493 0 230 8.50659 230 19C230 29.4934 221.493 38 211 38H19C8.50659 38 0 29.4934 0 19Z" fill="#1CCAFB"/>
<path d="M78.7188 11.7188V25.9375H76.8281V18.7969H75.4531V25.25H73.625V11.9531H75.4531V17.2031H76.8281V11.7188H78.7188ZM72.125 13.3594V14.9688H68.8281V21.0312C70.2031 21.0234 71.4219 20.9531 72.7969 20.7031L72.9375 22.3281C71.2031 22.6562 69.6875 22.7031 67.8125 22.7188H66.8281V13.3594H72.125ZM92.8656 22.7656V24.3594H79.85V22.7656H83.0844V20.0625H80.9281V18.4531H82.8344V14.4531H80.8656V12.8594H91.7719V14.4531H89.7719V18.4531H91.7094V20.0625H89.5688V22.7656H92.8656ZM84.8344 18.4531H87.8031V14.4531H84.8344V18.4531ZM85.0844 22.7656H87.5688V20.0625H85.0844V22.7656ZM106.216 18.25V19.8438H93.3094V18.25H98.1531V15.5938H100.122V18.25H106.216ZM104.559 21.0625V25.9375H102.559V22.6562H94.6219V21.0625H104.559ZM104.684 12.4219V13.4375C104.684 14.5 104.684 15.8125 104.341 17.5156L102.341 17.3281C102.63 15.9531 102.677 14.8984 102.7 13.9844H94.7625V12.4219H104.684ZM117.572 13V22.5469H110.697V13H117.572ZM112.697 14.5625V20.9688H115.634V14.5625H112.697ZM121.9 11.7188V25.9688H119.884V11.7188H121.9ZM135.344 11.7188V25.9688H133.359V11.7188H135.344ZM130.938 12.9062V18.3906H126.25V21C128.414 20.9922 130.258 20.8672 132.344 20.5312L132.516 22.1406C130.172 22.5469 128.062 22.6406 125.469 22.6406H124.188V16.8125H128.906V14.5156H124.172V12.9062H130.938ZM149.85 18.0938V19.7188H136.85V18.0938H149.85ZM148.412 15.5156V17.0938H138.459V12.0625H148.256V13.7031H140.428V15.5156H148.412ZM148.428 24.1719V25.7656H138.412V20.75H148.319V22.3438H140.397V24.1719H148.428ZM162.231 11.7188V25.9375H160.216V11.7188H162.231ZM157.966 13.2031C157.966 17.5156 156.45 21.0938 151.372 23.5L150.325 21.9062C153.997 20.1719 155.614 17.9219 155.934 14.7656H151.091V13.2031H157.966Z" fill="#F9FAFA"/>
</g>
<defs>
<filter id="filter0_iii_874_7145" x="-1" y="-2" width="232" height="44" filterUnits="userSpaceOnUse" color-interpolation-filters="sRGB">
<feFlood flood-opacity="0" result="BackgroundImageFix"/>
<feBlend mode="normal" in="SourceGraphic" in2="BackgroundImageFix" result="shape"/>
<feColorMatrix in="SourceAlpha" type="matrix" values="0 0 0 0 0 0 0 0 0 0 0 0 0 0 0 0 0 0 127 0" result="hardAlpha"/>
<feOffset dx="1" dy="-2"/>
<feGaussianBlur stdDeviation="3"/>
<feComposite in2="hardAlpha" operator="arithmetic" k2="-1" k3="1"/>
<feColorMatrix type="matrix" values="0 0 0 0 1 0 0 0 0 0.994444 0 0 0 0 0.833333 0 0 0 1 0"/>
<feBlend mode="normal" in2="shape" result="effect1_innerShadow_874_7145"/>
<feColorMatrix in="SourceAlpha" type="matrix" values="0 0 0 0 0 0 0 0 0 0 0 0 0 0 0 0 0 0 127 0" result="hardAlpha"/>
<feOffset dx="-1" dy="4"/>
<feGaussianBlur stdDeviation="3"/>
<feComposite in2="hardAlpha" operator="arithmetic" k2="-1" k3="1"/>
<feColorMatrix type="matrix" values="0 0 0 0 1 0 0 0 0 1 0 0 0 0 1 0 0 0 0.5 0"/>
<feBlend mode="normal" in2="effect1_innerShadow_874_7145" result="effect2_innerShadow_874_7145"/>
<feColorMatrix in="SourceAlpha" type="matrix" values="0 0 0 0 0 0 0 0 0 0 0 0 0 0 0 0 0 0 127 0" result="hardAlpha"/>
<feOffset dy="1"/>
<feGaussianBlur stdDeviation="1"/>
<feComposite in2="hardAlpha" operator="arithmetic" k2="-1" k3="1"/>
<feColorMatrix type="matrix" values="0 0 0 0 0.0288 0 0 0 0 0.73568 0 0 0 0 0.9312 0 0 0 1 0"/>
<feBlend mode="normal" in2="effect2_innerShadow_874_7145" result="effect3_innerShadow_874_7145"/>
</filter>
</defs>
</svg>
