<svg width="140" height="60" viewBox="0 0 140 60" fill="none" xmlns="http://www.w3.org/2000/svg">
<g filter="url(#filter0_dd_995_4873)">
<rect x="44" y="12" width="96" height="30" rx="4" fill="white"/>
<path d="M67.9998 32.3334L62.6665 27.0001L67.9998 21.6667" stroke="#1CCAFB" stroke-width="2" stroke-linecap="round" stroke-linejoin="round"/>
<path d="M87.6981 32.4H87.4181V32.68H86.2421V32.4H85.9621V20.78H86.2421V20.5H87.4181V20.78H87.6981V25.386H89.0281V25.666H89.3081V26.618H89.0281V26.898H87.6981V32.4ZM77.6181 31H77.8981V30.16H78.1781V29.32H78.4581V28.76H78.7381V27.64H79.0181V26.24H79.2981V24.84H79.5781V22.88H79.8581V20.948H80.1381V20.668H81.2861V20.948H81.5661V23.44H81.2861V24.84H81.0061V25.47H81.5661V25.19H82.6861V25.47H83.2461V25.82H83.5261V26.38H83.8061V26.94H84.0861V27.78H84.3661V28.62H84.6461V30.3H84.9261V32.148H84.6461V32.428H83.5261V32.148H83.2461V30.02H82.9661V28.62H82.6861V27.78H82.4061V27.22H82.1261V26.94H81.7061V26.66H81.0061V26.94H80.7261V27.64H80.4461V28.76H80.1661V29.88H79.8861V30.72H79.6061V31.56H79.3261V32.12H79.0461V32.4H78.4581V32.12H77.8981V31.84H77.6181V31ZM98.4476 29.054V20.78H98.7276V20.5H99.9036V20.78H100.184V29.054H99.9036V29.334H98.7276V29.054H98.4476ZM92.5256 30.986H92.8056V31.266H100.184V31.546H100.464V32.4H100.184V32.68H91.9236V32.4H91.3636V32.12H91.0836V31.56H90.8036V28.62H91.0836V28.34H92.2456V28.62H92.5256V30.986ZM90.3976 22.208V21.928H90.1176V21.074H90.3976V20.794H96.7816V21.074H97.0616V21.928H96.7816V22.208H93.7436V23.034H93.4636V23.762H93.7436V23.482H94.9616V23.762H95.6616V24.042H95.9416V24.322H96.2216V24.882H96.5016V25.372H96.7816V25.932H97.0616V27.164H96.5016V27.444H95.7316V27.164H95.4516V26.324H95.1716V25.764H94.8916V25.344H94.6116V25.064H94.1916V24.784H93.4636V25.064H92.9036V25.344H92.6236V25.764H92.3436V26.324H92.0636V26.884H91.7836V27.164H91.5036V27.444H90.8036V27.164H90.3836V26.884H90.1036V26.324H90.3836V25.764H90.6636V25.484H90.9436V24.924H91.2236V24.364H91.5036V23.804H91.7836V22.964H92.0636V22.208H90.3976ZM112.459 26.856H112.179V27.416H111.899V27.696H111.339V27.976H108.357V30.664H112.739V30.944H113.019V31.84H112.739V32.12H102.239V31.84H101.959V30.944H102.239V30.664H106.621V27.976H103.639V27.696H103.079V27.416H102.799V26.856H102.519V21.144H102.799V20.864H103.919V21.144H104.199V23.482H104.759V23.202H106.439V22.922H110.779V21.144H111.059V20.864H112.179V21.144H112.459V26.856ZM104.199 26.296H104.479V26.576H110.499V26.296H110.779V24.294H106.999V24.574H105.319V24.854H104.199V26.296ZM124.595 32.4H124.315V32.68H123.139V32.4H122.859V20.78H123.139V20.5H124.315V20.78H124.595V32.4ZM114.417 30.608H114.697V30.328H115.257V30.048H115.537V29.768H115.817V29.488H116.097V29.208H116.377V28.928H116.657V28.648H116.937V28.368H117.217V28.088H117.497V27.808H117.777V27.248H118.057V26.688H118.337V26.128H118.617V25.288H118.897V24.168H119.177V22.628H118.897V22.348H114.823V22.068H114.543V21.172H114.823V20.892H119.513V21.172H120.073V21.452H120.353V21.732H120.633V22.292H120.913V24.252H120.633V25.652H120.353V26.212H120.073V27.052H119.793V27.612H119.513V28.172H119.163V28.452H118.883V29.012H118.603V29.292H118.323V29.712H118.043V29.992H117.763V30.272H117.483V30.552H117.203V30.832H116.923V31.112H116.643V31.392H116.363V31.672H115.803V31.952H114.977V31.672H114.697V31.392H114.417V30.608Z" fill="#007495"/>
<path d="M87.6981 32.4V32.5H87.7981V32.4H87.6981ZM87.4181 32.4V32.3H87.3181V32.4H87.4181ZM87.4181 32.68V32.78H87.5181V32.68H87.4181ZM86.2421 32.68H86.1421V32.78H86.2421V32.68ZM86.2421 32.4H86.3421V32.3H86.2421V32.4ZM85.9621 32.4H85.8621V32.5H85.9621V32.4ZM85.9621 20.78V20.68H85.8621V20.78H85.9621ZM86.2421 20.78V20.88H86.3421V20.78H86.2421ZM86.2421 20.5V20.4H86.1421V20.5H86.2421ZM87.4181 20.5H87.5181V20.4H87.4181V20.5ZM87.4181 20.78H87.3181V20.88H87.4181V20.78ZM87.6981 20.78H87.7981V20.68H87.6981V20.78ZM87.6981 25.386H87.5981V25.486H87.6981V25.386ZM89.0281 25.386H89.1281V25.286H89.0281V25.386ZM89.0281 25.666H88.9281V25.766H89.0281V25.666ZM89.3081 25.666H89.4081V25.566H89.3081V25.666ZM89.3081 26.618V26.718H89.4081V26.618H89.3081ZM89.0281 26.618V26.518H88.9281V26.618H89.0281ZM89.0281 26.898V26.998H89.1281V26.898H89.0281ZM87.6981 26.898V26.798H87.5981V26.898H87.6981ZM77.6181 31V30.9H77.5181V31H77.6181ZM77.8981 31V31.1H77.9981V31H77.8981ZM77.8981 30.16V30.06H77.7981V30.16H77.8981ZM78.1781 30.16V30.26H78.2781V30.16H78.1781ZM78.1781 29.32V29.22H78.0781V29.32H78.1781ZM78.4581 29.32V29.42H78.5581V29.32H78.4581ZM78.4581 28.76V28.66H78.3581V28.76H78.4581ZM78.7381 28.76V28.86H78.8381V28.76H78.7381ZM78.7381 27.64V27.54H78.6381V27.64H78.7381ZM79.0181 27.64V27.74H79.1181V27.64H79.0181ZM79.0181 26.24V26.14H78.9181V26.24H79.0181ZM79.2981 26.24V26.34H79.3981V26.24H79.2981ZM79.2981 24.84V24.74H79.1981V24.84H79.2981ZM79.5781 24.84V24.94H79.6781V24.84H79.5781ZM79.5781 22.88V22.78H79.4781V22.88H79.5781ZM79.8581 22.88V22.98H79.9581V22.88H79.8581ZM79.8581 20.948V20.848H79.7581V20.948H79.8581ZM80.1381 20.948V21.048H80.2381V20.948H80.1381ZM80.1381 20.668V20.568H80.0381V20.668H80.1381ZM81.2861 20.668H81.3861V20.568H81.2861V20.668ZM81.2861 20.948H81.1861V21.048H81.2861V20.948ZM81.5661 20.948H81.6661V20.848H81.5661V20.948ZM81.5661 23.44V23.54H81.6661V23.44H81.5661ZM81.2861 23.44V23.34H81.1861V23.44H81.2861ZM81.2861 24.84V24.94H81.3861V24.84H81.2861ZM81.0061 24.84V24.74H80.9061V24.84H81.0061ZM81.0061 25.47H80.9061V25.57H81.0061V25.47ZM81.5661 25.47V25.57H81.6661V25.47H81.5661ZM81.5661 25.19V25.09H81.4661V25.19H81.5661ZM82.6861 25.19H82.7861V25.09H82.6861V25.19ZM82.6861 25.47H82.5861V25.57H82.6861V25.47ZM83.2461 25.47H83.3461V25.37H83.2461V25.47ZM83.2461 25.82H83.1461V25.92H83.2461V25.82ZM83.5261 25.82H83.6261V25.72H83.5261V25.82ZM83.5261 26.38H83.4261V26.48H83.5261V26.38ZM83.8061 26.38H83.9061V26.28H83.8061V26.38ZM83.8061 26.94H83.7061V27.04H83.8061V26.94ZM84.0861 26.94H84.1861V26.84H84.0861V26.94ZM84.0861 27.78H83.9861V27.88H84.0861V27.78ZM84.3661 27.78H84.4661V27.68H84.3661V27.78ZM84.3661 28.62H84.2661V28.72H84.3661V28.62ZM84.6461 28.62H84.7461V28.52H84.6461V28.62ZM84.6461 30.3H84.5461V30.4H84.6461V30.3ZM84.9261 30.3H85.0261V30.2H84.9261V30.3ZM84.9261 32.148V32.248H85.0261V32.148H84.9261ZM84.6461 32.148V32.048H84.5461V32.148H84.6461ZM84.6461 32.428V32.528H84.7461V32.428H84.6461ZM83.5261 32.428H83.4261V32.528H83.5261V32.428ZM83.5261 32.148H83.6261V32.048H83.5261V32.148ZM83.2461 32.148H83.1461V32.248H83.2461V32.148ZM83.2461 30.02H83.3461V29.92H83.2461V30.02ZM82.9661 30.02H82.8661V30.12H82.9661V30.02ZM82.9661 28.62H83.0661V28.52H82.9661V28.62ZM82.6861 28.62H82.5861V28.72H82.6861V28.62ZM82.6861 27.78H82.7861V27.68H82.6861V27.78ZM82.4061 27.78H82.3061V27.88H82.4061V27.78ZM82.4061 27.22H82.5061V27.12H82.4061V27.22ZM82.1261 27.22H82.0261V27.32H82.1261V27.22ZM82.1261 26.94H82.2261V26.84H82.1261V26.94ZM81.7061 26.94H81.6061V27.04H81.7061V26.94ZM81.7061 26.66H81.8061V26.56H81.7061V26.66ZM81.0061 26.66V26.56H80.9061V26.66H81.0061ZM81.0061 26.94V27.04H81.1061V26.94H81.0061ZM80.7261 26.94V26.84H80.6261V26.94H80.7261ZM80.7261 27.64V27.74H80.8261V27.64H80.7261ZM80.4461 27.64V27.54H80.3461V27.64H80.4461ZM80.4461 28.76V28.86H80.5461V28.76H80.4461ZM80.1661 28.76V28.66H80.0661V28.76H80.1661ZM80.1661 29.88V29.98H80.2661V29.88H80.1661ZM79.8861 29.88V29.78H79.7861V29.88H79.8861ZM79.8861 30.72V30.82H79.9861V30.72H79.8861ZM79.6061 30.72V30.62H79.5061V30.72H79.6061ZM79.6061 31.56V31.66H79.7061V31.56H79.6061ZM79.3261 31.56V31.46H79.2261V31.56H79.3261ZM79.3261 32.12V32.22H79.4261V32.12H79.3261ZM79.0461 32.12V32.02H78.9461V32.12H79.0461ZM79.0461 32.4V32.5H79.1461V32.4H79.0461ZM78.4581 32.4H78.3581V32.5H78.4581V32.4ZM78.4581 32.12H78.5581V32.02H78.4581V32.12ZM77.8981 32.12H77.7981V32.22H77.8981V32.12ZM77.8981 31.84H77.9981V31.74H77.8981V31.84ZM77.6181 31.84H77.5181V31.94H77.6181V31.84ZM87.6981 32.4V32.3H87.4181V32.4V32.5H87.6981V32.4ZM87.4181 32.4H87.3181V32.68H87.4181H87.5181V32.4H87.4181ZM87.4181 32.68V32.58H86.2421V32.68V32.78H87.4181V32.68ZM86.2421 32.68H86.3421V32.4H86.2421H86.1421V32.68H86.2421ZM86.2421 32.4V32.3H85.9621V32.4V32.5H86.2421V32.4ZM85.9621 32.4H86.0621V20.78H85.9621H85.8621V32.4H85.9621ZM85.9621 20.78V20.88H86.2421V20.78V20.68H85.9621V20.78ZM86.2421 20.78H86.3421V20.5H86.2421H86.1421V20.78H86.2421ZM86.2421 20.5V20.6H87.4181V20.5V20.4H86.2421V20.5ZM87.4181 20.5H87.3181V20.78H87.4181H87.5181V20.5H87.4181ZM87.4181 20.78V20.88H87.6981V20.78V20.68H87.4181V20.78ZM87.6981 20.78H87.5981V25.386H87.6981H87.7981V20.78H87.6981ZM87.6981 25.386V25.486H89.0281V25.386V25.286H87.6981V25.386ZM89.0281 25.386H88.9281V25.666H89.0281H89.1281V25.386H89.0281ZM89.0281 25.666V25.766H89.3081V25.666V25.566H89.0281V25.666ZM89.3081 25.666H89.2081V26.618H89.3081H89.4081V25.666H89.3081ZM89.3081 26.618V26.518H89.0281V26.618V26.718H89.3081V26.618ZM89.0281 26.618H88.9281V26.898H89.0281H89.1281V26.618H89.0281ZM89.0281 26.898V26.798H87.6981V26.898V26.998H89.0281V26.898ZM87.6981 26.898H87.5981V32.4H87.6981H87.7981V26.898H87.6981ZM77.6181 31V31.1H77.8981V31V30.9H77.6181V31ZM77.8981 31H77.9981V30.16H77.8981H77.7981V31H77.8981ZM77.8981 30.16V30.26H78.1781V30.16V30.06H77.8981V30.16ZM78.1781 30.16H78.2781V29.32H78.1781H78.0781V30.16H78.1781ZM78.1781 29.32V29.42H78.4581V29.32V29.22H78.1781V29.32ZM78.4581 29.32H78.5581V28.76H78.4581H78.3581V29.32H78.4581ZM78.4581 28.76V28.86H78.7381V28.76V28.66H78.4581V28.76ZM78.7381 28.76H78.8381V27.64H78.7381H78.6381V28.76H78.7381ZM78.7381 27.64V27.74H79.0181V27.64V27.54H78.7381V27.64ZM79.0181 27.64H79.1181V26.24H79.0181H78.9181V27.64H79.0181ZM79.0181 26.24V26.34H79.2981V26.24V26.14H79.0181V26.24ZM79.2981 26.24H79.3981V24.84H79.2981H79.1981V26.24H79.2981ZM79.2981 24.84V24.94H79.5781V24.84V24.74H79.2981V24.84ZM79.5781 24.84H79.6781V22.88H79.5781H79.4781V24.84H79.5781ZM79.5781 22.88V22.98H79.8581V22.88V22.78H79.5781V22.88ZM79.8581 22.88H79.9581V20.948H79.8581H79.7581V22.88H79.8581ZM79.8581 20.948V21.048H80.1381V20.948V20.848H79.8581V20.948ZM80.1381 20.948H80.2381V20.668H80.1381H80.0381V20.948H80.1381ZM80.1381 20.668V20.768H81.2861V20.668V20.568H80.1381V20.668ZM81.2861 20.668H81.1861V20.948H81.2861H81.3861V20.668H81.2861ZM81.2861 20.948V21.048H81.5661V20.948V20.848H81.2861V20.948ZM81.5661 20.948H81.4661V23.44H81.5661H81.6661V20.948H81.5661ZM81.5661 23.44V23.34H81.2861V23.44V23.54H81.5661V23.44ZM81.2861 23.44H81.1861V24.84H81.2861H81.3861V23.44H81.2861ZM81.2861 24.84V24.74H81.0061V24.84V24.94H81.2861V24.84ZM81.0061 24.84H80.9061V25.47H81.0061H81.1061V24.84H81.0061ZM81.0061 25.47V25.57H81.5661V25.47V25.37H81.0061V25.47ZM81.5661 25.47H81.6661V25.19H81.5661H81.4661V25.47H81.5661ZM81.5661 25.19V25.29H82.6861V25.19V25.09H81.5661V25.19ZM82.6861 25.19H82.5861V25.47H82.6861H82.7861V25.19H82.6861ZM82.6861 25.47V25.57H83.2461V25.47V25.37H82.6861V25.47ZM83.2461 25.47H83.1461V25.82H83.2461H83.3461V25.47H83.2461ZM83.2461 25.82V25.92H83.5261V25.82V25.72H83.2461V25.82ZM83.5261 25.82H83.4261V26.38H83.5261H83.6261V25.82H83.5261ZM83.5261 26.38V26.48H83.8061V26.38V26.28H83.5261V26.38ZM83.8061 26.38H83.7061V26.94H83.8061H83.9061V26.38H83.8061ZM83.8061 26.94V27.04H84.0861V26.94V26.84H83.8061V26.94ZM84.0861 26.94H83.9861V27.78H84.0861H84.1861V26.94H84.0861ZM84.0861 27.78V27.88H84.3661V27.78V27.68H84.0861V27.78ZM84.3661 27.78H84.2661V28.62H84.3661H84.4661V27.78H84.3661ZM84.3661 28.62V28.72H84.6461V28.62V28.52H84.3661V28.62ZM84.6461 28.62H84.5461V30.3H84.6461H84.7461V28.62H84.6461ZM84.6461 30.3V30.4H84.9261V30.3V30.2H84.6461V30.3ZM84.9261 30.3H84.8261V32.148H84.9261H85.0261V30.3H84.9261ZM84.9261 32.148V32.048H84.6461V32.148V32.248H84.9261V32.148ZM84.6461 32.148H84.5461V32.428H84.6461H84.7461V32.148H84.6461ZM84.6461 32.428V32.328H83.5261V32.428V32.528H84.6461V32.428ZM83.5261 32.428H83.6261V32.148H83.5261H83.4261V32.428H83.5261ZM83.5261 32.148V32.048H83.2461V32.148V32.248H83.5261V32.148ZM83.2461 32.148H83.3461V30.02H83.2461H83.1461V32.148H83.2461ZM83.2461 30.02V29.92H82.9661V30.02V30.12H83.2461V30.02ZM82.9661 30.02H83.0661V28.62H82.9661H82.8661V30.02H82.9661ZM82.9661 28.62V28.52H82.6861V28.62V28.72H82.9661V28.62ZM82.6861 28.62H82.7861V27.78H82.6861H82.5861V28.62H82.6861ZM82.6861 27.78V27.68H82.4061V27.78V27.88H82.6861V27.78ZM82.4061 27.78H82.5061V27.22H82.4061H82.3061V27.78H82.4061ZM82.4061 27.22V27.12H82.1261V27.22V27.32H82.4061V27.22ZM82.1261 27.22H82.2261V26.94H82.1261H82.0261V27.22H82.1261ZM82.1261 26.94V26.84H81.7061V26.94V27.04H82.1261V26.94ZM81.7061 26.94H81.8061V26.66H81.7061H81.6061V26.94H81.7061ZM81.7061 26.66V26.56H81.0061V26.66V26.76H81.7061V26.66ZM81.0061 26.66H80.9061V26.94H81.0061H81.1061V26.66H81.0061ZM81.0061 26.94V26.84H80.7261V26.94V27.04H81.0061V26.94ZM80.7261 26.94H80.6261V27.64H80.7261H80.8261V26.94H80.7261ZM80.7261 27.64V27.54H80.4461V27.64V27.74H80.7261V27.64ZM80.4461 27.64H80.3461V28.76H80.4461H80.5461V27.64H80.4461ZM80.4461 28.76V28.66H80.1661V28.76V28.86H80.4461V28.76ZM80.1661 28.76H80.0661V29.88H80.1661H80.2661V28.76H80.1661ZM80.1661 29.88V29.78H79.8861V29.88V29.98H80.1661V29.88ZM79.8861 29.88H79.7861V30.72H79.8861H79.9861V29.88H79.8861ZM79.8861 30.72V30.62H79.6061V30.72V30.82H79.8861V30.72ZM79.6061 30.72H79.5061V31.56H79.6061H79.7061V30.72H79.6061ZM79.6061 31.56V31.46H79.3261V31.56V31.66H79.6061V31.56ZM79.3261 31.56H79.2261V32.12H79.3261H79.4261V31.56H79.3261ZM79.3261 32.12V32.02H79.0461V32.12V32.22H79.3261V32.12ZM79.0461 32.12H78.9461V32.4H79.0461H79.1461V32.12H79.0461ZM79.0461 32.4V32.3H78.4581V32.4V32.5H79.0461V32.4ZM78.4581 32.4H78.5581V32.12H78.4581H78.3581V32.4H78.4581ZM78.4581 32.12V32.02H77.8981V32.12V32.22H78.4581V32.12ZM77.8981 32.12H77.9981V31.84H77.8981H77.7981V32.12H77.8981ZM77.8981 31.84V31.74H77.6181V31.84V31.94H77.8981V31.84ZM77.6181 31.84H77.7181V31H77.6181H77.5181V31.84H77.6181ZM98.4476 29.054H98.3476V29.154H98.4476V29.054ZM98.4476 20.78V20.68H98.3476V20.78H98.4476ZM98.7276 20.78V20.88H98.8276V20.78H98.7276ZM98.7276 20.5V20.4H98.6276V20.5H98.7276ZM99.9036 20.5H100.004V20.4H99.9036V20.5ZM99.9036 20.78H99.8036V20.88H99.9036V20.78ZM100.184 20.78H100.284V20.68H100.184V20.78ZM100.184 29.054V29.154H100.284V29.054H100.184ZM99.9036 29.054V28.954H99.8036V29.054H99.9036ZM99.9036 29.334V29.434H100.004V29.334H99.9036ZM98.7276 29.334H98.6276V29.434H98.7276V29.334ZM98.7276 29.054H98.8276V28.954H98.7276V29.054ZM92.5256 30.986H92.4256V31.086H92.5256V30.986ZM92.8056 30.986H92.9056V30.886H92.8056V30.986ZM92.8056 31.266H92.7056V31.366H92.8056V31.266ZM100.184 31.266H100.284V31.166H100.184V31.266ZM100.184 31.546H100.084V31.646H100.184V31.546ZM100.464 31.546H100.564V31.446H100.464V31.546ZM100.464 32.4V32.5H100.564V32.4H100.464ZM100.184 32.4V32.3H100.084V32.4H100.184ZM100.184 32.68V32.78H100.284V32.68H100.184ZM91.9236 32.68H91.8236V32.78H91.9236V32.68ZM91.9236 32.4H92.0236V32.3H91.9236V32.4ZM91.3636 32.4H91.2636V32.5H91.3636V32.4ZM91.3636 32.12H91.4636V32.02H91.3636V32.12ZM91.0836 32.12H90.9836V32.22H91.0836V32.12ZM91.0836 31.56H91.1836V31.46H91.0836V31.56ZM90.8036 31.56H90.7036V31.66H90.8036V31.56ZM90.8036 28.62V28.52H90.7036V28.62H90.8036ZM91.0836 28.62V28.72H91.1836V28.62H91.0836ZM91.0836 28.34V28.24H90.9836V28.34H91.0836ZM92.2456 28.34H92.3456V28.24H92.2456V28.34ZM92.2456 28.62H92.1456V28.72H92.2456V28.62ZM92.5256 28.62H92.6256V28.52H92.5256V28.62ZM90.3976 22.208H90.2976V22.308H90.3976V22.208ZM90.3976 21.928H90.4976V21.828H90.3976V21.928ZM90.1176 21.928H90.0176V22.028H90.1176V21.928ZM90.1176 21.074V20.974H90.0176V21.074H90.1176ZM90.3976 21.074V21.174H90.4976V21.074H90.3976ZM90.3976 20.794V20.694H90.2976V20.794H90.3976ZM96.7816 20.794H96.8816V20.694H96.7816V20.794ZM96.7816 21.074H96.6816V21.174H96.7816V21.074ZM97.0616 21.074H97.1616V20.974H97.0616V21.074ZM97.0616 21.928V22.028H97.1616V21.928H97.0616ZM96.7816 21.928V21.828H96.6816V21.928H96.7816ZM96.7816 22.208V22.308H96.8816V22.208H96.7816ZM93.7436 22.208V22.108H93.6436V22.208H93.7436ZM93.7436 23.034V23.134H93.8436V23.034H93.7436ZM93.4636 23.034V22.934H93.3636V23.034H93.4636ZM93.4636 23.762H93.3636V23.862H93.4636V23.762ZM93.7436 23.762V23.862H93.8436V23.762H93.7436ZM93.7436 23.482V23.382H93.6436V23.482H93.7436ZM94.9616 23.482H95.0616V23.382H94.9616V23.482ZM94.9616 23.762H94.8616V23.862H94.9616V23.762ZM95.6616 23.762H95.7616V23.662H95.6616V23.762ZM95.6616 24.042H95.5616V24.142H95.6616V24.042ZM95.9416 24.042H96.0416V23.942H95.9416V24.042ZM95.9416 24.322H95.8416V24.422H95.9416V24.322ZM96.2216 24.322H96.3216V24.222H96.2216V24.322ZM96.2216 24.882H96.1216V24.982H96.2216V24.882ZM96.5016 24.882H96.6016V24.782H96.5016V24.882ZM96.5016 25.372H96.4016V25.472H96.5016V25.372ZM96.7816 25.372H96.8816V25.272H96.7816V25.372ZM96.7816 25.932H96.6816V26.032H96.7816V25.932ZM97.0616 25.932H97.1616V25.832H97.0616V25.932ZM97.0616 27.164V27.264H97.1616V27.164H97.0616ZM96.5016 27.164V27.064H96.4016V27.164H96.5016ZM96.5016 27.444V27.544H96.6016V27.444H96.5016ZM95.7316 27.444H95.6316V27.544H95.7316V27.444ZM95.7316 27.164H95.8316V27.064H95.7316V27.164ZM95.4516 27.164H95.3516V27.264H95.4516V27.164ZM95.4516 26.324H95.5516V26.224H95.4516V26.324ZM95.1716 26.324H95.0716V26.424H95.1716V26.324ZM95.1716 25.764H95.2716V25.664H95.1716V25.764ZM94.8916 25.764H94.7916V25.864H94.8916V25.764ZM94.8916 25.344H94.9916V25.244H94.8916V25.344ZM94.6116 25.344H94.5116V25.444H94.6116V25.344ZM94.6116 25.064H94.7116V24.964H94.6116V25.064ZM94.1916 25.064H94.0916V25.164H94.1916V25.064ZM94.1916 24.784H94.2916V24.684H94.1916V24.784ZM93.4636 24.784V24.684H93.3636V24.784H93.4636ZM93.4636 25.064V25.164H93.5636V25.064H93.4636ZM92.9036 25.064V24.964H92.8036V25.064H92.9036ZM92.9036 25.344V25.444H93.0036V25.344H92.9036ZM92.6236 25.344V25.244H92.5236V25.344H92.6236ZM92.6236 25.764V25.864H92.7236V25.764H92.6236ZM92.3436 25.764V25.664H92.2436V25.764H92.3436ZM92.3436 26.324V26.424H92.4436V26.324H92.3436ZM92.0636 26.324V26.224H91.9636V26.324H92.0636ZM92.0636 26.884V26.984H92.1636V26.884H92.0636ZM91.7836 26.884V26.784H91.6836V26.884H91.7836ZM91.7836 27.164V27.264H91.8836V27.164H91.7836ZM91.5036 27.164V27.064H91.4036V27.164H91.5036ZM91.5036 27.444V27.544H91.6036V27.444H91.5036ZM90.8036 27.444H90.7036V27.544H90.8036V27.444ZM90.8036 27.164H90.9036V27.064H90.8036V27.164ZM90.3836 27.164H90.2836V27.264H90.3836V27.164ZM90.3836 26.884H90.4836V26.784H90.3836V26.884ZM90.1036 26.884H90.0036V26.984H90.1036V26.884ZM90.1036 26.324V26.224H90.0036V26.324H90.1036ZM90.3836 26.324V26.424H90.4836V26.324H90.3836ZM90.3836 25.764V25.664H90.2836V25.764H90.3836ZM90.6636 25.764V25.864H90.7636V25.764H90.6636ZM90.6636 25.484V25.384H90.5636V25.484H90.6636ZM90.9436 25.484V25.584H91.0436V25.484H90.9436ZM90.9436 24.924V24.824H90.8436V24.924H90.9436ZM91.2236 24.924V25.024H91.3236V24.924H91.2236ZM91.2236 24.364V24.264H91.1236V24.364H91.2236ZM91.5036 24.364V24.464H91.6036V24.364H91.5036ZM91.5036 23.804V23.704H91.4036V23.804H91.5036ZM91.7836 23.804V23.904H91.8836V23.804H91.7836ZM91.7836 22.964V22.864H91.6836V22.964H91.7836ZM92.0636 22.964V23.064H92.1636V22.964H92.0636ZM92.0636 22.208H92.1636V22.108H92.0636V22.208ZM98.4476 29.054H98.5476V20.78H98.4476H98.3476V29.054H98.4476ZM98.4476 20.78V20.88H98.7276V20.78V20.68H98.4476V20.78ZM98.7276 20.78H98.8276V20.5H98.7276H98.6276V20.78H98.7276ZM98.7276 20.5V20.6H99.9036V20.5V20.4H98.7276V20.5ZM99.9036 20.5H99.8036V20.78H99.9036H100.004V20.5H99.9036ZM99.9036 20.78V20.88H100.184V20.78V20.68H99.9036V20.78ZM100.184 20.78H100.084V29.054H100.184H100.284V20.78H100.184ZM100.184 29.054V28.954H99.9036V29.054V29.154H100.184V29.054ZM99.9036 29.054H99.8036V29.334H99.9036H100.004V29.054H99.9036ZM99.9036 29.334V29.234H98.7276V29.334V29.434H99.9036V29.334ZM98.7276 29.334H98.8276V29.054H98.7276H98.6276V29.334H98.7276ZM98.7276 29.054V28.954H98.4476V29.054V29.154H98.7276V29.054ZM92.5256 30.986V31.086H92.8056V30.986V30.886H92.5256V30.986ZM92.8056 30.986H92.7056V31.266H92.8056H92.9056V30.986H92.8056ZM92.8056 31.266V31.366H100.184V31.266V31.166H92.8056V31.266ZM100.184 31.266H100.084V31.546H100.184H100.284V31.266H100.184ZM100.184 31.546V31.646H100.464V31.546V31.446H100.184V31.546ZM100.464 31.546H100.364V32.4H100.464H100.564V31.546H100.464ZM100.464 32.4V32.3H100.184V32.4V32.5H100.464V32.4ZM100.184 32.4H100.084V32.68H100.184H100.284V32.4H100.184ZM100.184 32.68V32.58H91.9236V32.68V32.78H100.184V32.68ZM91.9236 32.68H92.0236V32.4H91.9236H91.8236V32.68H91.9236ZM91.9236 32.4V32.3H91.3636V32.4V32.5H91.9236V32.4ZM91.3636 32.4H91.4636V32.12H91.3636H91.2636V32.4H91.3636ZM91.3636 32.12V32.02H91.0836V32.12V32.22H91.3636V32.12ZM91.0836 32.12H91.1836V31.56H91.0836H90.9836V32.12H91.0836ZM91.0836 31.56V31.46H90.8036V31.56V31.66H91.0836V31.56ZM90.8036 31.56H90.9036V28.62H90.8036H90.7036V31.56H90.8036ZM90.8036 28.62V28.72H91.0836V28.62V28.52H90.8036V28.62ZM91.0836 28.62H91.1836V28.34H91.0836H90.9836V28.62H91.0836ZM91.0836 28.34V28.44H92.2456V28.34V28.24H91.0836V28.34ZM92.2456 28.34H92.1456V28.62H92.2456H92.3456V28.34H92.2456ZM92.2456 28.62V28.72H92.5256V28.62V28.52H92.2456V28.62ZM92.5256 28.62H92.4256V30.986H92.5256H92.6256V28.62H92.5256ZM90.3976 22.208H90.4976V21.928H90.3976H90.2976V22.208H90.3976ZM90.3976 21.928V21.828H90.1176V21.928V22.028H90.3976V21.928ZM90.1176 21.928H90.2176V21.074H90.1176H90.0176V21.928H90.1176ZM90.1176 21.074V21.174H90.3976V21.074V20.974H90.1176V21.074ZM90.3976 21.074H90.4976V20.794H90.3976H90.2976V21.074H90.3976ZM90.3976 20.794V20.894H96.7816V20.794V20.694H90.3976V20.794ZM96.7816 20.794H96.6816V21.074H96.7816H96.8816V20.794H96.7816ZM96.7816 21.074V21.174H97.0616V21.074V20.974H96.7816V21.074ZM97.0616 21.074H96.9616V21.928H97.0616H97.1616V21.074H97.0616ZM97.0616 21.928V21.828H96.7816V21.928V22.028H97.0616V21.928ZM96.7816 21.928H96.6816V22.208H96.7816H96.8816V21.928H96.7816ZM96.7816 22.208V22.108H93.7436V22.208V22.308H96.7816V22.208ZM93.7436 22.208H93.6436V23.034H93.7436H93.8436V22.208H93.7436ZM93.7436 23.034V22.934H93.4636V23.034V23.134H93.7436V23.034ZM93.4636 23.034H93.3636V23.762H93.4636H93.5636V23.034H93.4636ZM93.4636 23.762V23.862H93.7436V23.762V23.662H93.4636V23.762ZM93.7436 23.762H93.8436V23.482H93.7436H93.6436V23.762H93.7436ZM93.7436 23.482V23.582H94.9616V23.482V23.382H93.7436V23.482ZM94.9616 23.482H94.8616V23.762H94.9616H95.0616V23.482H94.9616ZM94.9616 23.762V23.862H95.6616V23.762V23.662H94.9616V23.762ZM95.6616 23.762H95.5616V24.042H95.6616H95.7616V23.762H95.6616ZM95.6616 24.042V24.142H95.9416V24.042V23.942H95.6616V24.042ZM95.9416 24.042H95.8416V24.322H95.9416H96.0416V24.042H95.9416ZM95.9416 24.322V24.422H96.2216V24.322V24.222H95.9416V24.322ZM96.2216 24.322H96.1216V24.882H96.2216H96.3216V24.322H96.2216ZM96.2216 24.882V24.982H96.5016V24.882V24.782H96.2216V24.882ZM96.5016 24.882H96.4016V25.372H96.5016H96.6016V24.882H96.5016ZM96.5016 25.372V25.472H96.7816V25.372V25.272H96.5016V25.372ZM96.7816 25.372H96.6816V25.932H96.7816H96.8816V25.372H96.7816ZM96.7816 25.932V26.032H97.0616V25.932V25.832H96.7816V25.932ZM97.0616 25.932H96.9616V27.164H97.0616H97.1616V25.932H97.0616ZM97.0616 27.164V27.064H96.5016V27.164V27.264H97.0616V27.164ZM96.5016 27.164H96.4016V27.444H96.5016H96.6016V27.164H96.5016ZM96.5016 27.444V27.344H95.7316V27.444V27.544H96.5016V27.444ZM95.7316 27.444H95.8316V27.164H95.7316H95.6316V27.444H95.7316ZM95.7316 27.164V27.064H95.4516V27.164V27.264H95.7316V27.164ZM95.4516 27.164H95.5516V26.324H95.4516H95.3516V27.164H95.4516ZM95.4516 26.324V26.224H95.1716V26.324V26.424H95.4516V26.324ZM95.1716 26.324H95.2716V25.764H95.1716H95.0716V26.324H95.1716ZM95.1716 25.764V25.664H94.8916V25.764V25.864H95.1716V25.764ZM94.8916 25.764H94.9916V25.344H94.8916H94.7916V25.764H94.8916ZM94.8916 25.344V25.244H94.6116V25.344V25.444H94.8916V25.344ZM94.6116 25.344H94.7116V25.064H94.6116H94.5116V25.344H94.6116ZM94.6116 25.064V24.964H94.1916V25.064V25.164H94.6116V25.064ZM94.1916 25.064H94.2916V24.784H94.1916H94.0916V25.064H94.1916ZM94.1916 24.784V24.684H93.4636V24.784V24.884H94.1916V24.784ZM93.4636 24.784H93.3636V25.064H93.4636H93.5636V24.784H93.4636ZM93.4636 25.064V24.964H92.9036V25.064V25.164H93.4636V25.064ZM92.9036 25.064H92.8036V25.344H92.9036H93.0036V25.064H92.9036ZM92.9036 25.344V25.244H92.6236V25.344V25.444H92.9036V25.344ZM92.6236 25.344H92.5236V25.764H92.6236H92.7236V25.344H92.6236ZM92.6236 25.764V25.664H92.3436V25.764V25.864H92.6236V25.764ZM92.3436 25.764H92.2436V26.324H92.3436H92.4436V25.764H92.3436ZM92.3436 26.324V26.224H92.0636V26.324V26.424H92.3436V26.324ZM92.0636 26.324H91.9636V26.884H92.0636H92.1636V26.324H92.0636ZM92.0636 26.884V26.784H91.7836V26.884V26.984H92.0636V26.884ZM91.7836 26.884H91.6836V27.164H91.7836H91.8836V26.884H91.7836ZM91.7836 27.164V27.064H91.5036V27.164V27.264H91.7836V27.164ZM91.5036 27.164H91.4036V27.444H91.5036H91.6036V27.164H91.5036ZM91.5036 27.444V27.344H90.8036V27.444V27.544H91.5036V27.444ZM90.8036 27.444H90.9036V27.164H90.8036H90.7036V27.444H90.8036ZM90.8036 27.164V27.064H90.3836V27.164V27.264H90.8036V27.164ZM90.3836 27.164H90.4836V26.884H90.3836H90.2836V27.164H90.3836ZM90.3836 26.884V26.784H90.1036V26.884V26.984H90.3836V26.884ZM90.1036 26.884H90.2036V26.324H90.1036H90.0036V26.884H90.1036ZM90.1036 26.324V26.424H90.3836V26.324V26.224H90.1036V26.324ZM90.3836 26.324H90.4836V25.764H90.3836H90.2836V26.324H90.3836ZM90.3836 25.764V25.864H90.6636V25.764V25.664H90.3836V25.764ZM90.6636 25.764H90.7636V25.484H90.6636H90.5636V25.764H90.6636ZM90.6636 25.484V25.584H90.9436V25.484V25.384H90.6636V25.484ZM90.9436 25.484H91.0436V24.924H90.9436H90.8436V25.484H90.9436ZM90.9436 24.924V25.024H91.2236V24.924V24.824H90.9436V24.924ZM91.2236 24.924H91.3236V24.364H91.2236H91.1236V24.924H91.2236ZM91.2236 24.364V24.464H91.5036V24.364V24.264H91.2236V24.364ZM91.5036 24.364H91.6036V23.804H91.5036H91.4036V24.364H91.5036ZM91.5036 23.804V23.904H91.7836V23.804V23.704H91.5036V23.804ZM91.7836 23.804H91.8836V22.964H91.7836H91.6836V23.804H91.7836ZM91.7836 22.964V23.064H92.0636V22.964V22.864H91.7836V22.964ZM92.0636 22.964H92.1636V22.208H92.0636H91.9636V22.964H92.0636ZM92.0636 22.208V22.108H90.3976V22.208V22.308H92.0636V22.208ZM112.459 26.856V26.956H112.559V26.856H112.459ZM112.179 26.856V26.756H112.079V26.856H112.179ZM112.179 27.416V27.516H112.279V27.416H112.179ZM111.899 27.416V27.316H111.799V27.416H111.899ZM111.899 27.696V27.796H111.999V27.696H111.899ZM111.339 27.696V27.596H111.239V27.696H111.339ZM111.339 27.976V28.076H111.439V27.976H111.339ZM108.357 27.976V27.876H108.257V27.976H108.357ZM108.357 30.664H108.257V30.764H108.357V30.664ZM112.739 30.664H112.839V30.564H112.739V30.664ZM112.739 30.944H112.639V31.044H112.739V30.944ZM113.019 30.944H113.119V30.844H113.019V30.944ZM113.019 31.84V31.94H113.119V31.84H113.019ZM112.739 31.84V31.74H112.639V31.84H112.739ZM112.739 32.12V32.22H112.839V32.12H112.739ZM102.239 32.12H102.139V32.22H102.239V32.12ZM102.239 31.84H102.339V31.74H102.239V31.84ZM101.959 31.84H101.859V31.94H101.959V31.84ZM101.959 30.944V30.844H101.859V30.944H101.959ZM102.239 30.944V31.044H102.339V30.944H102.239ZM102.239 30.664V30.564H102.139V30.664H102.239ZM106.621 30.664V30.764H106.721V30.664H106.621ZM106.621 27.976H106.721V27.876H106.621V27.976ZM103.639 27.976H103.539V28.076H103.639V27.976ZM103.639 27.696H103.739V27.596H103.639V27.696ZM103.079 27.696H102.979V27.796H103.079V27.696ZM103.079 27.416H103.179V27.316H103.079V27.416ZM102.799 27.416H102.699V27.516H102.799V27.416ZM102.799 26.856H102.899V26.756H102.799V26.856ZM102.519 26.856H102.419V26.956H102.519V26.856ZM102.519 21.144V21.044H102.419V21.144H102.519ZM102.799 21.144V21.244H102.899V21.144H102.799ZM102.799 20.864V20.764H102.699V20.864H102.799ZM103.919 20.864H104.019V20.764H103.919V20.864ZM103.919 21.144H103.819V21.244H103.919V21.144ZM104.199 21.144H104.299V21.044H104.199V21.144ZM104.199 23.482H104.099V23.582H104.199V23.482ZM104.759 23.482V23.582H104.859V23.482H104.759ZM104.759 23.202V23.102H104.659V23.202H104.759ZM106.439 23.202V23.302H106.539V23.202H106.439ZM106.439 22.922V22.822H106.339V22.922H106.439ZM110.779 22.922V23.022H110.879V22.922H110.779ZM110.779 21.144V21.044H110.679V21.144H110.779ZM111.059 21.144V21.244H111.159V21.144H111.059ZM111.059 20.864V20.764H110.959V20.864H111.059ZM112.179 20.864H112.279V20.764H112.179V20.864ZM112.179 21.144H112.079V21.244H112.179V21.144ZM112.459 21.144H112.559V21.044H112.459V21.144ZM104.199 26.296H104.099V26.396H104.199V26.296ZM104.479 26.296H104.579V26.196H104.479V26.296ZM104.479 26.576H104.379V26.676H104.479V26.576ZM110.499 26.576V26.676H110.599V26.576H110.499ZM110.499 26.296V26.196H110.399V26.296H110.499ZM110.779 26.296V26.396H110.879V26.296H110.779ZM110.779 24.294H110.879V24.194H110.779V24.294ZM106.999 24.294V24.194H106.899V24.294H106.999ZM106.999 24.574V24.674H107.099V24.574H106.999ZM105.319 24.574V24.474H105.219V24.574H105.319ZM105.319 24.854V24.954H105.419V24.854H105.319ZM104.199 24.854V24.754H104.099V24.854H104.199ZM112.459 26.856V26.756H112.179V26.856V26.956H112.459V26.856ZM112.179 26.856H112.079V27.416H112.179H112.279V26.856H112.179ZM112.179 27.416V27.316H111.899V27.416V27.516H112.179V27.416ZM111.899 27.416H111.799V27.696H111.899H111.999V27.416H111.899ZM111.899 27.696V27.596H111.339V27.696V27.796H111.899V27.696ZM111.339 27.696H111.239V27.976H111.339H111.439V27.696H111.339ZM111.339 27.976V27.876H108.357V27.976V28.076H111.339V27.976ZM108.357 27.976H108.257V30.664H108.357H108.457V27.976H108.357ZM108.357 30.664V30.764H112.739V30.664V30.564H108.357V30.664ZM112.739 30.664H112.639V30.944H112.739H112.839V30.664H112.739ZM112.739 30.944V31.044H113.019V30.944V30.844H112.739V30.944ZM113.019 30.944H112.919V31.84H113.019H113.119V30.944H113.019ZM113.019 31.84V31.74H112.739V31.84V31.94H113.019V31.84ZM112.739 31.84H112.639V32.12H112.739H112.839V31.84H112.739ZM112.739 32.12V32.02H102.239V32.12V32.22H112.739V32.12ZM102.239 32.12H102.339V31.84H102.239H102.139V32.12H102.239ZM102.239 31.84V31.74H101.959V31.84V31.94H102.239V31.84ZM101.959 31.84H102.059V30.944H101.959H101.859V31.84H101.959ZM101.959 30.944V31.044H102.239V30.944V30.844H101.959V30.944ZM102.239 30.944H102.339V30.664H102.239H102.139V30.944H102.239ZM102.239 30.664V30.764H106.621V30.664V30.564H102.239V30.664ZM106.621 30.664H106.721V27.976H106.621H106.521V30.664H106.621ZM106.621 27.976V27.876H103.639V27.976V28.076H106.621V27.976ZM103.639 27.976H103.739V27.696H103.639H103.539V27.976H103.639ZM103.639 27.696V27.596H103.079V27.696V27.796H103.639V27.696ZM103.079 27.696H103.179V27.416H103.079H102.979V27.696H103.079ZM103.079 27.416V27.316H102.799V27.416V27.516H103.079V27.416ZM102.799 27.416H102.899V26.856H102.799H102.699V27.416H102.799ZM102.799 26.856V26.756H102.519V26.856V26.956H102.799V26.856ZM102.519 26.856H102.619V21.144H102.519H102.419V26.856H102.519ZM102.519 21.144V21.244H102.799V21.144V21.044H102.519V21.144ZM102.799 21.144H102.899V20.864H102.799H102.699V21.144H102.799ZM102.799 20.864V20.964H103.919V20.864V20.764H102.799V20.864ZM103.919 20.864H103.819V21.144H103.919H104.019V20.864H103.919ZM103.919 21.144V21.244H104.199V21.144V21.044H103.919V21.144ZM104.199 21.144H104.099V23.482H104.199H104.299V21.144H104.199ZM104.199 23.482V23.582H104.759V23.482V23.382H104.199V23.482ZM104.759 23.482H104.859V23.202H104.759H104.659V23.482H104.759ZM104.759 23.202V23.302H106.439V23.202V23.102H104.759V23.202ZM106.439 23.202H106.539V22.922H106.439H106.339V23.202H106.439ZM106.439 22.922V23.022H110.779V22.922V22.822H106.439V22.922ZM110.779 22.922H110.879V21.144H110.779H110.679V22.922H110.779ZM110.779 21.144V21.244H111.059V21.144V21.044H110.779V21.144ZM111.059 21.144H111.159V20.864H111.059H110.959V21.144H111.059ZM111.059 20.864V20.964H112.179V20.864V20.764H111.059V20.864ZM112.179 20.864H112.079V21.144H112.179H112.279V20.864H112.179ZM112.179 21.144V21.244H112.459V21.144V21.044H112.179V21.144ZM112.459 21.144H112.359V26.856H112.459H112.559V21.144H112.459ZM104.199 26.296V26.396H104.479V26.296V26.196H104.199V26.296ZM104.479 26.296H104.379V26.576H104.479H104.579V26.296H104.479ZM104.479 26.576V26.676H110.499V26.576V26.476H104.479V26.576ZM110.499 26.576H110.599V26.296H110.499H110.399V26.576H110.499ZM110.499 26.296V26.396H110.779V26.296V26.196H110.499V26.296ZM110.779 26.296H110.879V24.294H110.779H110.679V26.296H110.779ZM110.779 24.294V24.194H106.999V24.294V24.394H110.779V24.294ZM106.999 24.294H106.899V24.574H106.999H107.099V24.294H106.999ZM106.999 24.574V24.474H105.319V24.574V24.674H106.999V24.574ZM105.319 24.574H105.219V24.854H105.319H105.419V24.574H105.319ZM105.319 24.854V24.754H104.199V24.854V24.954H105.319V24.854ZM104.199 24.854H104.099V26.296H104.199H104.299V24.854H104.199ZM124.595 32.4V32.5H124.695V32.4H124.595ZM124.315 32.4V32.3H124.215V32.4H124.315ZM124.315 32.68V32.78H124.415V32.68H124.315ZM123.139 32.68H123.039V32.78H123.139V32.68ZM123.139 32.4H123.239V32.3H123.139V32.4ZM122.859 32.4H122.759V32.5H122.859V32.4ZM122.859 20.78V20.68H122.759V20.78H122.859ZM123.139 20.78V20.88H123.239V20.78H123.139ZM123.139 20.5V20.4H123.039V20.5H123.139ZM124.315 20.5H124.415V20.4H124.315V20.5ZM124.315 20.78H124.215V20.88H124.315V20.78ZM124.595 20.78H124.695V20.68H124.595V20.78ZM114.417 30.608V30.508H114.317V30.608H114.417ZM114.697 30.608V30.708H114.797V30.608H114.697ZM114.697 30.328V30.228H114.597V30.328H114.697ZM115.257 30.328V30.428H115.357V30.328H115.257ZM115.257 30.048V29.948H115.157V30.048H115.257ZM115.537 30.048V30.148H115.637V30.048H115.537ZM115.537 29.768V29.668H115.437V29.768H115.537ZM115.817 29.768V29.868H115.917V29.768H115.817ZM115.817 29.488V29.388H115.717V29.488H115.817ZM116.097 29.488V29.588H116.197V29.488H116.097ZM116.097 29.208V29.108H115.997V29.208H116.097ZM116.377 29.208V29.308H116.477V29.208H116.377ZM116.377 28.928V28.828H116.277V28.928H116.377ZM116.657 28.928V29.028H116.757V28.928H116.657ZM116.657 28.648V28.548H116.557V28.648H116.657ZM116.937 28.648V28.748H117.037V28.648H116.937ZM116.937 28.368V28.268H116.837V28.368H116.937ZM117.217 28.368V28.468H117.317V28.368H117.217ZM117.217 28.088V27.988H117.117V28.088H117.217ZM117.497 28.088V28.188H117.597V28.088H117.497ZM117.497 27.808V27.708H117.397V27.808H117.497ZM117.777 27.808V27.908H117.877V27.808H117.777ZM117.777 27.248V27.148H117.677V27.248H117.777ZM118.057 27.248V27.348H118.157V27.248H118.057ZM118.057 26.688V26.588H117.957V26.688H118.057ZM118.337 26.688V26.788H118.437V26.688H118.337ZM118.337 26.128V26.028H118.237V26.128H118.337ZM118.617 26.128V26.228H118.717V26.128H118.617ZM118.617 25.288V25.188H118.517V25.288H118.617ZM118.897 25.288V25.388H118.997V25.288H118.897ZM118.897 24.168V24.068H118.797V24.168H118.897ZM119.177 24.168V24.268H119.277V24.168H119.177ZM119.177 22.628H119.277V22.528H119.177V22.628ZM118.897 22.628H118.797V22.728H118.897V22.628ZM118.897 22.348H118.997V22.248H118.897V22.348ZM114.823 22.348H114.723V22.448H114.823V22.348ZM114.823 22.068H114.923V21.968H114.823V22.068ZM114.543 22.068H114.443V22.168H114.543V22.068ZM114.543 21.172V21.072H114.443V21.172H114.543ZM114.823 21.172V21.272H114.923V21.172H114.823ZM114.823 20.892V20.792H114.723V20.892H114.823ZM119.513 20.892H119.613V20.792H119.513V20.892ZM119.513 21.172H119.413V21.272H119.513V21.172ZM120.073 21.172H120.173V21.072H120.073V21.172ZM120.073 21.452H119.973V21.552H120.073V21.452ZM120.353 21.452H120.453V21.352H120.353V21.452ZM120.353 21.732H120.253V21.832H120.353V21.732ZM120.633 21.732H120.733V21.632H120.633V21.732ZM120.633 22.292H120.533V22.392H120.633V22.292ZM120.913 22.292H121.013V22.192H120.913V22.292ZM120.913 24.252V24.352H121.013V24.252H120.913ZM120.633 24.252V24.152H120.533V24.252H120.633ZM120.633 25.652V25.752H120.733V25.652H120.633ZM120.353 25.652V25.552H120.253V25.652H120.353ZM120.353 26.212V26.312H120.453V26.212H120.353ZM120.073 26.212V26.112H119.973V26.212H120.073ZM120.073 27.052V27.152H120.173V27.052H120.073ZM119.793 27.052V26.952H119.693V27.052H119.793ZM119.793 27.612V27.712H119.893V27.612H119.793ZM119.513 27.612V27.512H119.413V27.612H119.513ZM119.513 28.172V28.272H119.613V28.172H119.513ZM119.163 28.172V28.072H119.063V28.172H119.163ZM119.163 28.452V28.552H119.263V28.452H119.163ZM118.883 28.452V28.352H118.783V28.452H118.883ZM118.883 29.012V29.112H118.983V29.012H118.883ZM118.603 29.012V28.912H118.503V29.012H118.603ZM118.603 29.292V29.392H118.703V29.292H118.603ZM118.323 29.292V29.192H118.223V29.292H118.323ZM118.323 29.712V29.812H118.423V29.712H118.323ZM118.043 29.712V29.612H117.943V29.712H118.043ZM118.043 29.992V30.092H118.143V29.992H118.043ZM117.763 29.992V29.892H117.663V29.992H117.763ZM117.763 30.272V30.372H117.863V30.272H117.763ZM117.483 30.272V30.172H117.383V30.272H117.483ZM117.483 30.552V30.652H117.583V30.552H117.483ZM117.203 30.552V30.452H117.103V30.552H117.203ZM117.203 30.832V30.932H117.303V30.832H117.203ZM116.923 30.832V30.732H116.823V30.832H116.923ZM116.923 31.112V31.212H117.023V31.112H116.923ZM116.643 31.112V31.012H116.543V31.112H116.643ZM116.643 31.392V31.492H116.743V31.392H116.643ZM116.363 31.392V31.292H116.263V31.392H116.363ZM116.363 31.672V31.772H116.463V31.672H116.363ZM115.803 31.672V31.572H115.703V31.672H115.803ZM115.803 31.952V32.052H115.903V31.952H115.803ZM114.977 31.952H114.877V32.052H114.977V31.952ZM114.977 31.672H115.077V31.572H114.977V31.672ZM114.697 31.672H114.597V31.772H114.697V31.672ZM114.697 31.392H114.797V31.292H114.697V31.392ZM114.417 31.392H114.317V31.492H114.417V31.392ZM124.595 32.4V32.3H124.315V32.4V32.5H124.595V32.4ZM124.315 32.4H124.215V32.68H124.315H124.415V32.4H124.315ZM124.315 32.68V32.58H123.139V32.68V32.78H124.315V32.68ZM123.139 32.68H123.239V32.4H123.139H123.039V32.68H123.139ZM123.139 32.4V32.3H122.859V32.4V32.5H123.139V32.4ZM122.859 32.4H122.959V20.78H122.859H122.759V32.4H122.859ZM122.859 20.78V20.88H123.139V20.78V20.68H122.859V20.78ZM123.139 20.78H123.239V20.5H123.139H123.039V20.78H123.139ZM123.139 20.5V20.6H124.315V20.5V20.4H123.139V20.5ZM124.315 20.5H124.215V20.78H124.315H124.415V20.5H124.315ZM124.315 20.78V20.88H124.595V20.78V20.68H124.315V20.78ZM124.595 20.78H124.495V32.4H124.595H124.695V20.78H124.595ZM114.417 30.608V30.708H114.697V30.608V30.508H114.417V30.608ZM114.697 30.608H114.797V30.328H114.697H114.597V30.608H114.697ZM114.697 30.328V30.428H115.257V30.328V30.228H114.697V30.328ZM115.257 30.328H115.357V30.048H115.257H115.157V30.328H115.257ZM115.257 30.048V30.148H115.537V30.048V29.948H115.257V30.048ZM115.537 30.048H115.637V29.768H115.537H115.437V30.048H115.537ZM115.537 29.768V29.868H115.817V29.768V29.668H115.537V29.768ZM115.817 29.768H115.917V29.488H115.817H115.717V29.768H115.817ZM115.817 29.488V29.588H116.097V29.488V29.388H115.817V29.488ZM116.097 29.488H116.197V29.208H116.097H115.997V29.488H116.097ZM116.097 29.208V29.308H116.377V29.208V29.108H116.097V29.208ZM116.377 29.208H116.477V28.928H116.377H116.277V29.208H116.377ZM116.377 28.928V29.028H116.657V28.928V28.828H116.377V28.928ZM116.657 28.928H116.757V28.648H116.657H116.557V28.928H116.657ZM116.657 28.648V28.748H116.937V28.648V28.548H116.657V28.648ZM116.937 28.648H117.037V28.368H116.937H116.837V28.648H116.937ZM116.937 28.368V28.468H117.217V28.368V28.268H116.937V28.368ZM117.217 28.368H117.317V28.088H117.217H117.117V28.368H117.217ZM117.217 28.088V28.188H117.497V28.088V27.988H117.217V28.088ZM117.497 28.088H117.597V27.808H117.497H117.397V28.088H117.497ZM117.497 27.808V27.908H117.777V27.808V27.708H117.497V27.808ZM117.777 27.808H117.877V27.248H117.777H117.677V27.808H117.777ZM117.777 27.248V27.348H118.057V27.248V27.148H117.777V27.248ZM118.057 27.248H118.157V26.688H118.057H117.957V27.248H118.057ZM118.057 26.688V26.788H118.337V26.688V26.588H118.057V26.688ZM118.337 26.688H118.437V26.128H118.337H118.237V26.688H118.337ZM118.337 26.128V26.228H118.617V26.128V26.028H118.337V26.128ZM118.617 26.128H118.717V25.288H118.617H118.517V26.128H118.617ZM118.617 25.288V25.388H118.897V25.288V25.188H118.617V25.288ZM118.897 25.288H118.997V24.168H118.897H118.797V25.288H118.897ZM118.897 24.168V24.268H119.177V24.168V24.068H118.897V24.168ZM119.177 24.168H119.277V22.628H119.177H119.077V24.168H119.177ZM119.177 22.628V22.528H118.897V22.628V22.728H119.177V22.628ZM118.897 22.628H118.997V22.348H118.897H118.797V22.628H118.897ZM118.897 22.348V22.248H114.823V22.348V22.448H118.897V22.348ZM114.823 22.348H114.923V22.068H114.823H114.723V22.348H114.823ZM114.823 22.068V21.968H114.543V22.068V22.168H114.823V22.068ZM114.543 22.068H114.643V21.172H114.543H114.443V22.068H114.543ZM114.543 21.172V21.272H114.823V21.172V21.072H114.543V21.172ZM114.823 21.172H114.923V20.892H114.823H114.723V21.172H114.823ZM114.823 20.892V20.992H119.513V20.892V20.792H114.823V20.892ZM119.513 20.892H119.413V21.172H119.513H119.613V20.892H119.513ZM119.513 21.172V21.272H120.073V21.172V21.072H119.513V21.172ZM120.073 21.172H119.973V21.452H120.073H120.173V21.172H120.073ZM120.073 21.452V21.552H120.353V21.452V21.352H120.073V21.452ZM120.353 21.452H120.253V21.732H120.353H120.453V21.452H120.353ZM120.353 21.732V21.832H120.633V21.732V21.632H120.353V21.732ZM120.633 21.732H120.533V22.292H120.633H120.733V21.732H120.633ZM120.633 22.292V22.392H120.913V22.292V22.192H120.633V22.292ZM120.913 22.292H120.813V24.252H120.913H121.013V22.292H120.913ZM120.913 24.252V24.152H120.633V24.252V24.352H120.913V24.252ZM120.633 24.252H120.533V25.652H120.633H120.733V24.252H120.633ZM120.633 25.652V25.552H120.353V25.652V25.752H120.633V25.652ZM120.353 25.652H120.253V26.212H120.353H120.453V25.652H120.353ZM120.353 26.212V26.112H120.073V26.212V26.312H120.353V26.212ZM120.073 26.212H119.973V27.052H120.073H120.173V26.212H120.073ZM120.073 27.052V26.952H119.793V27.052V27.152H120.073V27.052ZM119.793 27.052H119.693V27.612H119.793H119.893V27.052H119.793ZM119.793 27.612V27.512H119.513V27.612V27.712H119.793V27.612ZM119.513 27.612H119.413V28.172H119.513H119.613V27.612H119.513ZM119.513 28.172V28.072H119.163V28.172V28.272H119.513V28.172ZM119.163 28.172H119.063V28.452H119.163H119.263V28.172H119.163ZM119.163 28.452V28.352H118.883V28.452V28.552H119.163V28.452ZM118.883 28.452H118.783V29.012H118.883H118.983V28.452H118.883ZM118.883 29.012V28.912H118.603V29.012V29.112H118.883V29.012ZM118.603 29.012H118.503V29.292H118.603H118.703V29.012H118.603ZM118.603 29.292V29.192H118.323V29.292V29.392H118.603V29.292ZM118.323 29.292H118.223V29.712H118.323H118.423V29.292H118.323ZM118.323 29.712V29.612H118.043V29.712V29.812H118.323V29.712ZM118.043 29.712H117.943V29.992H118.043H118.143V29.712H118.043ZM118.043 29.992V29.892H117.763V29.992V30.092H118.043V29.992ZM117.763 29.992H117.663V30.272H117.763H117.863V29.992H117.763ZM117.763 30.272V30.172H117.483V30.272V30.372H117.763V30.272ZM117.483 30.272H117.383V30.552H117.483H117.583V30.272H117.483ZM117.483 30.552V30.452H117.203V30.552V30.652H117.483V30.552ZM117.203 30.552H117.103V30.832H117.203H117.303V30.552H117.203ZM117.203 30.832V30.732H116.923V30.832V30.932H117.203V30.832ZM116.923 30.832H116.823V31.112H116.923H117.023V30.832H116.923ZM116.923 31.112V31.012H116.643V31.112V31.212H116.923V31.112ZM116.643 31.112H116.543V31.392H116.643H116.743V31.112H116.643ZM116.643 31.392V31.292H116.363V31.392V31.492H116.643V31.392ZM116.363 31.392H116.263V31.672H116.363H116.463V31.392H116.363ZM116.363 31.672V31.572H115.803V31.672V31.772H116.363V31.672ZM115.803 31.672H115.703V31.952H115.803H115.903V31.672H115.803ZM115.803 31.952V31.852H114.977V31.952V32.052H115.803V31.952ZM114.977 31.952H115.077V31.672H114.977H114.877V31.952H114.977ZM114.977 31.672V31.572H114.697V31.672V31.772H114.977V31.672ZM114.697 31.672H114.797V31.392H114.697H114.597V31.672H114.697ZM114.697 31.392V31.292H114.417V31.392V31.492H114.697V31.392ZM114.417 31.392H114.517V30.608H114.417H114.317V31.392H114.417Z" fill="#007495"/>
<path d="M50.3652 38.3672L50.3643 38.3789C50.3512 38.9163 50.2036 39.4419 49.9346 39.9072C49.7191 40.2798 49.4317 40.6044 49.0898 40.8623C49.0043 40.9268 48.9617 40.9682 48.9395 40.9951C48.0848 42.033 47.007 42.8665 45.7852 43.4326C44.4931 44.0313 43.077 44.3128 41.6543 44.2559C37.043 44.2447 33.0832 41.2376 33.083 37.0078C33.083 32.7702 37.0575 29.7579 41.6797 29.7578C42.2781 29.744 42.8755 29.783 43.4648 29.873C43.5968 29.8932 43.7342 29.8544 43.832 29.7803C43.9231 29.7111 43.9482 29.6393 43.9482 29.5791V21.9697C43.948 21.8297 43.8076 21.7331 43.6768 21.7832L28.4102 27.6416C28.3328 27.6713 28.2812 27.7463 28.2812 27.8291V42.7959C28.2681 43.3331 28.1206 43.859 27.8516 44.3242C27.636 44.6968 27.3478 45.0214 27.0059 45.2793C26.9205 45.3437 26.8786 45.3852 26.8564 45.4121C26.0018 46.4501 24.9231 47.2835 23.7012 47.8496C22.4111 48.4473 20.9976 48.7287 19.5771 48.6729C14.9631 48.6644 11 45.6556 11 41.4238C11.0003 37.1935 14.961 34.185 19.5732 34.1748C20.1507 34.1615 20.7275 34.1969 21.2969 34.2803C21.4285 34.2996 21.5654 34.2614 21.6621 34.1875C21.7521 34.1187 21.7764 34.0473 21.7764 33.9873V17.0127C21.7822 16.3758 21.978 15.755 22.3379 15.2295C22.6528 14.7696 23.0814 14.4011 23.5801 14.1582L23.7979 14.0615L45.8799 5.22852H45.8809C46.3666 5.03478 46.8922 4.9627 47.4121 5.01855C47.932 5.07446 48.4308 5.25631 48.8643 5.54883L48.8633 5.5498C49.3003 5.82426 49.6658 6.19878 49.9268 6.64453C50.1955 7.10374 50.3459 7.62251 50.3643 8.1543L50.3652 8.17188V38.3672Z" fill="#FE96FF" stroke="white" stroke-width="2" stroke-miterlimit="2.3662"/>
</g>
<defs>
<filter id="filter0_dd_995_4873" x="0" y="0" width="140" height="60" filterUnits="userSpaceOnUse" color-interpolation-filters="sRGB">
<feFlood flood-opacity="0" result="BackgroundImageFix"/>
<feColorMatrix in="SourceAlpha" type="matrix" values="0 0 0 0 0 0 0 0 0 0 0 0 0 0 0 0 0 0 127 0" result="hardAlpha"/>
<feOffset dx="-2" dy="4"/>
<feGaussianBlur stdDeviation="1"/>
<feComposite in2="hardAlpha" operator="out"/>
<feColorMatrix type="matrix" values="0 0 0 0 0.109804 0 0 0 0 0.792157 0 0 0 0 0.984314 0 0 0 0.6 0"/>
<feBlend mode="normal" in2="BackgroundImageFix" result="effect1_dropShadow_995_4873"/>
<feColorMatrix in="SourceAlpha" type="matrix" values="0 0 0 0 0 0 0 0 0 0 0 0 0 0 0 0 0 0 127 0" result="hardAlpha"/>
<feOffset dx="-2" dy="4"/>
<feGaussianBlur stdDeviation="1"/>
<feComposite in2="hardAlpha" operator="out"/>
<feColorMatrix type="matrix" values="0 0 0 0 0 0 0 0 0 0 0 0 0 0 0 0 0 0 0.1 0"/>
<feBlend mode="normal" in2="effect1_dropShadow_995_4873" result="effect2_dropShadow_995_4873"/>
<feBlend mode="normal" in="SourceGraphic" in2="effect2_dropShadow_995_4873" result="shape"/>
</filter>
</defs>
</svg>
