<svg width="120" height="36" viewBox="0 0 120 36" fill="none" xmlns="http://www.w3.org/2000/svg">
<g filter="url(#filter0_iii_785_1048)">
<path d="M0 18C0 8.05888 8.05888 0 18 0H102C111.941 0 120 8.05888 120 18C120 27.9411 111.941 36 102 36H18C8.05887 36 0 27.9411 0 18Z" fill="#1CCAFB"/>
<path d="M39.752 15.1035C39.752 16.9902 40.4355 18.877 42.1992 19.834L41.2422 21.1055C40.1211 20.5312 39.376 19.5195 38.9453 18.3027C38.5078 19.6289 37.7627 20.75 36.6348 21.4062L35.6367 20.0938C37.4277 19.0547 38.0977 17.0312 38.1113 15.1035V14.8164H36.1016V13.4219H38.1113V11.7402H39.7383V13.4219H41.707V14.8164H39.752V15.1035ZM46.6289 11.3164V23.7578H44.9746V11.3164H46.6289ZM44.0859 11.5215V23.1836H42.4453V17.4551H40.9824V16.0332H42.4453V11.5215H44.0859ZM58.4551 11.3164V18.8359H56.7188V16.3887H55.1055V14.9668H56.7188V11.3164H58.4551ZM58.4551 19.3691V23.6211H50.0879V19.3691H58.4551ZM51.8379 20.7363V22.2266H56.7461V20.7363H51.8379ZM55.3242 12.3965V13.791H47.9961V12.3965H50.8125V11.207H52.5352V12.3965H55.3242ZM51.6738 14.2012C53.4238 14.2012 54.6543 15.1309 54.6543 16.4297C54.6543 17.7832 53.4238 18.6855 51.6738 18.6855C49.9375 18.6855 48.6797 17.7832 48.6797 16.4297C48.6797 15.1309 49.9375 14.2012 51.6738 14.2012ZM51.6738 15.5137C50.8672 15.5137 50.3477 15.8418 50.3613 16.4297C50.3477 17.0586 50.8672 17.4004 51.6738 17.4004C52.4668 17.4004 52.9863 17.0586 52.9863 16.4297C52.9863 15.8418 52.4668 15.5137 51.6738 15.5137ZM63.8145 11.8223C65.6328 11.8223 66.9453 12.8477 66.9453 14.3516C66.9453 15.5684 66.0498 16.498 64.7168 16.7852V17.6875C65.6875 17.6328 66.665 17.5439 67.5742 17.4141L67.7109 18.6855C65.1543 19.1367 62.2969 19.1914 60.2188 19.1914L60.041 17.8105C60.9023 17.8105 61.9072 17.8037 62.9668 17.7695V16.7988C61.5928 16.5254 60.6699 15.5889 60.6836 14.3516C60.6699 12.8477 61.9824 11.8223 63.8145 11.8223ZM63.8145 13.1348C62.9258 13.1484 62.2969 13.5723 62.3105 14.3516C62.2969 15.1035 62.9258 15.5547 63.8145 15.5547C64.7031 15.5547 65.3047 15.1035 65.3047 14.3516C65.3047 13.5723 64.7031 13.1484 63.8145 13.1348ZM70.0215 11.3301V15.2402H71.6074V16.6895H70.0215V20.8184H68.2715V11.3301H70.0215ZM70.4453 22.1309V23.5254H61.6816V19.9844H63.4316V22.1309H70.4453ZM83.5566 20.9414V22.377H72.168V20.9414H75.0801V19.041H73.4805V14.8574H80.5215V13.5176H73.4668V12.123H82.2441V16.252H75.2305V17.6328H82.5312V19.041H80.7676V20.9414H83.5566ZM76.7754 20.9414H79.0586V19.041H76.7754V20.9414Z" fill="#F4F5F6"/>
</g>
<defs>
<filter id="filter0_iii_785_1048" x="-1" y="-2" width="122" height="42" filterUnits="userSpaceOnUse" color-interpolation-filters="sRGB">
<feFlood flood-opacity="0" result="BackgroundImageFix"/>
<feBlend mode="normal" in="SourceGraphic" in2="BackgroundImageFix" result="shape"/>
<feColorMatrix in="SourceAlpha" type="matrix" values="0 0 0 0 0 0 0 0 0 0 0 0 0 0 0 0 0 0 127 0" result="hardAlpha"/>
<feOffset dx="1" dy="-2"/>
<feGaussianBlur stdDeviation="3"/>
<feComposite in2="hardAlpha" operator="arithmetic" k2="-1" k3="1"/>
<feColorMatrix type="matrix" values="0 0 0 0 1 0 0 0 0 0.994444 0 0 0 0 0.833333 0 0 0 1 0"/>
<feBlend mode="normal" in2="shape" result="effect1_innerShadow_785_1048"/>
<feColorMatrix in="SourceAlpha" type="matrix" values="0 0 0 0 0 0 0 0 0 0 0 0 0 0 0 0 0 0 127 0" result="hardAlpha"/>
<feOffset dx="-1" dy="4"/>
<feGaussianBlur stdDeviation="3"/>
<feComposite in2="hardAlpha" operator="arithmetic" k2="-1" k3="1"/>
<feColorMatrix type="matrix" values="0 0 0 0 1 0 0 0 0 1 0 0 0 0 1 0 0 0 0.5 0"/>
<feBlend mode="normal" in2="effect1_innerShadow_785_1048" result="effect2_innerShadow_785_1048"/>
<feColorMatrix in="SourceAlpha" type="matrix" values="0 0 0 0 0 0 0 0 0 0 0 0 0 0 0 0 0 0 127 0" result="hardAlpha"/>
<feOffset dy="1"/>
<feGaussianBlur stdDeviation="1"/>
<feComposite in2="hardAlpha" operator="arithmetic" k2="-1" k3="1"/>
<feColorMatrix type="matrix" values="0 0 0 0 0.0288 0 0 0 0 0.73568 0 0 0 0 0.9312 0 0 0 1 0"/>
<feBlend mode="normal" in2="effect2_innerShadow_785_1048" result="effect3_innerShadow_785_1048"/>
</filter>
</defs>
</svg>
