<svg width="134" height="40" viewBox="0 0 134 40" fill="none" xmlns="http://www.w3.org/2000/svg">
<g filter="url(#filter0_iiiii_86_795)">
<path d="M0 20C0 8.95431 8.9543 0 20 0H114C125.046 0 134 8.95431 134 20V20C134 31.0457 125.046 40 114 40H20C8.9543 40 0 31.0457 0 20V20Z" fill="#F9FAFA"/>
<path d="M62.3477 14.5605V15.9141H59.8867C59.9277 16.8916 60.8096 17.7871 62.6484 18.1289L61.9648 19.4688C60.5566 19.1953 59.5859 18.5732 59.0322 17.7393C58.4854 18.6553 57.4941 19.3525 56.0312 19.6465L55.3203 18.293C57.2002 17.9375 58.0752 16.96 58.123 15.9141H55.6484V14.5605H58.1367V13.3438H59.8867V14.5605H62.3477ZM54.8965 20.1797C57.1934 20.1797 60.2559 20.1592 62.8809 19.8242L62.9902 21.082C61.9648 21.2598 60.9121 21.376 59.873 21.4512V25.375H58.1367V21.5469C57.0566 21.5879 56.0244 21.5879 55.1152 21.5879L54.8965 20.1797ZM63.6328 25.7578V13.3301H65.3555V25.7578H63.6328ZM78.3574 22.873V24.2676H66.9688V22.873H71.7266V20.0566H73.4629V22.873H78.3574ZM67.2422 19.0039C70.0586 18.5664 71.6445 16.6729 71.6582 14.916V14.0273H73.5176V14.916C73.5107 16.6934 75.1172 18.5664 77.9609 19.0039L77.2227 20.4531C75.0352 20.0566 73.4082 18.8877 72.5879 17.3359C71.7744 18.8809 70.1543 20.0635 67.9805 20.4531L67.2422 19.0039Z" fill="#6D7882"/>
</g>
<defs>
<filter id="filter0_iiiii_86_795" x="-2" y="-2" width="137" height="44" filterUnits="userSpaceOnUse" color-interpolation-filters="sRGB">
<feFlood flood-opacity="0" result="BackgroundImageFix"/>
<feBlend mode="normal" in="SourceGraphic" in2="BackgroundImageFix" result="shape"/>
<feColorMatrix in="SourceAlpha" type="matrix" values="0 0 0 0 0 0 0 0 0 0 0 0 0 0 0 0 0 0 127 0" result="hardAlpha"/>
<feOffset dx="-4" dy="6"/>
<feGaussianBlur stdDeviation="1"/>
<feComposite in2="hardAlpha" operator="arithmetic" k2="-1" k3="1"/>
<feColorMatrix type="matrix" values="0 0 0 0 1 0 0 0 0 1 0 0 0 0 1 0 0 0 1 0"/>
<feBlend mode="normal" in2="shape" result="effect1_innerShadow_86_795"/>
<feColorMatrix in="SourceAlpha" type="matrix" values="0 0 0 0 0 0 0 0 0 0 0 0 0 0 0 0 0 0 127 0" result="hardAlpha"/>
<feOffset dx="1" dy="-2"/>
<feGaussianBlur stdDeviation="3"/>
<feComposite in2="hardAlpha" operator="arithmetic" k2="-1" k3="1"/>
<feColorMatrix type="matrix" values="0 0 0 0 0.999085 0 0 0 0 0.945098 0 0 0 0 1 0 0 0 1 0"/>
<feBlend mode="normal" in2="effect1_innerShadow_86_795" result="effect2_innerShadow_86_795"/>
<feColorMatrix in="SourceAlpha" type="matrix" values="0 0 0 0 0 0 0 0 0 0 0 0 0 0 0 0 0 0 127 0" result="hardAlpha"/>
<feOffset dx="1" dy="-2"/>
<feGaussianBlur stdDeviation="3"/>
<feComposite in2="hardAlpha" operator="arithmetic" k2="-1" k3="1"/>
<feColorMatrix type="matrix" values="0 0 0 0 0 0 0 0 0 0 0 0 0 0 0 0 0 0 0.1 0"/>
<feBlend mode="normal" in2="effect2_innerShadow_86_795" result="effect3_innerShadow_86_795"/>
<feColorMatrix in="SourceAlpha" type="matrix" values="0 0 0 0 0 0 0 0 0 0 0 0 0 0 0 0 0 0 127 0" result="hardAlpha"/>
<feOffset dy="1"/>
<feGaussianBlur stdDeviation="2"/>
<feComposite in2="hardAlpha" operator="arithmetic" k2="-1" k3="1"/>
<feColorMatrix type="matrix" values="0 0 0 0 0 0 0 0 0 0 0 0 0 0 0 0 0 0 0.1 0"/>
<feBlend mode="normal" in2="effect3_innerShadow_86_795" result="effect4_innerShadow_86_795"/>
<feColorMatrix in="SourceAlpha" type="matrix" values="0 0 0 0 0 0 0 0 0 0 0 0 0 0 0 0 0 0 127 0" result="hardAlpha"/>
<feOffset dx="-1" dy="2"/>
<feGaussianBlur stdDeviation="1"/>
<feComposite in2="hardAlpha" operator="arithmetic" k2="-1" k3="1"/>
<feColorMatrix type="matrix" values="0 0 0 0 0.109804 0 0 0 0 0.792157 0 0 0 0 0.984314 0 0 0 0.05 0"/>
<feBlend mode="normal" in2="effect4_innerShadow_86_795" result="effect5_innerShadow_86_795"/>
</filter>
</defs>
</svg>
