<svg width="24" height="24" viewBox="0 0 24 24" fill="none" xmlns="http://www.w3.org/2000/svg">
<rect width="24" height="24" rx="12" fill="#F9FAFA"/>
<path d="M17.6661 7.95278L13.6189 12L17.6661 16.0472C18.1113 16.4924 18.1113 17.2209 17.6661 17.6661C17.2209 18.1113 16.4924 18.1113 16.0472 17.6661L12 13.6189L7.95278 17.6661C7.50759 18.1113 6.77909 18.1113 6.3339 17.6661C5.8887 17.2209 5.8887 16.4924 6.3339 16.0472L10.3811 12L6.3339 7.95278C5.8887 7.50759 5.8887 6.77909 6.3339 6.3339C6.77909 5.8887 7.50759 5.8887 7.95278 6.3339L12 10.3811L16.0472 6.3339C16.4924 5.8887 17.2209 5.8887 17.6661 6.3339C18.1113 6.77909 18.1113 7.50759 17.6661 7.95278Z" fill="#1CCAFB"/>
</svg>
