<svg width="12" height="12" viewBox="0 0 12 12" fill="none" xmlns="http://www.w3.org/2000/svg">
<path d="M11.6661 1.95278L7.61889 6L11.6661 10.0472C12.1113 10.4924 12.1113 11.2209 11.6661 11.6661C11.2209 12.1113 10.4924 12.1113 10.0472 11.6661L6 7.61889L1.95278 11.6661C1.50759 12.1113 0.779089 12.1113 0.333895 11.6661C-0.111298 11.2209 -0.111298 10.4924 0.333895 10.0472L4.38111 6L0.333895 1.95278C-0.111298 1.50759 -0.111298 0.779089 0.333895 0.333895C0.779089 -0.111298 1.50759 -0.111298 1.95278 0.333895L6 4.38111L10.0472 0.333895C10.4924 -0.111298 11.2209 -0.111298 11.6661 0.333895C12.1113 0.779089 12.1113 1.50759 11.6661 1.95278Z" fill="#1CCAFB"/>
</svg>
