<svg width="134" height="40" viewBox="0 0 134 40" fill="none" xmlns="http://www.w3.org/2000/svg">
<g filter="url(#filter0_iii_86_797)">
<path d="M0 20C0 8.95431 8.9543 0 20 0H114C125.046 0 134 8.95431 134 20V20C134 31.0457 125.046 40 114 40H20C8.9543 40 0 31.0457 0 20V20Z" fill="#1CCAFB"/>
<path d="M59.4629 15.2578C59.4561 16.7549 60.3311 18.2041 62.3203 18.8398L61.459 20.1797C60.0645 19.7559 59.1211 18.874 58.5811 17.7598C58.0342 18.9561 57.0635 19.8857 55.6211 20.3438L54.7461 18.9766C56.8174 18.3271 57.6992 16.7412 57.7129 15.1074V13.959H59.4629V15.2578ZM56.3594 22.7363V21.3555H64.7402V25.7578H62.9902V22.7363H56.3594ZM62.9902 20.8359V13.3164H64.7402V16.3516H66.4219V17.8145H64.7402V20.8359H62.9902ZM77.7285 13.3164V25.7578H76.0742V13.3164H77.7285ZM66.709 22.1211C68.541 20.9932 69.2246 18.7646 69.2246 16.6523V15.9824H67.1875V14.5879H72.793V15.9824H70.9062V16.6523C70.8994 18.7168 71.5488 20.8086 73.3672 21.8477L72.3418 23.1328C71.2275 22.4766 70.5029 21.3691 70.0791 20.0293C69.6553 21.4785 68.9033 22.709 67.7617 23.4062L66.709 22.1211ZM71.9043 18.9902V17.582H73.5449V13.5215H75.1855V25.1836H73.5449V18.9902H71.9043Z" fill="#F9FAFA"/>
</g>
<defs>
<filter id="filter0_iii_86_797" x="-1" y="-2" width="136" height="46" filterUnits="userSpaceOnUse" color-interpolation-filters="sRGB">
<feFlood flood-opacity="0" result="BackgroundImageFix"/>
<feBlend mode="normal" in="SourceGraphic" in2="BackgroundImageFix" result="shape"/>
<feColorMatrix in="SourceAlpha" type="matrix" values="0 0 0 0 0 0 0 0 0 0 0 0 0 0 0 0 0 0 127 0" result="hardAlpha"/>
<feOffset dx="1" dy="-2"/>
<feGaussianBlur stdDeviation="3"/>
<feComposite in2="hardAlpha" operator="arithmetic" k2="-1" k3="1"/>
<feColorMatrix type="matrix" values="0 0 0 0 1 0 0 0 0 0.994444 0 0 0 0 0.833333 0 0 0 1 0"/>
<feBlend mode="normal" in2="shape" result="effect1_innerShadow_86_797"/>
<feColorMatrix in="SourceAlpha" type="matrix" values="0 0 0 0 0 0 0 0 0 0 0 0 0 0 0 0 0 0 127 0" result="hardAlpha"/>
<feOffset dx="-1" dy="4"/>
<feGaussianBlur stdDeviation="3"/>
<feComposite in2="hardAlpha" operator="arithmetic" k2="-1" k3="1"/>
<feColorMatrix type="matrix" values="0 0 0 0 1 0 0 0 0 1 0 0 0 0 1 0 0 0 0.5 0"/>
<feBlend mode="normal" in2="effect1_innerShadow_86_797" result="effect2_innerShadow_86_797"/>
<feColorMatrix in="SourceAlpha" type="matrix" values="0 0 0 0 0 0 0 0 0 0 0 0 0 0 0 0 0 0 127 0" result="hardAlpha"/>
<feOffset dy="1"/>
<feGaussianBlur stdDeviation="1"/>
<feComposite in2="hardAlpha" operator="arithmetic" k2="-1" k3="1"/>
<feColorMatrix type="matrix" values="0 0 0 0 0.0288 0 0 0 0 0.73568 0 0 0 0 0.9312 0 0 0 1 0"/>
<feBlend mode="normal" in2="effect2_innerShadow_86_797" result="effect3_innerShadow_86_797"/>
</filter>
</defs>
</svg>
