<svg width="28" height="28" viewBox="0 0 28 28" fill="none" xmlns="http://www.w3.org/2000/svg">
<rect width="28" height="28" rx="14" fill="#F9FAFA"/>
<path d="M10.1501 14C10.15 14.9663 9.36645 15.7499 8.40015 15.75C7.43374 15.75 6.6503 14.9664 6.65015 14C6.65015 13.0335 7.43365 12.25 8.40015 12.25C9.36654 12.2501 10.1501 13.0336 10.1501 14Z" fill="#1CCAFB"/>
<path d="M15.7499 14C15.7498 14.9663 14.9662 15.7499 13.9999 15.75C13.0336 15.7499 12.2501 14.9663 12.2499 14C12.2499 13.0336 13.0335 12.2501 13.9999 12.25C14.9663 12.2501 15.7499 13.0336 15.7499 14Z" fill="#1CCAFB"/>
<path d="M21.3497 14C21.3495 14.9663 20.566 15.7499 19.5997 15.75C18.6335 15.7498 17.8498 14.9662 17.8497 14C17.8497 13.0337 18.6334 12.2502 19.5997 12.25C20.5661 12.2501 21.3497 13.0336 21.3497 14Z" fill="#1CCAFB"/>
</svg>
