<svg width="343" height="54" viewBox="0 0 343 54" fill="none" xmlns="http://www.w3.org/2000/svg">
<g filter="url(#filter0_iii_438_9164)">
<path d="M0 27C0 12.0883 12.0883 0 27 0H316C330.912 0 343 12.0883 343 27C343 41.9117 330.912 54 316 54H27C12.0883 54 0 41.9117 0 27Z" fill="#1CCAFB"/>
<path d="M156.406 19.7188V30.1875H154.422V26.6875H152.609V25.0469H154.422V23.8125H152.609V22.2188H154.422V19.7188H156.406ZM152.359 20.7344V22.3281H151.188V26.6406C151.664 26.6094 152.133 26.5625 152.578 26.5156L152.656 27.9688C150 28.4062 146.875 28.4688 144.625 28.4688L144.422 26.8438L145.938 26.8281V22.3281H144.781V20.7344H152.359ZM156.75 32.0938V33.6875H146.953V29.4062H148.953V32.0938H156.75ZM147.859 26.7969L149.281 26.75V22.3281H147.859V26.7969ZM166.256 20.5V22.0938H163.413C163.506 23.5938 164.577 25.0938 166.803 25.7031L165.803 27.25C164.178 26.7891 163.038 25.8125 162.397 24.5625C161.748 25.9141 160.584 26.9844 158.897 27.5L157.897 25.9375C160.163 25.2812 161.264 23.7031 161.366 22.0938H158.444V20.5H166.256ZM169.756 19.7188V27.4375H167.756V19.7188H169.756ZM162.209 28.0312V29.3594H167.772V28.0312H169.756V33.7812H160.241V28.0312H162.209ZM162.209 32.1875H167.772V30.9062H162.209V32.1875ZM175.559 20.2969C177.638 20.2969 179.138 21.4688 179.138 23.1875C179.138 24.5781 178.114 25.6406 176.591 25.9688V27C177.7 26.9375 178.817 26.8359 179.856 26.6875L180.013 28.1406C177.091 28.6562 173.825 28.7188 171.45 28.7188L171.247 27.1406C172.231 27.1406 173.38 27.1328 174.591 27.0938V25.9844C173.02 25.6719 171.966 24.6016 171.981 23.1875C171.966 21.4688 173.466 20.2969 175.559 20.2969ZM175.559 21.7969C174.544 21.8125 173.825 22.2969 173.841 23.1875C173.825 24.0469 174.544 24.5625 175.559 24.5625C176.575 24.5625 177.263 24.0469 177.263 23.1875C177.263 22.2969 176.575 21.8125 175.559 21.7969ZM182.653 19.7344V24.2031H184.466V25.8594H182.653V30.5781H180.653V19.7344H182.653ZM183.138 32.0781V33.6719H173.122V29.625H175.122V32.0781H183.138ZM197.722 30.7188V32.3594H184.706V30.7188H188.034V28.5469H186.206V23.7656H194.253V22.2344H186.191V20.6406H196.222V25.3594H188.206V26.9375H196.55V28.5469H194.534V30.7188H197.722ZM189.972 30.7188H192.581V28.5469H189.972V30.7188Z" fill="#F9FAFA"/>
</g>
<defs>
<filter id="filter0_iii_438_9164" x="-1" y="-2" width="345" height="60" filterUnits="userSpaceOnUse" color-interpolation-filters="sRGB">
<feFlood flood-opacity="0" result="BackgroundImageFix"/>
<feBlend mode="normal" in="SourceGraphic" in2="BackgroundImageFix" result="shape"/>
<feColorMatrix in="SourceAlpha" type="matrix" values="0 0 0 0 0 0 0 0 0 0 0 0 0 0 0 0 0 0 127 0" result="hardAlpha"/>
<feOffset dx="1" dy="-2"/>
<feGaussianBlur stdDeviation="3"/>
<feComposite in2="hardAlpha" operator="arithmetic" k2="-1" k3="1"/>
<feColorMatrix type="matrix" values="0 0 0 0 1 0 0 0 0 0.994444 0 0 0 0 0.833333 0 0 0 1 0"/>
<feBlend mode="normal" in2="shape" result="effect1_innerShadow_438_9164"/>
<feColorMatrix in="SourceAlpha" type="matrix" values="0 0 0 0 0 0 0 0 0 0 0 0 0 0 0 0 0 0 127 0" result="hardAlpha"/>
<feOffset dx="-1" dy="4"/>
<feGaussianBlur stdDeviation="3"/>
<feComposite in2="hardAlpha" operator="arithmetic" k2="-1" k3="1"/>
<feColorMatrix type="matrix" values="0 0 0 0 1 0 0 0 0 1 0 0 0 0 1 0 0 0 0.5 0"/>
<feBlend mode="normal" in2="effect1_innerShadow_438_9164" result="effect2_innerShadow_438_9164"/>
<feColorMatrix in="SourceAlpha" type="matrix" values="0 0 0 0 0 0 0 0 0 0 0 0 0 0 0 0 0 0 127 0" result="hardAlpha"/>
<feOffset dy="1"/>
<feGaussianBlur stdDeviation="1"/>
<feComposite in2="hardAlpha" operator="arithmetic" k2="-1" k3="1"/>
<feColorMatrix type="matrix" values="0 0 0 0 0.0288 0 0 0 0 0.73568 0 0 0 0 0.9312 0 0 0 1 0"/>
<feBlend mode="normal" in2="effect2_innerShadow_438_9164" result="effect3_innerShadow_438_9164"/>
</filter>
</defs>
</svg>
