<svg width="70" height="22" viewBox="0 0 70 22" fill="none" xmlns="http://www.w3.org/2000/svg">
<rect width="70" height="22" rx="11" fill="#F9FAFA"/>
<path d="M17.4758 14.6339C17.4758 15.2596 17.3605 15.7333 17.1298 16.0549C16.8991 16.3808 16.553 16.5437 16.0916 16.5437H7.56234C7.18236 16.5437 6.89737 16.3938 6.70738 16.094C6.51739 15.7985 6.41391 15.3552 6.39695 14.7643L8.33588 12.522C8.44105 12.396 8.54792 12.3047 8.65649 12.2482C8.76506 12.1874 8.87701 12.157 8.99237 12.157C9.11111 12.157 9.22816 12.1896 9.34351 12.2548C9.46226 12.3156 9.57422 12.4068 9.67939 12.5285L10.6209 13.6171L12.9211 10.9837C13.0399 10.8533 13.162 10.7556 13.2875 10.6904C13.4131 10.6252 13.5454 10.5926 13.6845 10.5926C13.8236 10.5926 13.9576 10.6274 14.0865 10.6969C14.2188 10.7621 14.341 10.862 14.4529 10.9967L17.4758 14.6339ZM10.0483 11.0619C9.78056 11.0619 9.53551 10.9946 9.31311 10.8599C9.09484 10.7208 8.91981 10.5339 8.78802 10.2993C8.65623 10.0646 8.59033 9.80608 8.59033 9.52363C8.59033 9.24552 8.65623 8.98914 8.78802 8.75448C8.91981 8.51983 9.09484 8.33297 9.31311 8.19392C9.53551 8.05486 9.78056 7.98533 10.0483 7.98533C10.316 7.98533 10.5589 8.05486 10.7772 8.19392C10.9955 8.33297 11.1705 8.51983 11.3023 8.75448C11.4341 8.98914 11.5 9.24552 11.5 9.52363C11.5 9.80608 11.4341 10.0646 11.3023 10.2993C11.1705 10.5339 10.9955 10.7208 10.7772 10.8599C10.5589 10.9946 10.316 11.0619 10.0483 11.0619ZM7.59796 17C7.06531 17 6.66497 16.8305 6.39695 16.4916C6.13232 16.157 6 15.6551 6 14.9859V7.02064C6 6.34709 6.13232 5.84302 6.39695 5.50842C6.66497 5.16947 7.06531 5 7.59796 5H16.402C16.9381 5 17.3384 5.16947 17.6031 5.50842C17.8677 5.84737 18 6.35144 18 7.02064V14.9859C18 15.6551 17.8677 16.157 17.6031 16.4916C17.3384 16.8305 16.9381 17 16.402 17H7.59796ZM7.60814 15.9506H16.3919C16.6429 15.9506 16.8363 15.8658 16.972 15.6964C17.1111 15.5225 17.1807 15.2662 17.1807 14.9272V7.0793C17.1807 6.74036 17.1111 6.48398 16.972 6.31016C16.8363 6.13634 16.6429 6.04943 16.3919 6.04943H7.60814C7.35369 6.04943 7.15861 6.13634 7.0229 6.31016C6.88719 6.48398 6.81934 6.74036 6.81934 7.0793V14.9272C6.81934 15.2662 6.88719 15.5225 7.0229 15.6964C7.15861 15.8658 7.35369 15.9506 7.60814 15.9506Z" fill="#007495"/>
<path d="M25.832 5.97656C27.4141 5.97656 28.5625 6.85547 28.5625 8.15625C28.5625 9.44531 27.4141 10.3359 25.832 10.3242C24.25 10.3359 23.125 9.44531 23.125 8.15625C23.125 6.85547 24.25 5.97656 25.832 5.97656ZM25.832 6.87891C24.8828 6.87891 24.1914 7.38281 24.2031 8.15625C24.1914 8.91797 24.8828 9.42188 25.832 9.41016C26.8047 9.42188 27.4961 8.91797 27.4961 8.15625C27.4961 7.38281 26.8047 6.87891 25.832 6.87891ZM31.1172 5.50781V15.9961H30.0156V5.50781H31.1172ZM22.375 11.1445C24.3086 11.1445 26.9922 11.0977 29.2891 10.7578L29.3711 11.5898C28.416 11.7715 27.4199 11.8828 26.4531 11.9531V15.668H25.3398V12.0117C24.3203 12.0586 23.3594 12.0645 22.5273 12.0703L22.375 11.1445ZM41.4531 5.49609V15.9961H40.3398V5.49609H41.4531ZM36.707 8.87109C36.707 10.5469 37.8203 12.2578 39.4492 12.9492L38.8398 13.8047C37.6328 13.2773 36.666 12.1875 36.1797 10.8633C35.7051 12.2637 34.7559 13.4297 33.5312 13.9805L32.9102 13.125C34.5391 12.3984 35.6172 10.6289 35.6172 8.87109V8.17969H33.2266V7.28906H35.6055V5.70703H36.707V7.28906H39.0625V8.17969H36.707V8.87109ZM52.7383 13.7695V14.6953H43.1289V13.7695H47.3594V11.6133H44.2305V6.21094H45.3438V8.01562H50.5V6.21094H51.6016V11.6133H48.4609V13.7695H52.7383ZM45.3438 10.7109H50.5V8.91797H45.3438V10.7109ZM62.2305 5.49609V15.9961H61.1055V5.49609H62.2305ZM59.1016 6.62109C59.1016 9.69141 57.7891 12.3633 54.1914 14.0859L53.6055 13.1836C56.4004 11.8535 57.7598 9.96094 57.9766 7.51172H54.1094V6.62109H59.1016Z" fill="#007495"/>
</svg>
