<svg width="134" height="40" viewBox="0 0 134 40" fill="none" xmlns="http://www.w3.org/2000/svg">
<g filter="url(#filter0_iiiii_780_3153)">
<path d="M0 20C0 8.95431 8.9543 0 20 0H114C125.046 0 134 8.95431 134 20C134 31.0457 125.046 40 114 40H20C8.9543 40 0 31.0457 0 20Z" fill="#F9FAFA"/>
<path d="M52.8906 16.1875V17.5547H49.418V18.375H54.2168V19.7559H42.8691V18.375H47.668V17.5547H44.291V13.7266H52.7949V15.1211H46.0273V16.1875H52.8906ZM52.8359 20.4258V23.5977H45.9043V24.3359H53.1641V25.6621H44.1953V22.3809H51.1133V21.7109H44.1816V20.4258H52.8359ZM58.3184 14.1914C60.2188 14.1914 61.5859 15.9141 61.5996 18.6211C61.5859 21.3555 60.2188 23.0645 58.3184 23.0645C56.418 23.0645 55.0234 21.3555 55.0371 18.6211C55.0234 15.9141 56.418 14.1914 58.3184 14.1914ZM58.3184 15.7637C57.3613 15.7637 56.7188 16.7754 56.7188 18.6211C56.7188 20.4805 57.3613 21.4785 58.3184 21.4785C59.2891 21.4785 59.918 20.4805 59.9316 18.6211C59.918 16.7754 59.2891 15.7637 58.3184 15.7637ZM64.7852 13.3164V18.0059H66.6172V19.4551H64.7852V25.7578H63.0352V13.3164H64.7852ZM76.8848 13.3164V18.0879H78.6484V19.5234H76.8848V25.7305H75.1348V13.3164H76.8848ZM73.5625 14.5879C73.5488 18.3066 72.0996 21.5332 67.916 23.584L66.9316 22.2441C69.8779 20.7676 71.457 18.7852 71.7852 16.0098H67.6426V14.5879H73.5625ZM89.627 13.3164V25.7578H87.8633V13.3164H89.627ZM85.8945 14.6152C85.8945 18.3887 84.5684 21.5195 80.125 23.625L79.209 22.2305C82.4219 20.7129 83.8369 18.7441 84.1172 15.9824H79.8789V14.6152H85.8945Z" fill="#6D7882"/>
</g>
<defs>
<filter id="filter0_iiiii_780_3153" x="-2" y="-2" width="137" height="44" filterUnits="userSpaceOnUse" color-interpolation-filters="sRGB">
<feFlood flood-opacity="0" result="BackgroundImageFix"/>
<feBlend mode="normal" in="SourceGraphic" in2="BackgroundImageFix" result="shape"/>
<feColorMatrix in="SourceAlpha" type="matrix" values="0 0 0 0 0 0 0 0 0 0 0 0 0 0 0 0 0 0 127 0" result="hardAlpha"/>
<feOffset dx="-4" dy="6"/>
<feGaussianBlur stdDeviation="1"/>
<feComposite in2="hardAlpha" operator="arithmetic" k2="-1" k3="1"/>
<feColorMatrix type="matrix" values="0 0 0 0 1 0 0 0 0 1 0 0 0 0 1 0 0 0 1 0"/>
<feBlend mode="normal" in2="shape" result="effect1_innerShadow_780_3153"/>
<feColorMatrix in="SourceAlpha" type="matrix" values="0 0 0 0 0 0 0 0 0 0 0 0 0 0 0 0 0 0 127 0" result="hardAlpha"/>
<feOffset dx="1" dy="-2"/>
<feGaussianBlur stdDeviation="3"/>
<feComposite in2="hardAlpha" operator="arithmetic" k2="-1" k3="1"/>
<feColorMatrix type="matrix" values="0 0 0 0 0.999085 0 0 0 0 0.945098 0 0 0 0 1 0 0 0 1 0"/>
<feBlend mode="normal" in2="effect1_innerShadow_780_3153" result="effect2_innerShadow_780_3153"/>
<feColorMatrix in="SourceAlpha" type="matrix" values="0 0 0 0 0 0 0 0 0 0 0 0 0 0 0 0 0 0 127 0" result="hardAlpha"/>
<feOffset dx="1" dy="-2"/>
<feGaussianBlur stdDeviation="3"/>
<feComposite in2="hardAlpha" operator="arithmetic" k2="-1" k3="1"/>
<feColorMatrix type="matrix" values="0 0 0 0 0 0 0 0 0 0 0 0 0 0 0 0 0 0 0.1 0"/>
<feBlend mode="normal" in2="effect2_innerShadow_780_3153" result="effect3_innerShadow_780_3153"/>
<feColorMatrix in="SourceAlpha" type="matrix" values="0 0 0 0 0 0 0 0 0 0 0 0 0 0 0 0 0 0 127 0" result="hardAlpha"/>
<feOffset dy="1"/>
<feGaussianBlur stdDeviation="2"/>
<feComposite in2="hardAlpha" operator="arithmetic" k2="-1" k3="1"/>
<feColorMatrix type="matrix" values="0 0 0 0 0 0 0 0 0 0 0 0 0 0 0 0 0 0 0.1 0"/>
<feBlend mode="normal" in2="effect3_innerShadow_780_3153" result="effect4_innerShadow_780_3153"/>
<feColorMatrix in="SourceAlpha" type="matrix" values="0 0 0 0 0 0 0 0 0 0 0 0 0 0 0 0 0 0 127 0" result="hardAlpha"/>
<feOffset dx="-1" dy="2"/>
<feGaussianBlur stdDeviation="1"/>
<feComposite in2="hardAlpha" operator="arithmetic" k2="-1" k3="1"/>
<feColorMatrix type="matrix" values="0 0 0 0 0.109804 0 0 0 0 0.792157 0 0 0 0 0.984314 0 0 0 0.05 0"/>
<feBlend mode="normal" in2="effect4_innerShadow_780_3153" result="effect5_innerShadow_780_3153"/>
</filter>
</defs>
</svg>
