<svg width="134" height="40" viewBox="0 0 134 40" fill="none" xmlns="http://www.w3.org/2000/svg">
<g filter="url(#filter0_iii_780_3156)">
<path d="M0 20C0 8.95431 8.9543 0 20 0H114C125.046 0 134 8.95431 134 20C134 31.0457 125.046 40 114 40H20C8.9543 40 0 31.0457 0 20Z" fill="#1CCAFB"/>
<path d="M48.2578 22.9414V24.377H36.8691V22.9414H41.668V21.0684H38.1816V16.8848H45.2227V15.5176H38.168V14.123H46.9453V18.252H39.9316V19.6465H47.2324V21.0684H43.4043V22.9414H48.2578ZM58.9219 14.4648V15.9551C58.9219 17.6641 58.9219 19.3594 58.4707 21.9297L56.707 21.7793C57.1719 19.3867 57.1719 17.6094 57.1855 15.9551V15.8594H50.1445V14.4648H58.9219ZM60.3164 22.6953V24.1309H48.9688V22.6953H60.3164ZM71.4863 13.3301V22.2715H69.7363V13.3301H71.4863ZM71.8145 24.1445V25.5391H63.1465V21.3691H64.9102V24.1445H71.8145ZM64.6641 14.123C66.5781 14.123 68.0684 15.4355 68.0684 17.2539C68.0684 19.1133 66.5781 20.4121 64.6641 20.4121C62.75 20.4121 61.2598 19.1133 61.2598 17.2539C61.2598 15.4355 62.75 14.123 64.6641 14.123ZM64.6641 15.6406C63.6934 15.627 62.9551 16.2422 62.9688 17.2539C62.9551 18.293 63.6934 18.8945 64.6641 18.8945C65.6074 18.8945 66.3457 18.293 66.3457 17.2539C66.3457 16.2422 65.6074 15.627 64.6641 15.6406ZM82.9844 13.3164V18.1836H84.8164V19.6191H82.9844V25.7578H81.2617V13.3164H82.9844ZM80.4141 15.1758V16.5703H73.0996V15.1758H75.916V13.5078H77.666V15.1758H80.4141ZM76.791 17.2676C78.6094 17.2676 79.9629 18.498 79.9629 20.2344C79.9629 21.9707 78.6094 23.2012 76.791 23.2012C74.959 23.2012 73.6055 21.9707 73.6055 20.2344C73.6055 18.498 74.959 17.2676 76.791 17.2676ZM76.791 18.6758C75.916 18.6895 75.2734 19.2773 75.2734 20.2344C75.2734 21.2051 75.916 21.7793 76.791 21.7656C77.666 21.7793 78.2949 21.2051 78.2949 20.2344C78.2949 19.2773 77.666 18.6895 76.791 18.6758ZM95.7266 13.3164V25.7578H93.9629V13.3164H95.7266ZM91.9941 14.6152C91.9941 18.3887 90.668 21.5195 86.2246 23.625L85.3086 22.2305C88.5215 20.7129 89.9365 18.7441 90.2168 15.9824H85.9785V14.6152H91.9941Z" fill="#F9FAFA"/>
</g>
<defs>
<filter id="filter0_iii_780_3156" x="-1" y="-2" width="136" height="46" filterUnits="userSpaceOnUse" color-interpolation-filters="sRGB">
<feFlood flood-opacity="0" result="BackgroundImageFix"/>
<feBlend mode="normal" in="SourceGraphic" in2="BackgroundImageFix" result="shape"/>
<feColorMatrix in="SourceAlpha" type="matrix" values="0 0 0 0 0 0 0 0 0 0 0 0 0 0 0 0 0 0 127 0" result="hardAlpha"/>
<feOffset dx="1" dy="-2"/>
<feGaussianBlur stdDeviation="3"/>
<feComposite in2="hardAlpha" operator="arithmetic" k2="-1" k3="1"/>
<feColorMatrix type="matrix" values="0 0 0 0 1 0 0 0 0 0.994444 0 0 0 0 0.833333 0 0 0 1 0"/>
<feBlend mode="normal" in2="shape" result="effect1_innerShadow_780_3156"/>
<feColorMatrix in="SourceAlpha" type="matrix" values="0 0 0 0 0 0 0 0 0 0 0 0 0 0 0 0 0 0 127 0" result="hardAlpha"/>
<feOffset dx="-1" dy="4"/>
<feGaussianBlur stdDeviation="3"/>
<feComposite in2="hardAlpha" operator="arithmetic" k2="-1" k3="1"/>
<feColorMatrix type="matrix" values="0 0 0 0 1 0 0 0 0 1 0 0 0 0 1 0 0 0 0.5 0"/>
<feBlend mode="normal" in2="effect1_innerShadow_780_3156" result="effect2_innerShadow_780_3156"/>
<feColorMatrix in="SourceAlpha" type="matrix" values="0 0 0 0 0 0 0 0 0 0 0 0 0 0 0 0 0 0 127 0" result="hardAlpha"/>
<feOffset dy="1"/>
<feGaussianBlur stdDeviation="1"/>
<feComposite in2="hardAlpha" operator="arithmetic" k2="-1" k3="1"/>
<feColorMatrix type="matrix" values="0 0 0 0 0.0288 0 0 0 0 0.73568 0 0 0 0 0.9312 0 0 0 1 0"/>
<feBlend mode="normal" in2="effect2_innerShadow_780_3156" result="effect3_innerShadow_780_3156"/>
</filter>
</defs>
</svg>
