<svg width="64" height="26" viewBox="0 0 64 26" fill="none" xmlns="http://www.w3.org/2000/svg">
<rect width="64" height="26" rx="13" fill="#E8FAFF"/>
<path d="M8.5 9V12H11.5" stroke="#007495" stroke-linecap="round" stroke-linejoin="round"/>
<path d="M19.5 17V14H16.5" stroke="#007495" stroke-linecap="round" stroke-linejoin="round"/>
<path d="M18.245 11.5C17.9914 10.7834 17.5604 10.1427 16.9923 9.63775C16.4241 9.13275 15.7373 8.77992 14.9959 8.61217C14.2544 8.44441 13.4826 8.46721 12.7524 8.67842C12.0222 8.88964 11.3574 9.28239 10.82 9.82004L9 11.5M19 14.5L17.18 16.18C16.6426 16.7177 15.9778 17.1104 15.2476 17.3217C14.5174 17.5329 13.7456 17.5557 13.0041 17.3879C12.2627 17.2202 11.5759 16.8673 11.0077 16.3623C10.4396 15.8573 10.0086 15.2166 9.755 14.5" stroke="#007495" stroke-width="1.4" stroke-linecap="round" stroke-linejoin="round"/>
<path d="M34.0312 15.7227V16.7891H24.3516V15.7227H28.5352V13.5312H29.8242V15.7227H34.0312ZM24.75 12.875C27.0469 12.5762 28.4238 11.3574 28.5176 10.0391H25.207V8.98438H28.5352V7.61328H29.8242V8.98438H33.1641V10.0391H29.8535C29.9414 11.3574 31.3184 12.5762 33.6094 12.875L33.1289 13.8945C31.3008 13.6367 29.8828 12.8223 29.1797 11.668C28.4824 12.8223 27.0762 13.6367 25.2422 13.8945L24.75 12.875ZM43.5703 7.44922V18.043H42.2578V7.44922H43.5703ZM34.793 15.125C37.5703 13.8066 38.8477 12.0137 39.082 9.60547H35.332V8.57422H40.4062C40.4062 11.7266 39.1816 14.4043 35.4727 16.168L34.793 15.125ZM53.4727 7.44922V11.8203H54.9609V12.9102H53.4727V18.043H52.1602V7.44922H53.4727ZM44.9648 15.1016C45.7676 15.1016 46.6992 15.1016 47.6719 15.0781V14.0879C46.5176 13.8887 45.7676 13.168 45.7734 12.1719C45.7676 10.9766 46.8164 10.1855 48.3398 10.1797C49.8457 10.1855 50.9062 10.9766 50.918 12.1719C50.9062 13.1738 50.1387 13.8945 48.9844 14.0879V15.0312C49.875 14.9844 50.7656 14.9141 51.5977 14.7969L51.6797 15.7461C49.4062 16.1621 46.957 16.1797 45.1523 16.1797L44.9648 15.1016ZM45.1641 9.69922V8.66797H47.6719V7.49609H48.9844V8.66797H51.4805V9.69922H45.1641ZM47.0039 12.1719C46.998 12.7812 47.5371 13.1387 48.3398 13.1328C49.1309 13.1387 49.6641 12.7812 49.6641 12.1719C49.6641 11.5566 49.1309 11.1816 48.3398 11.1758C47.5371 11.1816 46.998 11.5566 47.0039 12.1719Z" fill="#007495"/>
</svg>
