<svg width="343" height="75" viewBox="0 0 343 75" fill="none" xmlns="http://www.w3.org/2000/svg">
<g filter="url(#filter0_iii_485_5341)">
<path d="M0 27C0 12.0883 12.0883 0 27 0H316C330.912 0 343 12.0883 343 27C343 41.9117 330.912 54 316 54H27C12.0883 54 0 41.9117 0 27Z" fill="#FFFED4"/>
<path d="M143.375 19.7188V33.9375H141.391V19.7188H143.375ZM131.484 29.9219C132.57 29.9141 133.812 29.9141 135.109 29.875V28.6719C133.547 28.3984 132.531 27.4297 132.547 26.0938C132.531 24.5 133.984 23.4219 136.078 23.4219C138.188 23.4219 139.656 24.5 139.656 26.0938C139.656 27.4219 138.641 28.3906 137.078 28.6719V29.8125C138.266 29.7578 139.469 29.6641 140.609 29.5156L140.75 30.9844C137.641 31.5156 134.281 31.5469 131.75 31.5469L131.484 29.9219ZM140.406 21.2969V22.8594H131.766V21.2969H135.109V19.7812H137.094V21.2969H140.406ZM136.078 24.9375C135.109 24.9375 134.422 25.3594 134.438 26.0938C134.422 26.8438 135.109 27.25 136.078 27.25C137.078 27.25 137.75 26.8438 137.75 26.0938C137.75 25.3594 137.078 24.9375 136.078 24.9375ZM156.897 19.7344V30.4688H154.897V29.3438H152.178V27.9844H154.897V19.7344H156.897ZM157.209 32.0938V33.6875H146.616V29.4375H148.6V27.5469C147.327 27.6016 146.116 27.6094 145.038 27.6094L144.803 26.0312C147.413 26.0156 150.928 25.9844 153.928 25.6094L154.038 27.0312C152.913 27.2188 151.748 27.3516 150.6 27.4375V30.1406H148.6V32.0938H157.209ZM149.428 20.2188C151.491 20.2031 152.975 21.25 152.975 22.7656C152.975 24.2812 151.491 25.2656 149.428 25.2656C147.319 25.2656 145.85 24.2812 145.85 22.7656C145.85 21.25 147.303 20.2031 149.428 20.2188ZM149.428 21.6719C148.413 21.6719 147.725 22.0625 147.741 22.7656C147.725 23.4531 148.413 23.8281 149.428 23.8281C150.381 23.8281 151.069 23.4531 151.084 22.7656C151.069 22.0625 150.381 21.6719 149.428 21.6719ZM169.497 19.7188V25.1719H171.513V26.8125H169.497V33.9062H167.497V19.7188H169.497ZM165.7 21.1719C165.684 25.4219 164.028 29.1094 159.247 31.4531L158.122 29.9219C161.489 28.2344 163.294 25.9688 163.669 22.7969H158.934V21.1719H165.7ZM183.612 19.7188V27.3594H181.612V19.7188H183.612ZM176.066 27.9844V29.3125H181.628V27.9844H183.612V33.7812H174.097V27.9844H176.066ZM176.066 32.1719H181.628V30.8594H176.066V32.1719ZM175.816 20.3125C178.034 20.2969 179.706 21.6875 179.706 23.6875C179.706 25.625 178.034 27.0156 175.816 27.0156C173.597 27.0156 171.925 25.625 171.925 23.6875C171.925 21.6875 173.597 20.2969 175.816 20.3125ZM175.816 21.9688C174.675 21.9688 173.862 22.6094 173.878 23.6875C173.862 24.75 174.675 25.375 175.816 25.375C176.925 25.375 177.737 24.75 177.737 23.6875C177.737 22.6094 176.925 21.9688 175.816 21.9688ZM196.353 19.7188V25.2812H198.447V26.9219H196.353V33.9375H194.384V19.7188H196.353ZM193.416 21.8438V23.4375H185.056V21.8438H188.275V19.9375H190.275V21.8438H193.416ZM189.275 24.2344C191.353 24.2344 192.9 25.6406 192.9 27.625C192.9 29.6094 191.353 31.0156 189.275 31.0156C187.181 31.0156 185.634 29.6094 185.634 27.625C185.634 25.6406 187.181 24.2344 189.275 24.2344ZM189.275 25.8438C188.275 25.8594 187.541 26.5312 187.541 27.625C187.541 28.7344 188.275 29.3906 189.275 29.375C190.275 29.3906 190.994 28.7344 190.994 27.625C190.994 26.5312 190.275 25.8594 189.275 25.8438ZM210.516 19.7188V33.9375H208.5V19.7188H210.516ZM206.25 21.2031C206.25 25.5156 204.734 29.0938 199.656 31.5L198.609 29.9062C202.281 28.1719 203.898 25.9219 204.219 22.7656H199.375V21.2031H206.25Z" fill="#1CCAFB"/>
</g>
<g filter="url(#filter1_dd_485_5341)">
<path d="M298.689 65.2386C298.523 65.6796 298.25 66.0727 297.893 66.3806C297.615 66.6213 297.292 66.8034 296.945 66.9194C296.83 66.9579 296.758 66.9898 296.708 67.0201C295.682 67.6431 294.528 68.0295 293.332 68.1495C292.055 68.2775 290.766 68.0988 289.572 67.6269L289.573 67.626C285.654 66.2481 283.215 62.5299 284.453 58.9682C285.693 55.4029 289.921 53.9994 293.852 55.3569C294.319 55.5059 294.773 55.6918 295.208 55.9121C295.382 56 295.587 56.0118 295.759 55.9556C295.923 55.9017 296.021 55.7998 296.064 55.6773L298.243 49.4124C298.335 49.1475 298.133 48.8728 297.852 48.8818L283.208 49.3561C283.043 49.3615 282.897 49.4687 282.843 49.6251L278.386 62.4425C278.22 62.8833 277.947 63.2758 277.591 63.5836C277.313 63.8242 276.99 64.0077 276.643 64.1236C276.527 64.1623 276.456 64.1937 276.406 64.224C275.379 64.8469 274.226 65.2328 273.03 65.3528C271.764 65.4798 270.486 65.3037 269.301 64.8408C265.365 63.4717 262.909 59.7424 264.151 56.1712C265.393 52.6001 269.633 51.1979 273.569 52.5666C274.005 52.7078 274.429 52.8816 274.838 53.0851C275.011 53.1714 275.215 53.1814 275.384 53.1252C275.547 53.0711 275.646 52.9697 275.688 52.8475L280.722 38.3725C280.91 37.847 281.251 37.389 281.699 37.0571L281.872 36.9392C282.283 36.6799 282.756 36.5304 283.244 36.5085L304.867 35.5022L304.868 35.5025C305.326 35.4817 305.782 35.5729 306.196 35.7689C306.61 35.9648 306.97 36.2594 307.244 36.6264L307.243 36.627C307.527 36.9808 307.722 37.3972 307.81 37.8426C307.9 38.3 307.875 38.7728 307.737 39.2181L298.689 65.2386Z" fill="#4FD8FF" stroke="white" stroke-width="1.6" stroke-miterlimit="2.3662"/>
</g>
<defs>
<filter id="filter0_iii_485_5341" x="-1" y="-2" width="345" height="60" filterUnits="userSpaceOnUse" color-interpolation-filters="sRGB">
<feFlood flood-opacity="0" result="BackgroundImageFix"/>
<feBlend mode="normal" in="SourceGraphic" in2="BackgroundImageFix" result="shape"/>
<feColorMatrix in="SourceAlpha" type="matrix" values="0 0 0 0 0 0 0 0 0 0 0 0 0 0 0 0 0 0 127 0" result="hardAlpha"/>
<feOffset dx="1" dy="-2"/>
<feGaussianBlur stdDeviation="3"/>
<feComposite in2="hardAlpha" operator="arithmetic" k2="-1" k3="1"/>
<feColorMatrix type="matrix" values="0 0 0 0 1 0 0 0 0 0.965171 0 0 0 0 0.477564 0 0 0 1 0"/>
<feBlend mode="normal" in2="shape" result="effect1_innerShadow_485_5341"/>
<feColorMatrix in="SourceAlpha" type="matrix" values="0 0 0 0 0 0 0 0 0 0 0 0 0 0 0 0 0 0 127 0" result="hardAlpha"/>
<feOffset dx="-1" dy="4"/>
<feGaussianBlur stdDeviation="3"/>
<feComposite in2="hardAlpha" operator="arithmetic" k2="-1" k3="1"/>
<feColorMatrix type="matrix" values="0 0 0 0 1 0 0 0 0 1 0 0 0 0 1 0 0 0 1 0"/>
<feBlend mode="normal" in2="effect1_innerShadow_485_5341" result="effect2_innerShadow_485_5341"/>
<feColorMatrix in="SourceAlpha" type="matrix" values="0 0 0 0 0 0 0 0 0 0 0 0 0 0 0 0 0 0 127 0" result="hardAlpha"/>
<feOffset dy="1"/>
<feGaussianBlur stdDeviation="1"/>
<feComposite in2="hardAlpha" operator="arithmetic" k2="-1" k3="1"/>
<feColorMatrix type="matrix" values="0 0 0 0 1 0 0 0 0 0.965171 0 0 0 0 0.477564 0 0 0 1 0"/>
<feBlend mode="normal" in2="effect2_innerShadow_485_5341" result="effect3_innerShadow_485_5341"/>
</filter>
<filter id="filter1_dd_485_5341" x="256" y="24" width="54.4188" height="56.4189" filterUnits="userSpaceOnUse" color-interpolation-filters="sRGB">
<feFlood flood-opacity="0" result="BackgroundImageFix"/>
<feColorMatrix in="SourceAlpha" type="matrix" values="0 0 0 0 0 0 0 0 0 0 0 0 0 0 0 0 0 0 127 0" result="hardAlpha"/>
<feOffset dx="-2" dy="4"/>
<feGaussianBlur stdDeviation="1"/>
<feComposite in2="hardAlpha" operator="out"/>
<feColorMatrix type="matrix" values="0 0 0 0 0.109804 0 0 0 0 0.792157 0 0 0 0 0.984314 0 0 0 0.6 0"/>
<feBlend mode="normal" in2="BackgroundImageFix" result="effect1_dropShadow_485_5341"/>
<feColorMatrix in="SourceAlpha" type="matrix" values="0 0 0 0 0 0 0 0 0 0 0 0 0 0 0 0 0 0 127 0" result="hardAlpha"/>
<feOffset dx="-2" dy="4"/>
<feGaussianBlur stdDeviation="1"/>
<feComposite in2="hardAlpha" operator="out"/>
<feColorMatrix type="matrix" values="0 0 0 0 0 0 0 0 0 0 0 0 0 0 0 0 0 0 0.1 0"/>
<feBlend mode="normal" in2="effect1_dropShadow_485_5341" result="effect2_dropShadow_485_5341"/>
<feBlend mode="normal" in="SourceGraphic" in2="effect2_dropShadow_485_5341" result="shape"/>
</filter>
</defs>
</svg>
