<svg width="40" height="40" viewBox="0 0 40 40" fill="none" xmlns="http://www.w3.org/2000/svg">
<rect width="40" height="40" rx="20" fill="#E8FAFF"/>
<path d="M16.9421 28.5299C16.7493 28.5299 16.5944 28.4724 16.4773 28.3574C16.3602 28.2425 16.2982 28.088 16.2913 27.894L15.9814 16.3736C15.9745 16.1868 16.0296 16.0359 16.1467 15.921C16.2707 15.7988 16.4291 15.7378 16.6219 15.7378C16.8079 15.7378 16.9594 15.7952 17.0764 15.9102C17.2004 16.0251 17.2624 16.176 17.2624 16.3628L17.5826 27.894C17.5826 28.0808 17.5241 28.2353 17.407 28.3574C17.2899 28.4724 17.135 28.5299 16.9421 28.5299ZM20 28.5299C19.8072 28.5299 19.6488 28.4724 19.5248 28.3574C19.4008 28.2353 19.3388 28.0808 19.3388 27.894V16.3736C19.3388 16.1868 19.4008 16.0359 19.5248 15.921C19.6488 15.7988 19.8072 15.7378 20 15.7378C20.1997 15.7378 20.3616 15.7988 20.4855 15.921C20.6095 16.0359 20.6715 16.1868 20.6715 16.3736V27.894C20.6715 28.0808 20.6095 28.2353 20.4855 28.3574C20.3616 28.4724 20.1997 28.5299 20 28.5299ZM23.0682 28.5299C22.8685 28.5299 22.7101 28.4724 22.593 28.3574C22.4759 28.2353 22.4208 28.0808 22.4277 27.894L22.7376 16.3736C22.7445 16.1796 22.8065 16.0251 22.9236 15.9102C23.0406 15.7952 23.1922 15.7378 23.3781 15.7378C23.5778 15.7378 23.7362 15.7988 23.8533 15.921C23.9704 16.0359 24.0255 16.1868 24.0186 16.3736L23.7087 27.894C23.7018 28.088 23.6398 28.2425 23.5227 28.3574C23.4056 28.4724 23.2541 28.5299 23.0682 28.5299ZM15.4649 12.925V10.511C15.4649 9.73507 15.6921 9.12438 16.1467 8.67894C16.6081 8.22631 17.2348 8 18.0269 8H21.9525C22.7445 8 23.3678 8.22631 23.8223 8.67894C24.2837 9.12438 24.5145 9.73507 24.5145 10.511V12.925H22.8719V10.6188C22.8719 10.317 22.7755 10.0727 22.5826 9.88595C22.3967 9.69915 22.1488 9.60575 21.8388 9.60575H18.1405C17.8306 9.60575 17.5792 9.69915 17.3864 9.88595C17.2004 10.0727 17.1074 10.317 17.1074 10.6188V12.925H15.4649ZM10.7748 13.7872C10.5682 13.7872 10.3857 13.7081 10.2273 13.5501C10.0758 13.3848 10 13.1908 10 12.9681C10 12.7526 10.0758 12.5658 10.2273 12.4077C10.3857 12.2425 10.5682 12.1599 10.7748 12.1599H29.2355C29.4422 12.1599 29.6212 12.2389 29.7727 12.3969C29.9242 12.555 30 12.7454 30 12.9681C30 13.1908 29.9242 13.3848 29.7727 13.5501C29.6281 13.7081 29.449 13.7872 29.2355 13.7872H10.7748ZM15.2686 32C14.5248 32 13.9222 31.7701 13.4607 31.3103C13.0062 30.8577 12.7617 30.2434 12.7273 29.4674L11.9938 13.5824H13.6157L14.3492 29.2735C14.3629 29.5896 14.4697 29.8518 14.6694 30.0602C14.8691 30.2685 15.1171 30.3727 15.4132 30.3727H24.5764C24.8795 30.3727 25.1309 30.2685 25.3306 30.0602C25.5303 29.859 25.6371 29.5968 25.6508 29.2735L26.343 13.5824H28.0062L27.2831 29.4567C27.2486 30.2326 27.0007 30.8505 26.5393 31.3103C26.0778 31.7701 25.4787 32 24.7417 32H15.2686Z" fill="#007495"/>
</svg>
