<svg width="37" height="33" viewBox="0 0 37 33" fill="none" xmlns="http://www.w3.org/2000/svg">
<path d="M33.3012 3.74063C32.446 2.87177 31.4306 2.18253 30.313 1.71228C29.1954 1.24204 27.9975 1 26.7878 1C25.5781 1 24.3802 1.24204 23.2626 1.71228C22.145 2.18253 21.1296 2.87177 20.2744 3.74063L19.6396 4.38528C19.0128 5.02175 17.9863 5.02176 17.3595 4.38528L16.7247 3.74063C14.9972 1.98641 12.6543 1.00091 10.2113 1.00091C7.76832 1.00091 5.42539 1.98641 3.69793 3.74063C1.97048 5.49484 1 7.87405 1 10.3549C1 12.8357 1.97048 15.2149 3.69793 16.9691L5.47279 18.7715L17.3595 30.8423C17.9863 31.4788 19.0128 31.4788 19.6396 30.8423L31.5263 18.7715L33.3012 16.9691C34.1568 16.1007 34.8355 15.0696 35.2986 13.9347C35.7617 12.7998 36 11.5833 36 10.3549C36 9.12642 35.7617 7.90999 35.2986 6.7751C34.8355 5.6402 34.1568 4.60908 33.3012 3.74063Z" fill="#CDD1D5" stroke="#F9FAFA" stroke-width="2" stroke-linecap="round" stroke-linejoin="round"/>
</svg>
