<svg width="29" height="32" viewBox="0 0 29 32" fill="none" xmlns="http://www.w3.org/2000/svg">
<g filter="url(#filter0_dd_200_4704)">
<path d="M26.3999 19.0977C26.3917 19.4288 26.2987 19.7517 26.1313 20.0371C26.0265 20.2159 25.8944 20.3761 25.7407 20.5127C25.6008 20.637 25.5465 20.681 25.4937 20.7412C25.0236 21.277 24.4435 21.709 23.7915 22.0068C23.0599 22.3411 22.2583 22.498 21.4536 22.4648V22.4639C18.9086 22.4497 16.6206 20.7994 16.6206 18.3662C16.6208 15.9291 18.9163 14.2763 21.4663 14.2676C21.505 14.2666 21.5438 14.2668 21.5825 14.2666C21.816 14.2654 22.0524 14.1791 22.2183 14.0459C22.3779 13.9174 22.436 13.7804 22.436 13.6572V11.2451C22.436 10.9653 22.1557 10.7721 21.894 10.8711L14.8384 13.541C14.6829 13.5999 14.5797 13.7488 14.5796 13.915V21.4287C14.5714 21.7598 14.4784 22.0827 14.311 22.3682C14.2062 22.547 14.0741 22.7072 13.9204 22.8438C13.7805 22.9681 13.7262 23.0121 13.6733 23.0723C13.2033 23.6081 12.6231 24.04 11.9712 24.3379C11.2396 24.6721 10.4379 24.8291 9.6333 24.7959V24.7949C7.08827 24.7808 4.80029 23.1305 4.80029 20.6973C4.80054 18.3301 6.96621 16.7029 9.42725 16.6035L9.6665 16.5986C9.68522 16.5983 9.70441 16.5978 9.72314 16.5977C9.95549 16.5952 10.189 16.5087 10.353 16.376C10.5108 16.2482 10.5687 16.1128 10.5688 15.9902V7.81055C10.5725 7.41776 10.6947 7.03611 10.9185 6.71387C11.142 6.39199 11.4559 6.14408 11.8198 6.00098L23.6401 1.33887C23.9391 1.22126 24.2631 1.17707 24.5825 1.21094C24.8891 1.24351 25.183 1.34877 25.4429 1.51465L25.4438 1.51367C25.4495 1.51706 25.4548 1.52097 25.4604 1.52441C25.4654 1.52767 25.4711 1.5299 25.4761 1.5332L25.4751 1.53418C25.7415 1.70077 25.9656 1.92734 26.1265 2.19824C26.2937 2.47997 26.3884 2.79921 26.3999 3.12695V19.0977Z" fill="#FE96FF" stroke="white" stroke-width="1.6" stroke-miterlimit="2.3662"/>
</g>
<defs>
<filter id="filter0_dd_200_4704" x="-1.3999" y="0" width="30" height="32" filterUnits="userSpaceOnUse" color-interpolation-filters="sRGB">
<feFlood flood-opacity="0" result="BackgroundImageFix"/>
<feColorMatrix in="SourceAlpha" type="matrix" values="0 0 0 0 0 0 0 0 0 0 0 0 0 0 0 0 0 0 127 0" result="hardAlpha"/>
<feOffset dx="-2" dy="4"/>
<feGaussianBlur stdDeviation="1"/>
<feComposite in2="hardAlpha" operator="out"/>
<feColorMatrix type="matrix" values="0 0 0 0 0.109804 0 0 0 0 0.792157 0 0 0 0 0.984314 0 0 0 0.6 0"/>
<feBlend mode="normal" in2="BackgroundImageFix" result="effect1_dropShadow_200_4704"/>
<feColorMatrix in="SourceAlpha" type="matrix" values="0 0 0 0 0 0 0 0 0 0 0 0 0 0 0 0 0 0 127 0" result="hardAlpha"/>
<feOffset dx="-2" dy="4"/>
<feGaussianBlur stdDeviation="1"/>
<feComposite in2="hardAlpha" operator="out"/>
<feColorMatrix type="matrix" values="0 0 0 0 0 0 0 0 0 0 0 0 0 0 0 0 0 0 0.1 0"/>
<feBlend mode="normal" in2="effect1_dropShadow_200_4704" result="effect2_dropShadow_200_4704"/>
<feBlend mode="normal" in="SourceGraphic" in2="effect2_dropShadow_200_4704" result="shape"/>
</filter>
</defs>
</svg>
