<svg width="40" height="41" viewBox="0 0 40 41" fill="none" xmlns="http://www.w3.org/2000/svg">
<g filter="url(#filter0_dd_200_4689)">
<path d="M19.1008 7.55563C20.5122 5.50856 23.6583 5.96856 24.4246 8.33404L25.6741 12.1912C25.9784 13.1305 26.7254 13.86 27.6717 14.1418L31.5575 15.2992C33.9405 16.009 34.4752 19.1432 32.4623 20.603L29.1801 22.9832C28.3808 23.5629 27.9178 24.4988 27.9422 25.4859L28.0422 29.5391C28.1036 32.0249 25.288 33.5019 23.2777 32.0386L19.9996 29.6526C19.2013 29.0715 18.1682 28.9204 17.237 29.2486L13.413 30.5963C11.0679 31.4228 8.79303 29.2014 9.5635 26.8373L10.8198 22.9824C11.1258 22.0436 10.9502 21.0143 10.3503 20.2301L7.88689 17.0098C6.37617 15.0348 7.78585 12.1849 10.2724 12.1871L14.3268 12.1906C15.3142 12.1915 16.2388 11.7065 16.7993 10.8936L19.1008 7.55563Z" fill="#FE96FF" stroke="white" stroke-width="3" stroke-linejoin="round"/>
</g>
<defs>
<filter id="filter0_dd_200_4689" x="-4" y="0" width="44" height="46" filterUnits="userSpaceOnUse" color-interpolation-filters="sRGB">
<feFlood flood-opacity="0" result="BackgroundImageFix"/>
<feColorMatrix in="SourceAlpha" type="matrix" values="0 0 0 0 0 0 0 0 0 0 0 0 0 0 0 0 0 0 127 0" result="hardAlpha"/>
<feOffset dx="-2" dy="4"/>
<feGaussianBlur stdDeviation="1"/>
<feComposite in2="hardAlpha" operator="out"/>
<feColorMatrix type="matrix" values="0 0 0 0 0.109804 0 0 0 0 0.792157 0 0 0 0 0.984314 0 0 0 0.6 0"/>
<feBlend mode="normal" in2="BackgroundImageFix" result="effect1_dropShadow_200_4689"/>
<feColorMatrix in="SourceAlpha" type="matrix" values="0 0 0 0 0 0 0 0 0 0 0 0 0 0 0 0 0 0 127 0" result="hardAlpha"/>
<feOffset dx="-2" dy="4"/>
<feGaussianBlur stdDeviation="1"/>
<feComposite in2="hardAlpha" operator="out"/>
<feColorMatrix type="matrix" values="0 0 0 0 0 0 0 0 0 0 0 0 0 0 0 0 0 0 0.1 0"/>
<feBlend mode="normal" in2="effect1_dropShadow_200_4689" result="effect2_dropShadow_200_4689"/>
<feBlend mode="normal" in="SourceGraphic" in2="effect2_dropShadow_200_4689" result="shape"/>
</filter>
</defs>
</svg>
