<svg width="26" height="26" viewBox="0 0 26 26" fill="none" xmlns="http://www.w3.org/2000/svg">
<g filter="url(#filter0_dd_190_2065)">
<path d="M13.7969 2.7223C14.2673 2.03994 15.316 2.19327 15.5715 2.98177L16.8315 6.87147C16.9329 7.18458 17.1819 7.42774 17.4974 7.52169L21.416 8.68883C22.2103 8.92543 22.3885 9.97018 21.7176 10.4568L18.4076 12.8571C18.1412 13.0503 17.9869 13.3623 17.995 13.6913L18.0959 17.7788C18.1163 18.6074 17.1778 19.0997 16.5077 18.612L13.202 16.2057C12.9359 16.0121 12.5915 15.9617 12.2811 16.0711L8.42486 17.4301C7.64315 17.7056 6.88487 16.9652 7.14169 16.1771L8.40861 12.2897C8.51059 11.9767 8.45206 11.6337 8.25209 11.3722L5.76793 8.12473C5.26435 7.46641 5.73424 6.51642 6.56308 6.51716L10.6518 6.52078C10.9809 6.52107 11.2891 6.35939 11.4759 6.08842L13.7969 2.7223Z" fill="#FFF67A" stroke="white" stroke-width="2" stroke-linejoin="round"/>
</g>
<defs>
<filter id="filter0_dd_190_2065" x="-4" y="0" width="30" height="32" filterUnits="userSpaceOnUse" color-interpolation-filters="sRGB">
<feFlood flood-opacity="0" result="BackgroundImageFix"/>
<feColorMatrix in="SourceAlpha" type="matrix" values="0 0 0 0 0 0 0 0 0 0 0 0 0 0 0 0 0 0 127 0" result="hardAlpha"/>
<feOffset dx="-2" dy="4"/>
<feGaussianBlur stdDeviation="1"/>
<feComposite in2="hardAlpha" operator="out"/>
<feColorMatrix type="matrix" values="0 0 0 0 0.109804 0 0 0 0 0.792157 0 0 0 0 0.984314 0 0 0 0.6 0"/>
<feBlend mode="normal" in2="BackgroundImageFix" result="effect1_dropShadow_190_2065"/>
<feColorMatrix in="SourceAlpha" type="matrix" values="0 0 0 0 0 0 0 0 0 0 0 0 0 0 0 0 0 0 127 0" result="hardAlpha"/>
<feOffset dx="-2" dy="4"/>
<feGaussianBlur stdDeviation="1"/>
<feComposite in2="hardAlpha" operator="out"/>
<feColorMatrix type="matrix" values="0 0 0 0 0 0 0 0 0 0 0 0 0 0 0 0 0 0 0.1 0"/>
<feBlend mode="normal" in2="effect1_dropShadow_190_2065" result="effect2_dropShadow_190_2065"/>
<feBlend mode="normal" in="SourceGraphic" in2="effect2_dropShadow_190_2065" result="shape"/>
</filter>
</defs>
</svg>
