<svg width="42" height="43" viewBox="0 0 42 43" fill="none" xmlns="http://www.w3.org/2000/svg">
<g filter="url(#filter0_d_103_1891)">
<path d="M14.4588 3.79756C14.9546 1.74883 17.3531 0.836777 19.0849 2.03841L25.1989 6.28069C25.7659 6.67406 26.4511 6.85996 27.1391 6.80708L34.5589 6.2367C36.6606 6.07514 38.2691 8.07434 37.6615 10.0927L35.5162 17.2185C35.3172 17.8792 35.3522 18.5883 35.6151 19.2263L38.4504 26.1067C39.2535 28.0556 37.8492 30.2032 35.7418 30.249L28.3019 30.4107C27.612 30.4257 26.9484 30.6781 26.4229 31.1252L20.7554 35.9479C19.1501 37.314 16.6736 36.6421 15.9789 34.652L13.526 27.6262C13.2986 26.9747 12.8535 26.4215 12.2658 26.0599L5.92781 22.1601C4.13256 21.0555 4.0063 18.4926 5.68428 17.2169L11.6083 12.713C12.1576 12.2954 12.5461 11.7011 12.7084 11.0305L14.4588 3.79756Z" fill="#FE96FF" stroke="#F9FAFA" stroke-width="3" stroke-linejoin="round"/>
<path d="M19.1816 19.0605L20.002 18.2402L22.0996 20.291L26.5293 15.8847L27.3613 16.705L22.0996 21.955L19.1816 19.0605Z" fill="#F9FAFA" stroke="#F9FAFA" stroke-width="2" stroke-linejoin="round"/>
</g>
<defs>
<filter id="filter0_d_103_1891" x="0" y="0" width="42.1816" height="42.1652" filterUnits="userSpaceOnUse" color-interpolation-filters="sRGB">
<feFlood flood-opacity="0" result="BackgroundImageFix"/>
<feColorMatrix in="SourceAlpha" type="matrix" values="0 0 0 0 0 0 0 0 0 0 0 0 0 0 0 0 0 0 127 0" result="hardAlpha"/>
<feOffset dx="-1" dy="2"/>
<feGaussianBlur stdDeviation="1"/>
<feComposite in2="hardAlpha" operator="out"/>
<feColorMatrix type="matrix" values="0 0 0 0 0 0 0 0 0 0 0 0 0 0 0 0 0 0 0.12 0"/>
<feBlend mode="normal" in2="BackgroundImageFix" result="effect1_dropShadow_103_1891"/>
<feBlend mode="normal" in="SourceGraphic" in2="effect1_dropShadow_103_1891" result="shape"/>
</filter>
</defs>
</svg>
