<svg width="58" height="58" viewBox="0 0 58 58" fill="none" xmlns="http://www.w3.org/2000/svg">
<path d="M19.3713 4.82102C20.5529 1.51256 24.6882 0.422173 27.3474 2.7179L35.8219 10.0339C36.6924 10.7855 37.7955 11.2139 38.945 11.2471L50.1359 11.5701C53.6476 11.6714 55.9625 15.2674 54.6009 18.5059L50.2617 28.8264C49.816 29.8866 49.7493 31.068 50.073 32.1715L53.224 42.9145C54.2128 46.2856 51.5081 49.5985 48.0074 49.3042L36.8511 48.3666C35.7051 48.2703 34.5609 48.572 33.6114 49.2209L24.3679 55.5374C21.4673 57.5195 17.4809 55.971 16.6789 52.5507L14.1232 41.6507C13.8606 40.531 13.2201 39.536 12.3096 38.8335L3.4458 31.9943C0.664391 29.8482 0.905248 25.5784 3.91036 23.7587L13.4871 17.9598C14.4708 17.3641 15.2192 16.4475 15.606 15.3644L19.3713 4.82102Z" fill="#4FD8FF" stroke="#F9FAFA" stroke-width="3" stroke-linejoin="round"/>
</svg>
