<svg width="185" height="60" viewBox="0 0 185 60" fill="none" xmlns="http://www.w3.org/2000/svg">
<g filter="url(#filter0_dd_874_7154)">
<rect x="44" y="12" width="66" height="30" rx="4" fill="white"/>
<path d="M70.1836 32.4H69.9036V32.68H68.7276V32.4H68.4476V20.78H68.7276V20.5H69.9036V20.78H70.1836V32.4ZM60.1036 32.12V31.84H59.8236V30.972H60.1036V30.692H62.8896V27.92H63.1696V27.64H64.1776V27.92H64.4576V30.412H65.1016V30.132H66.2216V29.852H67.0616V29.572H67.6216V29.852H67.9016V30.972H67.4816V31.28H66.6416V31.56H65.2416V31.84H63.7016V32.12H60.1036ZM66.9636 21.676V21.956H67.2436V22.796H66.9636V23.076H64.5136V23.804H64.2336V24.308H64.5136V24.588H64.7936V24.868H65.0736V25.148H65.3536V25.428H65.6336V25.708H65.9136V25.988H66.1936V26.268H66.6136V26.548H67.0336V26.828H67.3136V27.276H67.0336V27.696H66.7536V27.976H65.9976V27.696H65.7176V27.416H65.2976V27.136H65.0176V26.856H64.5976V26.576H64.3176V26.296H64.0376V26.016H63.7576V25.736H63.3936V26.156H63.1136V26.576H62.8336V26.856H62.5536V27.29H62.2736V27.57H61.9936V27.85H61.6296V28.13H61.2096V28.41H60.8736V28.116H60.4536V27.696H60.1736V27.136H60.4536V26.856H60.8736V26.576H61.1536V26.296H61.4336V25.876H61.7136V25.456H61.9936V24.896H62.2736V24.336H62.5536V23.776H62.8336V23.076H60.4816V22.796H60.2016V21.956H60.4816V21.676H62.8476V20.5H63.1276V20.22H64.2896V20.5H64.5696V21.676H66.9636ZM75.1791 26.296V26.016H74.4791V25.736H73.7791V25.456H73.3591V25.176H72.9391V24.756H72.6591V24.056H72.3791V22.88H72.6591V22.18H72.9391V21.76H73.3591V21.48H73.7791V21.2H74.4791V20.92H75.1791V20.64H79.7991V20.92H80.4991V21.2H81.1991V21.48H81.6191V21.76H82.0391V22.18H82.3191V22.88H82.5991V24.056H82.3191V24.756H82.0391V25.176H81.6191V25.456H81.1991V25.736H80.4991V26.016H79.7991V26.296H75.1791ZM74.0591 23.776H74.3391V24.336H74.8991V24.616H75.7391V24.896H79.2391V24.616H80.0791V24.336H80.6391V23.776H80.9191V23.16H80.6391V22.6H80.0791V22.32H79.2391V22.04H75.7391V22.32H74.8991V22.6H74.3391V23.16H74.0591V23.776ZM72.2391 29.026V28.746H71.9591V27.85H72.2391V27.57H82.7391V27.85H83.0191V28.746H82.7391V29.026H80.7651V32.4H80.4851V32.68H79.3091V32.4H79.0291V29.026H76.0751V31H75.7951V32.12H75.5151V32.68H74.0591V32.4H73.7791V31.56H74.0591V30.58H74.3391V29.026H72.2391ZM94.5945 32.4H94.3145V32.68H93.1385V32.4H92.8585V20.78H93.1385V20.5H94.3145V20.78H94.5945V32.4ZM84.5145 26.94H84.7945V26.38H85.0745V26.1H85.3545V25.82H85.9145V25.54H88.6025V25.26H88.8825V24.42H89.1625V22.46H88.8825V22.18H84.7945V21.9H84.5145V21.06H84.7945V20.78H89.4985V21.06H90.0585V21.34H90.3385V21.62H90.6185V22.18H90.8985V24.364H90.6185V25.484H90.3385V26.044H90.0585V26.604H89.4985V26.884H86.5305V27.164H86.2505V30.44H86.5305V30.72H87.6785V30.44H89.0785V30.16H89.9185V29.88H90.4785V29.6H90.8985V29.32H91.4585V29.6H91.7385V29.88H92.0185V30.72H91.7385V31H91.1785V31.28H90.6185V31.56H89.4985V31.84H88.2385V32.12H85.9145V31.84H85.3545V31.56H85.0745V31.28H84.7945V30.72H84.5145V26.94Z" fill="#007495"/>
<path d="M70.1836 32.4V32.5H70.2836V32.4H70.1836ZM69.9036 32.4V32.3H69.8036V32.4H69.9036ZM69.9036 32.68V32.78H70.0036V32.68H69.9036ZM68.7276 32.68H68.6276V32.78H68.7276V32.68ZM68.7276 32.4H68.8276V32.3H68.7276V32.4ZM68.4476 32.4H68.3476V32.5H68.4476V32.4ZM68.4476 20.78V20.68H68.3476V20.78H68.4476ZM68.7276 20.78V20.88H68.8276V20.78H68.7276ZM68.7276 20.5V20.4H68.6276V20.5H68.7276ZM69.9036 20.5H70.0036V20.4H69.9036V20.5ZM69.9036 20.78H69.8036V20.88H69.9036V20.78ZM70.1836 20.78H70.2836V20.68H70.1836V20.78ZM60.1036 32.12H60.0036V32.22H60.1036V32.12ZM60.1036 31.84H60.2036V31.74H60.1036V31.84ZM59.8236 31.84H59.7236V31.94H59.8236V31.84ZM59.8236 30.972V30.872H59.7236V30.972H59.8236ZM60.1036 30.972V31.072H60.2036V30.972H60.1036ZM60.1036 30.692V30.592H60.0036V30.692H60.1036ZM62.8896 30.692V30.792H62.9896V30.692H62.8896ZM62.8896 27.92V27.82H62.7896V27.92H62.8896ZM63.1696 27.92V28.02H63.2696V27.92H63.1696ZM63.1696 27.64V27.54H63.0696V27.64H63.1696ZM64.1776 27.64H64.2776V27.54H64.1776V27.64ZM64.1776 27.92H64.0776V28.02H64.1776V27.92ZM64.4576 27.92H64.5576V27.82H64.4576V27.92ZM64.4576 30.412H64.3576V30.512H64.4576V30.412ZM65.1016 30.412V30.512H65.2016V30.412H65.1016ZM65.1016 30.132V30.032H65.0016V30.132H65.1016ZM66.2216 30.132V30.232H66.3216V30.132H66.2216ZM66.2216 29.852V29.752H66.1216V29.852H66.2216ZM67.0616 29.852V29.952H67.1616V29.852H67.0616ZM67.0616 29.572V29.472H66.9616V29.572H67.0616ZM67.6216 29.572H67.7216V29.472H67.6216V29.572ZM67.6216 29.852H67.5216V29.952H67.6216V29.852ZM67.9016 29.852H68.0016V29.752H67.9016V29.852ZM67.9016 30.972V31.072H68.0016V30.972H67.9016ZM67.4816 30.972V30.872H67.3816V30.972H67.4816ZM67.4816 31.28V31.38H67.5816V31.28H67.4816ZM66.6416 31.28V31.18H66.5416V31.28H66.6416ZM66.6416 31.56V31.66H66.7416V31.56H66.6416ZM65.2416 31.56V31.46H65.1416V31.56H65.2416ZM65.2416 31.84V31.94H65.3416V31.84H65.2416ZM63.7016 31.84V31.74H63.6016V31.84H63.7016ZM63.7016 32.12V32.22H63.8016V32.12H63.7016ZM66.9636 21.676H67.0636V21.576H66.9636V21.676ZM66.9636 21.956H66.8636V22.056H66.9636V21.956ZM67.2436 21.956H67.3436V21.856H67.2436V21.956ZM67.2436 22.796V22.896H67.3436V22.796H67.2436ZM66.9636 22.796V22.696H66.8636V22.796H66.9636ZM66.9636 23.076V23.176H67.0636V23.076H66.9636ZM64.5136 23.076V22.976H64.4136V23.076H64.5136ZM64.5136 23.804V23.904H64.6136V23.804H64.5136ZM64.2336 23.804V23.704H64.1336V23.804H64.2336ZM64.2336 24.308H64.1336V24.408H64.2336V24.308ZM64.5136 24.308H64.6136V24.208H64.5136V24.308ZM64.5136 24.588H64.4136V24.688H64.5136V24.588ZM64.7936 24.588H64.8936V24.488H64.7936V24.588ZM64.7936 24.868H64.6936V24.968H64.7936V24.868ZM65.0736 24.868H65.1736V24.768H65.0736V24.868ZM65.0736 25.148H64.9736V25.248H65.0736V25.148ZM65.3536 25.148H65.4536V25.048H65.3536V25.148ZM65.3536 25.428H65.2536V25.528H65.3536V25.428ZM65.6336 25.428H65.7336V25.328H65.6336V25.428ZM65.6336 25.708H65.5336V25.808H65.6336V25.708ZM65.9136 25.708H66.0136V25.608H65.9136V25.708ZM65.9136 25.988H65.8136V26.088H65.9136V25.988ZM66.1936 25.988H66.2936V25.888H66.1936V25.988ZM66.1936 26.268H66.0936V26.368H66.1936V26.268ZM66.6136 26.268H66.7136V26.168H66.6136V26.268ZM66.6136 26.548H66.5136V26.648H66.6136V26.548ZM67.0336 26.548H67.1336V26.448H67.0336V26.548ZM67.0336 26.828H66.9336V26.928H67.0336V26.828ZM67.3136 26.828H67.4136V26.728H67.3136V26.828ZM67.3136 27.276V27.376H67.4136V27.276H67.3136ZM67.0336 27.276V27.176H66.9336V27.276H67.0336ZM67.0336 27.696V27.796H67.1336V27.696H67.0336ZM66.7536 27.696V27.596H66.6536V27.696H66.7536ZM66.7536 27.976V28.076H66.8536V27.976H66.7536ZM65.9976 27.976H65.8976V28.076H65.9976V27.976ZM65.9976 27.696H66.0976V27.596H65.9976V27.696ZM65.7176 27.696H65.6176V27.796H65.7176V27.696ZM65.7176 27.416H65.8176V27.316H65.7176V27.416ZM65.2976 27.416H65.1976V27.516H65.2976V27.416ZM65.2976 27.136H65.3976V27.036H65.2976V27.136ZM65.0176 27.136H64.9176V27.236H65.0176V27.136ZM65.0176 26.856H65.1176V26.756H65.0176V26.856ZM64.5976 26.856H64.4976V26.956H64.5976V26.856ZM64.5976 26.576H64.6976V26.476H64.5976V26.576ZM64.3176 26.576H64.2176V26.676H64.3176V26.576ZM64.3176 26.296H64.4176V26.196H64.3176V26.296ZM64.0376 26.296H63.9376V26.396H64.0376V26.296ZM64.0376 26.016H64.1376V25.916H64.0376V26.016ZM63.7576 26.016H63.6576V26.116H63.7576V26.016ZM63.7576 25.736H63.8576V25.636H63.7576V25.736ZM63.3936 25.736V25.636H63.2936V25.736H63.3936ZM63.3936 26.156V26.256H63.4936V26.156H63.3936ZM63.1136 26.156V26.056H63.0136V26.156H63.1136ZM63.1136 26.576V26.676H63.2136V26.576H63.1136ZM62.8336 26.576V26.476H62.7336V26.576H62.8336ZM62.8336 26.856V26.956H62.9336V26.856H62.8336ZM62.5536 26.856V26.756H62.4536V26.856H62.5536ZM62.5536 27.29V27.39H62.6536V27.29H62.5536ZM62.2736 27.29V27.19H62.1736V27.29H62.2736ZM62.2736 27.57V27.67H62.3736V27.57H62.2736ZM61.9936 27.57V27.47H61.8936V27.57H61.9936ZM61.9936 27.85V27.95H62.0936V27.85H61.9936ZM61.6296 27.85V27.75H61.5296V27.85H61.6296ZM61.6296 28.13V28.23H61.7296V28.13H61.6296ZM61.2096 28.13V28.03H61.1096V28.13H61.2096ZM61.2096 28.41V28.51H61.3096V28.41H61.2096ZM60.8736 28.41H60.7736V28.51H60.8736V28.41ZM60.8736 28.116H60.9736V28.016H60.8736V28.116ZM60.4536 28.116H60.3536V28.216H60.4536V28.116ZM60.4536 27.696H60.5536V27.596H60.4536V27.696ZM60.1736 27.696H60.0736V27.796H60.1736V27.696ZM60.1736 27.136V27.036H60.0736V27.136H60.1736ZM60.4536 27.136V27.236H60.5536V27.136H60.4536ZM60.4536 26.856V26.756H60.3536V26.856H60.4536ZM60.8736 26.856V26.956H60.9736V26.856H60.8736ZM60.8736 26.576V26.476H60.7736V26.576H60.8736ZM61.1536 26.576V26.676H61.2536V26.576H61.1536ZM61.1536 26.296V26.196H61.0536V26.296H61.1536ZM61.4336 26.296V26.396H61.5336V26.296H61.4336ZM61.4336 25.876V25.776H61.3336V25.876H61.4336ZM61.7136 25.876V25.976H61.8136V25.876H61.7136ZM61.7136 25.456V25.356H61.6136V25.456H61.7136ZM61.9936 25.456V25.556H62.0936V25.456H61.9936ZM61.9936 24.896V24.796H61.8936V24.896H61.9936ZM62.2736 24.896V24.996H62.3736V24.896H62.2736ZM62.2736 24.336V24.236H62.1736V24.336H62.2736ZM62.5536 24.336V24.436H62.6536V24.336H62.5536ZM62.5536 23.776V23.676H62.4536V23.776H62.5536ZM62.8336 23.776V23.876H62.9336V23.776H62.8336ZM62.8336 23.076H62.9336V22.976H62.8336V23.076ZM60.4816 23.076H60.3816V23.176H60.4816V23.076ZM60.4816 22.796H60.5816V22.696H60.4816V22.796ZM60.2016 22.796H60.1016V22.896H60.2016V22.796ZM60.2016 21.956V21.856H60.1016V21.956H60.2016ZM60.4816 21.956V22.056H60.5816V21.956H60.4816ZM60.4816 21.676V21.576H60.3816V21.676H60.4816ZM62.8476 21.676V21.776H62.9476V21.676H62.8476ZM62.8476 20.5V20.4H62.7476V20.5H62.8476ZM63.1276 20.5V20.6H63.2276V20.5H63.1276ZM63.1276 20.22V20.12H63.0276V20.22H63.1276ZM64.2896 20.22H64.3896V20.12H64.2896V20.22ZM64.2896 20.5H64.1896V20.6H64.2896V20.5ZM64.5696 20.5H64.6696V20.4H64.5696V20.5ZM64.5696 21.676H64.4696V21.776H64.5696V21.676ZM70.1836 32.4V32.3H69.9036V32.4V32.5H70.1836V32.4ZM69.9036 32.4H69.8036V32.68H69.9036H70.0036V32.4H69.9036ZM69.9036 32.68V32.58H68.7276V32.68V32.78H69.9036V32.68ZM68.7276 32.68H68.8276V32.4H68.7276H68.6276V32.68H68.7276ZM68.7276 32.4V32.3H68.4476V32.4V32.5H68.7276V32.4ZM68.4476 32.4H68.5476V20.78H68.4476H68.3476V32.4H68.4476ZM68.4476 20.78V20.88H68.7276V20.78V20.68H68.4476V20.78ZM68.7276 20.78H68.8276V20.5H68.7276H68.6276V20.78H68.7276ZM68.7276 20.5V20.6H69.9036V20.5V20.4H68.7276V20.5ZM69.9036 20.5H69.8036V20.78H69.9036H70.0036V20.5H69.9036ZM69.9036 20.78V20.88H70.1836V20.78V20.68H69.9036V20.78ZM70.1836 20.78H70.0836V32.4H70.1836H70.2836V20.78H70.1836ZM60.1036 32.12H60.2036V31.84H60.1036H60.0036V32.12H60.1036ZM60.1036 31.84V31.74H59.8236V31.84V31.94H60.1036V31.84ZM59.8236 31.84H59.9236V30.972H59.8236H59.7236V31.84H59.8236ZM59.8236 30.972V31.072H60.1036V30.972V30.872H59.8236V30.972ZM60.1036 30.972H60.2036V30.692H60.1036H60.0036V30.972H60.1036ZM60.1036 30.692V30.792H62.8896V30.692V30.592H60.1036V30.692ZM62.8896 30.692H62.9896V27.92H62.8896H62.7896V30.692H62.8896ZM62.8896 27.92V28.02H63.1696V27.92V27.82H62.8896V27.92ZM63.1696 27.92H63.2696V27.64H63.1696H63.0696V27.92H63.1696ZM63.1696 27.64V27.74H64.1776V27.64V27.54H63.1696V27.64ZM64.1776 27.64H64.0776V27.92H64.1776H64.2776V27.64H64.1776ZM64.1776 27.92V28.02H64.4576V27.92V27.82H64.1776V27.92ZM64.4576 27.92H64.3576V30.412H64.4576H64.5576V27.92H64.4576ZM64.4576 30.412V30.512H65.1016V30.412V30.312H64.4576V30.412ZM65.1016 30.412H65.2016V30.132H65.1016H65.0016V30.412H65.1016ZM65.1016 30.132V30.232H66.2216V30.132V30.032H65.1016V30.132ZM66.2216 30.132H66.3216V29.852H66.2216H66.1216V30.132H66.2216ZM66.2216 29.852V29.952H67.0616V29.852V29.752H66.2216V29.852ZM67.0616 29.852H67.1616V29.572H67.0616H66.9616V29.852H67.0616ZM67.0616 29.572V29.672H67.6216V29.572V29.472H67.0616V29.572ZM67.6216 29.572H67.5216V29.852H67.6216H67.7216V29.572H67.6216ZM67.6216 29.852V29.952H67.9016V29.852V29.752H67.6216V29.852ZM67.9016 29.852H67.8016V30.972H67.9016H68.0016V29.852H67.9016ZM67.9016 30.972V30.872H67.4816V30.972V31.072H67.9016V30.972ZM67.4816 30.972H67.3816V31.28H67.4816H67.5816V30.972H67.4816ZM67.4816 31.28V31.18H66.6416V31.28V31.38H67.4816V31.28ZM66.6416 31.28H66.5416V31.56H66.6416H66.7416V31.28H66.6416ZM66.6416 31.56V31.46H65.2416V31.56V31.66H66.6416V31.56ZM65.2416 31.56H65.1416V31.84H65.2416H65.3416V31.56H65.2416ZM65.2416 31.84V31.74H63.7016V31.84V31.94H65.2416V31.84ZM63.7016 31.84H63.6016V32.12H63.7016H63.8016V31.84H63.7016ZM63.7016 32.12V32.02H60.1036V32.12V32.22H63.7016V32.12ZM66.9636 21.676H66.8636V21.956H66.9636H67.0636V21.676H66.9636ZM66.9636 21.956V22.056H67.2436V21.956V21.856H66.9636V21.956ZM67.2436 21.956H67.1436V22.796H67.2436H67.3436V21.956H67.2436ZM67.2436 22.796V22.696H66.9636V22.796V22.896H67.2436V22.796ZM66.9636 22.796H66.8636V23.076H66.9636H67.0636V22.796H66.9636ZM66.9636 23.076V22.976H64.5136V23.076V23.176H66.9636V23.076ZM64.5136 23.076H64.4136V23.804H64.5136H64.6136V23.076H64.5136ZM64.5136 23.804V23.704H64.2336V23.804V23.904H64.5136V23.804ZM64.2336 23.804H64.1336V24.308H64.2336H64.3336V23.804H64.2336ZM64.2336 24.308V24.408H64.5136V24.308V24.208H64.2336V24.308ZM64.5136 24.308H64.4136V24.588H64.5136H64.6136V24.308H64.5136ZM64.5136 24.588V24.688H64.7936V24.588V24.488H64.5136V24.588ZM64.7936 24.588H64.6936V24.868H64.7936H64.8936V24.588H64.7936ZM64.7936 24.868V24.968H65.0736V24.868V24.768H64.7936V24.868ZM65.0736 24.868H64.9736V25.148H65.0736H65.1736V24.868H65.0736ZM65.0736 25.148V25.248H65.3536V25.148V25.048H65.0736V25.148ZM65.3536 25.148H65.2536V25.428H65.3536H65.4536V25.148H65.3536ZM65.3536 25.428V25.528H65.6336V25.428V25.328H65.3536V25.428ZM65.6336 25.428H65.5336V25.708H65.6336H65.7336V25.428H65.6336ZM65.6336 25.708V25.808H65.9136V25.708V25.608H65.6336V25.708ZM65.9136 25.708H65.8136V25.988H65.9136H66.0136V25.708H65.9136ZM65.9136 25.988V26.088H66.1936V25.988V25.888H65.9136V25.988ZM66.1936 25.988H66.0936V26.268H66.1936H66.2936V25.988H66.1936ZM66.1936 26.268V26.368H66.6136V26.268V26.168H66.1936V26.268ZM66.6136 26.268H66.5136V26.548H66.6136H66.7136V26.268H66.6136ZM66.6136 26.548V26.648H67.0336V26.548V26.448H66.6136V26.548ZM67.0336 26.548H66.9336V26.828H67.0336H67.1336V26.548H67.0336ZM67.0336 26.828V26.928H67.3136V26.828V26.728H67.0336V26.828ZM67.3136 26.828H67.2136V27.276H67.3136H67.4136V26.828H67.3136ZM67.3136 27.276V27.176H67.0336V27.276V27.376H67.3136V27.276ZM67.0336 27.276H66.9336V27.696H67.0336H67.1336V27.276H67.0336ZM67.0336 27.696V27.596H66.7536V27.696V27.796H67.0336V27.696ZM66.7536 27.696H66.6536V27.976H66.7536H66.8536V27.696H66.7536ZM66.7536 27.976V27.876H65.9976V27.976V28.076H66.7536V27.976ZM65.9976 27.976H66.0976V27.696H65.9976H65.8976V27.976H65.9976ZM65.9976 27.696V27.596H65.7176V27.696V27.796H65.9976V27.696ZM65.7176 27.696H65.8176V27.416H65.7176H65.6176V27.696H65.7176ZM65.7176 27.416V27.316H65.2976V27.416V27.516H65.7176V27.416ZM65.2976 27.416H65.3976V27.136H65.2976H65.1976V27.416H65.2976ZM65.2976 27.136V27.036H65.0176V27.136V27.236H65.2976V27.136ZM65.0176 27.136H65.1176V26.856H65.0176H64.9176V27.136H65.0176ZM65.0176 26.856V26.756H64.5976V26.856V26.956H65.0176V26.856ZM64.5976 26.856H64.6976V26.576H64.5976H64.4976V26.856H64.5976ZM64.5976 26.576V26.476H64.3176V26.576V26.676H64.5976V26.576ZM64.3176 26.576H64.4176V26.296H64.3176H64.2176V26.576H64.3176ZM64.3176 26.296V26.196H64.0376V26.296V26.396H64.3176V26.296ZM64.0376 26.296H64.1376V26.016H64.0376H63.9376V26.296H64.0376ZM64.0376 26.016V25.916H63.7576V26.016V26.116H64.0376V26.016ZM63.7576 26.016H63.8576V25.736H63.7576H63.6576V26.016H63.7576ZM63.7576 25.736V25.636H63.3936V25.736V25.836H63.7576V25.736ZM63.3936 25.736H63.2936V26.156H63.3936H63.4936V25.736H63.3936ZM63.3936 26.156V26.056H63.1136V26.156V26.256H63.3936V26.156ZM63.1136 26.156H63.0136V26.576H63.1136H63.2136V26.156H63.1136ZM63.1136 26.576V26.476H62.8336V26.576V26.676H63.1136V26.576ZM62.8336 26.576H62.7336V26.856H62.8336H62.9336V26.576H62.8336ZM62.8336 26.856V26.756H62.5536V26.856V26.956H62.8336V26.856ZM62.5536 26.856H62.4536V27.29H62.5536H62.6536V26.856H62.5536ZM62.5536 27.29V27.19H62.2736V27.29V27.39H62.5536V27.29ZM62.2736 27.29H62.1736V27.57H62.2736H62.3736V27.29H62.2736ZM62.2736 27.57V27.47H61.9936V27.57V27.67H62.2736V27.57ZM61.9936 27.57H61.8936V27.85H61.9936H62.0936V27.57H61.9936ZM61.9936 27.85V27.75H61.6296V27.85V27.95H61.9936V27.85ZM61.6296 27.85H61.5296V28.13H61.6296H61.7296V27.85H61.6296ZM61.6296 28.13V28.03H61.2096V28.13V28.23H61.6296V28.13ZM61.2096 28.13H61.1096V28.41H61.2096H61.3096V28.13H61.2096ZM61.2096 28.41V28.31H60.8736V28.41V28.51H61.2096V28.41ZM60.8736 28.41H60.9736V28.116H60.8736H60.7736V28.41H60.8736ZM60.8736 28.116V28.016H60.4536V28.116V28.216H60.8736V28.116ZM60.4536 28.116H60.5536V27.696H60.4536H60.3536V28.116H60.4536ZM60.4536 27.696V27.596H60.1736V27.696V27.796H60.4536V27.696ZM60.1736 27.696H60.2736V27.136H60.1736H60.0736V27.696H60.1736ZM60.1736 27.136V27.236H60.4536V27.136V27.036H60.1736V27.136ZM60.4536 27.136H60.5536V26.856H60.4536H60.3536V27.136H60.4536ZM60.4536 26.856V26.956H60.8736V26.856V26.756H60.4536V26.856ZM60.8736 26.856H60.9736V26.576H60.8736H60.7736V26.856H60.8736ZM60.8736 26.576V26.676H61.1536V26.576V26.476H60.8736V26.576ZM61.1536 26.576H61.2536V26.296H61.1536H61.0536V26.576H61.1536ZM61.1536 26.296V26.396H61.4336V26.296V26.196H61.1536V26.296ZM61.4336 26.296H61.5336V25.876H61.4336H61.3336V26.296H61.4336ZM61.4336 25.876V25.976H61.7136V25.876V25.776H61.4336V25.876ZM61.7136 25.876H61.8136V25.456H61.7136H61.6136V25.876H61.7136ZM61.7136 25.456V25.556H61.9936V25.456V25.356H61.7136V25.456ZM61.9936 25.456H62.0936V24.896H61.9936H61.8936V25.456H61.9936ZM61.9936 24.896V24.996H62.2736V24.896V24.796H61.9936V24.896ZM62.2736 24.896H62.3736V24.336H62.2736H62.1736V24.896H62.2736ZM62.2736 24.336V24.436H62.5536V24.336V24.236H62.2736V24.336ZM62.5536 24.336H62.6536V23.776H62.5536H62.4536V24.336H62.5536ZM62.5536 23.776V23.876H62.8336V23.776V23.676H62.5536V23.776ZM62.8336 23.776H62.9336V23.076H62.8336H62.7336V23.776H62.8336ZM62.8336 23.076V22.976H60.4816V23.076V23.176H62.8336V23.076ZM60.4816 23.076H60.5816V22.796H60.4816H60.3816V23.076H60.4816ZM60.4816 22.796V22.696H60.2016V22.796V22.896H60.4816V22.796ZM60.2016 22.796H60.3016V21.956H60.2016H60.1016V22.796H60.2016ZM60.2016 21.956V22.056H60.4816V21.956V21.856H60.2016V21.956ZM60.4816 21.956H60.5816V21.676H60.4816H60.3816V21.956H60.4816ZM60.4816 21.676V21.776H62.8476V21.676V21.576H60.4816V21.676ZM62.8476 21.676H62.9476V20.5H62.8476H62.7476V21.676H62.8476ZM62.8476 20.5V20.6H63.1276V20.5V20.4H62.8476V20.5ZM63.1276 20.5H63.2276V20.22H63.1276H63.0276V20.5H63.1276ZM63.1276 20.22V20.32H64.2896V20.22V20.12H63.1276V20.22ZM64.2896 20.22H64.1896V20.5H64.2896H64.3896V20.22H64.2896ZM64.2896 20.5V20.6H64.5696V20.5V20.4H64.2896V20.5ZM64.5696 20.5H64.4696V21.676H64.5696H64.6696V20.5H64.5696ZM64.5696 21.676V21.776H66.9636V21.676V21.576H64.5696V21.676ZM75.1791 26.296H75.0791V26.396H75.1791V26.296ZM75.1791 26.016H75.2791V25.916H75.1791V26.016ZM74.4791 26.016H74.3791V26.116H74.4791V26.016ZM74.4791 25.736H74.5791V25.636H74.4791V25.736ZM73.7791 25.736H73.6791V25.836H73.7791V25.736ZM73.7791 25.456H73.8791V25.356H73.7791V25.456ZM73.3591 25.456H73.2591V25.556H73.3591V25.456ZM73.3591 25.176H73.4591V25.076H73.3591V25.176ZM72.9391 25.176H72.8391V25.276H72.9391V25.176ZM72.9391 24.756H73.0391V24.656H72.9391V24.756ZM72.6591 24.756H72.5591V24.856H72.6591V24.756ZM72.6591 24.056H72.7591V23.956H72.6591V24.056ZM72.3791 24.056H72.2791V24.156H72.3791V24.056ZM72.3791 22.88V22.78H72.2791V22.88H72.3791ZM72.6591 22.88V22.98H72.7591V22.88H72.6591ZM72.6591 22.18V22.08H72.5591V22.18H72.6591ZM72.9391 22.18V22.28H73.0391V22.18H72.9391ZM72.9391 21.76V21.66H72.8391V21.76H72.9391ZM73.3591 21.76V21.86H73.4591V21.76H73.3591ZM73.3591 21.48V21.38H73.2591V21.48H73.3591ZM73.7791 21.48V21.58H73.8791V21.48H73.7791ZM73.7791 21.2V21.1H73.6791V21.2H73.7791ZM74.4791 21.2V21.3H74.5791V21.2H74.4791ZM74.4791 20.92V20.82H74.3791V20.92H74.4791ZM75.1791 20.92V21.02H75.2791V20.92H75.1791ZM75.1791 20.64V20.54H75.0791V20.64H75.1791ZM79.7991 20.64H79.8991V20.54H79.7991V20.64ZM79.7991 20.92H79.6991V21.02H79.7991V20.92ZM80.4991 20.92H80.5991V20.82H80.4991V20.92ZM80.4991 21.2H80.3991V21.3H80.4991V21.2ZM81.1991 21.2H81.2991V21.1H81.1991V21.2ZM81.1991 21.48H81.0991V21.58H81.1991V21.48ZM81.6191 21.48H81.7191V21.38H81.6191V21.48ZM81.6191 21.76H81.5191V21.86H81.6191V21.76ZM82.0391 21.76H82.1391V21.66H82.0391V21.76ZM82.0391 22.18H81.9391V22.28H82.0391V22.18ZM82.3191 22.18H82.4191V22.08H82.3191V22.18ZM82.3191 22.88H82.2191V22.98H82.3191V22.88ZM82.5991 22.88H82.6991V22.78H82.5991V22.88ZM82.5991 24.056V24.156H82.6991V24.056H82.5991ZM82.3191 24.056V23.956H82.2191V24.056H82.3191ZM82.3191 24.756V24.856H82.4191V24.756H82.3191ZM82.0391 24.756V24.656H81.9391V24.756H82.0391ZM82.0391 25.176V25.276H82.1391V25.176H82.0391ZM81.6191 25.176V25.076H81.5191V25.176H81.6191ZM81.6191 25.456V25.556H81.7191V25.456H81.6191ZM81.1991 25.456V25.356H81.0991V25.456H81.1991ZM81.1991 25.736V25.836H81.2991V25.736H81.1991ZM80.4991 25.736V25.636H80.3991V25.736H80.4991ZM80.4991 26.016V26.116H80.5991V26.016H80.4991ZM79.7991 26.016V25.916H79.6991V26.016H79.7991ZM79.7991 26.296V26.396H79.8991V26.296H79.7991ZM74.0591 23.776H73.9591V23.876H74.0591V23.776ZM74.3391 23.776H74.4391V23.676H74.3391V23.776ZM74.3391 24.336H74.2391V24.436H74.3391V24.336ZM74.8991 24.336H74.9991V24.236H74.8991V24.336ZM74.8991 24.616H74.7991V24.716H74.8991V24.616ZM75.7391 24.616H75.8391V24.516H75.7391V24.616ZM75.7391 24.896H75.6391V24.996H75.7391V24.896ZM79.2391 24.896V24.996H79.3391V24.896H79.2391ZM79.2391 24.616V24.516H79.1391V24.616H79.2391ZM80.0791 24.616V24.716H80.1791V24.616H80.0791ZM80.0791 24.336V24.236H79.9791V24.336H80.0791ZM80.6391 24.336V24.436H80.7391V24.336H80.6391ZM80.6391 23.776V23.676H80.5391V23.776H80.6391ZM80.9191 23.776V23.876H81.0191V23.776H80.9191ZM80.9191 23.16H81.0191V23.06H80.9191V23.16ZM80.6391 23.16H80.5391V23.26H80.6391V23.16ZM80.6391 22.6H80.7391V22.5H80.6391V22.6ZM80.0791 22.6H79.9791V22.7H80.0791V22.6ZM80.0791 22.32H80.1791V22.22H80.0791V22.32ZM79.2391 22.32H79.1391V22.42H79.2391V22.32ZM79.2391 22.04H79.3391V21.94H79.2391V22.04ZM75.7391 22.04V21.94H75.6391V22.04H75.7391ZM75.7391 22.32V22.42H75.8391V22.32H75.7391ZM74.8991 22.32V22.22H74.7991V22.32H74.8991ZM74.8991 22.6V22.7H74.9991V22.6H74.8991ZM74.3391 22.6V22.5H74.2391V22.6H74.3391ZM74.3391 23.16V23.26H74.4391V23.16H74.3391ZM74.0591 23.16V23.06H73.9591V23.16H74.0591ZM72.2391 29.026H72.1391V29.126H72.2391V29.026ZM72.2391 28.746H72.3391V28.646H72.2391V28.746ZM71.9591 28.746H71.8591V28.846H71.9591V28.746ZM71.9591 27.85V27.75H71.8591V27.85H71.9591ZM72.2391 27.85V27.95H72.3391V27.85H72.2391ZM72.2391 27.57V27.47H72.1391V27.57H72.2391ZM82.7391 27.57H82.8391V27.47H82.7391V27.57ZM82.7391 27.85H82.6391V27.95H82.7391V27.85ZM83.0191 27.85H83.1191V27.75H83.0191V27.85ZM83.0191 28.746V28.846H83.1191V28.746H83.0191ZM82.7391 28.746V28.646H82.6391V28.746H82.7391ZM82.7391 29.026V29.126H82.8391V29.026H82.7391ZM80.7651 29.026V28.926H80.6651V29.026H80.7651ZM80.7651 32.4V32.5H80.8651V32.4H80.7651ZM80.4851 32.4V32.3H80.3851V32.4H80.4851ZM80.4851 32.68V32.78H80.5851V32.68H80.4851ZM79.3091 32.68H79.2091V32.78H79.3091V32.68ZM79.3091 32.4H79.4091V32.3H79.3091V32.4ZM79.0291 32.4H78.9291V32.5H79.0291V32.4ZM79.0291 29.026H79.1291V28.926H79.0291V29.026ZM76.0751 29.026V28.926H75.9751V29.026H76.0751ZM76.0751 31V31.1H76.1751V31H76.0751ZM75.7951 31V30.9H75.6951V31H75.7951ZM75.7951 32.12V32.22H75.8951V32.12H75.7951ZM75.5151 32.12V32.02H75.4151V32.12H75.5151ZM75.5151 32.68V32.78H75.6151V32.68H75.5151ZM74.0591 32.68H73.9591V32.78H74.0591V32.68ZM74.0591 32.4H74.1591V32.3H74.0591V32.4ZM73.7791 32.4H73.6791V32.5H73.7791V32.4ZM73.7791 31.56V31.46H73.6791V31.56H73.7791ZM74.0591 31.56V31.66H74.1591V31.56H74.0591ZM74.0591 30.58V30.48H73.9591V30.58H74.0591ZM74.3391 30.58V30.68H74.4391V30.58H74.3391ZM74.3391 29.026H74.4391V28.926H74.3391V29.026ZM75.1791 26.296H75.2791V26.016H75.1791H75.0791V26.296H75.1791ZM75.1791 26.016V25.916H74.4791V26.016V26.116H75.1791V26.016ZM74.4791 26.016H74.5791V25.736H74.4791H74.3791V26.016H74.4791ZM74.4791 25.736V25.636H73.7791V25.736V25.836H74.4791V25.736ZM73.7791 25.736H73.8791V25.456H73.7791H73.6791V25.736H73.7791ZM73.7791 25.456V25.356H73.3591V25.456V25.556H73.7791V25.456ZM73.3591 25.456H73.4591V25.176H73.3591H73.2591V25.456H73.3591ZM73.3591 25.176V25.076H72.9391V25.176V25.276H73.3591V25.176ZM72.9391 25.176H73.0391V24.756H72.9391H72.8391V25.176H72.9391ZM72.9391 24.756V24.656H72.6591V24.756V24.856H72.9391V24.756ZM72.6591 24.756H72.7591V24.056H72.6591H72.5591V24.756H72.6591ZM72.6591 24.056V23.956H72.3791V24.056V24.156H72.6591V24.056ZM72.3791 24.056H72.4791V22.88H72.3791H72.2791V24.056H72.3791ZM72.3791 22.88V22.98H72.6591V22.88V22.78H72.3791V22.88ZM72.6591 22.88H72.7591V22.18H72.6591H72.5591V22.88H72.6591ZM72.6591 22.18V22.28H72.9391V22.18V22.08H72.6591V22.18ZM72.9391 22.18H73.0391V21.76H72.9391H72.8391V22.18H72.9391ZM72.9391 21.76V21.86H73.3591V21.76V21.66H72.9391V21.76ZM73.3591 21.76H73.4591V21.48H73.3591H73.2591V21.76H73.3591ZM73.3591 21.48V21.58H73.7791V21.48V21.38H73.3591V21.48ZM73.7791 21.48H73.8791V21.2H73.7791H73.6791V21.48H73.7791ZM73.7791 21.2V21.3H74.4791V21.2V21.1H73.7791V21.2ZM74.4791 21.2H74.5791V20.92H74.4791H74.3791V21.2H74.4791ZM74.4791 20.92V21.02H75.1791V20.92V20.82H74.4791V20.92ZM75.1791 20.92H75.2791V20.64H75.1791H75.0791V20.92H75.1791ZM75.1791 20.64V20.74H79.7991V20.64V20.54H75.1791V20.64ZM79.7991 20.64H79.6991V20.92H79.7991H79.8991V20.64H79.7991ZM79.7991 20.92V21.02H80.4991V20.92V20.82H79.7991V20.92ZM80.4991 20.92H80.3991V21.2H80.4991H80.5991V20.92H80.4991ZM80.4991 21.2V21.3H81.1991V21.2V21.1H80.4991V21.2ZM81.1991 21.2H81.0991V21.48H81.1991H81.2991V21.2H81.1991ZM81.1991 21.48V21.58H81.6191V21.48V21.38H81.1991V21.48ZM81.6191 21.48H81.5191V21.76H81.6191H81.7191V21.48H81.6191ZM81.6191 21.76V21.86H82.0391V21.76V21.66H81.6191V21.76ZM82.0391 21.76H81.9391V22.18H82.0391H82.1391V21.76H82.0391ZM82.0391 22.18V22.28H82.3191V22.18V22.08H82.0391V22.18ZM82.3191 22.18H82.2191V22.88H82.3191H82.4191V22.18H82.3191ZM82.3191 22.88V22.98H82.5991V22.88V22.78H82.3191V22.88ZM82.5991 22.88H82.4991V24.056H82.5991H82.6991V22.88H82.5991ZM82.5991 24.056V23.956H82.3191V24.056V24.156H82.5991V24.056ZM82.3191 24.056H82.2191V24.756H82.3191H82.4191V24.056H82.3191ZM82.3191 24.756V24.656H82.0391V24.756V24.856H82.3191V24.756ZM82.0391 24.756H81.9391V25.176H82.0391H82.1391V24.756H82.0391ZM82.0391 25.176V25.076H81.6191V25.176V25.276H82.0391V25.176ZM81.6191 25.176H81.5191V25.456H81.6191H81.7191V25.176H81.6191ZM81.6191 25.456V25.356H81.1991V25.456V25.556H81.6191V25.456ZM81.1991 25.456H81.0991V25.736H81.1991H81.2991V25.456H81.1991ZM81.1991 25.736V25.636H80.4991V25.736V25.836H81.1991V25.736ZM80.4991 25.736H80.3991V26.016H80.4991H80.5991V25.736H80.4991ZM80.4991 26.016V25.916H79.7991V26.016V26.116H80.4991V26.016ZM79.7991 26.016H79.6991V26.296H79.7991H79.8991V26.016H79.7991ZM79.7991 26.296V26.196H75.1791V26.296V26.396H79.7991V26.296ZM74.0591 23.776V23.876H74.3391V23.776V23.676H74.0591V23.776ZM74.3391 23.776H74.2391V24.336H74.3391H74.4391V23.776H74.3391ZM74.3391 24.336V24.436H74.8991V24.336V24.236H74.3391V24.336ZM74.8991 24.336H74.7991V24.616H74.8991H74.9991V24.336H74.8991ZM74.8991 24.616V24.716H75.7391V24.616V24.516H74.8991V24.616ZM75.7391 24.616H75.6391V24.896H75.7391H75.8391V24.616H75.7391ZM75.7391 24.896V24.996H79.2391V24.896V24.796H75.7391V24.896ZM79.2391 24.896H79.3391V24.616H79.2391H79.1391V24.896H79.2391ZM79.2391 24.616V24.716H80.0791V24.616V24.516H79.2391V24.616ZM80.0791 24.616H80.1791V24.336H80.0791H79.9791V24.616H80.0791ZM80.0791 24.336V24.436H80.6391V24.336V24.236H80.0791V24.336ZM80.6391 24.336H80.7391V23.776H80.6391H80.5391V24.336H80.6391ZM80.6391 23.776V23.876H80.9191V23.776V23.676H80.6391V23.776ZM80.9191 23.776H81.0191V23.16H80.9191H80.8191V23.776H80.9191ZM80.9191 23.16V23.06H80.6391V23.16V23.26H80.9191V23.16ZM80.6391 23.16H80.7391V22.6H80.6391H80.5391V23.16H80.6391ZM80.6391 22.6V22.5H80.0791V22.6V22.7H80.6391V22.6ZM80.0791 22.6H80.1791V22.32H80.0791H79.9791V22.6H80.0791ZM80.0791 22.32V22.22H79.2391V22.32V22.42H80.0791V22.32ZM79.2391 22.32H79.3391V22.04H79.2391H79.1391V22.32H79.2391ZM79.2391 22.04V21.94H75.7391V22.04V22.14H79.2391V22.04ZM75.7391 22.04H75.6391V22.32H75.7391H75.8391V22.04H75.7391ZM75.7391 22.32V22.22H74.8991V22.32V22.42H75.7391V22.32ZM74.8991 22.32H74.7991V22.6H74.8991H74.9991V22.32H74.8991ZM74.8991 22.6V22.5H74.3391V22.6V22.7H74.8991V22.6ZM74.3391 22.6H74.2391V23.16H74.3391H74.4391V22.6H74.3391ZM74.3391 23.16V23.06H74.0591V23.16V23.26H74.3391V23.16ZM74.0591 23.16H73.9591V23.776H74.0591H74.1591V23.16H74.0591ZM72.2391 29.026H72.3391V28.746H72.2391H72.1391V29.026H72.2391ZM72.2391 28.746V28.646H71.9591V28.746V28.846H72.2391V28.746ZM71.9591 28.746H72.0591V27.85H71.9591H71.8591V28.746H71.9591ZM71.9591 27.85V27.95H72.2391V27.85V27.75H71.9591V27.85ZM72.2391 27.85H72.3391V27.57H72.2391H72.1391V27.85H72.2391ZM72.2391 27.57V27.67H82.7391V27.57V27.47H72.2391V27.57ZM82.7391 27.57H82.6391V27.85H82.7391H82.8391V27.57H82.7391ZM82.7391 27.85V27.95H83.0191V27.85V27.75H82.7391V27.85ZM83.0191 27.85H82.9191V28.746H83.0191H83.1191V27.85H83.0191ZM83.0191 28.746V28.646H82.7391V28.746V28.846H83.0191V28.746ZM82.7391 28.746H82.6391V29.026H82.7391H82.8391V28.746H82.7391ZM82.7391 29.026V28.926H80.7651V29.026V29.126H82.7391V29.026ZM80.7651 29.026H80.6651V32.4H80.7651H80.8651V29.026H80.7651ZM80.7651 32.4V32.3H80.4851V32.4V32.5H80.7651V32.4ZM80.4851 32.4H80.3851V32.68H80.4851H80.5851V32.4H80.4851ZM80.4851 32.68V32.58H79.3091V32.68V32.78H80.4851V32.68ZM79.3091 32.68H79.4091V32.4H79.3091H79.2091V32.68H79.3091ZM79.3091 32.4V32.3H79.0291V32.4V32.5H79.3091V32.4ZM79.0291 32.4H79.1291V29.026H79.0291H78.9291V32.4H79.0291ZM79.0291 29.026V28.926H76.0751V29.026V29.126H79.0291V29.026ZM76.0751 29.026H75.9751V31H76.0751H76.1751V29.026H76.0751ZM76.0751 31V30.9H75.7951V31V31.1H76.0751V31ZM75.7951 31H75.6951V32.12H75.7951H75.8951V31H75.7951ZM75.7951 32.12V32.02H75.5151V32.12V32.22H75.7951V32.12ZM75.5151 32.12H75.4151V32.68H75.5151H75.6151V32.12H75.5151ZM75.5151 32.68V32.58H74.0591V32.68V32.78H75.5151V32.68ZM74.0591 32.68H74.1591V32.4H74.0591H73.9591V32.68H74.0591ZM74.0591 32.4V32.3H73.7791V32.4V32.5H74.0591V32.4ZM73.7791 32.4H73.8791V31.56H73.7791H73.6791V32.4H73.7791ZM73.7791 31.56V31.66H74.0591V31.56V31.46H73.7791V31.56ZM74.0591 31.56H74.1591V30.58H74.0591H73.9591V31.56H74.0591ZM74.0591 30.58V30.68H74.3391V30.58V30.48H74.0591V30.58ZM74.3391 30.58H74.4391V29.026H74.3391H74.2391V30.58H74.3391ZM74.3391 29.026V28.926H72.2391V29.026V29.126H74.3391V29.026ZM94.5945 32.4V32.5H94.6945V32.4H94.5945ZM94.3145 32.4V32.3H94.2145V32.4H94.3145ZM94.3145 32.68V32.78H94.4145V32.68H94.3145ZM93.1385 32.68H93.0385V32.78H93.1385V32.68ZM93.1385 32.4H93.2385V32.3H93.1385V32.4ZM92.8585 32.4H92.7585V32.5H92.8585V32.4ZM92.8585 20.78V20.68H92.7585V20.78H92.8585ZM93.1385 20.78V20.88H93.2385V20.78H93.1385ZM93.1385 20.5V20.4H93.0385V20.5H93.1385ZM94.3145 20.5H94.4145V20.4H94.3145V20.5ZM94.3145 20.78H94.2145V20.88H94.3145V20.78ZM94.5945 20.78H94.6945V20.68H94.5945V20.78ZM84.5145 26.94V26.84H84.4145V26.94H84.5145ZM84.7945 26.94V27.04H84.8945V26.94H84.7945ZM84.7945 26.38V26.28H84.6945V26.38H84.7945ZM85.0745 26.38V26.48H85.1745V26.38H85.0745ZM85.0745 26.1V26H84.9745V26.1H85.0745ZM85.3545 26.1V26.2H85.4545V26.1H85.3545ZM85.3545 25.82V25.72H85.2545V25.82H85.3545ZM85.9145 25.82V25.92H86.0145V25.82H85.9145ZM85.9145 25.54V25.44H85.8145V25.54H85.9145ZM88.6025 25.54V25.64H88.7025V25.54H88.6025ZM88.6025 25.26V25.16H88.5025V25.26H88.6025ZM88.8825 25.26V25.36H88.9825V25.26H88.8825ZM88.8825 24.42V24.32H88.7825V24.42H88.8825ZM89.1625 24.42V24.52H89.2625V24.42H89.1625ZM89.1625 22.46H89.2625V22.36H89.1625V22.46ZM88.8825 22.46H88.7825V22.56H88.8825V22.46ZM88.8825 22.18H88.9825V22.08H88.8825V22.18ZM84.7945 22.18H84.6945V22.28H84.7945V22.18ZM84.7945 21.9H84.8945V21.8H84.7945V21.9ZM84.5145 21.9H84.4145V22H84.5145V21.9ZM84.5145 21.06V20.96H84.4145V21.06H84.5145ZM84.7945 21.06V21.16H84.8945V21.06H84.7945ZM84.7945 20.78V20.68H84.6945V20.78H84.7945ZM89.4985 20.78H89.5985V20.68H89.4985V20.78ZM89.4985 21.06H89.3985V21.16H89.4985V21.06ZM90.0585 21.06H90.1585V20.96H90.0585V21.06ZM90.0585 21.34H89.9585V21.44H90.0585V21.34ZM90.3385 21.34H90.4385V21.24H90.3385V21.34ZM90.3385 21.62H90.2385V21.72H90.3385V21.62ZM90.6185 21.62H90.7185V21.52H90.6185V21.62ZM90.6185 22.18H90.5185V22.28H90.6185V22.18ZM90.8985 22.18H90.9985V22.08H90.8985V22.18ZM90.8985 24.364V24.464H90.9985V24.364H90.8985ZM90.6185 24.364V24.264H90.5185V24.364H90.6185ZM90.6185 25.484V25.584H90.7185V25.484H90.6185ZM90.3385 25.484V25.384H90.2385V25.484H90.3385ZM90.3385 26.044V26.144H90.4385V26.044H90.3385ZM90.0585 26.044V25.944H89.9585V26.044H90.0585ZM90.0585 26.604V26.704H90.1585V26.604H90.0585ZM89.4985 26.604V26.504H89.3985V26.604H89.4985ZM89.4985 26.884V26.984H89.5985V26.884H89.4985ZM86.5305 26.884V26.784H86.4305V26.884H86.5305ZM86.5305 27.164V27.264H86.6305V27.164H86.5305ZM86.2505 27.164V27.064H86.1505V27.164H86.2505ZM86.2505 30.44H86.1505V30.54H86.2505V30.44ZM86.5305 30.44H86.6305V30.34H86.5305V30.44ZM86.5305 30.72H86.4305V30.82H86.5305V30.72ZM87.6785 30.72V30.82H87.7785V30.72H87.6785ZM87.6785 30.44V30.34H87.5785V30.44H87.6785ZM89.0785 30.44V30.54H89.1785V30.44H89.0785ZM89.0785 30.16V30.06H88.9785V30.16H89.0785ZM89.9185 30.16V30.26H90.0185V30.16H89.9185ZM89.9185 29.88V29.78H89.8185V29.88H89.9185ZM90.4785 29.88V29.98H90.5785V29.88H90.4785ZM90.4785 29.6V29.5H90.3785V29.6H90.4785ZM90.8985 29.6V29.7H90.9985V29.6H90.8985ZM90.8985 29.32V29.22H90.7985V29.32H90.8985ZM91.4585 29.32H91.5585V29.22H91.4585V29.32ZM91.4585 29.6H91.3585V29.7H91.4585V29.6ZM91.7385 29.6H91.8385V29.5H91.7385V29.6ZM91.7385 29.88H91.6385V29.98H91.7385V29.88ZM92.0185 29.88H92.1185V29.78H92.0185V29.88ZM92.0185 30.72V30.82H92.1185V30.72H92.0185ZM91.7385 30.72V30.62H91.6385V30.72H91.7385ZM91.7385 31V31.1H91.8385V31H91.7385ZM91.1785 31V30.9H91.0785V31H91.1785ZM91.1785 31.28V31.38H91.2785V31.28H91.1785ZM90.6185 31.28V31.18H90.5185V31.28H90.6185ZM90.6185 31.56V31.66H90.7185V31.56H90.6185ZM89.4985 31.56V31.46H89.3985V31.56H89.4985ZM89.4985 31.84V31.94H89.5985V31.84H89.4985ZM88.2385 31.84V31.74H88.1385V31.84H88.2385ZM88.2385 32.12V32.22H88.3385V32.12H88.2385ZM85.9145 32.12H85.8145V32.22H85.9145V32.12ZM85.9145 31.84H86.0145V31.74H85.9145V31.84ZM85.3545 31.84H85.2545V31.94H85.3545V31.84ZM85.3545 31.56H85.4545V31.46H85.3545V31.56ZM85.0745 31.56H84.9745V31.66H85.0745V31.56ZM85.0745 31.28H85.1745V31.18H85.0745V31.28ZM84.7945 31.28H84.6945V31.38H84.7945V31.28ZM84.7945 30.72H84.8945V30.62H84.7945V30.72ZM84.5145 30.72H84.4145V30.82H84.5145V30.72ZM94.5945 32.4V32.3H94.3145V32.4V32.5H94.5945V32.4ZM94.3145 32.4H94.2145V32.68H94.3145H94.4145V32.4H94.3145ZM94.3145 32.68V32.58H93.1385V32.68V32.78H94.3145V32.68ZM93.1385 32.68H93.2385V32.4H93.1385H93.0385V32.68H93.1385ZM93.1385 32.4V32.3H92.8585V32.4V32.5H93.1385V32.4ZM92.8585 32.4H92.9585V20.78H92.8585H92.7585V32.4H92.8585ZM92.8585 20.78V20.88H93.1385V20.78V20.68H92.8585V20.78ZM93.1385 20.78H93.2385V20.5H93.1385H93.0385V20.78H93.1385ZM93.1385 20.5V20.6H94.3145V20.5V20.4H93.1385V20.5ZM94.3145 20.5H94.2145V20.78H94.3145H94.4145V20.5H94.3145ZM94.3145 20.78V20.88H94.5945V20.78V20.68H94.3145V20.78ZM94.5945 20.78H94.4945V32.4H94.5945H94.6945V20.78H94.5945ZM84.5145 26.94V27.04H84.7945V26.94V26.84H84.5145V26.94ZM84.7945 26.94H84.8945V26.38H84.7945H84.6945V26.94H84.7945ZM84.7945 26.38V26.48H85.0745V26.38V26.28H84.7945V26.38ZM85.0745 26.38H85.1745V26.1H85.0745H84.9745V26.38H85.0745ZM85.0745 26.1V26.2H85.3545V26.1V26H85.0745V26.1ZM85.3545 26.1H85.4545V25.82H85.3545H85.2545V26.1H85.3545ZM85.3545 25.82V25.92H85.9145V25.82V25.72H85.3545V25.82ZM85.9145 25.82H86.0145V25.54H85.9145H85.8145V25.82H85.9145ZM85.9145 25.54V25.64H88.6025V25.54V25.44H85.9145V25.54ZM88.6025 25.54H88.7025V25.26H88.6025H88.5025V25.54H88.6025ZM88.6025 25.26V25.36H88.8825V25.26V25.16H88.6025V25.26ZM88.8825 25.26H88.9825V24.42H88.8825H88.7825V25.26H88.8825ZM88.8825 24.42V24.52H89.1625V24.42V24.32H88.8825V24.42ZM89.1625 24.42H89.2625V22.46H89.1625H89.0625V24.42H89.1625ZM89.1625 22.46V22.36H88.8825V22.46V22.56H89.1625V22.46ZM88.8825 22.46H88.9825V22.18H88.8825H88.7825V22.46H88.8825ZM88.8825 22.18V22.08H84.7945V22.18V22.28H88.8825V22.18ZM84.7945 22.18H84.8945V21.9H84.7945H84.6945V22.18H84.7945ZM84.7945 21.9V21.8H84.5145V21.9V22H84.7945V21.9ZM84.5145 21.9H84.6145V21.06H84.5145H84.4145V21.9H84.5145ZM84.5145 21.06V21.16H84.7945V21.06V20.96H84.5145V21.06ZM84.7945 21.06H84.8945V20.78H84.7945H84.6945V21.06H84.7945ZM84.7945 20.78V20.88H89.4985V20.78V20.68H84.7945V20.78ZM89.4985 20.78H89.3985V21.06H89.4985H89.5985V20.78H89.4985ZM89.4985 21.06V21.16H90.0585V21.06V20.96H89.4985V21.06ZM90.0585 21.06H89.9585V21.34H90.0585H90.1585V21.06H90.0585ZM90.0585 21.34V21.44H90.3385V21.34V21.24H90.0585V21.34ZM90.3385 21.34H90.2385V21.62H90.3385H90.4385V21.34H90.3385ZM90.3385 21.62V21.72H90.6185V21.62V21.52H90.3385V21.62ZM90.6185 21.62H90.5185V22.18H90.6185H90.7185V21.62H90.6185ZM90.6185 22.18V22.28H90.8985V22.18V22.08H90.6185V22.18ZM90.8985 22.18H90.7985V24.364H90.8985H90.9985V22.18H90.8985ZM90.8985 24.364V24.264H90.6185V24.364V24.464H90.8985V24.364ZM90.6185 24.364H90.5185V25.484H90.6185H90.7185V24.364H90.6185ZM90.6185 25.484V25.384H90.3385V25.484V25.584H90.6185V25.484ZM90.3385 25.484H90.2385V26.044H90.3385H90.4385V25.484H90.3385ZM90.3385 26.044V25.944H90.0585V26.044V26.144H90.3385V26.044ZM90.0585 26.044H89.9585V26.604H90.0585H90.1585V26.044H90.0585ZM90.0585 26.604V26.504H89.4985V26.604V26.704H90.0585V26.604ZM89.4985 26.604H89.3985V26.884H89.4985H89.5985V26.604H89.4985ZM89.4985 26.884V26.784H86.5305V26.884V26.984H89.4985V26.884ZM86.5305 26.884H86.4305V27.164H86.5305H86.6305V26.884H86.5305ZM86.5305 27.164V27.064H86.2505V27.164V27.264H86.5305V27.164ZM86.2505 27.164H86.1505V30.44H86.2505H86.3505V27.164H86.2505ZM86.2505 30.44V30.54H86.5305V30.44V30.34H86.2505V30.44ZM86.5305 30.44H86.4305V30.72H86.5305H86.6305V30.44H86.5305ZM86.5305 30.72V30.82H87.6785V30.72V30.62H86.5305V30.72ZM87.6785 30.72H87.7785V30.44H87.6785H87.5785V30.72H87.6785ZM87.6785 30.44V30.54H89.0785V30.44V30.34H87.6785V30.44ZM89.0785 30.44H89.1785V30.16H89.0785H88.9785V30.44H89.0785ZM89.0785 30.16V30.26H89.9185V30.16V30.06H89.0785V30.16ZM89.9185 30.16H90.0185V29.88H89.9185H89.8185V30.16H89.9185ZM89.9185 29.88V29.98H90.4785V29.88V29.78H89.9185V29.88ZM90.4785 29.88H90.5785V29.6H90.4785H90.3785V29.88H90.4785ZM90.4785 29.6V29.7H90.8985V29.6V29.5H90.4785V29.6ZM90.8985 29.6H90.9985V29.32H90.8985H90.7985V29.6H90.8985ZM90.8985 29.32V29.42H91.4585V29.32V29.22H90.8985V29.32ZM91.4585 29.32H91.3585V29.6H91.4585H91.5585V29.32H91.4585ZM91.4585 29.6V29.7H91.7385V29.6V29.5H91.4585V29.6ZM91.7385 29.6H91.6385V29.88H91.7385H91.8385V29.6H91.7385ZM91.7385 29.88V29.98H92.0185V29.88V29.78H91.7385V29.88ZM92.0185 29.88H91.9185V30.72H92.0185H92.1185V29.88H92.0185ZM92.0185 30.72V30.62H91.7385V30.72V30.82H92.0185V30.72ZM91.7385 30.72H91.6385V31H91.7385H91.8385V30.72H91.7385ZM91.7385 31V30.9H91.1785V31V31.1H91.7385V31ZM91.1785 31H91.0785V31.28H91.1785H91.2785V31H91.1785ZM91.1785 31.28V31.18H90.6185V31.28V31.38H91.1785V31.28ZM90.6185 31.28H90.5185V31.56H90.6185H90.7185V31.28H90.6185ZM90.6185 31.56V31.46H89.4985V31.56V31.66H90.6185V31.56ZM89.4985 31.56H89.3985V31.84H89.4985H89.5985V31.56H89.4985ZM89.4985 31.84V31.74H88.2385V31.84V31.94H89.4985V31.84ZM88.2385 31.84H88.1385V32.12H88.2385H88.3385V31.84H88.2385ZM88.2385 32.12V32.02H85.9145V32.12V32.22H88.2385V32.12ZM85.9145 32.12H86.0145V31.84H85.9145H85.8145V32.12H85.9145ZM85.9145 31.84V31.74H85.3545V31.84V31.94H85.9145V31.84ZM85.3545 31.84H85.4545V31.56H85.3545H85.2545V31.84H85.3545ZM85.3545 31.56V31.46H85.0745V31.56V31.66H85.3545V31.56ZM85.0745 31.56H85.1745V31.28H85.0745H84.9745V31.56H85.0745ZM85.0745 31.28V31.18H84.7945V31.28V31.38H85.0745V31.28ZM84.7945 31.28H84.8945V30.72H84.7945H84.6945V31.28H84.7945ZM84.7945 30.72V30.62H84.5145V30.72V30.82H84.7945V30.72ZM84.5145 30.72H84.6145V26.94H84.5145H84.4145V30.72H84.5145Z" fill="#007495"/>
<path d="M50.3652 38.3672L50.3643 38.3789C50.3512 38.9163 50.2036 39.4419 49.9346 39.9072C49.7191 40.2798 49.4317 40.6044 49.0898 40.8623C49.0043 40.9268 48.9617 40.9682 48.9395 40.9951C48.0848 42.033 47.007 42.8665 45.7852 43.4326C44.4931 44.0313 43.077 44.3128 41.6543 44.2559C37.043 44.2447 33.0832 41.2376 33.083 37.0078C33.083 32.7702 37.0575 29.7579 41.6797 29.7578C42.2781 29.744 42.8755 29.783 43.4648 29.873C43.5968 29.8932 43.7342 29.8544 43.832 29.7803C43.9231 29.7111 43.9482 29.6393 43.9482 29.5791V21.9697C43.948 21.8297 43.8076 21.7331 43.6768 21.7832L28.4102 27.6416C28.3328 27.6713 28.2812 27.7463 28.2812 27.8291V42.7959C28.2681 43.3331 28.1206 43.859 27.8516 44.3242C27.636 44.6968 27.3478 45.0214 27.0059 45.2793C26.9205 45.3437 26.8786 45.3852 26.8564 45.4121C26.0018 46.4501 24.9231 47.2835 23.7012 47.8496C22.4111 48.4473 20.9976 48.7287 19.5771 48.6729C14.9631 48.6644 11 45.6556 11 41.4238C11.0003 37.1935 14.961 34.185 19.5732 34.1748C20.1507 34.1615 20.7275 34.1969 21.2969 34.2803C21.4285 34.2996 21.5654 34.2614 21.6621 34.1875C21.7521 34.1187 21.7764 34.0473 21.7764 33.9873V17.0127C21.7822 16.3758 21.978 15.755 22.3379 15.2295C22.6528 14.7696 23.0814 14.4011 23.5801 14.1582L23.7979 14.0615L45.8799 5.22852H45.8809C46.3666 5.03478 46.8922 4.9627 47.4121 5.01855C47.932 5.07446 48.4308 5.25631 48.8643 5.54883L48.8633 5.5498C49.3003 5.82426 49.6658 6.19878 49.9268 6.64453C50.1955 7.10374 50.3459 7.62251 50.3643 8.1543L50.3652 8.17188V38.3672Z" fill="#FE96FF" stroke="white" stroke-width="2" stroke-miterlimit="2.3662"/>
</g>
<defs>
<filter id="filter0_dd_874_7154" x="0" y="0" width="185" height="60" filterUnits="userSpaceOnUse" color-interpolation-filters="sRGB">
<feFlood flood-opacity="0" result="BackgroundImageFix"/>
<feColorMatrix in="SourceAlpha" type="matrix" values="0 0 0 0 0 0 0 0 0 0 0 0 0 0 0 0 0 0 127 0" result="hardAlpha"/>
<feOffset dx="-2" dy="4"/>
<feGaussianBlur stdDeviation="1"/>
<feComposite in2="hardAlpha" operator="out"/>
<feColorMatrix type="matrix" values="0 0 0 0 0.109804 0 0 0 0 0.792157 0 0 0 0 0.984314 0 0 0 0.6 0"/>
<feBlend mode="normal" in2="BackgroundImageFix" result="effect1_dropShadow_874_7154"/>
<feColorMatrix in="SourceAlpha" type="matrix" values="0 0 0 0 0 0 0 0 0 0 0 0 0 0 0 0 0 0 127 0" result="hardAlpha"/>
<feOffset dx="-2" dy="4"/>
<feGaussianBlur stdDeviation="1"/>
<feComposite in2="hardAlpha" operator="out"/>
<feColorMatrix type="matrix" values="0 0 0 0 0 0 0 0 0 0 0 0 0 0 0 0 0 0 0.1 0"/>
<feBlend mode="normal" in2="effect1_dropShadow_874_7154" result="effect2_dropShadow_874_7154"/>
<feBlend mode="normal" in="SourceGraphic" in2="effect2_dropShadow_874_7154" result="shape"/>
</filter>
</defs>
</svg>
