<svg width="185" height="60" viewBox="0 0 185 60" fill="none" xmlns="http://www.w3.org/2000/svg">
<g filter="url(#filter0_dd_874_7039)">
<rect x="44" y="12" width="66" height="30" rx="4" fill="white"/>
<path d="M70.1836 32.4H69.9036V32.68H68.7276V32.4H68.4476V20.78H68.7276V20.5H69.9036V20.78H70.1836V32.4ZM60.3696 30.72H60.6496V30.44H61.0696V30.16H61.4896V29.88H61.9096V29.6H62.3296V29.32H62.6096V29.04H62.8896V28.76H63.1696V28.34H63.4496V27.92H63.7296V27.5H64.0096V27.08H64.2896V26.52H64.5696V26.226H60.3276V25.946H60.0476V25.036H60.3276V24.756H64.8496V24.07H65.1296V22.558H64.8496V22.278H60.5516V21.998H60.2716V21.102H60.5516V20.822H65.4376V21.102H65.9976V21.382H66.2776V21.662H66.5576V22.222H66.8376V24.784H66.5576V26.044H66.2776V26.884H65.9976V27.444H65.7176V28.004H65.4376V28.564H65.0876V28.984H64.8076V29.404H64.5276V29.824H64.2476V30.104H63.9676V30.384H63.6876V30.664H63.4076V30.944H62.9876V31.224H62.5676V31.504H62.1476V31.784H61.7276V32.064H60.9296V31.784H60.6496V31.224H60.3696V30.72ZM82.1091 32.4H81.8291V32.68H80.6531V32.4H80.3731V20.78H80.6531V20.5H81.8291V20.78H82.1091V25.386H83.2991V25.666H83.5791V26.618H83.2991V26.898H82.1091V32.4ZM72.1691 26.94H72.4491V26.38H72.7291V26.1H73.0091V25.82H73.5691V25.54H76.2571V25.26H76.5371V24.42H76.8171V22.46H76.5371V22.18H72.4491V21.9H72.1691V21.06H72.4491V20.78H77.1531V21.06H77.7131V21.34H77.9931V21.62H78.2731V22.18H78.5531V24.364H78.2731V25.484H77.9931V26.044H77.7131V26.604H77.1531V26.884H74.1851V27.164H73.9051V30.44H74.1851V30.72H75.3331V30.44H76.7331V30.16H77.5731V29.88H78.1331V29.6H78.5531V29.32H79.1131V29.6H79.3931V29.88H79.6731V30.72H79.3931V31H78.8331V31.28H78.2731V31.56H77.1531V31.84H75.8931V32.12H73.5691V31.84H73.0091V31.56H72.7291V31.28H72.4491V30.72H72.1691V26.94ZM90.1845 20.724V21.004H90.6045V21.284H90.8845V21.564H91.1645V21.984H90.8845V22.404H90.6045V22.684H90.3245V22.964H90.6045V23.244H90.8845V23.664H91.1645V23.944H91.4445V24.224H91.7245V24.504H92.0045V24.784H92.4245V25.064H92.7045V25.344H92.9845V25.624H93.4045V25.904H93.8245V26.184H94.2445V26.464H94.6645V26.744H94.9445V27.304H94.6645V27.724H94.3845V28.004H93.8245V27.724H93.4045V27.444H92.9845V27.164H92.5645V26.884H92.1445V26.604H91.8645V26.324H91.4445V26.044H91.1645V25.764H90.8845V25.484H90.4645V25.204H90.1845V24.924H89.9045V24.644H89.6245V24.364H89.3445V24.644H89.0645V24.924H88.7845V25.204H88.5045V25.484H88.2245V25.764H87.9445V26.044H87.6645V26.324H87.3845V26.604H87.1045V26.884H86.6845V27.164H86.4045V27.444H85.9845V27.724H85.5645V28.004H85.0045V27.724H84.7245V27.304H84.4445V26.744H84.7245V26.464H85.0045V26.184H85.4245V25.904H85.8445V25.624H86.1245V25.344H86.4045V25.064H86.6845V24.784H86.9645V24.504H87.2445V24.084H87.5245V23.804H87.9445V23.384H88.2245V22.964H88.5045V22.544H88.7845V22.124H89.0645V21.564H89.3445V21.144H89.6245V20.724H90.1845ZM84.4445 32.12V31.84H84.1645V30.944H84.4445V30.664H94.9445V30.944H95.2245V31.84H94.9445V32.12H84.4445Z" fill="#007495"/>
<path d="M70.1836 32.4V32.5H70.2836V32.4H70.1836ZM69.9036 32.4V32.3H69.8036V32.4H69.9036ZM69.9036 32.68V32.78H70.0036V32.68H69.9036ZM68.7276 32.68H68.6276V32.78H68.7276V32.68ZM68.7276 32.4H68.8276V32.3H68.7276V32.4ZM68.4476 32.4H68.3476V32.5H68.4476V32.4ZM68.4476 20.78V20.68H68.3476V20.78H68.4476ZM68.7276 20.78V20.88H68.8276V20.78H68.7276ZM68.7276 20.5V20.4H68.6276V20.5H68.7276ZM69.9036 20.5H70.0036V20.4H69.9036V20.5ZM69.9036 20.78H69.8036V20.88H69.9036V20.78ZM70.1836 20.78H70.2836V20.68H70.1836V20.78ZM60.3696 30.72V30.62H60.2696V30.72H60.3696ZM60.6496 30.72V30.82H60.7496V30.72H60.6496ZM60.6496 30.44V30.34H60.5496V30.44H60.6496ZM61.0696 30.44V30.54H61.1696V30.44H61.0696ZM61.0696 30.16V30.06H60.9696V30.16H61.0696ZM61.4896 30.16V30.26H61.5896V30.16H61.4896ZM61.4896 29.88V29.78H61.3896V29.88H61.4896ZM61.9096 29.88V29.98H62.0096V29.88H61.9096ZM61.9096 29.6V29.5H61.8096V29.6H61.9096ZM62.3296 29.6V29.7H62.4296V29.6H62.3296ZM62.3296 29.32V29.22H62.2296V29.32H62.3296ZM62.6096 29.32V29.42H62.7096V29.32H62.6096ZM62.6096 29.04V28.94H62.5096V29.04H62.6096ZM62.8896 29.04V29.14H62.9896V29.04H62.8896ZM62.8896 28.76V28.66H62.7896V28.76H62.8896ZM63.1696 28.76V28.86H63.2696V28.76H63.1696ZM63.1696 28.34V28.24H63.0696V28.34H63.1696ZM63.4496 28.34V28.44H63.5496V28.34H63.4496ZM63.4496 27.92V27.82H63.3496V27.92H63.4496ZM63.7296 27.92V28.02H63.8296V27.92H63.7296ZM63.7296 27.5V27.4H63.6296V27.5H63.7296ZM64.0096 27.5V27.6H64.1096V27.5H64.0096ZM64.0096 27.08V26.98H63.9096V27.08H64.0096ZM64.2896 27.08V27.18H64.3896V27.08H64.2896ZM64.2896 26.52V26.42H64.1896V26.52H64.2896ZM64.5696 26.52V26.62H64.6696V26.52H64.5696ZM64.5696 26.226H64.6696V26.126H64.5696V26.226ZM60.3276 26.226H60.2276V26.326H60.3276V26.226ZM60.3276 25.946H60.4276V25.846H60.3276V25.946ZM60.0476 25.946H59.9476V26.046H60.0476V25.946ZM60.0476 25.036V24.936H59.9476V25.036H60.0476ZM60.3276 25.036V25.136H60.4276V25.036H60.3276ZM60.3276 24.756V24.656H60.2276V24.756H60.3276ZM64.8496 24.756V24.856H64.9496V24.756H64.8496ZM64.8496 24.07V23.97H64.7496V24.07H64.8496ZM65.1296 24.07V24.17H65.2296V24.07H65.1296ZM65.1296 22.558H65.2296V22.458H65.1296V22.558ZM64.8496 22.558H64.7496V22.658H64.8496V22.558ZM64.8496 22.278H64.9496V22.178H64.8496V22.278ZM60.5516 22.278H60.4516V22.378H60.5516V22.278ZM60.5516 21.998H60.6516V21.898H60.5516V21.998ZM60.2716 21.998H60.1716V22.098H60.2716V21.998ZM60.2716 21.102V21.002H60.1716V21.102H60.2716ZM60.5516 21.102V21.202H60.6516V21.102H60.5516ZM60.5516 20.822V20.722H60.4516V20.822H60.5516ZM65.4376 20.822H65.5376V20.722H65.4376V20.822ZM65.4376 21.102H65.3376V21.202H65.4376V21.102ZM65.9976 21.102H66.0976V21.002H65.9976V21.102ZM65.9976 21.382H65.8976V21.482H65.9976V21.382ZM66.2776 21.382H66.3776V21.282H66.2776V21.382ZM66.2776 21.662H66.1776V21.762H66.2776V21.662ZM66.5576 21.662H66.6576V21.562H66.5576V21.662ZM66.5576 22.222H66.4576V22.322H66.5576V22.222ZM66.8376 22.222H66.9376V22.122H66.8376V22.222ZM66.8376 24.784V24.884H66.9376V24.784H66.8376ZM66.5576 24.784V24.684H66.4576V24.784H66.5576ZM66.5576 26.044V26.144H66.6576V26.044H66.5576ZM66.2776 26.044V25.944H66.1776V26.044H66.2776ZM66.2776 26.884V26.984H66.3776V26.884H66.2776ZM65.9976 26.884V26.784H65.8976V26.884H65.9976ZM65.9976 27.444V27.544H66.0976V27.444H65.9976ZM65.7176 27.444V27.344H65.6176V27.444H65.7176ZM65.7176 28.004V28.104H65.8176V28.004H65.7176ZM65.4376 28.004V27.904H65.3376V28.004H65.4376ZM65.4376 28.564V28.664H65.5376V28.564H65.4376ZM65.0876 28.564V28.464H64.9876V28.564H65.0876ZM65.0876 28.984V29.084H65.1876V28.984H65.0876ZM64.8076 28.984V28.884H64.7076V28.984H64.8076ZM64.8076 29.404V29.504H64.9076V29.404H64.8076ZM64.5276 29.404V29.304H64.4276V29.404H64.5276ZM64.5276 29.824V29.924H64.6276V29.824H64.5276ZM64.2476 29.824V29.724H64.1476V29.824H64.2476ZM64.2476 30.104V30.204H64.3476V30.104H64.2476ZM63.9676 30.104V30.004H63.8676V30.104H63.9676ZM63.9676 30.384V30.484H64.0676V30.384H63.9676ZM63.6876 30.384V30.284H63.5876V30.384H63.6876ZM63.6876 30.664V30.764H63.7876V30.664H63.6876ZM63.4076 30.664V30.564H63.3076V30.664H63.4076ZM63.4076 30.944V31.044H63.5076V30.944H63.4076ZM62.9876 30.944V30.844H62.8876V30.944H62.9876ZM62.9876 31.224V31.324H63.0876V31.224H62.9876ZM62.5676 31.224V31.124H62.4676V31.224H62.5676ZM62.5676 31.504V31.604H62.6676V31.504H62.5676ZM62.1476 31.504V31.404H62.0476V31.504H62.1476ZM62.1476 31.784V31.884H62.2476V31.784H62.1476ZM61.7276 31.784V31.684H61.6276V31.784H61.7276ZM61.7276 32.064V32.164H61.8276V32.064H61.7276ZM60.9296 32.064H60.8296V32.164H60.9296V32.064ZM60.9296 31.784H61.0296V31.684H60.9296V31.784ZM60.6496 31.784H60.5496V31.884H60.6496V31.784ZM60.6496 31.224H60.7496V31.124H60.6496V31.224ZM60.3696 31.224H60.2696V31.324H60.3696V31.224ZM70.1836 32.4V32.3H69.9036V32.4V32.5H70.1836V32.4ZM69.9036 32.4H69.8036V32.68H69.9036H70.0036V32.4H69.9036ZM69.9036 32.68V32.58H68.7276V32.68V32.78H69.9036V32.68ZM68.7276 32.68H68.8276V32.4H68.7276H68.6276V32.68H68.7276ZM68.7276 32.4V32.3H68.4476V32.4V32.5H68.7276V32.4ZM68.4476 32.4H68.5476V20.78H68.4476H68.3476V32.4H68.4476ZM68.4476 20.78V20.88H68.7276V20.78V20.68H68.4476V20.78ZM68.7276 20.78H68.8276V20.5H68.7276H68.6276V20.78H68.7276ZM68.7276 20.5V20.6H69.9036V20.5V20.4H68.7276V20.5ZM69.9036 20.5H69.8036V20.78H69.9036H70.0036V20.5H69.9036ZM69.9036 20.78V20.88H70.1836V20.78V20.68H69.9036V20.78ZM70.1836 20.78H70.0836V32.4H70.1836H70.2836V20.78H70.1836ZM60.3696 30.72V30.82H60.6496V30.72V30.62H60.3696V30.72ZM60.6496 30.72H60.7496V30.44H60.6496H60.5496V30.72H60.6496ZM60.6496 30.44V30.54H61.0696V30.44V30.34H60.6496V30.44ZM61.0696 30.44H61.1696V30.16H61.0696H60.9696V30.44H61.0696ZM61.0696 30.16V30.26H61.4896V30.16V30.06H61.0696V30.16ZM61.4896 30.16H61.5896V29.88H61.4896H61.3896V30.16H61.4896ZM61.4896 29.88V29.98H61.9096V29.88V29.78H61.4896V29.88ZM61.9096 29.88H62.0096V29.6H61.9096H61.8096V29.88H61.9096ZM61.9096 29.6V29.7H62.3296V29.6V29.5H61.9096V29.6ZM62.3296 29.6H62.4296V29.32H62.3296H62.2296V29.6H62.3296ZM62.3296 29.32V29.42H62.6096V29.32V29.22H62.3296V29.32ZM62.6096 29.32H62.7096V29.04H62.6096H62.5096V29.32H62.6096ZM62.6096 29.04V29.14H62.8896V29.04V28.94H62.6096V29.04ZM62.8896 29.04H62.9896V28.76H62.8896H62.7896V29.04H62.8896ZM62.8896 28.76V28.86H63.1696V28.76V28.66H62.8896V28.76ZM63.1696 28.76H63.2696V28.34H63.1696H63.0696V28.76H63.1696ZM63.1696 28.34V28.44H63.4496V28.34V28.24H63.1696V28.34ZM63.4496 28.34H63.5496V27.92H63.4496H63.3496V28.34H63.4496ZM63.4496 27.92V28.02H63.7296V27.92V27.82H63.4496V27.92ZM63.7296 27.92H63.8296V27.5H63.7296H63.6296V27.92H63.7296ZM63.7296 27.5V27.6H64.0096V27.5V27.4H63.7296V27.5ZM64.0096 27.5H64.1096V27.08H64.0096H63.9096V27.5H64.0096ZM64.0096 27.08V27.18H64.2896V27.08V26.98H64.0096V27.08ZM64.2896 27.08H64.3896V26.52H64.2896H64.1896V27.08H64.2896ZM64.2896 26.52V26.62H64.5696V26.52V26.42H64.2896V26.52ZM64.5696 26.52H64.6696V26.226H64.5696H64.4696V26.52H64.5696ZM64.5696 26.226V26.126H60.3276V26.226V26.326H64.5696V26.226ZM60.3276 26.226H60.4276V25.946H60.3276H60.2276V26.226H60.3276ZM60.3276 25.946V25.846H60.0476V25.946V26.046H60.3276V25.946ZM60.0476 25.946H60.1476V25.036H60.0476H59.9476V25.946H60.0476ZM60.0476 25.036V25.136H60.3276V25.036V24.936H60.0476V25.036ZM60.3276 25.036H60.4276V24.756H60.3276H60.2276V25.036H60.3276ZM60.3276 24.756V24.856H64.8496V24.756V24.656H60.3276V24.756ZM64.8496 24.756H64.9496V24.07H64.8496H64.7496V24.756H64.8496ZM64.8496 24.07V24.17H65.1296V24.07V23.97H64.8496V24.07ZM65.1296 24.07H65.2296V22.558H65.1296H65.0296V24.07H65.1296ZM65.1296 22.558V22.458H64.8496V22.558V22.658H65.1296V22.558ZM64.8496 22.558H64.9496V22.278H64.8496H64.7496V22.558H64.8496ZM64.8496 22.278V22.178H60.5516V22.278V22.378H64.8496V22.278ZM60.5516 22.278H60.6516V21.998H60.5516H60.4516V22.278H60.5516ZM60.5516 21.998V21.898H60.2716V21.998V22.098H60.5516V21.998ZM60.2716 21.998H60.3716V21.102H60.2716H60.1716V21.998H60.2716ZM60.2716 21.102V21.202H60.5516V21.102V21.002H60.2716V21.102ZM60.5516 21.102H60.6516V20.822H60.5516H60.4516V21.102H60.5516ZM60.5516 20.822V20.922H65.4376V20.822V20.722H60.5516V20.822ZM65.4376 20.822H65.3376V21.102H65.4376H65.5376V20.822H65.4376ZM65.4376 21.102V21.202H65.9976V21.102V21.002H65.4376V21.102ZM65.9976 21.102H65.8976V21.382H65.9976H66.0976V21.102H65.9976ZM65.9976 21.382V21.482H66.2776V21.382V21.282H65.9976V21.382ZM66.2776 21.382H66.1776V21.662H66.2776H66.3776V21.382H66.2776ZM66.2776 21.662V21.762H66.5576V21.662V21.562H66.2776V21.662ZM66.5576 21.662H66.4576V22.222H66.5576H66.6576V21.662H66.5576ZM66.5576 22.222V22.322H66.8376V22.222V22.122H66.5576V22.222ZM66.8376 22.222H66.7376V24.784H66.8376H66.9376V22.222H66.8376ZM66.8376 24.784V24.684H66.5576V24.784V24.884H66.8376V24.784ZM66.5576 24.784H66.4576V26.044H66.5576H66.6576V24.784H66.5576ZM66.5576 26.044V25.944H66.2776V26.044V26.144H66.5576V26.044ZM66.2776 26.044H66.1776V26.884H66.2776H66.3776V26.044H66.2776ZM66.2776 26.884V26.784H65.9976V26.884V26.984H66.2776V26.884ZM65.9976 26.884H65.8976V27.444H65.9976H66.0976V26.884H65.9976ZM65.9976 27.444V27.344H65.7176V27.444V27.544H65.9976V27.444ZM65.7176 27.444H65.6176V28.004H65.7176H65.8176V27.444H65.7176ZM65.7176 28.004V27.904H65.4376V28.004V28.104H65.7176V28.004ZM65.4376 28.004H65.3376V28.564H65.4376H65.5376V28.004H65.4376ZM65.4376 28.564V28.464H65.0876V28.564V28.664H65.4376V28.564ZM65.0876 28.564H64.9876V28.984H65.0876H65.1876V28.564H65.0876ZM65.0876 28.984V28.884H64.8076V28.984V29.084H65.0876V28.984ZM64.8076 28.984H64.7076V29.404H64.8076H64.9076V28.984H64.8076ZM64.8076 29.404V29.304H64.5276V29.404V29.504H64.8076V29.404ZM64.5276 29.404H64.4276V29.824H64.5276H64.6276V29.404H64.5276ZM64.5276 29.824V29.724H64.2476V29.824V29.924H64.5276V29.824ZM64.2476 29.824H64.1476V30.104H64.2476H64.3476V29.824H64.2476ZM64.2476 30.104V30.004H63.9676V30.104V30.204H64.2476V30.104ZM63.9676 30.104H63.8676V30.384H63.9676H64.0676V30.104H63.9676ZM63.9676 30.384V30.284H63.6876V30.384V30.484H63.9676V30.384ZM63.6876 30.384H63.5876V30.664H63.6876H63.7876V30.384H63.6876ZM63.6876 30.664V30.564H63.4076V30.664V30.764H63.6876V30.664ZM63.4076 30.664H63.3076V30.944H63.4076H63.5076V30.664H63.4076ZM63.4076 30.944V30.844H62.9876V30.944V31.044H63.4076V30.944ZM62.9876 30.944H62.8876V31.224H62.9876H63.0876V30.944H62.9876ZM62.9876 31.224V31.124H62.5676V31.224V31.324H62.9876V31.224ZM62.5676 31.224H62.4676V31.504H62.5676H62.6676V31.224H62.5676ZM62.5676 31.504V31.404H62.1476V31.504V31.604H62.5676V31.504ZM62.1476 31.504H62.0476V31.784H62.1476H62.2476V31.504H62.1476ZM62.1476 31.784V31.684H61.7276V31.784V31.884H62.1476V31.784ZM61.7276 31.784H61.6276V32.064H61.7276H61.8276V31.784H61.7276ZM61.7276 32.064V31.964H60.9296V32.064V32.164H61.7276V32.064ZM60.9296 32.064H61.0296V31.784H60.9296H60.8296V32.064H60.9296ZM60.9296 31.784V31.684H60.6496V31.784V31.884H60.9296V31.784ZM60.6496 31.784H60.7496V31.224H60.6496H60.5496V31.784H60.6496ZM60.6496 31.224V31.124H60.3696V31.224V31.324H60.6496V31.224ZM60.3696 31.224H60.4696V30.72H60.3696H60.2696V31.224H60.3696ZM82.1091 32.4V32.5H82.2091V32.4H82.1091ZM81.8291 32.4V32.3H81.7291V32.4H81.8291ZM81.8291 32.68V32.78H81.9291V32.68H81.8291ZM80.6531 32.68H80.5531V32.78H80.6531V32.68ZM80.6531 32.4H80.7531V32.3H80.6531V32.4ZM80.3731 32.4H80.2731V32.5H80.3731V32.4ZM80.3731 20.78V20.68H80.2731V20.78H80.3731ZM80.6531 20.78V20.88H80.7531V20.78H80.6531ZM80.6531 20.5V20.4H80.5531V20.5H80.6531ZM81.8291 20.5H81.9291V20.4H81.8291V20.5ZM81.8291 20.78H81.7291V20.88H81.8291V20.78ZM82.1091 20.78H82.2091V20.68H82.1091V20.78ZM82.1091 25.386H82.0091V25.486H82.1091V25.386ZM83.2991 25.386H83.3991V25.286H83.2991V25.386ZM83.2991 25.666H83.1991V25.766H83.2991V25.666ZM83.5791 25.666H83.6791V25.566H83.5791V25.666ZM83.5791 26.618V26.718H83.6791V26.618H83.5791ZM83.2991 26.618V26.518H83.1991V26.618H83.2991ZM83.2991 26.898V26.998H83.3991V26.898H83.2991ZM82.1091 26.898V26.798H82.0091V26.898H82.1091ZM72.1691 26.94V26.84H72.0691V26.94H72.1691ZM72.4491 26.94V27.04H72.5491V26.94H72.4491ZM72.4491 26.38V26.28H72.3491V26.38H72.4491ZM72.7291 26.38V26.48H72.8291V26.38H72.7291ZM72.7291 26.1V26H72.6291V26.1H72.7291ZM73.0091 26.1V26.2H73.1091V26.1H73.0091ZM73.0091 25.82V25.72H72.9091V25.82H73.0091ZM73.5691 25.82V25.92H73.6691V25.82H73.5691ZM73.5691 25.54V25.44H73.4691V25.54H73.5691ZM76.2571 25.54V25.64H76.3571V25.54H76.2571ZM76.2571 25.26V25.16H76.1571V25.26H76.2571ZM76.5371 25.26V25.36H76.6371V25.26H76.5371ZM76.5371 24.42V24.32H76.4371V24.42H76.5371ZM76.8171 24.42V24.52H76.9171V24.42H76.8171ZM76.8171 22.46H76.9171V22.36H76.8171V22.46ZM76.5371 22.46H76.4371V22.56H76.5371V22.46ZM76.5371 22.18H76.6371V22.08H76.5371V22.18ZM72.4491 22.18H72.3491V22.28H72.4491V22.18ZM72.4491 21.9H72.5491V21.8H72.4491V21.9ZM72.1691 21.9H72.0691V22H72.1691V21.9ZM72.1691 21.06V20.96H72.0691V21.06H72.1691ZM72.4491 21.06V21.16H72.5491V21.06H72.4491ZM72.4491 20.78V20.68H72.3491V20.78H72.4491ZM77.1531 20.78H77.2531V20.68H77.1531V20.78ZM77.1531 21.06H77.0531V21.16H77.1531V21.06ZM77.7131 21.06H77.8131V20.96H77.7131V21.06ZM77.7131 21.34H77.6131V21.44H77.7131V21.34ZM77.9931 21.34H78.0931V21.24H77.9931V21.34ZM77.9931 21.62H77.8931V21.72H77.9931V21.62ZM78.2731 21.62H78.3731V21.52H78.2731V21.62ZM78.2731 22.18H78.1731V22.28H78.2731V22.18ZM78.5531 22.18H78.6531V22.08H78.5531V22.18ZM78.5531 24.364V24.464H78.6531V24.364H78.5531ZM78.2731 24.364V24.264H78.1731V24.364H78.2731ZM78.2731 25.484V25.584H78.3731V25.484H78.2731ZM77.9931 25.484V25.384H77.8931V25.484H77.9931ZM77.9931 26.044V26.144H78.0931V26.044H77.9931ZM77.7131 26.044V25.944H77.6131V26.044H77.7131ZM77.7131 26.604V26.704H77.8131V26.604H77.7131ZM77.1531 26.604V26.504H77.0531V26.604H77.1531ZM77.1531 26.884V26.984H77.2531V26.884H77.1531ZM74.1851 26.884V26.784H74.0851V26.884H74.1851ZM74.1851 27.164V27.264H74.2851V27.164H74.1851ZM73.9051 27.164V27.064H73.8051V27.164H73.9051ZM73.9051 30.44H73.8051V30.54H73.9051V30.44ZM74.1851 30.44H74.2851V30.34H74.1851V30.44ZM74.1851 30.72H74.0851V30.82H74.1851V30.72ZM75.3331 30.72V30.82H75.4331V30.72H75.3331ZM75.3331 30.44V30.34H75.2331V30.44H75.3331ZM76.7331 30.44V30.54H76.8331V30.44H76.7331ZM76.7331 30.16V30.06H76.6331V30.16H76.7331ZM77.5731 30.16V30.26H77.6731V30.16H77.5731ZM77.5731 29.88V29.78H77.4731V29.88H77.5731ZM78.1331 29.88V29.98H78.2331V29.88H78.1331ZM78.1331 29.6V29.5H78.0331V29.6H78.1331ZM78.5531 29.6V29.7H78.6531V29.6H78.5531ZM78.5531 29.32V29.22H78.4531V29.32H78.5531ZM79.1131 29.32H79.2131V29.22H79.1131V29.32ZM79.1131 29.6H79.0131V29.7H79.1131V29.6ZM79.3931 29.6H79.4931V29.5H79.3931V29.6ZM79.3931 29.88H79.2931V29.98H79.3931V29.88ZM79.6731 29.88H79.7731V29.78H79.6731V29.88ZM79.6731 30.72V30.82H79.7731V30.72H79.6731ZM79.3931 30.72V30.62H79.2931V30.72H79.3931ZM79.3931 31V31.1H79.4931V31H79.3931ZM78.8331 31V30.9H78.7331V31H78.8331ZM78.8331 31.28V31.38H78.9331V31.28H78.8331ZM78.2731 31.28V31.18H78.1731V31.28H78.2731ZM78.2731 31.56V31.66H78.3731V31.56H78.2731ZM77.1531 31.56V31.46H77.0531V31.56H77.1531ZM77.1531 31.84V31.94H77.2531V31.84H77.1531ZM75.8931 31.84V31.74H75.7931V31.84H75.8931ZM75.8931 32.12V32.22H75.9931V32.12H75.8931ZM73.5691 32.12H73.4691V32.22H73.5691V32.12ZM73.5691 31.84H73.6691V31.74H73.5691V31.84ZM73.0091 31.84H72.9091V31.94H73.0091V31.84ZM73.0091 31.56H73.1091V31.46H73.0091V31.56ZM72.7291 31.56H72.6291V31.66H72.7291V31.56ZM72.7291 31.28H72.8291V31.18H72.7291V31.28ZM72.4491 31.28H72.3491V31.38H72.4491V31.28ZM72.4491 30.72H72.5491V30.62H72.4491V30.72ZM72.1691 30.72H72.0691V30.82H72.1691V30.72ZM82.1091 32.4V32.3H81.8291V32.4V32.5H82.1091V32.4ZM81.8291 32.4H81.7291V32.68H81.8291H81.9291V32.4H81.8291ZM81.8291 32.68V32.58H80.6531V32.68V32.78H81.8291V32.68ZM80.6531 32.68H80.7531V32.4H80.6531H80.5531V32.68H80.6531ZM80.6531 32.4V32.3H80.3731V32.4V32.5H80.6531V32.4ZM80.3731 32.4H80.4731V20.78H80.3731H80.2731V32.4H80.3731ZM80.3731 20.78V20.88H80.6531V20.78V20.68H80.3731V20.78ZM80.6531 20.78H80.7531V20.5H80.6531H80.5531V20.78H80.6531ZM80.6531 20.5V20.6H81.8291V20.5V20.4H80.6531V20.5ZM81.8291 20.5H81.7291V20.78H81.8291H81.9291V20.5H81.8291ZM81.8291 20.78V20.88H82.1091V20.78V20.68H81.8291V20.78ZM82.1091 20.78H82.0091V25.386H82.1091H82.2091V20.78H82.1091ZM82.1091 25.386V25.486H83.2991V25.386V25.286H82.1091V25.386ZM83.2991 25.386H83.1991V25.666H83.2991H83.3991V25.386H83.2991ZM83.2991 25.666V25.766H83.5791V25.666V25.566H83.2991V25.666ZM83.5791 25.666H83.4791V26.618H83.5791H83.6791V25.666H83.5791ZM83.5791 26.618V26.518H83.2991V26.618V26.718H83.5791V26.618ZM83.2991 26.618H83.1991V26.898H83.2991H83.3991V26.618H83.2991ZM83.2991 26.898V26.798H82.1091V26.898V26.998H83.2991V26.898ZM82.1091 26.898H82.0091V32.4H82.1091H82.2091V26.898H82.1091ZM72.1691 26.94V27.04H72.4491V26.94V26.84H72.1691V26.94ZM72.4491 26.94H72.5491V26.38H72.4491H72.3491V26.94H72.4491ZM72.4491 26.38V26.48H72.7291V26.38V26.28H72.4491V26.38ZM72.7291 26.38H72.8291V26.1H72.7291H72.6291V26.38H72.7291ZM72.7291 26.1V26.2H73.0091V26.1V26H72.7291V26.1ZM73.0091 26.1H73.1091V25.82H73.0091H72.9091V26.1H73.0091ZM73.0091 25.82V25.92H73.5691V25.82V25.72H73.0091V25.82ZM73.5691 25.82H73.6691V25.54H73.5691H73.4691V25.82H73.5691ZM73.5691 25.54V25.64H76.2571V25.54V25.44H73.5691V25.54ZM76.2571 25.54H76.3571V25.26H76.2571H76.1571V25.54H76.2571ZM76.2571 25.26V25.36H76.5371V25.26V25.16H76.2571V25.26ZM76.5371 25.26H76.6371V24.42H76.5371H76.4371V25.26H76.5371ZM76.5371 24.42V24.52H76.8171V24.42V24.32H76.5371V24.42ZM76.8171 24.42H76.9171V22.46H76.8171H76.7171V24.42H76.8171ZM76.8171 22.46V22.36H76.5371V22.46V22.56H76.8171V22.46ZM76.5371 22.46H76.6371V22.18H76.5371H76.4371V22.46H76.5371ZM76.5371 22.18V22.08H72.4491V22.18V22.28H76.5371V22.18ZM72.4491 22.18H72.5491V21.9H72.4491H72.3491V22.18H72.4491ZM72.4491 21.9V21.8H72.1691V21.9V22H72.4491V21.9ZM72.1691 21.9H72.2691V21.06H72.1691H72.0691V21.9H72.1691ZM72.1691 21.06V21.16H72.4491V21.06V20.96H72.1691V21.06ZM72.4491 21.06H72.5491V20.78H72.4491H72.3491V21.06H72.4491ZM72.4491 20.78V20.88H77.1531V20.78V20.68H72.4491V20.78ZM77.1531 20.78H77.0531V21.06H77.1531H77.2531V20.78H77.1531ZM77.1531 21.06V21.16H77.7131V21.06V20.96H77.1531V21.06ZM77.7131 21.06H77.6131V21.34H77.7131H77.8131V21.06H77.7131ZM77.7131 21.34V21.44H77.9931V21.34V21.24H77.7131V21.34ZM77.9931 21.34H77.8931V21.62H77.9931H78.0931V21.34H77.9931ZM77.9931 21.62V21.72H78.2731V21.62V21.52H77.9931V21.62ZM78.2731 21.62H78.1731V22.18H78.2731H78.3731V21.62H78.2731ZM78.2731 22.18V22.28H78.5531V22.18V22.08H78.2731V22.18ZM78.5531 22.18H78.4531V24.364H78.5531H78.6531V22.18H78.5531ZM78.5531 24.364V24.264H78.2731V24.364V24.464H78.5531V24.364ZM78.2731 24.364H78.1731V25.484H78.2731H78.3731V24.364H78.2731ZM78.2731 25.484V25.384H77.9931V25.484V25.584H78.2731V25.484ZM77.9931 25.484H77.8931V26.044H77.9931H78.0931V25.484H77.9931ZM77.9931 26.044V25.944H77.7131V26.044V26.144H77.9931V26.044ZM77.7131 26.044H77.6131V26.604H77.7131H77.8131V26.044H77.7131ZM77.7131 26.604V26.504H77.1531V26.604V26.704H77.7131V26.604ZM77.1531 26.604H77.0531V26.884H77.1531H77.2531V26.604H77.1531ZM77.1531 26.884V26.784H74.1851V26.884V26.984H77.1531V26.884ZM74.1851 26.884H74.0851V27.164H74.1851H74.2851V26.884H74.1851ZM74.1851 27.164V27.064H73.9051V27.164V27.264H74.1851V27.164ZM73.9051 27.164H73.8051V30.44H73.9051H74.0051V27.164H73.9051ZM73.9051 30.44V30.54H74.1851V30.44V30.34H73.9051V30.44ZM74.1851 30.44H74.0851V30.72H74.1851H74.2851V30.44H74.1851ZM74.1851 30.72V30.82H75.3331V30.72V30.62H74.1851V30.72ZM75.3331 30.72H75.4331V30.44H75.3331H75.2331V30.72H75.3331ZM75.3331 30.44V30.54H76.7331V30.44V30.34H75.3331V30.44ZM76.7331 30.44H76.8331V30.16H76.7331H76.6331V30.44H76.7331ZM76.7331 30.16V30.26H77.5731V30.16V30.06H76.7331V30.16ZM77.5731 30.16H77.6731V29.88H77.5731H77.4731V30.16H77.5731ZM77.5731 29.88V29.98H78.1331V29.88V29.78H77.5731V29.88ZM78.1331 29.88H78.2331V29.6H78.1331H78.0331V29.88H78.1331ZM78.1331 29.6V29.7H78.5531V29.6V29.5H78.1331V29.6ZM78.5531 29.6H78.6531V29.32H78.5531H78.4531V29.6H78.5531ZM78.5531 29.32V29.42H79.1131V29.32V29.22H78.5531V29.32ZM79.1131 29.32H79.0131V29.6H79.1131H79.2131V29.32H79.1131ZM79.1131 29.6V29.7H79.3931V29.6V29.5H79.1131V29.6ZM79.3931 29.6H79.2931V29.88H79.3931H79.4931V29.6H79.3931ZM79.3931 29.88V29.98H79.6731V29.88V29.78H79.3931V29.88ZM79.6731 29.88H79.5731V30.72H79.6731H79.7731V29.88H79.6731ZM79.6731 30.72V30.62H79.3931V30.72V30.82H79.6731V30.72ZM79.3931 30.72H79.2931V31H79.3931H79.4931V30.72H79.3931ZM79.3931 31V30.9H78.8331V31V31.1H79.3931V31ZM78.8331 31H78.7331V31.28H78.8331H78.9331V31H78.8331ZM78.8331 31.28V31.18H78.2731V31.28V31.38H78.8331V31.28ZM78.2731 31.28H78.1731V31.56H78.2731H78.3731V31.28H78.2731ZM78.2731 31.56V31.46H77.1531V31.56V31.66H78.2731V31.56ZM77.1531 31.56H77.0531V31.84H77.1531H77.2531V31.56H77.1531ZM77.1531 31.84V31.74H75.8931V31.84V31.94H77.1531V31.84ZM75.8931 31.84H75.7931V32.12H75.8931H75.9931V31.84H75.8931ZM75.8931 32.12V32.02H73.5691V32.12V32.22H75.8931V32.12ZM73.5691 32.12H73.6691V31.84H73.5691H73.4691V32.12H73.5691ZM73.5691 31.84V31.74H73.0091V31.84V31.94H73.5691V31.84ZM73.0091 31.84H73.1091V31.56H73.0091H72.9091V31.84H73.0091ZM73.0091 31.56V31.46H72.7291V31.56V31.66H73.0091V31.56ZM72.7291 31.56H72.8291V31.28H72.7291H72.6291V31.56H72.7291ZM72.7291 31.28V31.18H72.4491V31.28V31.38H72.7291V31.28ZM72.4491 31.28H72.5491V30.72H72.4491H72.3491V31.28H72.4491ZM72.4491 30.72V30.62H72.1691V30.72V30.82H72.4491V30.72ZM72.1691 30.72H72.2691V26.94H72.1691H72.0691V30.72H72.1691ZM90.1845 20.724H90.2845V20.624H90.1845V20.724ZM90.1845 21.004H90.0845V21.104H90.1845V21.004ZM90.6045 21.004H90.7045V20.904H90.6045V21.004ZM90.6045 21.284H90.5045V21.384H90.6045V21.284ZM90.8845 21.284H90.9845V21.184H90.8845V21.284ZM90.8845 21.564H90.7845V21.664H90.8845V21.564ZM91.1645 21.564H91.2645V21.464H91.1645V21.564ZM91.1645 21.984V22.084H91.2645V21.984H91.1645ZM90.8845 21.984V21.884H90.7845V21.984H90.8845ZM90.8845 22.404V22.504H90.9845V22.404H90.8845ZM90.6045 22.404V22.304H90.5045V22.404H90.6045ZM90.6045 22.684V22.784H90.7045V22.684H90.6045ZM90.3245 22.684V22.584H90.2245V22.684H90.3245ZM90.3245 22.964H90.2245V23.064H90.3245V22.964ZM90.6045 22.964H90.7045V22.864H90.6045V22.964ZM90.6045 23.244H90.5045V23.344H90.6045V23.244ZM90.8845 23.244H90.9845V23.144H90.8845V23.244ZM90.8845 23.664H90.7845V23.764H90.8845V23.664ZM91.1645 23.664H91.2645V23.564H91.1645V23.664ZM91.1645 23.944H91.0645V24.044H91.1645V23.944ZM91.4445 23.944H91.5445V23.844H91.4445V23.944ZM91.4445 24.224H91.3445V24.324H91.4445V24.224ZM91.7245 24.224H91.8245V24.124H91.7245V24.224ZM91.7245 24.504H91.6245V24.604H91.7245V24.504ZM92.0045 24.504H92.1045V24.404H92.0045V24.504ZM92.0045 24.784H91.9045V24.884H92.0045V24.784ZM92.4245 24.784H92.5245V24.684H92.4245V24.784ZM92.4245 25.064H92.3245V25.164H92.4245V25.064ZM92.7045 25.064H92.8045V24.964H92.7045V25.064ZM92.7045 25.344H92.6045V25.444H92.7045V25.344ZM92.9845 25.344H93.0845V25.244H92.9845V25.344ZM92.9845 25.624H92.8845V25.724H92.9845V25.624ZM93.4045 25.624H93.5045V25.524H93.4045V25.624ZM93.4045 25.904H93.3045V26.004H93.4045V25.904ZM93.8245 25.904H93.9245V25.804H93.8245V25.904ZM93.8245 26.184H93.7245V26.284H93.8245V26.184ZM94.2445 26.184H94.3445V26.084H94.2445V26.184ZM94.2445 26.464H94.1445V26.564H94.2445V26.464ZM94.6645 26.464H94.7645V26.364H94.6645V26.464ZM94.6645 26.744H94.5645V26.844H94.6645V26.744ZM94.9445 26.744H95.0445V26.644H94.9445V26.744ZM94.9445 27.304V27.404H95.0445V27.304H94.9445ZM94.6645 27.304V27.204H94.5645V27.304H94.6645ZM94.6645 27.724V27.824H94.7645V27.724H94.6645ZM94.3845 27.724V27.624H94.2845V27.724H94.3845ZM94.3845 28.004V28.104H94.4845V28.004H94.3845ZM93.8245 28.004H93.7245V28.104H93.8245V28.004ZM93.8245 27.724H93.9245V27.624H93.8245V27.724ZM93.4045 27.724H93.3045V27.824H93.4045V27.724ZM93.4045 27.444H93.5045V27.344H93.4045V27.444ZM92.9845 27.444H92.8845V27.544H92.9845V27.444ZM92.9845 27.164H93.0845V27.064H92.9845V27.164ZM92.5645 27.164H92.4645V27.264H92.5645V27.164ZM92.5645 26.884H92.6645V26.784H92.5645V26.884ZM92.1445 26.884H92.0445V26.984H92.1445V26.884ZM92.1445 26.604H92.2445V26.504H92.1445V26.604ZM91.8645 26.604H91.7645V26.704H91.8645V26.604ZM91.8645 26.324H91.9645V26.224H91.8645V26.324ZM91.4445 26.324H91.3445V26.424H91.4445V26.324ZM91.4445 26.044H91.5445V25.944H91.4445V26.044ZM91.1645 26.044H91.0645V26.144H91.1645V26.044ZM91.1645 25.764H91.2645V25.664H91.1645V25.764ZM90.8845 25.764H90.7845V25.864H90.8845V25.764ZM90.8845 25.484H90.9845V25.384H90.8845V25.484ZM90.4645 25.484H90.3645V25.584H90.4645V25.484ZM90.4645 25.204H90.5645V25.104H90.4645V25.204ZM90.1845 25.204H90.0845V25.304H90.1845V25.204ZM90.1845 24.924H90.2845V24.824H90.1845V24.924ZM89.9045 24.924H89.8045V25.024H89.9045V24.924ZM89.9045 24.644H90.0045V24.544H89.9045V24.644ZM89.6245 24.644H89.5245V24.744H89.6245V24.644ZM89.6245 24.364H89.7245V24.264H89.6245V24.364ZM89.3445 24.364V24.264H89.2445V24.364H89.3445ZM89.3445 24.644V24.744H89.4445V24.644H89.3445ZM89.0645 24.644V24.544H88.9645V24.644H89.0645ZM89.0645 24.924V25.024H89.1645V24.924H89.0645ZM88.7845 24.924V24.824H88.6845V24.924H88.7845ZM88.7845 25.204V25.304H88.8845V25.204H88.7845ZM88.5045 25.204V25.104H88.4045V25.204H88.5045ZM88.5045 25.484V25.584H88.6045V25.484H88.5045ZM88.2245 25.484V25.384H88.1245V25.484H88.2245ZM88.2245 25.764V25.864H88.3245V25.764H88.2245ZM87.9445 25.764V25.664H87.8445V25.764H87.9445ZM87.9445 26.044V26.144H88.0445V26.044H87.9445ZM87.6645 26.044V25.944H87.5645V26.044H87.6645ZM87.6645 26.324V26.424H87.7645V26.324H87.6645ZM87.3845 26.324V26.224H87.2845V26.324H87.3845ZM87.3845 26.604V26.704H87.4845V26.604H87.3845ZM87.1045 26.604V26.504H87.0045V26.604H87.1045ZM87.1045 26.884V26.984H87.2045V26.884H87.1045ZM86.6845 26.884V26.784H86.5845V26.884H86.6845ZM86.6845 27.164V27.264H86.7845V27.164H86.6845ZM86.4045 27.164V27.064H86.3045V27.164H86.4045ZM86.4045 27.444V27.544H86.5045V27.444H86.4045ZM85.9845 27.444V27.344H85.8845V27.444H85.9845ZM85.9845 27.724V27.824H86.0845V27.724H85.9845ZM85.5645 27.724V27.624H85.4645V27.724H85.5645ZM85.5645 28.004V28.104H85.6645V28.004H85.5645ZM85.0045 28.004H84.9045V28.104H85.0045V28.004ZM85.0045 27.724H85.1045V27.624H85.0045V27.724ZM84.7245 27.724H84.6245V27.824H84.7245V27.724ZM84.7245 27.304H84.8245V27.204H84.7245V27.304ZM84.4445 27.304H84.3445V27.404H84.4445V27.304ZM84.4445 26.744V26.644H84.3445V26.744H84.4445ZM84.7245 26.744V26.844H84.8245V26.744H84.7245ZM84.7245 26.464V26.364H84.6245V26.464H84.7245ZM85.0045 26.464V26.564H85.1045V26.464H85.0045ZM85.0045 26.184V26.084H84.9045V26.184H85.0045ZM85.4245 26.184V26.284H85.5245V26.184H85.4245ZM85.4245 25.904V25.804H85.3245V25.904H85.4245ZM85.8445 25.904V26.004H85.9445V25.904H85.8445ZM85.8445 25.624V25.524H85.7445V25.624H85.8445ZM86.1245 25.624V25.724H86.2245V25.624H86.1245ZM86.1245 25.344V25.244H86.0245V25.344H86.1245ZM86.4045 25.344V25.444H86.5045V25.344H86.4045ZM86.4045 25.064V24.964H86.3045V25.064H86.4045ZM86.6845 25.064V25.164H86.7845V25.064H86.6845ZM86.6845 24.784V24.684H86.5845V24.784H86.6845ZM86.9645 24.784V24.884H87.0645V24.784H86.9645ZM86.9645 24.504V24.404H86.8645V24.504H86.9645ZM87.2445 24.504V24.604H87.3445V24.504H87.2445ZM87.2445 24.084V23.984H87.1445V24.084H87.2445ZM87.5245 24.084V24.184H87.6245V24.084H87.5245ZM87.5245 23.804V23.704H87.4245V23.804H87.5245ZM87.9445 23.804V23.904H88.0445V23.804H87.9445ZM87.9445 23.384V23.284H87.8445V23.384H87.9445ZM88.2245 23.384V23.484H88.3245V23.384H88.2245ZM88.2245 22.964V22.864H88.1245V22.964H88.2245ZM88.5045 22.964V23.064H88.6045V22.964H88.5045ZM88.5045 22.544V22.444H88.4045V22.544H88.5045ZM88.7845 22.544V22.644H88.8845V22.544H88.7845ZM88.7845 22.124V22.024H88.6845V22.124H88.7845ZM89.0645 22.124V22.224H89.1645V22.124H89.0645ZM89.0645 21.564V21.464H88.9645V21.564H89.0645ZM89.3445 21.564V21.664H89.4445V21.564H89.3445ZM89.3445 21.144V21.044H89.2445V21.144H89.3445ZM89.6245 21.144V21.244H89.7245V21.144H89.6245ZM89.6245 20.724V20.624H89.5245V20.724H89.6245ZM84.4445 32.12H84.3445V32.22H84.4445V32.12ZM84.4445 31.84H84.5445V31.74H84.4445V31.84ZM84.1645 31.84H84.0645V31.94H84.1645V31.84ZM84.1645 30.944V30.844H84.0645V30.944H84.1645ZM84.4445 30.944V31.044H84.5445V30.944H84.4445ZM84.4445 30.664V30.564H84.3445V30.664H84.4445ZM94.9445 30.664H95.0445V30.564H94.9445V30.664ZM94.9445 30.944H94.8445V31.044H94.9445V30.944ZM95.2245 30.944H95.3245V30.844H95.2245V30.944ZM95.2245 31.84V31.94H95.3245V31.84H95.2245ZM94.9445 31.84V31.74H94.8445V31.84H94.9445ZM94.9445 32.12V32.22H95.0445V32.12H94.9445ZM90.1845 20.724H90.0845V21.004H90.1845H90.2845V20.724H90.1845ZM90.1845 21.004V21.104H90.6045V21.004V20.904H90.1845V21.004ZM90.6045 21.004H90.5045V21.284H90.6045H90.7045V21.004H90.6045ZM90.6045 21.284V21.384H90.8845V21.284V21.184H90.6045V21.284ZM90.8845 21.284H90.7845V21.564H90.8845H90.9845V21.284H90.8845ZM90.8845 21.564V21.664H91.1645V21.564V21.464H90.8845V21.564ZM91.1645 21.564H91.0645V21.984H91.1645H91.2645V21.564H91.1645ZM91.1645 21.984V21.884H90.8845V21.984V22.084H91.1645V21.984ZM90.8845 21.984H90.7845V22.404H90.8845H90.9845V21.984H90.8845ZM90.8845 22.404V22.304H90.6045V22.404V22.504H90.8845V22.404ZM90.6045 22.404H90.5045V22.684H90.6045H90.7045V22.404H90.6045ZM90.6045 22.684V22.584H90.3245V22.684V22.784H90.6045V22.684ZM90.3245 22.684H90.2245V22.964H90.3245H90.4245V22.684H90.3245ZM90.3245 22.964V23.064H90.6045V22.964V22.864H90.3245V22.964ZM90.6045 22.964H90.5045V23.244H90.6045H90.7045V22.964H90.6045ZM90.6045 23.244V23.344H90.8845V23.244V23.144H90.6045V23.244ZM90.8845 23.244H90.7845V23.664H90.8845H90.9845V23.244H90.8845ZM90.8845 23.664V23.764H91.1645V23.664V23.564H90.8845V23.664ZM91.1645 23.664H91.0645V23.944H91.1645H91.2645V23.664H91.1645ZM91.1645 23.944V24.044H91.4445V23.944V23.844H91.1645V23.944ZM91.4445 23.944H91.3445V24.224H91.4445H91.5445V23.944H91.4445ZM91.4445 24.224V24.324H91.7245V24.224V24.124H91.4445V24.224ZM91.7245 24.224H91.6245V24.504H91.7245H91.8245V24.224H91.7245ZM91.7245 24.504V24.604H92.0045V24.504V24.404H91.7245V24.504ZM92.0045 24.504H91.9045V24.784H92.0045H92.1045V24.504H92.0045ZM92.0045 24.784V24.884H92.4245V24.784V24.684H92.0045V24.784ZM92.4245 24.784H92.3245V25.064H92.4245H92.5245V24.784H92.4245ZM92.4245 25.064V25.164H92.7045V25.064V24.964H92.4245V25.064ZM92.7045 25.064H92.6045V25.344H92.7045H92.8045V25.064H92.7045ZM92.7045 25.344V25.444H92.9845V25.344V25.244H92.7045V25.344ZM92.9845 25.344H92.8845V25.624H92.9845H93.0845V25.344H92.9845ZM92.9845 25.624V25.724H93.4045V25.624V25.524H92.9845V25.624ZM93.4045 25.624H93.3045V25.904H93.4045H93.5045V25.624H93.4045ZM93.4045 25.904V26.004H93.8245V25.904V25.804H93.4045V25.904ZM93.8245 25.904H93.7245V26.184H93.8245H93.9245V25.904H93.8245ZM93.8245 26.184V26.284H94.2445V26.184V26.084H93.8245V26.184ZM94.2445 26.184H94.1445V26.464H94.2445H94.3445V26.184H94.2445ZM94.2445 26.464V26.564H94.6645V26.464V26.364H94.2445V26.464ZM94.6645 26.464H94.5645V26.744H94.6645H94.7645V26.464H94.6645ZM94.6645 26.744V26.844H94.9445V26.744V26.644H94.6645V26.744ZM94.9445 26.744H94.8445V27.304H94.9445H95.0445V26.744H94.9445ZM94.9445 27.304V27.204H94.6645V27.304V27.404H94.9445V27.304ZM94.6645 27.304H94.5645V27.724H94.6645H94.7645V27.304H94.6645ZM94.6645 27.724V27.624H94.3845V27.724V27.824H94.6645V27.724ZM94.3845 27.724H94.2845V28.004H94.3845H94.4845V27.724H94.3845ZM94.3845 28.004V27.904H93.8245V28.004V28.104H94.3845V28.004ZM93.8245 28.004H93.9245V27.724H93.8245H93.7245V28.004H93.8245ZM93.8245 27.724V27.624H93.4045V27.724V27.824H93.8245V27.724ZM93.4045 27.724H93.5045V27.444H93.4045H93.3045V27.724H93.4045ZM93.4045 27.444V27.344H92.9845V27.444V27.544H93.4045V27.444ZM92.9845 27.444H93.0845V27.164H92.9845H92.8845V27.444H92.9845ZM92.9845 27.164V27.064H92.5645V27.164V27.264H92.9845V27.164ZM92.5645 27.164H92.6645V26.884H92.5645H92.4645V27.164H92.5645ZM92.5645 26.884V26.784H92.1445V26.884V26.984H92.5645V26.884ZM92.1445 26.884H92.2445V26.604H92.1445H92.0445V26.884H92.1445ZM92.1445 26.604V26.504H91.8645V26.604V26.704H92.1445V26.604ZM91.8645 26.604H91.9645V26.324H91.8645H91.7645V26.604H91.8645ZM91.8645 26.324V26.224H91.4445V26.324V26.424H91.8645V26.324ZM91.4445 26.324H91.5445V26.044H91.4445H91.3445V26.324H91.4445ZM91.4445 26.044V25.944H91.1645V26.044V26.144H91.4445V26.044ZM91.1645 26.044H91.2645V25.764H91.1645H91.0645V26.044H91.1645ZM91.1645 25.764V25.664H90.8845V25.764V25.864H91.1645V25.764ZM90.8845 25.764H90.9845V25.484H90.8845H90.7845V25.764H90.8845ZM90.8845 25.484V25.384H90.4645V25.484V25.584H90.8845V25.484ZM90.4645 25.484H90.5645V25.204H90.4645H90.3645V25.484H90.4645ZM90.4645 25.204V25.104H90.1845V25.204V25.304H90.4645V25.204ZM90.1845 25.204H90.2845V24.924H90.1845H90.0845V25.204H90.1845ZM90.1845 24.924V24.824H89.9045V24.924V25.024H90.1845V24.924ZM89.9045 24.924H90.0045V24.644H89.9045H89.8045V24.924H89.9045ZM89.9045 24.644V24.544H89.6245V24.644V24.744H89.9045V24.644ZM89.6245 24.644H89.7245V24.364H89.6245H89.5245V24.644H89.6245ZM89.6245 24.364V24.264H89.3445V24.364V24.464H89.6245V24.364ZM89.3445 24.364H89.2445V24.644H89.3445H89.4445V24.364H89.3445ZM89.3445 24.644V24.544H89.0645V24.644V24.744H89.3445V24.644ZM89.0645 24.644H88.9645V24.924H89.0645H89.1645V24.644H89.0645ZM89.0645 24.924V24.824H88.7845V24.924V25.024H89.0645V24.924ZM88.7845 24.924H88.6845V25.204H88.7845H88.8845V24.924H88.7845ZM88.7845 25.204V25.104H88.5045V25.204V25.304H88.7845V25.204ZM88.5045 25.204H88.4045V25.484H88.5045H88.6045V25.204H88.5045ZM88.5045 25.484V25.384H88.2245V25.484V25.584H88.5045V25.484ZM88.2245 25.484H88.1245V25.764H88.2245H88.3245V25.484H88.2245ZM88.2245 25.764V25.664H87.9445V25.764V25.864H88.2245V25.764ZM87.9445 25.764H87.8445V26.044H87.9445H88.0445V25.764H87.9445ZM87.9445 26.044V25.944H87.6645V26.044V26.144H87.9445V26.044ZM87.6645 26.044H87.5645V26.324H87.6645H87.7645V26.044H87.6645ZM87.6645 26.324V26.224H87.3845V26.324V26.424H87.6645V26.324ZM87.3845 26.324H87.2845V26.604H87.3845H87.4845V26.324H87.3845ZM87.3845 26.604V26.504H87.1045V26.604V26.704H87.3845V26.604ZM87.1045 26.604H87.0045V26.884H87.1045H87.2045V26.604H87.1045ZM87.1045 26.884V26.784H86.6845V26.884V26.984H87.1045V26.884ZM86.6845 26.884H86.5845V27.164H86.6845H86.7845V26.884H86.6845ZM86.6845 27.164V27.064H86.4045V27.164V27.264H86.6845V27.164ZM86.4045 27.164H86.3045V27.444H86.4045H86.5045V27.164H86.4045ZM86.4045 27.444V27.344H85.9845V27.444V27.544H86.4045V27.444ZM85.9845 27.444H85.8845V27.724H85.9845H86.0845V27.444H85.9845ZM85.9845 27.724V27.624H85.5645V27.724V27.824H85.9845V27.724ZM85.5645 27.724H85.4645V28.004H85.5645H85.6645V27.724H85.5645ZM85.5645 28.004V27.904H85.0045V28.004V28.104H85.5645V28.004ZM85.0045 28.004H85.1045V27.724H85.0045H84.9045V28.004H85.0045ZM85.0045 27.724V27.624H84.7245V27.724V27.824H85.0045V27.724ZM84.7245 27.724H84.8245V27.304H84.7245H84.6245V27.724H84.7245ZM84.7245 27.304V27.204H84.4445V27.304V27.404H84.7245V27.304ZM84.4445 27.304H84.5445V26.744H84.4445H84.3445V27.304H84.4445ZM84.4445 26.744V26.844H84.7245V26.744V26.644H84.4445V26.744ZM84.7245 26.744H84.8245V26.464H84.7245H84.6245V26.744H84.7245ZM84.7245 26.464V26.564H85.0045V26.464V26.364H84.7245V26.464ZM85.0045 26.464H85.1045V26.184H85.0045H84.9045V26.464H85.0045ZM85.0045 26.184V26.284H85.4245V26.184V26.084H85.0045V26.184ZM85.4245 26.184H85.5245V25.904H85.4245H85.3245V26.184H85.4245ZM85.4245 25.904V26.004H85.8445V25.904V25.804H85.4245V25.904ZM85.8445 25.904H85.9445V25.624H85.8445H85.7445V25.904H85.8445ZM85.8445 25.624V25.724H86.1245V25.624V25.524H85.8445V25.624ZM86.1245 25.624H86.2245V25.344H86.1245H86.0245V25.624H86.1245ZM86.1245 25.344V25.444H86.4045V25.344V25.244H86.1245V25.344ZM86.4045 25.344H86.5045V25.064H86.4045H86.3045V25.344H86.4045ZM86.4045 25.064V25.164H86.6845V25.064V24.964H86.4045V25.064ZM86.6845 25.064H86.7845V24.784H86.6845H86.5845V25.064H86.6845ZM86.6845 24.784V24.884H86.9645V24.784V24.684H86.6845V24.784ZM86.9645 24.784H87.0645V24.504H86.9645H86.8645V24.784H86.9645ZM86.9645 24.504V24.604H87.2445V24.504V24.404H86.9645V24.504ZM87.2445 24.504H87.3445V24.084H87.2445H87.1445V24.504H87.2445ZM87.2445 24.084V24.184H87.5245V24.084V23.984H87.2445V24.084ZM87.5245 24.084H87.6245V23.804H87.5245H87.4245V24.084H87.5245ZM87.5245 23.804V23.904H87.9445V23.804V23.704H87.5245V23.804ZM87.9445 23.804H88.0445V23.384H87.9445H87.8445V23.804H87.9445ZM87.9445 23.384V23.484H88.2245V23.384V23.284H87.9445V23.384ZM88.2245 23.384H88.3245V22.964H88.2245H88.1245V23.384H88.2245ZM88.2245 22.964V23.064H88.5045V22.964V22.864H88.2245V22.964ZM88.5045 22.964H88.6045V22.544H88.5045H88.4045V22.964H88.5045ZM88.5045 22.544V22.644H88.7845V22.544V22.444H88.5045V22.544ZM88.7845 22.544H88.8845V22.124H88.7845H88.6845V22.544H88.7845ZM88.7845 22.124V22.224H89.0645V22.124V22.024H88.7845V22.124ZM89.0645 22.124H89.1645V21.564H89.0645H88.9645V22.124H89.0645ZM89.0645 21.564V21.664H89.3445V21.564V21.464H89.0645V21.564ZM89.3445 21.564H89.4445V21.144H89.3445H89.2445V21.564H89.3445ZM89.3445 21.144V21.244H89.6245V21.144V21.044H89.3445V21.144ZM89.6245 21.144H89.7245V20.724H89.6245H89.5245V21.144H89.6245ZM89.6245 20.724V20.824H90.1845V20.724V20.624H89.6245V20.724ZM84.4445 32.12H84.5445V31.84H84.4445H84.3445V32.12H84.4445ZM84.4445 31.84V31.74H84.1645V31.84V31.94H84.4445V31.84ZM84.1645 31.84H84.2645V30.944H84.1645H84.0645V31.84H84.1645ZM84.1645 30.944V31.044H84.4445V30.944V30.844H84.1645V30.944ZM84.4445 30.944H84.5445V30.664H84.4445H84.3445V30.944H84.4445ZM84.4445 30.664V30.764H94.9445V30.664V30.564H84.4445V30.664ZM94.9445 30.664H94.8445V30.944H94.9445H95.0445V30.664H94.9445ZM94.9445 30.944V31.044H95.2245V30.944V30.844H94.9445V30.944ZM95.2245 30.944H95.1245V31.84H95.2245H95.3245V30.944H95.2245ZM95.2245 31.84V31.74H94.9445V31.84V31.94H95.2245V31.84ZM94.9445 31.84H94.8445V32.12H94.9445H95.0445V31.84H94.9445ZM94.9445 32.12V32.02H84.4445V32.12V32.22H94.9445V32.12Z" fill="#007495"/>
<path d="M50.3652 38.3672L50.3643 38.3789C50.3512 38.9163 50.2036 39.4419 49.9346 39.9072C49.7191 40.2798 49.4317 40.6044 49.0898 40.8623C49.0043 40.9268 48.9617 40.9682 48.9395 40.9951C48.0848 42.033 47.007 42.8665 45.7852 43.4326C44.4931 44.0313 43.077 44.3128 41.6543 44.2559C37.043 44.2447 33.0832 41.2376 33.083 37.0078C33.083 32.7702 37.0575 29.7579 41.6797 29.7578C42.2781 29.744 42.8755 29.783 43.4648 29.873C43.5968 29.8932 43.7342 29.8544 43.832 29.7803C43.9231 29.7111 43.9482 29.6393 43.9482 29.5791V21.9697C43.948 21.8297 43.8076 21.7331 43.6768 21.7832L28.4102 27.6416C28.3328 27.6713 28.2812 27.7463 28.2812 27.8291V42.7959C28.2681 43.3331 28.1206 43.859 27.8516 44.3242C27.636 44.6968 27.3478 45.0214 27.0059 45.2793C26.9205 45.3437 26.8786 45.3852 26.8564 45.4121C26.0018 46.4501 24.9231 47.2835 23.7012 47.8496C22.4111 48.4473 20.9976 48.7287 19.5771 48.6729C14.9631 48.6644 11 45.6556 11 41.4238C11.0003 37.1935 14.961 34.185 19.5732 34.1748C20.1507 34.1615 20.7275 34.1969 21.2969 34.2803C21.4285 34.2996 21.5654 34.2614 21.6621 34.1875C21.7521 34.1187 21.7764 34.0473 21.7764 33.9873V17.0127C21.7822 16.3758 21.978 15.755 22.3379 15.2295C22.6528 14.7696 23.0814 14.4011 23.5801 14.1582L23.7979 14.0615L45.8799 5.22852H45.8809C46.3666 5.03478 46.8922 4.9627 47.4121 5.01855C47.932 5.07446 48.4308 5.25631 48.8643 5.54883L48.8633 5.5498C49.3003 5.82426 49.6658 6.19878 49.9268 6.64453C50.1955 7.10374 50.3459 7.62251 50.3643 8.1543L50.3652 8.17188V38.3672Z" fill="#FE96FF" stroke="white" stroke-width="2" stroke-miterlimit="2.3662"/>
</g>
<defs>
<filter id="filter0_dd_874_7039" x="0" y="0" width="185" height="60" filterUnits="userSpaceOnUse" color-interpolation-filters="sRGB">
<feFlood flood-opacity="0" result="BackgroundImageFix"/>
<feColorMatrix in="SourceAlpha" type="matrix" values="0 0 0 0 0 0 0 0 0 0 0 0 0 0 0 0 0 0 127 0" result="hardAlpha"/>
<feOffset dx="-2" dy="4"/>
<feGaussianBlur stdDeviation="1"/>
<feComposite in2="hardAlpha" operator="out"/>
<feColorMatrix type="matrix" values="0 0 0 0 0.109804 0 0 0 0 0.792157 0 0 0 0 0.984314 0 0 0 0.6 0"/>
<feBlend mode="normal" in2="BackgroundImageFix" result="effect1_dropShadow_874_7039"/>
<feColorMatrix in="SourceAlpha" type="matrix" values="0 0 0 0 0 0 0 0 0 0 0 0 0 0 0 0 0 0 127 0" result="hardAlpha"/>
<feOffset dx="-2" dy="4"/>
<feGaussianBlur stdDeviation="1"/>
<feComposite in2="hardAlpha" operator="out"/>
<feColorMatrix type="matrix" values="0 0 0 0 0 0 0 0 0 0 0 0 0 0 0 0 0 0 0.1 0"/>
<feBlend mode="normal" in2="effect1_dropShadow_874_7039" result="effect2_dropShadow_874_7039"/>
<feBlend mode="normal" in="SourceGraphic" in2="effect2_dropShadow_874_7039" result="shape"/>
</filter>
</defs>
</svg>
