<svg width="185" height="60" viewBox="0 0 185 60" fill="none" xmlns="http://www.w3.org/2000/svg">
<g filter="url(#filter0_dd_1098_7071)">
<rect x="44" y="12" width="78" height="30" rx="4" fill="white"/>
<path d="M59.8281 32.12V31.84H59.5481V30.944H59.8281V30.664H64.2101V27.822H63.3421V27.542H62.2221V27.262H61.6621V26.982H61.1021V26.702H60.8221V26.422H60.5421V25.862H60.2621V25.302H59.9821V23.3H60.2621V22.74H60.5421V22.18H60.8221V21.9H61.1021V21.62H61.6621V21.34H62.2221V21.06H63.3421V20.78H66.8141V21.06H67.9341V21.34H68.4941V21.62H69.0541V21.9H69.3341V22.18H69.6141V22.74H69.8941V23.3H70.1741V25.302H69.8941V25.862H69.6141V26.422H69.3341V26.702H69.0541V26.982H68.4941V27.262H67.9341V27.542H66.8141V27.822H65.9461V30.664H70.3281V30.944H70.6081V31.84H70.3281V32.12H59.8281ZM63.6221 26.422H66.5341V26.142H67.3741V25.862H67.9341V25.582H68.2141V25.022H68.4941V23.58H68.2141V23.02H67.9341V22.74H67.3741V22.46H66.5341V22.18H63.6221V22.46H62.7821V22.74H62.2221V23.02H61.9421V23.58H61.6621V25.022H61.9421V25.582H62.2221V25.862H62.7821V26.142H63.6221V26.422ZM81.9036 32.4H81.6236V32.68H80.4476V32.4H80.1676V20.78H80.4476V20.5H81.6236V20.78H81.9036V25.386H83.2336V25.666H83.5136V26.618H83.2336V26.898H81.9036V32.4ZM76.5276 30.72V30.44H76.8076V22.46H76.5276V22.18H73.9236V22.46H73.6436V30.44H73.9236V30.72H76.5276ZM71.9636 31V21.9H72.2436V21.34H72.5236V21.06H73.0836V20.78H77.3676V21.06H77.9276V21.34H78.2076V21.9H78.4876V31H78.2076V31.56H77.9276V31.84H77.3676V32.12H73.0836V31.84H72.5236V31.56H72.2436V31H71.9636ZM94.3891 32.4H94.1091V32.68H92.9331V32.4H92.6531V20.78H92.9331V20.5H94.1091V20.78H94.3891V32.4ZM86.3951 32.246V31.966H85.8351V31.686H85.5551V31.406H85.2751V31.126H84.9951V30.566H84.7151V29.726H84.4351V28.606H84.1551V24.28H84.4351V23.16H84.7151V22.32H84.9951V21.76H85.2751V21.48H85.5551V21.2H85.8351V20.92H86.3951V20.64H88.7471V20.92H89.3071V21.2H89.5871V21.48H89.8671V21.76H90.1471V22.32H90.4271V23.16H90.7071V24.28H90.9871V28.606H90.7071V29.726H90.4271V30.566H90.1471V31.126H89.8671V31.406H89.5871V31.686H89.3071V31.966H88.7471V32.246H86.3951ZM87.2211 30.846H87.9211V30.566H88.4811V30.286H88.7611V29.726H89.0411V28.606H89.3211V24.28H89.0411V23.16H88.7611V22.6H88.4811V22.32H87.9211V22.04H87.2211V22.32H86.6611V22.6H86.3811V23.16H86.1011V24.28H85.8211V28.606H86.1011V29.726H86.3811V30.286H86.6611V30.566H87.2211V30.846ZM104.859 26.226V24.588H103.151V24.308H102.871V23.44H103.151V23.16H104.859V20.78H105.139V20.5H106.315V20.78H106.595V26.226H106.315V26.506H105.139V26.226H104.859ZM104.887 28.55H104.607V28.27H97.4805V27.99H97.2005V27.248H97.4805V26.968H105.475V27.248H106.035V27.528H106.315V28.088H106.595V29.32H106.315V29.88H106.035V30.16H105.475V30.44H99.1885V30.72H98.9085V31.112H99.1885V31.392H106.469V31.672H106.749V32.456H106.469V32.736H98.3205V32.456H97.7605V32.176H97.4805V31.616H97.2005V30.328H97.4805V29.768H97.7605V29.488H98.3205V29.208H104.607V28.928H104.887V28.55ZM96.4725 26.604V26.324H96.1925V25.442H96.4725V25.162H97.3685V24.882H98.2085V24.602H98.7685V24.322H99.3285V24.042H99.8885V23.762H100.169V23.482H100.449V23.202H100.729V22.908H101.009V22.46H100.729V22.18H96.7245V21.9H96.4445V21.06H96.7245V20.78H101.569V21.06H102.129V21.34H102.409V21.62H102.689V23.216H102.409V23.79H102.129V24.084H101.849V24.364H101.569V24.644H101.289V24.924H100.869V25.204H100.449V25.484H99.8885V25.764H99.1885V26.044H98.4885V26.324H97.6485V26.604H96.4725Z" fill="#007495"/>
<path d="M59.8281 32.12H59.7281V32.22H59.8281V32.12ZM59.8281 31.84H59.9281V31.74H59.8281V31.84ZM59.5481 31.84H59.4481V31.94H59.5481V31.84ZM59.5481 30.944V30.844H59.4481V30.944H59.5481ZM59.8281 30.944V31.044H59.9281V30.944H59.8281ZM59.8281 30.664V30.564H59.7281V30.664H59.8281ZM64.2101 30.664V30.764H64.3101V30.664H64.2101ZM64.2101 27.822H64.3101V27.722H64.2101V27.822ZM63.3421 27.822H63.2421V27.922H63.3421V27.822ZM63.3421 27.542H63.4421V27.442H63.3421V27.542ZM62.2221 27.542H62.1221V27.642H62.2221V27.542ZM62.2221 27.262H62.3221V27.162H62.2221V27.262ZM61.6621 27.262H61.5621V27.362H61.6621V27.262ZM61.6621 26.982H61.7621V26.882H61.6621V26.982ZM61.1021 26.982H61.0021V27.082H61.1021V26.982ZM61.1021 26.702H61.2021V26.602H61.1021V26.702ZM60.8221 26.702H60.7221V26.802H60.8221V26.702ZM60.8221 26.422H60.9221V26.322H60.8221V26.422ZM60.5421 26.422H60.4421V26.522H60.5421V26.422ZM60.5421 25.862H60.6421V25.762H60.5421V25.862ZM60.2621 25.862H60.1621V25.962H60.2621V25.862ZM60.2621 25.302H60.3621V25.202H60.2621V25.302ZM59.9821 25.302H59.8821V25.402H59.9821V25.302ZM59.9821 23.3V23.2H59.8821V23.3H59.9821ZM60.2621 23.3V23.4H60.3621V23.3H60.2621ZM60.2621 22.74V22.64H60.1621V22.74H60.2621ZM60.5421 22.74V22.84H60.6421V22.74H60.5421ZM60.5421 22.18V22.08H60.4421V22.18H60.5421ZM60.8221 22.18V22.28H60.9221V22.18H60.8221ZM60.8221 21.9V21.8H60.7221V21.9H60.8221ZM61.1021 21.9V22H61.2021V21.9H61.1021ZM61.1021 21.62V21.52H61.0021V21.62H61.1021ZM61.6621 21.62V21.72H61.7621V21.62H61.6621ZM61.6621 21.34V21.24H61.5621V21.34H61.6621ZM62.2221 21.34V21.44H62.3221V21.34H62.2221ZM62.2221 21.06V20.96H62.1221V21.06H62.2221ZM63.3421 21.06V21.16H63.4421V21.06H63.3421ZM63.3421 20.78V20.68H63.2421V20.78H63.3421ZM66.8141 20.78H66.9141V20.68H66.8141V20.78ZM66.8141 21.06H66.7141V21.16H66.8141V21.06ZM67.9341 21.06H68.0341V20.96H67.9341V21.06ZM67.9341 21.34H67.8341V21.44H67.9341V21.34ZM68.4941 21.34H68.5941V21.24H68.4941V21.34ZM68.4941 21.62H68.3941V21.72H68.4941V21.62ZM69.0541 21.62H69.1541V21.52H69.0541V21.62ZM69.0541 21.9H68.9541V22H69.0541V21.9ZM69.3341 21.9H69.4341V21.8H69.3341V21.9ZM69.3341 22.18H69.2341V22.28H69.3341V22.18ZM69.6141 22.18H69.7141V22.08H69.6141V22.18ZM69.6141 22.74H69.5141V22.84H69.6141V22.74ZM69.8941 22.74H69.9941V22.64H69.8941V22.74ZM69.8941 23.3H69.7941V23.4H69.8941V23.3ZM70.1741 23.3H70.2741V23.2H70.1741V23.3ZM70.1741 25.302V25.402H70.2741V25.302H70.1741ZM69.8941 25.302V25.202H69.7941V25.302H69.8941ZM69.8941 25.862V25.962H69.9941V25.862H69.8941ZM69.6141 25.862V25.762H69.5141V25.862H69.6141ZM69.6141 26.422V26.522H69.7141V26.422H69.6141ZM69.3341 26.422V26.322H69.2341V26.422H69.3341ZM69.3341 26.702V26.802H69.4341V26.702H69.3341ZM69.0541 26.702V26.602H68.9541V26.702H69.0541ZM69.0541 26.982V27.082H69.1541V26.982H69.0541ZM68.4941 26.982V26.882H68.3941V26.982H68.4941ZM68.4941 27.262V27.362H68.5941V27.262H68.4941ZM67.9341 27.262V27.162H67.8341V27.262H67.9341ZM67.9341 27.542V27.642H68.0341V27.542H67.9341ZM66.8141 27.542V27.442H66.7141V27.542H66.8141ZM66.8141 27.822V27.922H66.9141V27.822H66.8141ZM65.9461 27.822V27.722H65.8461V27.822H65.9461ZM65.9461 30.664H65.8461V30.764H65.9461V30.664ZM70.3281 30.664H70.4281V30.564H70.3281V30.664ZM70.3281 30.944H70.2281V31.044H70.3281V30.944ZM70.6081 30.944H70.7081V30.844H70.6081V30.944ZM70.6081 31.84V31.94H70.7081V31.84H70.6081ZM70.3281 31.84V31.74H70.2281V31.84H70.3281ZM70.3281 32.12V32.22H70.4281V32.12H70.3281ZM63.6221 26.422H63.5221V26.522H63.6221V26.422ZM66.5341 26.422V26.522H66.6341V26.422H66.5341ZM66.5341 26.142V26.042H66.4341V26.142H66.5341ZM67.3741 26.142V26.242H67.4741V26.142H67.3741ZM67.3741 25.862V25.762H67.2741V25.862H67.3741ZM67.9341 25.862V25.962H68.0341V25.862H67.9341ZM67.9341 25.582V25.482H67.8341V25.582H67.9341ZM68.2141 25.582V25.682H68.3141V25.582H68.2141ZM68.2141 25.022V24.922H68.1141V25.022H68.2141ZM68.4941 25.022V25.122H68.5941V25.022H68.4941ZM68.4941 23.58H68.5941V23.48H68.4941V23.58ZM68.2141 23.58H68.1141V23.68H68.2141V23.58ZM68.2141 23.02H68.3141V22.92H68.2141V23.02ZM67.9341 23.02H67.8341V23.12H67.9341V23.02ZM67.9341 22.74H68.0341V22.64H67.9341V22.74ZM67.3741 22.74H67.2741V22.84H67.3741V22.74ZM67.3741 22.46H67.4741V22.36H67.3741V22.46ZM66.5341 22.46H66.4341V22.56H66.5341V22.46ZM66.5341 22.18H66.6341V22.08H66.5341V22.18ZM63.6221 22.18V22.08H63.5221V22.18H63.6221ZM63.6221 22.46V22.56H63.7221V22.46H63.6221ZM62.7821 22.46V22.36H62.6821V22.46H62.7821ZM62.7821 22.74V22.84H62.8821V22.74H62.7821ZM62.2221 22.74V22.64H62.1221V22.74H62.2221ZM62.2221 23.02V23.12H62.3221V23.02H62.2221ZM61.9421 23.02V22.92H61.8421V23.02H61.9421ZM61.9421 23.58V23.68H62.0421V23.58H61.9421ZM61.6621 23.58V23.48H61.5621V23.58H61.6621ZM61.6621 25.022H61.5621V25.122H61.6621V25.022ZM61.9421 25.022H62.0421V24.922H61.9421V25.022ZM61.9421 25.582H61.8421V25.682H61.9421V25.582ZM62.2221 25.582H62.3221V25.482H62.2221V25.582ZM62.2221 25.862H62.1221V25.962H62.2221V25.862ZM62.7821 25.862H62.8821V25.762H62.7821V25.862ZM62.7821 26.142H62.6821V26.242H62.7821V26.142ZM63.6221 26.142H63.7221V26.042H63.6221V26.142ZM59.8281 32.12H59.9281V31.84H59.8281H59.7281V32.12H59.8281ZM59.8281 31.84V31.74H59.5481V31.84V31.94H59.8281V31.84ZM59.5481 31.84H59.6481V30.944H59.5481H59.4481V31.84H59.5481ZM59.5481 30.944V31.044H59.8281V30.944V30.844H59.5481V30.944ZM59.8281 30.944H59.9281V30.664H59.8281H59.7281V30.944H59.8281ZM59.8281 30.664V30.764H64.2101V30.664V30.564H59.8281V30.664ZM64.2101 30.664H64.3101V27.822H64.2101H64.1101V30.664H64.2101ZM64.2101 27.822V27.722H63.3421V27.822V27.922H64.2101V27.822ZM63.3421 27.822H63.4421V27.542H63.3421H63.2421V27.822H63.3421ZM63.3421 27.542V27.442H62.2221V27.542V27.642H63.3421V27.542ZM62.2221 27.542H62.3221V27.262H62.2221H62.1221V27.542H62.2221ZM62.2221 27.262V27.162H61.6621V27.262V27.362H62.2221V27.262ZM61.6621 27.262H61.7621V26.982H61.6621H61.5621V27.262H61.6621ZM61.6621 26.982V26.882H61.1021V26.982V27.082H61.6621V26.982ZM61.1021 26.982H61.2021V26.702H61.1021H61.0021V26.982H61.1021ZM61.1021 26.702V26.602H60.8221V26.702V26.802H61.1021V26.702ZM60.8221 26.702H60.9221V26.422H60.8221H60.7221V26.702H60.8221ZM60.8221 26.422V26.322H60.5421V26.422V26.522H60.8221V26.422ZM60.5421 26.422H60.6421V25.862H60.5421H60.4421V26.422H60.5421ZM60.5421 25.862V25.762H60.2621V25.862V25.962H60.5421V25.862ZM60.2621 25.862H60.3621V25.302H60.2621H60.1621V25.862H60.2621ZM60.2621 25.302V25.202H59.9821V25.302V25.402H60.2621V25.302ZM59.9821 25.302H60.0821V23.3H59.9821H59.8821V25.302H59.9821ZM59.9821 23.3V23.4H60.2621V23.3V23.2H59.9821V23.3ZM60.2621 23.3H60.3621V22.74H60.2621H60.1621V23.3H60.2621ZM60.2621 22.74V22.84H60.5421V22.74V22.64H60.2621V22.74ZM60.5421 22.74H60.6421V22.18H60.5421H60.4421V22.74H60.5421ZM60.5421 22.18V22.28H60.8221V22.18V22.08H60.5421V22.18ZM60.8221 22.18H60.9221V21.9H60.8221H60.7221V22.18H60.8221ZM60.8221 21.9V22H61.1021V21.9V21.8H60.8221V21.9ZM61.1021 21.9H61.2021V21.62H61.1021H61.0021V21.9H61.1021ZM61.1021 21.62V21.72H61.6621V21.62V21.52H61.1021V21.62ZM61.6621 21.62H61.7621V21.34H61.6621H61.5621V21.62H61.6621ZM61.6621 21.34V21.44H62.2221V21.34V21.24H61.6621V21.34ZM62.2221 21.34H62.3221V21.06H62.2221H62.1221V21.34H62.2221ZM62.2221 21.06V21.16H63.3421V21.06V20.96H62.2221V21.06ZM63.3421 21.06H63.4421V20.78H63.3421H63.2421V21.06H63.3421ZM63.3421 20.78V20.88H66.8141V20.78V20.68H63.3421V20.78ZM66.8141 20.78H66.7141V21.06H66.8141H66.9141V20.78H66.8141ZM66.8141 21.06V21.16H67.9341V21.06V20.96H66.8141V21.06ZM67.9341 21.06H67.8341V21.34H67.9341H68.0341V21.06H67.9341ZM67.9341 21.34V21.44H68.4941V21.34V21.24H67.9341V21.34ZM68.4941 21.34H68.3941V21.62H68.4941H68.5941V21.34H68.4941ZM68.4941 21.62V21.72H69.0541V21.62V21.52H68.4941V21.62ZM69.0541 21.62H68.9541V21.9H69.0541H69.1541V21.62H69.0541ZM69.0541 21.9V22H69.3341V21.9V21.8H69.0541V21.9ZM69.3341 21.9H69.2341V22.18H69.3341H69.4341V21.9H69.3341ZM69.3341 22.18V22.28H69.6141V22.18V22.08H69.3341V22.18ZM69.6141 22.18H69.5141V22.74H69.6141H69.7141V22.18H69.6141ZM69.6141 22.74V22.84H69.8941V22.74V22.64H69.6141V22.74ZM69.8941 22.74H69.7941V23.3H69.8941H69.9941V22.74H69.8941ZM69.8941 23.3V23.4H70.1741V23.3V23.2H69.8941V23.3ZM70.1741 23.3H70.0741V25.302H70.1741H70.2741V23.3H70.1741ZM70.1741 25.302V25.202H69.8941V25.302V25.402H70.1741V25.302ZM69.8941 25.302H69.7941V25.862H69.8941H69.9941V25.302H69.8941ZM69.8941 25.862V25.762H69.6141V25.862V25.962H69.8941V25.862ZM69.6141 25.862H69.5141V26.422H69.6141H69.7141V25.862H69.6141ZM69.6141 26.422V26.322H69.3341V26.422V26.522H69.6141V26.422ZM69.3341 26.422H69.2341V26.702H69.3341H69.4341V26.422H69.3341ZM69.3341 26.702V26.602H69.0541V26.702V26.802H69.3341V26.702ZM69.0541 26.702H68.9541V26.982H69.0541H69.1541V26.702H69.0541ZM69.0541 26.982V26.882H68.4941V26.982V27.082H69.0541V26.982ZM68.4941 26.982H68.3941V27.262H68.4941H68.5941V26.982H68.4941ZM68.4941 27.262V27.162H67.9341V27.262V27.362H68.4941V27.262ZM67.9341 27.262H67.8341V27.542H67.9341H68.0341V27.262H67.9341ZM67.9341 27.542V27.442H66.8141V27.542V27.642H67.9341V27.542ZM66.8141 27.542H66.7141V27.822H66.8141H66.9141V27.542H66.8141ZM66.8141 27.822V27.722H65.9461V27.822V27.922H66.8141V27.822ZM65.9461 27.822H65.8461V30.664H65.9461H66.0461V27.822H65.9461ZM65.9461 30.664V30.764H70.3281V30.664V30.564H65.9461V30.664ZM70.3281 30.664H70.2281V30.944H70.3281H70.4281V30.664H70.3281ZM70.3281 30.944V31.044H70.6081V30.944V30.844H70.3281V30.944ZM70.6081 30.944H70.5081V31.84H70.6081H70.7081V30.944H70.6081ZM70.6081 31.84V31.74H70.3281V31.84V31.94H70.6081V31.84ZM70.3281 31.84H70.2281V32.12H70.3281H70.4281V31.84H70.3281ZM70.3281 32.12V32.02H59.8281V32.12V32.22H70.3281V32.12ZM63.6221 26.422V26.522H66.5341V26.422V26.322H63.6221V26.422ZM66.5341 26.422H66.6341V26.142H66.5341H66.4341V26.422H66.5341ZM66.5341 26.142V26.242H67.3741V26.142V26.042H66.5341V26.142ZM67.3741 26.142H67.4741V25.862H67.3741H67.2741V26.142H67.3741ZM67.3741 25.862V25.962H67.9341V25.862V25.762H67.3741V25.862ZM67.9341 25.862H68.0341V25.582H67.9341H67.8341V25.862H67.9341ZM67.9341 25.582V25.682H68.2141V25.582V25.482H67.9341V25.582ZM68.2141 25.582H68.3141V25.022H68.2141H68.1141V25.582H68.2141ZM68.2141 25.022V25.122H68.4941V25.022V24.922H68.2141V25.022ZM68.4941 25.022H68.5941V23.58H68.4941H68.3941V25.022H68.4941ZM68.4941 23.58V23.48H68.2141V23.58V23.68H68.4941V23.58ZM68.2141 23.58H68.3141V23.02H68.2141H68.1141V23.58H68.2141ZM68.2141 23.02V22.92H67.9341V23.02V23.12H68.2141V23.02ZM67.9341 23.02H68.0341V22.74H67.9341H67.8341V23.02H67.9341ZM67.9341 22.74V22.64H67.3741V22.74V22.84H67.9341V22.74ZM67.3741 22.74H67.4741V22.46H67.3741H67.2741V22.74H67.3741ZM67.3741 22.46V22.36H66.5341V22.46V22.56H67.3741V22.46ZM66.5341 22.46H66.6341V22.18H66.5341H66.4341V22.46H66.5341ZM66.5341 22.18V22.08H63.6221V22.18V22.28H66.5341V22.18ZM63.6221 22.18H63.5221V22.46H63.6221H63.7221V22.18H63.6221ZM63.6221 22.46V22.36H62.7821V22.46V22.56H63.6221V22.46ZM62.7821 22.46H62.6821V22.74H62.7821H62.8821V22.46H62.7821ZM62.7821 22.74V22.64H62.2221V22.74V22.84H62.7821V22.74ZM62.2221 22.74H62.1221V23.02H62.2221H62.3221V22.74H62.2221ZM62.2221 23.02V22.92H61.9421V23.02V23.12H62.2221V23.02ZM61.9421 23.02H61.8421V23.58H61.9421H62.0421V23.02H61.9421ZM61.9421 23.58V23.48H61.6621V23.58V23.68H61.9421V23.58ZM61.6621 23.58H61.5621V25.022H61.6621H61.7621V23.58H61.6621ZM61.6621 25.022V25.122H61.9421V25.022V24.922H61.6621V25.022ZM61.9421 25.022H61.8421V25.582H61.9421H62.0421V25.022H61.9421ZM61.9421 25.582V25.682H62.2221V25.582V25.482H61.9421V25.582ZM62.2221 25.582H62.1221V25.862H62.2221H62.3221V25.582H62.2221ZM62.2221 25.862V25.962H62.7821V25.862V25.762H62.2221V25.862ZM62.7821 25.862H62.6821V26.142H62.7821H62.8821V25.862H62.7821ZM62.7821 26.142V26.242H63.6221V26.142V26.042H62.7821V26.142ZM63.6221 26.142H63.5221V26.422H63.6221H63.7221V26.142H63.6221ZM81.9036 32.4V32.5H82.0036V32.4H81.9036ZM81.6236 32.4V32.3H81.5236V32.4H81.6236ZM81.6236 32.68V32.78H81.7236V32.68H81.6236ZM80.4476 32.68H80.3476V32.78H80.4476V32.68ZM80.4476 32.4H80.5476V32.3H80.4476V32.4ZM80.1676 32.4H80.0676V32.5H80.1676V32.4ZM80.1676 20.78V20.68H80.0676V20.78H80.1676ZM80.4476 20.78V20.88H80.5476V20.78H80.4476ZM80.4476 20.5V20.4H80.3476V20.5H80.4476ZM81.6236 20.5H81.7236V20.4H81.6236V20.5ZM81.6236 20.78H81.5236V20.88H81.6236V20.78ZM81.9036 20.78H82.0036V20.68H81.9036V20.78ZM81.9036 25.386H81.8036V25.486H81.9036V25.386ZM83.2336 25.386H83.3336V25.286H83.2336V25.386ZM83.2336 25.666H83.1336V25.766H83.2336V25.666ZM83.5136 25.666H83.6136V25.566H83.5136V25.666ZM83.5136 26.618V26.718H83.6136V26.618H83.5136ZM83.2336 26.618V26.518H83.1336V26.618H83.2336ZM83.2336 26.898V26.998H83.3336V26.898H83.2336ZM81.9036 26.898V26.798H81.8036V26.898H81.9036ZM76.5276 30.72V30.82H76.6276V30.72H76.5276ZM76.5276 30.44V30.34H76.4276V30.44H76.5276ZM76.8076 30.44V30.54H76.9076V30.44H76.8076ZM76.8076 22.46H76.9076V22.36H76.8076V22.46ZM76.5276 22.46H76.4276V22.56H76.5276V22.46ZM76.5276 22.18H76.6276V22.08H76.5276V22.18ZM73.9236 22.18V22.08H73.8236V22.18H73.9236ZM73.9236 22.46V22.56H74.0236V22.46H73.9236ZM73.6436 22.46V22.36H73.5436V22.46H73.6436ZM73.6436 30.44H73.5436V30.54H73.6436V30.44ZM73.9236 30.44H74.0236V30.34H73.9236V30.44ZM73.9236 30.72H73.8236V30.82H73.9236V30.72ZM71.9636 31H71.8636V31.1H71.9636V31ZM71.9636 21.9V21.8H71.8636V21.9H71.9636ZM72.2436 21.9V22H72.3436V21.9H72.2436ZM72.2436 21.34V21.24H72.1436V21.34H72.2436ZM72.5236 21.34V21.44H72.6236V21.34H72.5236ZM72.5236 21.06V20.96H72.4236V21.06H72.5236ZM73.0836 21.06V21.16H73.1836V21.06H73.0836ZM73.0836 20.78V20.68H72.9836V20.78H73.0836ZM77.3676 20.78H77.4676V20.68H77.3676V20.78ZM77.3676 21.06H77.2676V21.16H77.3676V21.06ZM77.9276 21.06H78.0276V20.96H77.9276V21.06ZM77.9276 21.34H77.8276V21.44H77.9276V21.34ZM78.2076 21.34H78.3076V21.24H78.2076V21.34ZM78.2076 21.9H78.1076V22H78.2076V21.9ZM78.4876 21.9H78.5876V21.8H78.4876V21.9ZM78.4876 31V31.1H78.5876V31H78.4876ZM78.2076 31V30.9H78.1076V31H78.2076ZM78.2076 31.56V31.66H78.3076V31.56H78.2076ZM77.9276 31.56V31.46H77.8276V31.56H77.9276ZM77.9276 31.84V31.94H78.0276V31.84H77.9276ZM77.3676 31.84V31.74H77.2676V31.84H77.3676ZM77.3676 32.12V32.22H77.4676V32.12H77.3676ZM73.0836 32.12H72.9836V32.22H73.0836V32.12ZM73.0836 31.84H73.1836V31.74H73.0836V31.84ZM72.5236 31.84H72.4236V31.94H72.5236V31.84ZM72.5236 31.56H72.6236V31.46H72.5236V31.56ZM72.2436 31.56H72.1436V31.66H72.2436V31.56ZM72.2436 31H72.3436V30.9H72.2436V31ZM81.9036 32.4V32.3H81.6236V32.4V32.5H81.9036V32.4ZM81.6236 32.4H81.5236V32.68H81.6236H81.7236V32.4H81.6236ZM81.6236 32.68V32.58H80.4476V32.68V32.78H81.6236V32.68ZM80.4476 32.68H80.5476V32.4H80.4476H80.3476V32.68H80.4476ZM80.4476 32.4V32.3H80.1676V32.4V32.5H80.4476V32.4ZM80.1676 32.4H80.2676V20.78H80.1676H80.0676V32.4H80.1676ZM80.1676 20.78V20.88H80.4476V20.78V20.68H80.1676V20.78ZM80.4476 20.78H80.5476V20.5H80.4476H80.3476V20.78H80.4476ZM80.4476 20.5V20.6H81.6236V20.5V20.4H80.4476V20.5ZM81.6236 20.5H81.5236V20.78H81.6236H81.7236V20.5H81.6236ZM81.6236 20.78V20.88H81.9036V20.78V20.68H81.6236V20.78ZM81.9036 20.78H81.8036V25.386H81.9036H82.0036V20.78H81.9036ZM81.9036 25.386V25.486H83.2336V25.386V25.286H81.9036V25.386ZM83.2336 25.386H83.1336V25.666H83.2336H83.3336V25.386H83.2336ZM83.2336 25.666V25.766H83.5136V25.666V25.566H83.2336V25.666ZM83.5136 25.666H83.4136V26.618H83.5136H83.6136V25.666H83.5136ZM83.5136 26.618V26.518H83.2336V26.618V26.718H83.5136V26.618ZM83.2336 26.618H83.1336V26.898H83.2336H83.3336V26.618H83.2336ZM83.2336 26.898V26.798H81.9036V26.898V26.998H83.2336V26.898ZM81.9036 26.898H81.8036V32.4H81.9036H82.0036V26.898H81.9036ZM76.5276 30.72H76.6276V30.44H76.5276H76.4276V30.72H76.5276ZM76.5276 30.44V30.54H76.8076V30.44V30.34H76.5276V30.44ZM76.8076 30.44H76.9076V22.46H76.8076H76.7076V30.44H76.8076ZM76.8076 22.46V22.36H76.5276V22.46V22.56H76.8076V22.46ZM76.5276 22.46H76.6276V22.18H76.5276H76.4276V22.46H76.5276ZM76.5276 22.18V22.08H73.9236V22.18V22.28H76.5276V22.18ZM73.9236 22.18H73.8236V22.46H73.9236H74.0236V22.18H73.9236ZM73.9236 22.46V22.36H73.6436V22.46V22.56H73.9236V22.46ZM73.6436 22.46H73.5436V30.44H73.6436H73.7436V22.46H73.6436ZM73.6436 30.44V30.54H73.9236V30.44V30.34H73.6436V30.44ZM73.9236 30.44H73.8236V30.72H73.9236H74.0236V30.44H73.9236ZM73.9236 30.72V30.82H76.5276V30.72V30.62H73.9236V30.72ZM71.9636 31H72.0636V21.9H71.9636H71.8636V31H71.9636ZM71.9636 21.9V22H72.2436V21.9V21.8H71.9636V21.9ZM72.2436 21.9H72.3436V21.34H72.2436H72.1436V21.9H72.2436ZM72.2436 21.34V21.44H72.5236V21.34V21.24H72.2436V21.34ZM72.5236 21.34H72.6236V21.06H72.5236H72.4236V21.34H72.5236ZM72.5236 21.06V21.16H73.0836V21.06V20.96H72.5236V21.06ZM73.0836 21.06H73.1836V20.78H73.0836H72.9836V21.06H73.0836ZM73.0836 20.78V20.88H77.3676V20.78V20.68H73.0836V20.78ZM77.3676 20.78H77.2676V21.06H77.3676H77.4676V20.78H77.3676ZM77.3676 21.06V21.16H77.9276V21.06V20.96H77.3676V21.06ZM77.9276 21.06H77.8276V21.34H77.9276H78.0276V21.06H77.9276ZM77.9276 21.34V21.44H78.2076V21.34V21.24H77.9276V21.34ZM78.2076 21.34H78.1076V21.9H78.2076H78.3076V21.34H78.2076ZM78.2076 21.9V22H78.4876V21.9V21.8H78.2076V21.9ZM78.4876 21.9H78.3876V31H78.4876H78.5876V21.9H78.4876ZM78.4876 31V30.9H78.2076V31V31.1H78.4876V31ZM78.2076 31H78.1076V31.56H78.2076H78.3076V31H78.2076ZM78.2076 31.56V31.46H77.9276V31.56V31.66H78.2076V31.56ZM77.9276 31.56H77.8276V31.84H77.9276H78.0276V31.56H77.9276ZM77.9276 31.84V31.74H77.3676V31.84V31.94H77.9276V31.84ZM77.3676 31.84H77.2676V32.12H77.3676H77.4676V31.84H77.3676ZM77.3676 32.12V32.02H73.0836V32.12V32.22H77.3676V32.12ZM73.0836 32.12H73.1836V31.84H73.0836H72.9836V32.12H73.0836ZM73.0836 31.84V31.74H72.5236V31.84V31.94H73.0836V31.84ZM72.5236 31.84H72.6236V31.56H72.5236H72.4236V31.84H72.5236ZM72.5236 31.56V31.46H72.2436V31.56V31.66H72.5236V31.56ZM72.2436 31.56H72.3436V31H72.2436H72.1436V31.56H72.2436ZM72.2436 31V30.9H71.9636V31V31.1H72.2436V31ZM94.3891 32.4V32.5H94.4891V32.4H94.3891ZM94.1091 32.4V32.3H94.0091V32.4H94.1091ZM94.1091 32.68V32.78H94.2091V32.68H94.1091ZM92.9331 32.68H92.8331V32.78H92.9331V32.68ZM92.9331 32.4H93.0331V32.3H92.9331V32.4ZM92.6531 32.4H92.5531V32.5H92.6531V32.4ZM92.6531 20.78V20.68H92.5531V20.78H92.6531ZM92.9331 20.78V20.88H93.0331V20.78H92.9331ZM92.9331 20.5V20.4H92.8331V20.5H92.9331ZM94.1091 20.5H94.2091V20.4H94.1091V20.5ZM94.1091 20.78H94.0091V20.88H94.1091V20.78ZM94.3891 20.78H94.4891V20.68H94.3891V20.78ZM86.3951 32.246H86.2951V32.346H86.3951V32.246ZM86.3951 31.966H86.4951V31.866H86.3951V31.966ZM85.8351 31.966H85.7351V32.066H85.8351V31.966ZM85.8351 31.686H85.9351V31.586H85.8351V31.686ZM85.5551 31.686H85.4551V31.786H85.5551V31.686ZM85.5551 31.406H85.6551V31.306H85.5551V31.406ZM85.2751 31.406H85.1751V31.506H85.2751V31.406ZM85.2751 31.126H85.3751V31.026H85.2751V31.126ZM84.9951 31.126H84.8951V31.226H84.9951V31.126ZM84.9951 30.566H85.0951V30.466H84.9951V30.566ZM84.7151 30.566H84.6151V30.666H84.7151V30.566ZM84.7151 29.726H84.8151V29.626H84.7151V29.726ZM84.4351 29.726H84.3351V29.826H84.4351V29.726ZM84.4351 28.606H84.5351V28.506H84.4351V28.606ZM84.1551 28.606H84.0551V28.706H84.1551V28.606ZM84.1551 24.28V24.18H84.0551V24.28H84.1551ZM84.4351 24.28V24.38H84.5351V24.28H84.4351ZM84.4351 23.16V23.06H84.3351V23.16H84.4351ZM84.7151 23.16V23.26H84.8151V23.16H84.7151ZM84.7151 22.32V22.22H84.6151V22.32H84.7151ZM84.9951 22.32V22.42H85.0951V22.32H84.9951ZM84.9951 21.76V21.66H84.8951V21.76H84.9951ZM85.2751 21.76V21.86H85.3751V21.76H85.2751ZM85.2751 21.48V21.38H85.1751V21.48H85.2751ZM85.5551 21.48V21.58H85.6551V21.48H85.5551ZM85.5551 21.2V21.1H85.4551V21.2H85.5551ZM85.8351 21.2V21.3H85.9351V21.2H85.8351ZM85.8351 20.92V20.82H85.7351V20.92H85.8351ZM86.3951 20.92V21.02H86.4951V20.92H86.3951ZM86.3951 20.64V20.54H86.2951V20.64H86.3951ZM88.7471 20.64H88.8471V20.54H88.7471V20.64ZM88.7471 20.92H88.6471V21.02H88.7471V20.92ZM89.3071 20.92H89.4071V20.82H89.3071V20.92ZM89.3071 21.2H89.2071V21.3H89.3071V21.2ZM89.5871 21.2H89.6871V21.1H89.5871V21.2ZM89.5871 21.48H89.4871V21.58H89.5871V21.48ZM89.8671 21.48H89.9671V21.38H89.8671V21.48ZM89.8671 21.76H89.7671V21.86H89.8671V21.76ZM90.1471 21.76H90.2471V21.66H90.1471V21.76ZM90.1471 22.32H90.0471V22.42H90.1471V22.32ZM90.4271 22.32H90.5271V22.22H90.4271V22.32ZM90.4271 23.16H90.3271V23.26H90.4271V23.16ZM90.7071 23.16H90.8071V23.06H90.7071V23.16ZM90.7071 24.28H90.6071V24.38H90.7071V24.28ZM90.9871 24.28H91.0871V24.18H90.9871V24.28ZM90.9871 28.606V28.706H91.0871V28.606H90.9871ZM90.7071 28.606V28.506H90.6071V28.606H90.7071ZM90.7071 29.726V29.826H90.8071V29.726H90.7071ZM90.4271 29.726V29.626H90.3271V29.726H90.4271ZM90.4271 30.566V30.666H90.5271V30.566H90.4271ZM90.1471 30.566V30.466H90.0471V30.566H90.1471ZM90.1471 31.126V31.226H90.2471V31.126H90.1471ZM89.8671 31.126V31.026H89.7671V31.126H89.8671ZM89.8671 31.406V31.506H89.9671V31.406H89.8671ZM89.5871 31.406V31.306H89.4871V31.406H89.5871ZM89.5871 31.686V31.786H89.6871V31.686H89.5871ZM89.3071 31.686V31.586H89.2071V31.686H89.3071ZM89.3071 31.966V32.066H89.4071V31.966H89.3071ZM88.7471 31.966V31.866H88.6471V31.966H88.7471ZM88.7471 32.246V32.346H88.8471V32.246H88.7471ZM87.2211 30.846H87.1211V30.946H87.2211V30.846ZM87.9211 30.846V30.946H88.0211V30.846H87.9211ZM87.9211 30.566V30.466H87.8211V30.566H87.9211ZM88.4811 30.566V30.666H88.5811V30.566H88.4811ZM88.4811 30.286V30.186H88.3811V30.286H88.4811ZM88.7611 30.286V30.386H88.8611V30.286H88.7611ZM88.7611 29.726V29.626H88.6611V29.726H88.7611ZM89.0411 29.726V29.826H89.1411V29.726H89.0411ZM89.0411 28.606V28.506H88.9411V28.606H89.0411ZM89.3211 28.606V28.706H89.4211V28.606H89.3211ZM89.3211 24.28H89.4211V24.18H89.3211V24.28ZM89.0411 24.28H88.9411V24.38H89.0411V24.28ZM89.0411 23.16H89.1411V23.06H89.0411V23.16ZM88.7611 23.16H88.6611V23.26H88.7611V23.16ZM88.7611 22.6H88.8611V22.5H88.7611V22.6ZM88.4811 22.6H88.3811V22.7H88.4811V22.6ZM88.4811 22.32H88.5811V22.22H88.4811V22.32ZM87.9211 22.32H87.8211V22.42H87.9211V22.32ZM87.9211 22.04H88.0211V21.94H87.9211V22.04ZM87.2211 22.04V21.94H87.1211V22.04H87.2211ZM87.2211 22.32V22.42H87.3211V22.32H87.2211ZM86.6611 22.32V22.22H86.5611V22.32H86.6611ZM86.6611 22.6V22.7H86.7611V22.6H86.6611ZM86.3811 22.6V22.5H86.2811V22.6H86.3811ZM86.3811 23.16V23.26H86.4811V23.16H86.3811ZM86.1011 23.16V23.06H86.0011V23.16H86.1011ZM86.1011 24.28V24.38H86.2011V24.28H86.1011ZM85.8211 24.28V24.18H85.7211V24.28H85.8211ZM85.8211 28.606H85.7211V28.706H85.8211V28.606ZM86.1011 28.606H86.2011V28.506H86.1011V28.606ZM86.1011 29.726H86.0011V29.826H86.1011V29.726ZM86.3811 29.726H86.4811V29.626H86.3811V29.726ZM86.3811 30.286H86.2811V30.386H86.3811V30.286ZM86.6611 30.286H86.7611V30.186H86.6611V30.286ZM86.6611 30.566H86.5611V30.666H86.6611V30.566ZM87.2211 30.566H87.3211V30.466H87.2211V30.566ZM94.3891 32.4V32.3H94.1091V32.4V32.5H94.3891V32.4ZM94.1091 32.4H94.0091V32.68H94.1091H94.2091V32.4H94.1091ZM94.1091 32.68V32.58H92.9331V32.68V32.78H94.1091V32.68ZM92.9331 32.68H93.0331V32.4H92.9331H92.8331V32.68H92.9331ZM92.9331 32.4V32.3H92.6531V32.4V32.5H92.9331V32.4ZM92.6531 32.4H92.7531V20.78H92.6531H92.5531V32.4H92.6531ZM92.6531 20.78V20.88H92.9331V20.78V20.68H92.6531V20.78ZM92.9331 20.78H93.0331V20.5H92.9331H92.8331V20.78H92.9331ZM92.9331 20.5V20.6H94.1091V20.5V20.4H92.9331V20.5ZM94.1091 20.5H94.0091V20.78H94.1091H94.2091V20.5H94.1091ZM94.1091 20.78V20.88H94.3891V20.78V20.68H94.1091V20.78ZM94.3891 20.78H94.2891V32.4H94.3891H94.4891V20.78H94.3891ZM86.3951 32.246H86.4951V31.966H86.3951H86.2951V32.246H86.3951ZM86.3951 31.966V31.866H85.8351V31.966V32.066H86.3951V31.966ZM85.8351 31.966H85.9351V31.686H85.8351H85.7351V31.966H85.8351ZM85.8351 31.686V31.586H85.5551V31.686V31.786H85.8351V31.686ZM85.5551 31.686H85.6551V31.406H85.5551H85.4551V31.686H85.5551ZM85.5551 31.406V31.306H85.2751V31.406V31.506H85.5551V31.406ZM85.2751 31.406H85.3751V31.126H85.2751H85.1751V31.406H85.2751ZM85.2751 31.126V31.026H84.9951V31.126V31.226H85.2751V31.126ZM84.9951 31.126H85.0951V30.566H84.9951H84.8951V31.126H84.9951ZM84.9951 30.566V30.466H84.7151V30.566V30.666H84.9951V30.566ZM84.7151 30.566H84.8151V29.726H84.7151H84.6151V30.566H84.7151ZM84.7151 29.726V29.626H84.4351V29.726V29.826H84.7151V29.726ZM84.4351 29.726H84.5351V28.606H84.4351H84.3351V29.726H84.4351ZM84.4351 28.606V28.506H84.1551V28.606V28.706H84.4351V28.606ZM84.1551 28.606H84.2551V24.28H84.1551H84.0551V28.606H84.1551ZM84.1551 24.28V24.38H84.4351V24.28V24.18H84.1551V24.28ZM84.4351 24.28H84.5351V23.16H84.4351H84.3351V24.28H84.4351ZM84.4351 23.16V23.26H84.7151V23.16V23.06H84.4351V23.16ZM84.7151 23.16H84.8151V22.32H84.7151H84.6151V23.16H84.7151ZM84.7151 22.32V22.42H84.9951V22.32V22.22H84.7151V22.32ZM84.9951 22.32H85.0951V21.76H84.9951H84.8951V22.32H84.9951ZM84.9951 21.76V21.86H85.2751V21.76V21.66H84.9951V21.76ZM85.2751 21.76H85.3751V21.48H85.2751H85.1751V21.76H85.2751ZM85.2751 21.48V21.58H85.5551V21.48V21.38H85.2751V21.48ZM85.5551 21.48H85.6551V21.2H85.5551H85.4551V21.48H85.5551ZM85.5551 21.2V21.3H85.8351V21.2V21.1H85.5551V21.2ZM85.8351 21.2H85.9351V20.92H85.8351H85.7351V21.2H85.8351ZM85.8351 20.92V21.02H86.3951V20.92V20.82H85.8351V20.92ZM86.3951 20.92H86.4951V20.64H86.3951H86.2951V20.92H86.3951ZM86.3951 20.64V20.74H88.7471V20.64V20.54H86.3951V20.64ZM88.7471 20.64H88.6471V20.92H88.7471H88.8471V20.64H88.7471ZM88.7471 20.92V21.02H89.3071V20.92V20.82H88.7471V20.92ZM89.3071 20.92H89.2071V21.2H89.3071H89.4071V20.92H89.3071ZM89.3071 21.2V21.3H89.5871V21.2V21.1H89.3071V21.2ZM89.5871 21.2H89.4871V21.48H89.5871H89.6871V21.2H89.5871ZM89.5871 21.48V21.58H89.8671V21.48V21.38H89.5871V21.48ZM89.8671 21.48H89.7671V21.76H89.8671H89.9671V21.48H89.8671ZM89.8671 21.76V21.86H90.1471V21.76V21.66H89.8671V21.76ZM90.1471 21.76H90.0471V22.32H90.1471H90.2471V21.76H90.1471ZM90.1471 22.32V22.42H90.4271V22.32V22.22H90.1471V22.32ZM90.4271 22.32H90.3271V23.16H90.4271H90.5271V22.32H90.4271ZM90.4271 23.16V23.26H90.7071V23.16V23.06H90.4271V23.16ZM90.7071 23.16H90.6071V24.28H90.7071H90.8071V23.16H90.7071ZM90.7071 24.28V24.38H90.9871V24.28V24.18H90.7071V24.28ZM90.9871 24.28H90.8871V28.606H90.9871H91.0871V24.28H90.9871ZM90.9871 28.606V28.506H90.7071V28.606V28.706H90.9871V28.606ZM90.7071 28.606H90.6071V29.726H90.7071H90.8071V28.606H90.7071ZM90.7071 29.726V29.626H90.4271V29.726V29.826H90.7071V29.726ZM90.4271 29.726H90.3271V30.566H90.4271H90.5271V29.726H90.4271ZM90.4271 30.566V30.466H90.1471V30.566V30.666H90.4271V30.566ZM90.1471 30.566H90.0471V31.126H90.1471H90.2471V30.566H90.1471ZM90.1471 31.126V31.026H89.8671V31.126V31.226H90.1471V31.126ZM89.8671 31.126H89.7671V31.406H89.8671H89.9671V31.126H89.8671ZM89.8671 31.406V31.306H89.5871V31.406V31.506H89.8671V31.406ZM89.5871 31.406H89.4871V31.686H89.5871H89.6871V31.406H89.5871ZM89.5871 31.686V31.586H89.3071V31.686V31.786H89.5871V31.686ZM89.3071 31.686H89.2071V31.966H89.3071H89.4071V31.686H89.3071ZM89.3071 31.966V31.866H88.7471V31.966V32.066H89.3071V31.966ZM88.7471 31.966H88.6471V32.246H88.7471H88.8471V31.966H88.7471ZM88.7471 32.246V32.146H86.3951V32.246V32.346H88.7471V32.246ZM87.2211 30.846V30.946H87.9211V30.846V30.746H87.2211V30.846ZM87.9211 30.846H88.0211V30.566H87.9211H87.8211V30.846H87.9211ZM87.9211 30.566V30.666H88.4811V30.566V30.466H87.9211V30.566ZM88.4811 30.566H88.5811V30.286H88.4811H88.3811V30.566H88.4811ZM88.4811 30.286V30.386H88.7611V30.286V30.186H88.4811V30.286ZM88.7611 30.286H88.8611V29.726H88.7611H88.6611V30.286H88.7611ZM88.7611 29.726V29.826H89.0411V29.726V29.626H88.7611V29.726ZM89.0411 29.726H89.1411V28.606H89.0411H88.9411V29.726H89.0411ZM89.0411 28.606V28.706H89.3211V28.606V28.506H89.0411V28.606ZM89.3211 28.606H89.4211V24.28H89.3211H89.2211V28.606H89.3211ZM89.3211 24.28V24.18H89.0411V24.28V24.38H89.3211V24.28ZM89.0411 24.28H89.1411V23.16H89.0411H88.9411V24.28H89.0411ZM89.0411 23.16V23.06H88.7611V23.16V23.26H89.0411V23.16ZM88.7611 23.16H88.8611V22.6H88.7611H88.6611V23.16H88.7611ZM88.7611 22.6V22.5H88.4811V22.6V22.7H88.7611V22.6ZM88.4811 22.6H88.5811V22.32H88.4811H88.3811V22.6H88.4811ZM88.4811 22.32V22.22H87.9211V22.32V22.42H88.4811V22.32ZM87.9211 22.32H88.0211V22.04H87.9211H87.8211V22.32H87.9211ZM87.9211 22.04V21.94H87.2211V22.04V22.14H87.9211V22.04ZM87.2211 22.04H87.1211V22.32H87.2211H87.3211V22.04H87.2211ZM87.2211 22.32V22.22H86.6611V22.32V22.42H87.2211V22.32ZM86.6611 22.32H86.5611V22.6H86.6611H86.7611V22.32H86.6611ZM86.6611 22.6V22.5H86.3811V22.6V22.7H86.6611V22.6ZM86.3811 22.6H86.2811V23.16H86.3811H86.4811V22.6H86.3811ZM86.3811 23.16V23.06H86.1011V23.16V23.26H86.3811V23.16ZM86.1011 23.16H86.0011V24.28H86.1011H86.2011V23.16H86.1011ZM86.1011 24.28V24.18H85.8211V24.28V24.38H86.1011V24.28ZM85.8211 24.28H85.7211V28.606H85.8211H85.9211V24.28H85.8211ZM85.8211 28.606V28.706H86.1011V28.606V28.506H85.8211V28.606ZM86.1011 28.606H86.0011V29.726H86.1011H86.2011V28.606H86.1011ZM86.1011 29.726V29.826H86.3811V29.726V29.626H86.1011V29.726ZM86.3811 29.726H86.2811V30.286H86.3811H86.4811V29.726H86.3811ZM86.3811 30.286V30.386H86.6611V30.286V30.186H86.3811V30.286ZM86.6611 30.286H86.5611V30.566H86.6611H86.7611V30.286H86.6611ZM86.6611 30.566V30.666H87.2211V30.566V30.466H86.6611V30.566ZM87.2211 30.566H87.1211V30.846H87.2211H87.3211V30.566H87.2211ZM104.859 26.226H104.759V26.326H104.859V26.226ZM104.859 24.588H104.959V24.488H104.859V24.588ZM103.151 24.588H103.051V24.688H103.151V24.588ZM103.151 24.308H103.251V24.208H103.151V24.308ZM102.871 24.308H102.771V24.408H102.871V24.308ZM102.871 23.44V23.34H102.771V23.44H102.871ZM103.151 23.44V23.54H103.251V23.44H103.151ZM103.151 23.16V23.06H103.051V23.16H103.151ZM104.859 23.16V23.26H104.959V23.16H104.859ZM104.859 20.78V20.68H104.759V20.78H104.859ZM105.139 20.78V20.88H105.239V20.78H105.139ZM105.139 20.5V20.4H105.039V20.5H105.139ZM106.315 20.5H106.415V20.4H106.315V20.5ZM106.315 20.78H106.215V20.88H106.315V20.78ZM106.595 20.78H106.695V20.68H106.595V20.78ZM106.595 26.226V26.326H106.695V26.226H106.595ZM106.315 26.226V26.126H106.215V26.226H106.315ZM106.315 26.506V26.606H106.415V26.506H106.315ZM105.139 26.506H105.039V26.606H105.139V26.506ZM105.139 26.226H105.239V26.126H105.139V26.226ZM104.887 28.55H104.987V28.45H104.887V28.55ZM104.607 28.55H104.507V28.65H104.607V28.55ZM104.607 28.27H104.707V28.17H104.607V28.27ZM97.4805 28.27H97.3805V28.37H97.4805V28.27ZM97.4805 27.99H97.5805V27.89H97.4805V27.99ZM97.2005 27.99H97.1005V28.09H97.2005V27.99ZM97.2005 27.248V27.148H97.1005V27.248H97.2005ZM97.4805 27.248V27.348H97.5805V27.248H97.4805ZM97.4805 26.968V26.868H97.3805V26.968H97.4805ZM105.475 26.968H105.575V26.868H105.475V26.968ZM105.475 27.248H105.375V27.348H105.475V27.248ZM106.035 27.248H106.135V27.148H106.035V27.248ZM106.035 27.528H105.935V27.628H106.035V27.528ZM106.315 27.528H106.415V27.428H106.315V27.528ZM106.315 28.088H106.215V28.188H106.315V28.088ZM106.595 28.088H106.695V27.988H106.595V28.088ZM106.595 29.32V29.42H106.695V29.32H106.595ZM106.315 29.32V29.22H106.215V29.32H106.315ZM106.315 29.88V29.98H106.415V29.88H106.315ZM106.035 29.88V29.78H105.935V29.88H106.035ZM106.035 30.16V30.26H106.135V30.16H106.035ZM105.475 30.16V30.06H105.375V30.16H105.475ZM105.475 30.44V30.54H105.575V30.44H105.475ZM99.1885 30.44V30.34H99.0885V30.44H99.1885ZM99.1885 30.72V30.82H99.2885V30.72H99.1885ZM98.9085 30.72V30.62H98.8085V30.72H98.9085ZM98.9085 31.112H98.8085V31.212H98.9085V31.112ZM99.1885 31.112H99.2885V31.012H99.1885V31.112ZM99.1885 31.392H99.0885V31.492H99.1885V31.392ZM106.469 31.392H106.569V31.292H106.469V31.392ZM106.469 31.672H106.369V31.772H106.469V31.672ZM106.749 31.672H106.849V31.572H106.749V31.672ZM106.749 32.456V32.556H106.849V32.456H106.749ZM106.469 32.456V32.356H106.369V32.456H106.469ZM106.469 32.736V32.836H106.569V32.736H106.469ZM98.3205 32.736H98.2205V32.836H98.3205V32.736ZM98.3205 32.456H98.4205V32.356H98.3205V32.456ZM97.7605 32.456H97.6605V32.556H97.7605V32.456ZM97.7605 32.176H97.8605V32.076H97.7605V32.176ZM97.4805 32.176H97.3805V32.276H97.4805V32.176ZM97.4805 31.616H97.5805V31.516H97.4805V31.616ZM97.2005 31.616H97.1005V31.716H97.2005V31.616ZM97.2005 30.328V30.228H97.1005V30.328H97.2005ZM97.4805 30.328V30.428H97.5805V30.328H97.4805ZM97.4805 29.768V29.668H97.3805V29.768H97.4805ZM97.7605 29.768V29.868H97.8605V29.768H97.7605ZM97.7605 29.488V29.388H97.6605V29.488H97.7605ZM98.3205 29.488V29.588H98.4205V29.488H98.3205ZM98.3205 29.208V29.108H98.2205V29.208H98.3205ZM104.607 29.208V29.308H104.707V29.208H104.607ZM104.607 28.928V28.828H104.507V28.928H104.607ZM104.887 28.928V29.028H104.987V28.928H104.887ZM96.4725 26.604H96.3725V26.704H96.4725V26.604ZM96.4725 26.324H96.5725V26.224H96.4725V26.324ZM96.1925 26.324H96.0925V26.424H96.1925V26.324ZM96.1925 25.442V25.342H96.0925V25.442H96.1925ZM96.4725 25.442V25.542H96.5725V25.442H96.4725ZM96.4725 25.162V25.062H96.3725V25.162H96.4725ZM97.3685 25.162V25.262H97.4685V25.162H97.3685ZM97.3685 24.882V24.782H97.2685V24.882H97.3685ZM98.2085 24.882V24.982H98.3085V24.882H98.2085ZM98.2085 24.602V24.502H98.1085V24.602H98.2085ZM98.7685 24.602V24.702H98.8685V24.602H98.7685ZM98.7685 24.322V24.222H98.6685V24.322H98.7685ZM99.3285 24.322V24.422H99.4285V24.322H99.3285ZM99.3285 24.042V23.942H99.2285V24.042H99.3285ZM99.8885 24.042V24.142H99.9885V24.042H99.8885ZM99.8885 23.762V23.662H99.7885V23.762H99.8885ZM100.169 23.762V23.862H100.269V23.762H100.169ZM100.169 23.482V23.382H100.069V23.482H100.169ZM100.449 23.482V23.582H100.549V23.482H100.449ZM100.449 23.202V23.102H100.349V23.202H100.449ZM100.729 23.202V23.302H100.829V23.202H100.729ZM100.729 22.908V22.808H100.629V22.908H100.729ZM101.009 22.908V23.008H101.109V22.908H101.009ZM101.009 22.46H101.109V22.36H101.009V22.46ZM100.729 22.46H100.629V22.56H100.729V22.46ZM100.729 22.18H100.829V22.08H100.729V22.18ZM96.7245 22.18H96.6245V22.28H96.7245V22.18ZM96.7245 21.9H96.8245V21.8H96.7245V21.9ZM96.4445 21.9H96.3445V22H96.4445V21.9ZM96.4445 21.06V20.96H96.3445V21.06H96.4445ZM96.7245 21.06V21.16H96.8245V21.06H96.7245ZM96.7245 20.78V20.68H96.6245V20.78H96.7245ZM101.569 20.78H101.669V20.68H101.569V20.78ZM101.569 21.06H101.469V21.16H101.569V21.06ZM102.129 21.06H102.229V20.96H102.129V21.06ZM102.129 21.34H102.029V21.44H102.129V21.34ZM102.409 21.34H102.509V21.24H102.409V21.34ZM102.409 21.62H102.309V21.72H102.409V21.62ZM102.689 21.62H102.789V21.52H102.689V21.62ZM102.689 23.216V23.316H102.789V23.216H102.689ZM102.409 23.216V23.116H102.309V23.216H102.409ZM102.409 23.79V23.89H102.509V23.79H102.409ZM102.129 23.79V23.69H102.029V23.79H102.129ZM102.129 24.084V24.184H102.229V24.084H102.129ZM101.849 24.084V23.984H101.749V24.084H101.849ZM101.849 24.364V24.464H101.949V24.364H101.849ZM101.569 24.364V24.264H101.469V24.364H101.569ZM101.569 24.644V24.744H101.669V24.644H101.569ZM101.289 24.644V24.544H101.189V24.644H101.289ZM101.289 24.924V25.024H101.389V24.924H101.289ZM100.869 24.924V24.824H100.769V24.924H100.869ZM100.869 25.204V25.304H100.969V25.204H100.869ZM100.449 25.204V25.104H100.349V25.204H100.449ZM100.449 25.484V25.584H100.549V25.484H100.449ZM99.8885 25.484V25.384H99.7885V25.484H99.8885ZM99.8885 25.764V25.864H99.9885V25.764H99.8885ZM99.1885 25.764V25.664H99.0885V25.764H99.1885ZM99.1885 26.044V26.144H99.2885V26.044H99.1885ZM98.4885 26.044V25.944H98.3885V26.044H98.4885ZM98.4885 26.324V26.424H98.5885V26.324H98.4885ZM97.6485 26.324V26.224H97.5485V26.324H97.6485ZM97.6485 26.604V26.704H97.7485V26.604H97.6485ZM104.859 26.226H104.959V24.588H104.859H104.759V26.226H104.859ZM104.859 24.588V24.488H103.151V24.588V24.688H104.859V24.588ZM103.151 24.588H103.251V24.308H103.151H103.051V24.588H103.151ZM103.151 24.308V24.208H102.871V24.308V24.408H103.151V24.308ZM102.871 24.308H102.971V23.44H102.871H102.771V24.308H102.871ZM102.871 23.44V23.54H103.151V23.44V23.34H102.871V23.44ZM103.151 23.44H103.251V23.16H103.151H103.051V23.44H103.151ZM103.151 23.16V23.26H104.859V23.16V23.06H103.151V23.16ZM104.859 23.16H104.959V20.78H104.859H104.759V23.16H104.859ZM104.859 20.78V20.88H105.139V20.78V20.68H104.859V20.78ZM105.139 20.78H105.239V20.5H105.139H105.039V20.78H105.139ZM105.139 20.5V20.6H106.315V20.5V20.4H105.139V20.5ZM106.315 20.5H106.215V20.78H106.315H106.415V20.5H106.315ZM106.315 20.78V20.88H106.595V20.78V20.68H106.315V20.78ZM106.595 20.78H106.495V26.226H106.595H106.695V20.78H106.595ZM106.595 26.226V26.126H106.315V26.226V26.326H106.595V26.226ZM106.315 26.226H106.215V26.506H106.315H106.415V26.226H106.315ZM106.315 26.506V26.406H105.139V26.506V26.606H106.315V26.506ZM105.139 26.506H105.239V26.226H105.139H105.039V26.506H105.139ZM105.139 26.226V26.126H104.859V26.226V26.326H105.139V26.226ZM104.887 28.55V28.45H104.607V28.55V28.65H104.887V28.55ZM104.607 28.55H104.707V28.27H104.607H104.507V28.55H104.607ZM104.607 28.27V28.17H97.4805V28.27V28.37H104.607V28.27ZM97.4805 28.27H97.5805V27.99H97.4805H97.3805V28.27H97.4805ZM97.4805 27.99V27.89H97.2005V27.99V28.09H97.4805V27.99ZM97.2005 27.99H97.3005V27.248H97.2005H97.1005V27.99H97.2005ZM97.2005 27.248V27.348H97.4805V27.248V27.148H97.2005V27.248ZM97.4805 27.248H97.5805V26.968H97.4805H97.3805V27.248H97.4805ZM97.4805 26.968V27.068H105.475V26.968V26.868H97.4805V26.968ZM105.475 26.968H105.375V27.248H105.475H105.575V26.968H105.475ZM105.475 27.248V27.348H106.035V27.248V27.148H105.475V27.248ZM106.035 27.248H105.935V27.528H106.035H106.135V27.248H106.035ZM106.035 27.528V27.628H106.315V27.528V27.428H106.035V27.528ZM106.315 27.528H106.215V28.088H106.315H106.415V27.528H106.315ZM106.315 28.088V28.188H106.595V28.088V27.988H106.315V28.088ZM106.595 28.088H106.495V29.32H106.595H106.695V28.088H106.595ZM106.595 29.32V29.22H106.315V29.32V29.42H106.595V29.32ZM106.315 29.32H106.215V29.88H106.315H106.415V29.32H106.315ZM106.315 29.88V29.78H106.035V29.88V29.98H106.315V29.88ZM106.035 29.88H105.935V30.16H106.035H106.135V29.88H106.035ZM106.035 30.16V30.06H105.475V30.16V30.26H106.035V30.16ZM105.475 30.16H105.375V30.44H105.475H105.575V30.16H105.475ZM105.475 30.44V30.34H99.1885V30.44V30.54H105.475V30.44ZM99.1885 30.44H99.0885V30.72H99.1885H99.2885V30.44H99.1885ZM99.1885 30.72V30.62H98.9085V30.72V30.82H99.1885V30.72ZM98.9085 30.72H98.8085V31.112H98.9085H99.0085V30.72H98.9085ZM98.9085 31.112V31.212H99.1885V31.112V31.012H98.9085V31.112ZM99.1885 31.112H99.0885V31.392H99.1885H99.2885V31.112H99.1885ZM99.1885 31.392V31.492H106.469V31.392V31.292H99.1885V31.392ZM106.469 31.392H106.369V31.672H106.469H106.569V31.392H106.469ZM106.469 31.672V31.772H106.749V31.672V31.572H106.469V31.672ZM106.749 31.672H106.649V32.456H106.749H106.849V31.672H106.749ZM106.749 32.456V32.356H106.469V32.456V32.556H106.749V32.456ZM106.469 32.456H106.369V32.736H106.469H106.569V32.456H106.469ZM106.469 32.736V32.636H98.3205V32.736V32.836H106.469V32.736ZM98.3205 32.736H98.4205V32.456H98.3205H98.2205V32.736H98.3205ZM98.3205 32.456V32.356H97.7605V32.456V32.556H98.3205V32.456ZM97.7605 32.456H97.8605V32.176H97.7605H97.6605V32.456H97.7605ZM97.7605 32.176V32.076H97.4805V32.176V32.276H97.7605V32.176ZM97.4805 32.176H97.5805V31.616H97.4805H97.3805V32.176H97.4805ZM97.4805 31.616V31.516H97.2005V31.616V31.716H97.4805V31.616ZM97.2005 31.616H97.3005V30.328H97.2005H97.1005V31.616H97.2005ZM97.2005 30.328V30.428H97.4805V30.328V30.228H97.2005V30.328ZM97.4805 30.328H97.5805V29.768H97.4805H97.3805V30.328H97.4805ZM97.4805 29.768V29.868H97.7605V29.768V29.668H97.4805V29.768ZM97.7605 29.768H97.8605V29.488H97.7605H97.6605V29.768H97.7605ZM97.7605 29.488V29.588H98.3205V29.488V29.388H97.7605V29.488ZM98.3205 29.488H98.4205V29.208H98.3205H98.2205V29.488H98.3205ZM98.3205 29.208V29.308H104.607V29.208V29.108H98.3205V29.208ZM104.607 29.208H104.707V28.928H104.607H104.507V29.208H104.607ZM104.607 28.928V29.028H104.887V28.928V28.828H104.607V28.928ZM104.887 28.928H104.987V28.55H104.887H104.787V28.928H104.887ZM96.4725 26.604H96.5725V26.324H96.4725H96.3725V26.604H96.4725ZM96.4725 26.324V26.224H96.1925V26.324V26.424H96.4725V26.324ZM96.1925 26.324H96.2925V25.442H96.1925H96.0925V26.324H96.1925ZM96.1925 25.442V25.542H96.4725V25.442V25.342H96.1925V25.442ZM96.4725 25.442H96.5725V25.162H96.4725H96.3725V25.442H96.4725ZM96.4725 25.162V25.262H97.3685V25.162V25.062H96.4725V25.162ZM97.3685 25.162H97.4685V24.882H97.3685H97.2685V25.162H97.3685ZM97.3685 24.882V24.982H98.2085V24.882V24.782H97.3685V24.882ZM98.2085 24.882H98.3085V24.602H98.2085H98.1085V24.882H98.2085ZM98.2085 24.602V24.702H98.7685V24.602V24.502H98.2085V24.602ZM98.7685 24.602H98.8685V24.322H98.7685H98.6685V24.602H98.7685ZM98.7685 24.322V24.422H99.3285V24.322V24.222H98.7685V24.322ZM99.3285 24.322H99.4285V24.042H99.3285H99.2285V24.322H99.3285ZM99.3285 24.042V24.142H99.8885V24.042V23.942H99.3285V24.042ZM99.8885 24.042H99.9885V23.762H99.8885H99.7885V24.042H99.8885ZM99.8885 23.762V23.862H100.169V23.762V23.662H99.8885V23.762ZM100.169 23.762H100.269V23.482H100.169H100.069V23.762H100.169ZM100.169 23.482V23.582H100.449V23.482V23.382H100.169V23.482ZM100.449 23.482H100.549V23.202H100.449H100.349V23.482H100.449ZM100.449 23.202V23.302H100.729V23.202V23.102H100.449V23.202ZM100.729 23.202H100.829V22.908H100.729H100.629V23.202H100.729ZM100.729 22.908V23.008H101.009V22.908V22.808H100.729V22.908ZM101.009 22.908H101.109V22.46H101.009H100.909V22.908H101.009ZM101.009 22.46V22.36H100.729V22.46V22.56H101.009V22.46ZM100.729 22.46H100.829V22.18H100.729H100.629V22.46H100.729ZM100.729 22.18V22.08H96.7245V22.18V22.28H100.729V22.18ZM96.7245 22.18H96.8245V21.9H96.7245H96.6245V22.18H96.7245ZM96.7245 21.9V21.8H96.4445V21.9V22H96.7245V21.9ZM96.4445 21.9H96.5445V21.06H96.4445H96.3445V21.9H96.4445ZM96.4445 21.06V21.16H96.7245V21.06V20.96H96.4445V21.06ZM96.7245 21.06H96.8245V20.78H96.7245H96.6245V21.06H96.7245ZM96.7245 20.78V20.88H101.569V20.78V20.68H96.7245V20.78ZM101.569 20.78H101.469V21.06H101.569H101.669V20.78H101.569ZM101.569 21.06V21.16H102.129V21.06V20.96H101.569V21.06ZM102.129 21.06H102.029V21.34H102.129H102.229V21.06H102.129ZM102.129 21.34V21.44H102.409V21.34V21.24H102.129V21.34ZM102.409 21.34H102.309V21.62H102.409H102.509V21.34H102.409ZM102.409 21.62V21.72H102.689V21.62V21.52H102.409V21.62ZM102.689 21.62H102.589V23.216H102.689H102.789V21.62H102.689ZM102.689 23.216V23.116H102.409V23.216V23.316H102.689V23.216ZM102.409 23.216H102.309V23.79H102.409H102.509V23.216H102.409ZM102.409 23.79V23.69H102.129V23.79V23.89H102.409V23.79ZM102.129 23.79H102.029V24.084H102.129H102.229V23.79H102.129ZM102.129 24.084V23.984H101.849V24.084V24.184H102.129V24.084ZM101.849 24.084H101.749V24.364H101.849H101.949V24.084H101.849ZM101.849 24.364V24.264H101.569V24.364V24.464H101.849V24.364ZM101.569 24.364H101.469V24.644H101.569H101.669V24.364H101.569ZM101.569 24.644V24.544H101.289V24.644V24.744H101.569V24.644ZM101.289 24.644H101.189V24.924H101.289H101.389V24.644H101.289ZM101.289 24.924V24.824H100.869V24.924V25.024H101.289V24.924ZM100.869 24.924H100.769V25.204H100.869H100.969V24.924H100.869ZM100.869 25.204V25.104H100.449V25.204V25.304H100.869V25.204ZM100.449 25.204H100.349V25.484H100.449H100.549V25.204H100.449ZM100.449 25.484V25.384H99.8885V25.484V25.584H100.449V25.484ZM99.8885 25.484H99.7885V25.764H99.8885H99.9885V25.484H99.8885ZM99.8885 25.764V25.664H99.1885V25.764V25.864H99.8885V25.764ZM99.1885 25.764H99.0885V26.044H99.1885H99.2885V25.764H99.1885ZM99.1885 26.044V25.944H98.4885V26.044V26.144H99.1885V26.044ZM98.4885 26.044H98.3885V26.324H98.4885H98.5885V26.044H98.4885ZM98.4885 26.324V26.224H97.6485V26.324V26.424H98.4885V26.324ZM97.6485 26.324H97.5485V26.604H97.6485H97.7485V26.324H97.6485ZM97.6485 26.604V26.504H96.4725V26.604V26.704H97.6485V26.604Z" fill="#007495"/>
<path d="M50.3652 38.3672L50.3643 38.3789C50.3512 38.9163 50.2036 39.4419 49.9346 39.9072C49.7191 40.2798 49.4317 40.6044 49.0898 40.8623C49.0043 40.9268 48.9617 40.9682 48.9395 40.9951C48.0848 42.033 47.007 42.8665 45.7852 43.4326C44.4931 44.0313 43.077 44.3128 41.6543 44.2559C37.043 44.2447 33.0832 41.2376 33.083 37.0078C33.083 32.7702 37.0575 29.7579 41.6797 29.7578C42.2781 29.744 42.8755 29.783 43.4648 29.873C43.5968 29.8932 43.7342 29.8544 43.832 29.7803C43.9231 29.7111 43.9482 29.6393 43.9482 29.5791V21.9697C43.948 21.8297 43.8076 21.7331 43.6768 21.7832L28.4102 27.6416C28.3328 27.6713 28.2812 27.7463 28.2812 27.8291V42.7959C28.2681 43.3331 28.1206 43.859 27.8516 44.3242C27.636 44.6968 27.3478 45.0214 27.0059 45.2793C26.9205 45.3437 26.8786 45.3852 26.8564 45.4121C26.0018 46.4501 24.9231 47.2835 23.7012 47.8496C22.4111 48.4473 20.9976 48.7287 19.5771 48.6729C14.9631 48.6644 11 45.6556 11 41.4238C11.0003 37.1935 14.961 34.185 19.5732 34.1748C20.1507 34.1615 20.7275 34.1969 21.2969 34.2803C21.4285 34.2996 21.5654 34.2614 21.6621 34.1875C21.7521 34.1187 21.7764 34.0473 21.7764 33.9873V17.0127C21.7822 16.3758 21.978 15.755 22.3379 15.2295C22.6528 14.7696 23.0814 14.4011 23.5801 14.1582L23.7979 14.0615L45.8799 5.22852H45.8809C46.3666 5.03478 46.8922 4.9627 47.4121 5.01855C47.932 5.07446 48.4308 5.25631 48.8643 5.54883L48.8633 5.5498C49.3003 5.82426 49.6658 6.19878 49.9268 6.64453C50.1955 7.10374 50.3459 7.62251 50.3643 8.1543L50.3652 8.17188V38.3672Z" fill="#FE96FF" stroke="white" stroke-width="2" stroke-miterlimit="2.3662"/>
</g>
<defs>
<filter id="filter0_dd_1098_7071" x="0" y="0" width="185" height="60" filterUnits="userSpaceOnUse" color-interpolation-filters="sRGB">
<feFlood flood-opacity="0" result="BackgroundImageFix"/>
<feColorMatrix in="SourceAlpha" type="matrix" values="0 0 0 0 0 0 0 0 0 0 0 0 0 0 0 0 0 0 127 0" result="hardAlpha"/>
<feOffset dx="-2" dy="4"/>
<feGaussianBlur stdDeviation="1"/>
<feComposite in2="hardAlpha" operator="out"/>
<feColorMatrix type="matrix" values="0 0 0 0 0.109804 0 0 0 0 0.792157 0 0 0 0 0.984314 0 0 0 0.6 0"/>
<feBlend mode="normal" in2="BackgroundImageFix" result="effect1_dropShadow_1098_7071"/>
<feColorMatrix in="SourceAlpha" type="matrix" values="0 0 0 0 0 0 0 0 0 0 0 0 0 0 0 0 0 0 127 0" result="hardAlpha"/>
<feOffset dx="-2" dy="4"/>
<feGaussianBlur stdDeviation="1"/>
<feComposite in2="hardAlpha" operator="out"/>
<feColorMatrix type="matrix" values="0 0 0 0 0 0 0 0 0 0 0 0 0 0 0 0 0 0 0.1 0"/>
<feBlend mode="normal" in2="effect1_dropShadow_1098_7071" result="effect2_dropShadow_1098_7071"/>
<feBlend mode="normal" in="SourceGraphic" in2="effect2_dropShadow_1098_7071" result="shape"/>
</filter>
</defs>
</svg>
